  0
SECTION
  2
HEADER
  9
$ANGBASE
  50
0.0
  9
$ANGDIR
  70
1
  9
$MEASUREMENT
  70
1
  0
ENDSEC
  0
SECTION
  2
TABLES
  0
TABLE
  2
LTYPE
  70
4
  0
LTYPE
  5
40F
  2
CONTINUOUS
  70
0
  3
Solid line
  72
65
  73
0
  40
0.0
  0
LTYPE
  5
410
  2
DASHDOT
 70
0
  3
Dash Dot ____ _ ____ _
 72
65
 73
4
 40
2.0
 49
1.25
 49
-0.25
 49
0.25
 49
-0.25
  0
LTYPE
  5
411
  2
DASHED
 70
0
  3
Dashed __ __ __ __ __
 72
65
 73
2
 40
0.75
 49
0.5
 49
-0.25
  0
LTYPE
  5
43B
  2
DOTTED
 70
0
  3
Dotted .  .  .  .
 72
65
 73
2
 40
0.2
 49
0.0
 49
-0.2
  0
ENDTAB
  0
TABLE
  2
STYLE
  70
4
  0
STYLE
  2
KICAD
  70
0
  40
0
  41
1
  42
1
  50
0
  71
0
  3
isocp.shx
  0
STYLE
  2
KICADB
  70
0
  40
0
  41
1
  42
1
  50
0
  71
0
  3
isocp.shx
  0
STYLE
  2
KICADI
  70
0
  40
0
  41
1
  42
1
  50
15
  71
0
  3
isocp.shx
  0
STYLE
  2
KICADBI
  70
0
  40
0
  41
1
  42
1
  50
15
  71
0
  3
isocp.shx
  0
ENDTAB
  0
TABLE
  2
LAYER
  70
1
  0
LAYER
  2
BLACK
  70
0
  62
7
  6
CONTINUOUS
  0
ENDTAB
  0
ENDSEC
  0
SECTION
  2
ENTITIES
0
LINE
8
BLACK
6
CONTINUOUS
10
172.345
20
-74.1919
11
172.511
21
-74.2422
0
LINE
8
BLACK
6
CONTINUOUS
10
172.511
20
-74.2422
11
172.661
21
-74.3295
0
LINE
8
BLACK
6
CONTINUOUS
10
172.661
20
-74.3295
11
172.787
21
-74.4489
0
LINE
8
BLACK
6
CONTINUOUS
10
172.787
20
-74.4489
11
172.883
21
-74.5942
0
LINE
8
BLACK
6
CONTINUOUS
10
172.883
20
-74.5942
11
172.942
21
-74.7575
0
LINE
8
BLACK
6
CONTINUOUS
10
172.942
20
-74.7575
11
172.962
21
-74.93
0
LINE
8
BLACK
6
CONTINUOUS
10
172.962
20
-74.93
11
172.962
21
-75.93
0
LINE
8
BLACK
6
CONTINUOUS
10
172.962
20
-75.93
11
172.956
21
-76.0227
0
LINE
8
BLACK
6
CONTINUOUS
10
172.956
20
-76.0227
11
172.915
21
-76.1914
0
LINE
8
BLACK
6
CONTINUOUS
10
172.915
20
-76.1914
11
172.836
21
-76.3461
0
LINE
8
BLACK
6
CONTINUOUS
10
172.836
20
-76.3461
11
172.723
21
-76.4785
0
LINE
8
BLACK
6
CONTINUOUS
10
172.723
20
-76.4785
11
172.584
21
-76.5815
0
LINE
8
BLACK
6
CONTINUOUS
10
172.584
20
-76.5815
11
172.424
21
-76.6495
0
LINE
8
BLACK
6
CONTINUOUS
10
172.424
20
-76.6495
11
172.253
21
-76.6789
0
LINE
8
BLACK
6
CONTINUOUS
10
172.253
20
-76.6789
11
172.079
21
-76.6681
0
LINE
8
BLACK
6
CONTINUOUS
10
172.079
20
-76.6681
11
171.913
21
-76.6178
0
LINE
8
BLACK
6
CONTINUOUS
10
171.913
20
-76.6178
11
171.763
21
-76.5305
0
LINE
8
BLACK
6
CONTINUOUS
10
171.763
20
-76.5305
11
171.637
21
-76.4111
0
LINE
8
BLACK
6
CONTINUOUS
10
171.637
20
-76.4111
11
171.541
21
-76.2658
0
LINE
8
BLACK
6
CONTINUOUS
10
171.541
20
-76.2658
11
171.482
21
-76.1025
0
LINE
8
BLACK
6
CONTINUOUS
10
171.482
20
-76.1025
11
171.462
21
-75.93
0
LINE
8
BLACK
6
CONTINUOUS
10
171.462
20
-75.93
11
171.462
21
-74.93
0
LINE
8
BLACK
6
CONTINUOUS
10
171.462
20
-74.93
11
171.468
21
-74.8373
0
LINE
8
BLACK
6
CONTINUOUS
10
171.468
20
-74.8373
11
171.509
21
-74.6686
0
LINE
8
BLACK
6
CONTINUOUS
10
171.509
20
-74.6686
11
171.588
21
-74.5139
0
LINE
8
BLACK
6
CONTINUOUS
10
171.588
20
-74.5139
11
171.701
21
-74.3815
0
LINE
8
BLACK
6
CONTINUOUS
10
171.701
20
-74.3815
11
171.84
21
-74.2785
0
LINE
8
BLACK
6
CONTINUOUS
10
171.84
20
-74.2785
11
172
21
-74.2105
0
LINE
8
BLACK
6
CONTINUOUS
10
172
20
-74.2105
11
172.171
21
-74.1811
0
LINE
8
BLACK
6
CONTINUOUS
10
172.171
20
-74.1811
11
172.345
21
-74.1919
0
LINE
8
BLACK
6
CONTINUOUS
10
169.805
20
-74.1919
11
169.971
21
-74.2422
0
LINE
8
BLACK
6
CONTINUOUS
10
169.971
20
-74.2422
11
170.121
21
-74.3295
0
LINE
8
BLACK
6
CONTINUOUS
10
170.121
20
-74.3295
11
170.247
21
-74.4489
0
LINE
8
BLACK
6
CONTINUOUS
10
170.247
20
-74.4489
11
170.343
21
-74.5942
0
LINE
8
BLACK
6
CONTINUOUS
10
170.343
20
-74.5942
11
170.402
21
-74.7575
0
LINE
8
BLACK
6
CONTINUOUS
10
170.402
20
-74.7575
11
170.422
21
-74.93
0
LINE
8
BLACK
6
CONTINUOUS
10
170.422
20
-74.93
11
170.422
21
-75.93
0
LINE
8
BLACK
6
CONTINUOUS
10
170.422
20
-75.93
11
170.416
21
-76.0227
0
LINE
8
BLACK
6
CONTINUOUS
10
170.416
20
-76.0227
11
170.375
21
-76.1914
0
LINE
8
BLACK
6
CONTINUOUS
10
170.375
20
-76.1914
11
170.296
21
-76.3461
0
LINE
8
BLACK
6
CONTINUOUS
10
170.296
20
-76.3461
11
170.183
21
-76.4785
0
LINE
8
BLACK
6
CONTINUOUS
10
170.183
20
-76.4785
11
170.044
21
-76.5815
0
LINE
8
BLACK
6
CONTINUOUS
10
170.044
20
-76.5815
11
169.884
21
-76.6495
0
LINE
8
BLACK
6
CONTINUOUS
10
169.884
20
-76.6495
11
169.713
21
-76.6789
0
LINE
8
BLACK
6
CONTINUOUS
10
169.713
20
-76.6789
11
169.539
21
-76.6681
0
LINE
8
BLACK
6
CONTINUOUS
10
169.539
20
-76.6681
11
169.373
21
-76.6178
0
LINE
8
BLACK
6
CONTINUOUS
10
169.373
20
-76.6178
11
169.223
21
-76.5305
0
LINE
8
BLACK
6
CONTINUOUS
10
169.223
20
-76.5305
11
169.097
21
-76.4111
0
LINE
8
BLACK
6
CONTINUOUS
10
169.097
20
-76.4111
11
169.001
21
-76.2658
0
LINE
8
BLACK
6
CONTINUOUS
10
169.001
20
-76.2658
11
168.942
21
-76.1025
0
LINE
8
BLACK
6
CONTINUOUS
10
168.942
20
-76.1025
11
168.922
21
-75.93
0
LINE
8
BLACK
6
CONTINUOUS
10
168.922
20
-75.93
11
168.922
21
-74.93
0
LINE
8
BLACK
6
CONTINUOUS
10
168.922
20
-74.93
11
168.928
21
-74.8373
0
LINE
8
BLACK
6
CONTINUOUS
10
168.928
20
-74.8373
11
168.969
21
-74.6686
0
LINE
8
BLACK
6
CONTINUOUS
10
168.969
20
-74.6686
11
169.048
21
-74.5139
0
LINE
8
BLACK
6
CONTINUOUS
10
169.048
20
-74.5139
11
169.161
21
-74.3815
0
LINE
8
BLACK
6
CONTINUOUS
10
169.161
20
-74.3815
11
169.3
21
-74.2785
0
LINE
8
BLACK
6
CONTINUOUS
10
169.3
20
-74.2785
11
169.46
21
-74.2105
0
LINE
8
BLACK
6
CONTINUOUS
10
169.46
20
-74.2105
11
169.631
21
-74.1811
0
LINE
8
BLACK
6
CONTINUOUS
10
169.631
20
-74.1811
11
169.805
21
-74.1919
0
LINE
8
BLACK
6
CONTINUOUS
10
167.265
20
-74.1919
11
167.431
21
-74.2422
0
LINE
8
BLACK
6
CONTINUOUS
10
167.431
20
-74.2422
11
167.581
21
-74.3295
0
LINE
8
BLACK
6
CONTINUOUS
10
167.581
20
-74.3295
11
167.707
21
-74.4489
0
LINE
8
BLACK
6
CONTINUOUS
10
167.707
20
-74.4489
11
167.803
21
-74.5942
0
LINE
8
BLACK
6
CONTINUOUS
10
167.803
20
-74.5942
11
167.862
21
-74.7575
0
LINE
8
BLACK
6
CONTINUOUS
10
167.862
20
-74.7575
11
167.882
21
-74.93
0
LINE
8
BLACK
6
CONTINUOUS
10
167.882
20
-74.93
11
167.882
21
-75.93
0
LINE
8
BLACK
6
CONTINUOUS
10
167.882
20
-75.93
11
167.876
21
-76.0227
0
LINE
8
BLACK
6
CONTINUOUS
10
167.876
20
-76.0227
11
167.835
21
-76.1914
0
LINE
8
BLACK
6
CONTINUOUS
10
167.835
20
-76.1914
11
167.756
21
-76.3461
0
LINE
8
BLACK
6
CONTINUOUS
10
167.756
20
-76.3461
11
167.643
21
-76.4785
0
LINE
8
BLACK
6
CONTINUOUS
10
167.643
20
-76.4785
11
167.504
21
-76.5815
0
LINE
8
BLACK
6
CONTINUOUS
10
167.504
20
-76.5815
11
167.344
21
-76.6495
0
LINE
8
BLACK
6
CONTINUOUS
10
167.344
20
-76.6495
11
167.173
21
-76.6789
0
LINE
8
BLACK
6
CONTINUOUS
10
167.173
20
-76.6789
11
166.999
21
-76.6681
0
LINE
8
BLACK
6
CONTINUOUS
10
166.999
20
-76.6681
11
166.833
21
-76.6178
0
LINE
8
BLACK
6
CONTINUOUS
10
166.833
20
-76.6178
11
166.683
21
-76.5305
0
LINE
8
BLACK
6
CONTINUOUS
10
166.683
20
-76.5305
11
166.557
21
-76.4111
0
LINE
8
BLACK
6
CONTINUOUS
10
166.557
20
-76.4111
11
166.461
21
-76.2658
0
LINE
8
BLACK
6
CONTINUOUS
10
166.461
20
-76.2658
11
166.402
21
-76.1025
0
LINE
8
BLACK
6
CONTINUOUS
10
166.402
20
-76.1025
11
166.382
21
-75.93
0
LINE
8
BLACK
6
CONTINUOUS
10
166.382
20
-75.93
11
166.382
21
-74.93
0
LINE
8
BLACK
6
CONTINUOUS
10
166.382
20
-74.93
11
166.388
21
-74.8373
0
LINE
8
BLACK
6
CONTINUOUS
10
166.388
20
-74.8373
11
166.429
21
-74.6686
0
LINE
8
BLACK
6
CONTINUOUS
10
166.429
20
-74.6686
11
166.508
21
-74.5139
0
LINE
8
BLACK
6
CONTINUOUS
10
166.508
20
-74.5139
11
166.621
21
-74.3815
0
LINE
8
BLACK
6
CONTINUOUS
10
166.621
20
-74.3815
11
166.76
21
-74.2785
0
LINE
8
BLACK
6
CONTINUOUS
10
166.76
20
-74.2785
11
166.92
21
-74.2105
0
LINE
8
BLACK
6
CONTINUOUS
10
166.92
20
-74.2105
11
167.091
21
-74.1811
0
LINE
8
BLACK
6
CONTINUOUS
10
167.091
20
-74.1811
11
167.265
21
-74.1919
0
LINE
8
BLACK
6
CONTINUOUS
10
164.725
20
-74.1919
11
164.891
21
-74.2422
0
LINE
8
BLACK
6
CONTINUOUS
10
164.891
20
-74.2422
11
165.041
21
-74.3295
0
LINE
8
BLACK
6
CONTINUOUS
10
165.041
20
-74.3295
11
165.167
21
-74.4489
0
LINE
8
BLACK
6
CONTINUOUS
10
165.167
20
-74.4489
11
165.263
21
-74.5942
0
LINE
8
BLACK
6
CONTINUOUS
10
165.263
20
-74.5942
11
165.322
21
-74.7575
0
LINE
8
BLACK
6
CONTINUOUS
10
165.322
20
-74.7575
11
165.342
21
-74.93
0
LINE
8
BLACK
6
CONTINUOUS
10
165.342
20
-74.93
11
165.342
21
-75.93
0
LINE
8
BLACK
6
CONTINUOUS
10
165.342
20
-75.93
11
165.336
21
-76.0227
0
LINE
8
BLACK
6
CONTINUOUS
10
165.336
20
-76.0227
11
165.295
21
-76.1914
0
LINE
8
BLACK
6
CONTINUOUS
10
165.295
20
-76.1914
11
165.216
21
-76.3461
0
LINE
8
BLACK
6
CONTINUOUS
10
165.216
20
-76.3461
11
165.103
21
-76.4785
0
LINE
8
BLACK
6
CONTINUOUS
10
165.103
20
-76.4785
11
164.964
21
-76.5815
0
LINE
8
BLACK
6
CONTINUOUS
10
164.964
20
-76.5815
11
164.804
21
-76.6495
0
LINE
8
BLACK
6
CONTINUOUS
10
164.804
20
-76.6495
11
164.633
21
-76.6789
0
LINE
8
BLACK
6
CONTINUOUS
10
164.633
20
-76.6789
11
164.459
21
-76.6681
0
LINE
8
BLACK
6
CONTINUOUS
10
164.459
20
-76.6681
11
164.293
21
-76.6178
0
LINE
8
BLACK
6
CONTINUOUS
10
164.293
20
-76.6178
11
164.143
21
-76.5305
0
LINE
8
BLACK
6
CONTINUOUS
10
164.143
20
-76.5305
11
164.017
21
-76.4111
0
LINE
8
BLACK
6
CONTINUOUS
10
164.017
20
-76.4111
11
163.921
21
-76.2658
0
LINE
8
BLACK
6
CONTINUOUS
10
163.921
20
-76.2658
11
163.862
21
-76.1025
0
LINE
8
BLACK
6
CONTINUOUS
10
163.862
20
-76.1025
11
163.842
21
-75.93
0
LINE
8
BLACK
6
CONTINUOUS
10
163.842
20
-75.93
11
163.842
21
-74.93
0
LINE
8
BLACK
6
CONTINUOUS
10
163.842
20
-74.93
11
163.848
21
-74.8373
0
LINE
8
BLACK
6
CONTINUOUS
10
163.848
20
-74.8373
11
163.889
21
-74.6686
0
LINE
8
BLACK
6
CONTINUOUS
10
163.889
20
-74.6686
11
163.968
21
-74.5139
0
LINE
8
BLACK
6
CONTINUOUS
10
163.968
20
-74.5139
11
164.081
21
-74.3815
0
LINE
8
BLACK
6
CONTINUOUS
10
164.081
20
-74.3815
11
164.22
21
-74.2785
0
LINE
8
BLACK
6
CONTINUOUS
10
164.22
20
-74.2785
11
164.38
21
-74.2105
0
LINE
8
BLACK
6
CONTINUOUS
10
164.38
20
-74.2105
11
164.551
21
-74.1811
0
LINE
8
BLACK
6
CONTINUOUS
10
164.551
20
-74.1811
11
164.725
21
-74.1919
0
LINE
8
BLACK
6
CONTINUOUS
10
162.185
20
-74.1919
11
162.351
21
-74.2422
0
LINE
8
BLACK
6
CONTINUOUS
10
162.351
20
-74.2422
11
162.501
21
-74.3295
0
LINE
8
BLACK
6
CONTINUOUS
10
162.501
20
-74.3295
11
162.627
21
-74.4489
0
LINE
8
BLACK
6
CONTINUOUS
10
162.627
20
-74.4489
11
162.723
21
-74.5942
0
LINE
8
BLACK
6
CONTINUOUS
10
162.723
20
-74.5942
11
162.782
21
-74.7575
0
LINE
8
BLACK
6
CONTINUOUS
10
162.782
20
-74.7575
11
162.802
21
-74.93
0
LINE
8
BLACK
6
CONTINUOUS
10
162.802
20
-74.93
11
162.802
21
-75.93
0
LINE
8
BLACK
6
CONTINUOUS
10
162.802
20
-75.93
11
162.796
21
-76.0227
0
LINE
8
BLACK
6
CONTINUOUS
10
162.796
20
-76.0227
11
162.755
21
-76.1914
0
LINE
8
BLACK
6
CONTINUOUS
10
162.755
20
-76.1914
11
162.676
21
-76.3461
0
LINE
8
BLACK
6
CONTINUOUS
10
162.676
20
-76.3461
11
162.563
21
-76.4785
0
LINE
8
BLACK
6
CONTINUOUS
10
162.563
20
-76.4785
11
162.424
21
-76.5815
0
LINE
8
BLACK
6
CONTINUOUS
10
162.424
20
-76.5815
11
162.264
21
-76.6495
0
LINE
8
BLACK
6
CONTINUOUS
10
162.264
20
-76.6495
11
162.093
21
-76.6789
0
LINE
8
BLACK
6
CONTINUOUS
10
162.093
20
-76.6789
11
161.919
21
-76.6681
0
LINE
8
BLACK
6
CONTINUOUS
10
161.919
20
-76.6681
11
161.753
21
-76.6178
0
LINE
8
BLACK
6
CONTINUOUS
10
161.753
20
-76.6178
11
161.603
21
-76.5305
0
LINE
8
BLACK
6
CONTINUOUS
10
161.603
20
-76.5305
11
161.477
21
-76.4111
0
LINE
8
BLACK
6
CONTINUOUS
10
161.477
20
-76.4111
11
161.381
21
-76.2658
0
LINE
8
BLACK
6
CONTINUOUS
10
161.381
20
-76.2658
11
161.322
21
-76.1025
0
LINE
8
BLACK
6
CONTINUOUS
10
161.322
20
-76.1025
11
161.302
21
-75.93
0
LINE
8
BLACK
6
CONTINUOUS
10
161.302
20
-75.93
11
161.302
21
-74.93
0
LINE
8
BLACK
6
CONTINUOUS
10
161.302
20
-74.93
11
161.308
21
-74.8373
0
LINE
8
BLACK
6
CONTINUOUS
10
161.308
20
-74.8373
11
161.349
21
-74.6686
0
LINE
8
BLACK
6
CONTINUOUS
10
161.349
20
-74.6686
11
161.428
21
-74.5139
0
LINE
8
BLACK
6
CONTINUOUS
10
161.428
20
-74.5139
11
161.541
21
-74.3815
0
LINE
8
BLACK
6
CONTINUOUS
10
161.541
20
-74.3815
11
161.68
21
-74.2785
0
LINE
8
BLACK
6
CONTINUOUS
10
161.68
20
-74.2785
11
161.84
21
-74.2105
0
LINE
8
BLACK
6
CONTINUOUS
10
161.84
20
-74.2105
11
162.011
21
-74.1811
0
LINE
8
BLACK
6
CONTINUOUS
10
162.011
20
-74.1811
11
162.185
21
-74.1919
0
LINE
8
BLACK
6
CONTINUOUS
10
175.845
20
-74.1858
11
176.013
21
-74.227
0
LINE
8
BLACK
6
CONTINUOUS
10
176.013
20
-74.227
11
176.168
21
-74.306
0
LINE
8
BLACK
6
CONTINUOUS
10
176.168
20
-74.306
11
176.301
21
-74.4185
0
LINE
8
BLACK
6
CONTINUOUS
10
176.301
20
-74.4185
11
176.403
21
-74.5584
0
LINE
8
BLACK
6
CONTINUOUS
10
176.403
20
-74.5584
11
176.471
21
-74.7182
0
LINE
8
BLACK
6
CONTINUOUS
10
176.471
20
-74.7182
11
176.501
21
-74.8894
0
LINE
8
BLACK
6
CONTINUOUS
10
176.501
20
-74.8894
11
176.49
21
-75.0628
0
LINE
8
BLACK
6
CONTINUOUS
10
176.49
20
-75.0628
11
176.44
21
-75.2291
0
LINE
8
BLACK
6
CONTINUOUS
10
176.44
20
-75.2291
11
176.353
21
-75.3793
0
LINE
8
BLACK
6
CONTINUOUS
10
176.353
20
-75.3793
11
176.233
21
-75.5054
0
LINE
8
BLACK
6
CONTINUOUS
10
176.233
20
-75.5054
11
176.088
21
-75.6006
0
LINE
8
BLACK
6
CONTINUOUS
10
176.088
20
-75.6006
11
175.925
21
-75.6599
0
LINE
8
BLACK
6
CONTINUOUS
10
175.925
20
-75.6599
11
175.752
21
-75.68
0
LINE
8
BLACK
6
CONTINUOUS
10
175.752
20
-75.68
11
174.752
21
-75.68
0
LINE
8
BLACK
6
CONTINUOUS
10
174.752
20
-75.68
11
174.659
21
-75.6742
0
LINE
8
BLACK
6
CONTINUOUS
10
174.659
20
-75.6742
11
174.491
21
-75.633
0
LINE
8
BLACK
6
CONTINUOUS
10
174.491
20
-75.633
11
174.336
21
-75.554
0
LINE
8
BLACK
6
CONTINUOUS
10
174.336
20
-75.554
11
174.203
21
-75.4415
0
LINE
8
BLACK
6
CONTINUOUS
10
174.203
20
-75.4415
11
174.101
21
-75.3016
0
LINE
8
BLACK
6
CONTINUOUS
10
174.101
20
-75.3016
11
174.033
21
-75.1418
0
LINE
8
BLACK
6
CONTINUOUS
10
174.033
20
-75.1418
11
174.003
21
-74.9706
0
LINE
8
BLACK
6
CONTINUOUS
10
174.003
20
-74.9706
11
174.014
21
-74.7972
0
LINE
8
BLACK
6
CONTINUOUS
10
174.014
20
-74.7972
11
174.064
21
-74.6309
0
LINE
8
BLACK
6
CONTINUOUS
10
174.064
20
-74.6309
11
174.151
21
-74.4807
0
LINE
8
BLACK
6
CONTINUOUS
10
174.151
20
-74.4807
11
174.271
21
-74.3546
0
LINE
8
BLACK
6
CONTINUOUS
10
174.271
20
-74.3546
11
174.416
21
-74.2594
0
LINE
8
BLACK
6
CONTINUOUS
10
174.416
20
-74.2594
11
174.579
21
-74.2001
0
LINE
8
BLACK
6
CONTINUOUS
10
174.579
20
-74.2001
11
174.752
21
-74.18
0
LINE
8
BLACK
6
CONTINUOUS
10
174.752
20
-74.18
11
175.752
21
-74.18
0
LINE
8
BLACK
6
CONTINUOUS
10
175.752
20
-74.18
11
175.845
21
-74.1858
0
LINE
8
BLACK
6
CONTINUOUS
10
159.605
20
-74.1858
11
159.773
21
-74.227
0
LINE
8
BLACK
6
CONTINUOUS
10
159.773
20
-74.227
11
159.928
21
-74.306
0
LINE
8
BLACK
6
CONTINUOUS
10
159.928
20
-74.306
11
160.061
21
-74.4185
0
LINE
8
BLACK
6
CONTINUOUS
10
160.061
20
-74.4185
11
160.163
21
-74.5584
0
LINE
8
BLACK
6
CONTINUOUS
10
160.163
20
-74.5584
11
160.231
21
-74.7182
0
LINE
8
BLACK
6
CONTINUOUS
10
160.231
20
-74.7182
11
160.261
21
-74.8894
0
LINE
8
BLACK
6
CONTINUOUS
10
160.261
20
-74.8894
11
160.25
21
-75.0628
0
LINE
8
BLACK
6
CONTINUOUS
10
160.25
20
-75.0628
11
160.2
21
-75.2291
0
LINE
8
BLACK
6
CONTINUOUS
10
160.2
20
-75.2291
11
160.113
21
-75.3793
0
LINE
8
BLACK
6
CONTINUOUS
10
160.113
20
-75.3793
11
159.993
21
-75.5054
0
LINE
8
BLACK
6
CONTINUOUS
10
159.993
20
-75.5054
11
159.848
21
-75.6006
0
LINE
8
BLACK
6
CONTINUOUS
10
159.848
20
-75.6006
11
159.685
21
-75.6599
0
LINE
8
BLACK
6
CONTINUOUS
10
159.685
20
-75.6599
11
159.512
21
-75.68
0
LINE
8
BLACK
6
CONTINUOUS
10
159.512
20
-75.68
11
158.512
21
-75.68
0
LINE
8
BLACK
6
CONTINUOUS
10
158.512
20
-75.68
11
158.419
21
-75.6742
0
LINE
8
BLACK
6
CONTINUOUS
10
158.419
20
-75.6742
11
158.251
21
-75.633
0
LINE
8
BLACK
6
CONTINUOUS
10
158.251
20
-75.633
11
158.096
21
-75.554
0
LINE
8
BLACK
6
CONTINUOUS
10
158.096
20
-75.554
11
157.963
21
-75.4415
0
LINE
8
BLACK
6
CONTINUOUS
10
157.963
20
-75.4415
11
157.861
21
-75.3016
0
LINE
8
BLACK
6
CONTINUOUS
10
157.861
20
-75.3016
11
157.793
21
-75.1418
0
LINE
8
BLACK
6
CONTINUOUS
10
157.793
20
-75.1418
11
157.763
21
-74.9706
0
LINE
8
BLACK
6
CONTINUOUS
10
157.763
20
-74.9706
11
157.774
21
-74.7972
0
LINE
8
BLACK
6
CONTINUOUS
10
157.774
20
-74.7972
11
157.824
21
-74.6309
0
LINE
8
BLACK
6
CONTINUOUS
10
157.824
20
-74.6309
11
157.911
21
-74.4807
0
LINE
8
BLACK
6
CONTINUOUS
10
157.911
20
-74.4807
11
158.031
21
-74.3546
0
LINE
8
BLACK
6
CONTINUOUS
10
158.031
20
-74.3546
11
158.176
21
-74.2594
0
LINE
8
BLACK
6
CONTINUOUS
10
158.176
20
-74.2594
11
158.339
21
-74.2001
0
LINE
8
BLACK
6
CONTINUOUS
10
158.339
20
-74.2001
11
158.512
21
-74.18
0
LINE
8
BLACK
6
CONTINUOUS
10
158.512
20
-74.18
11
159.512
21
-74.18
0
LINE
8
BLACK
6
CONTINUOUS
10
159.512
20
-74.18
11
159.605
21
-74.1858
0
LINE
8
BLACK
6
CONTINUOUS
10
175.845
20
-71.6458
11
176.013
21
-71.687
0
LINE
8
BLACK
6
CONTINUOUS
10
176.013
20
-71.687
11
176.168
21
-71.766
0
LINE
8
BLACK
6
CONTINUOUS
10
176.168
20
-71.766
11
176.301
21
-71.8785
0
LINE
8
BLACK
6
CONTINUOUS
10
176.301
20
-71.8785
11
176.403
21
-72.0184
0
LINE
8
BLACK
6
CONTINUOUS
10
176.403
20
-72.0184
11
176.471
21
-72.1782
0
LINE
8
BLACK
6
CONTINUOUS
10
176.471
20
-72.1782
11
176.501
21
-72.3494
0
LINE
8
BLACK
6
CONTINUOUS
10
176.501
20
-72.3494
11
176.49
21
-72.5228
0
LINE
8
BLACK
6
CONTINUOUS
10
176.49
20
-72.5228
11
176.44
21
-72.6891
0
LINE
8
BLACK
6
CONTINUOUS
10
176.44
20
-72.6891
11
176.353
21
-72.8393
0
LINE
8
BLACK
6
CONTINUOUS
10
176.353
20
-72.8393
11
176.233
21
-72.9654
0
LINE
8
BLACK
6
CONTINUOUS
10
176.233
20
-72.9654
11
176.088
21
-73.0606
0
LINE
8
BLACK
6
CONTINUOUS
10
176.088
20
-73.0606
11
175.925
21
-73.1199
0
LINE
8
BLACK
6
CONTINUOUS
10
175.925
20
-73.1199
11
175.752
21
-73.14
0
LINE
8
BLACK
6
CONTINUOUS
10
175.752
20
-73.14
11
174.752
21
-73.14
0
LINE
8
BLACK
6
CONTINUOUS
10
174.752
20
-73.14
11
174.659
21
-73.1342
0
LINE
8
BLACK
6
CONTINUOUS
10
174.659
20
-73.1342
11
174.491
21
-73.093
0
LINE
8
BLACK
6
CONTINUOUS
10
174.491
20
-73.093
11
174.336
21
-73.014
0
LINE
8
BLACK
6
CONTINUOUS
10
174.336
20
-73.014
11
174.203
21
-72.9015
0
LINE
8
BLACK
6
CONTINUOUS
10
174.203
20
-72.9015
11
174.101
21
-72.7616
0
LINE
8
BLACK
6
CONTINUOUS
10
174.101
20
-72.7616
11
174.033
21
-72.6018
0
LINE
8
BLACK
6
CONTINUOUS
10
174.033
20
-72.6018
11
174.003
21
-72.4306
0
LINE
8
BLACK
6
CONTINUOUS
10
174.003
20
-72.4306
11
174.014
21
-72.2572
0
LINE
8
BLACK
6
CONTINUOUS
10
174.014
20
-72.2572
11
174.064
21
-72.0909
0
LINE
8
BLACK
6
CONTINUOUS
10
174.064
20
-72.0909
11
174.151
21
-71.9407
0
LINE
8
BLACK
6
CONTINUOUS
10
174.151
20
-71.9407
11
174.271
21
-71.8146
0
LINE
8
BLACK
6
CONTINUOUS
10
174.271
20
-71.8146
11
174.416
21
-71.7194
0
LINE
8
BLACK
6
CONTINUOUS
10
174.416
20
-71.7194
11
174.579
21
-71.6601
0
LINE
8
BLACK
6
CONTINUOUS
10
174.579
20
-71.6601
11
174.752
21
-71.64
0
LINE
8
BLACK
6
CONTINUOUS
10
174.752
20
-71.64
11
175.752
21
-71.64
0
LINE
8
BLACK
6
CONTINUOUS
10
175.752
20
-71.64
11
175.845
21
-71.6458
0
LINE
8
BLACK
6
CONTINUOUS
10
159.605
20
-71.6458
11
159.773
21
-71.687
0
LINE
8
BLACK
6
CONTINUOUS
10
159.773
20
-71.687
11
159.928
21
-71.766
0
LINE
8
BLACK
6
CONTINUOUS
10
159.928
20
-71.766
11
160.061
21
-71.8785
0
LINE
8
BLACK
6
CONTINUOUS
10
160.061
20
-71.8785
11
160.163
21
-72.0184
0
LINE
8
BLACK
6
CONTINUOUS
10
160.163
20
-72.0184
11
160.231
21
-72.1782
0
LINE
8
BLACK
6
CONTINUOUS
10
160.231
20
-72.1782
11
160.261
21
-72.3494
0
LINE
8
BLACK
6
CONTINUOUS
10
160.261
20
-72.3494
11
160.25
21
-72.5228
0
LINE
8
BLACK
6
CONTINUOUS
10
160.25
20
-72.5228
11
160.2
21
-72.6891
0
LINE
8
BLACK
6
CONTINUOUS
10
160.2
20
-72.6891
11
160.113
21
-72.8393
0
LINE
8
BLACK
6
CONTINUOUS
10
160.113
20
-72.8393
11
159.993
21
-72.9654
0
LINE
8
BLACK
6
CONTINUOUS
10
159.993
20
-72.9654
11
159.848
21
-73.0606
0
LINE
8
BLACK
6
CONTINUOUS
10
159.848
20
-73.0606
11
159.685
21
-73.1199
0
LINE
8
BLACK
6
CONTINUOUS
10
159.685
20
-73.1199
11
159.512
21
-73.14
0
LINE
8
BLACK
6
CONTINUOUS
10
159.512
20
-73.14
11
158.512
21
-73.14
0
LINE
8
BLACK
6
CONTINUOUS
10
158.512
20
-73.14
11
158.419
21
-73.1342
0
LINE
8
BLACK
6
CONTINUOUS
10
158.419
20
-73.1342
11
158.251
21
-73.093
0
LINE
8
BLACK
6
CONTINUOUS
10
158.251
20
-73.093
11
158.096
21
-73.014
0
LINE
8
BLACK
6
CONTINUOUS
10
158.096
20
-73.014
11
157.963
21
-72.9015
0
LINE
8
BLACK
6
CONTINUOUS
10
157.963
20
-72.9015
11
157.861
21
-72.7616
0
LINE
8
BLACK
6
CONTINUOUS
10
157.861
20
-72.7616
11
157.793
21
-72.6018
0
LINE
8
BLACK
6
CONTINUOUS
10
157.793
20
-72.6018
11
157.763
21
-72.4306
0
LINE
8
BLACK
6
CONTINUOUS
10
157.763
20
-72.4306
11
157.774
21
-72.2572
0
LINE
8
BLACK
6
CONTINUOUS
10
157.774
20
-72.2572
11
157.824
21
-72.0909
0
LINE
8
BLACK
6
CONTINUOUS
10
157.824
20
-72.0909
11
157.911
21
-71.9407
0
LINE
8
BLACK
6
CONTINUOUS
10
157.911
20
-71.9407
11
158.031
21
-71.8146
0
LINE
8
BLACK
6
CONTINUOUS
10
158.031
20
-71.8146
11
158.176
21
-71.7194
0
LINE
8
BLACK
6
CONTINUOUS
10
158.176
20
-71.7194
11
158.339
21
-71.6601
0
LINE
8
BLACK
6
CONTINUOUS
10
158.339
20
-71.6601
11
158.512
21
-71.64
0
LINE
8
BLACK
6
CONTINUOUS
10
158.512
20
-71.64
11
159.512
21
-71.64
0
LINE
8
BLACK
6
CONTINUOUS
10
159.512
20
-71.64
11
159.605
21
-71.6458
0
LINE
8
BLACK
6
CONTINUOUS
10
175.845
20
-69.1058
11
176.013
21
-69.147
0
LINE
8
BLACK
6
CONTINUOUS
10
176.013
20
-69.147
11
176.168
21
-69.226
0
LINE
8
BLACK
6
CONTINUOUS
10
176.168
20
-69.226
11
176.301
21
-69.3385
0
LINE
8
BLACK
6
CONTINUOUS
10
176.301
20
-69.3385
11
176.403
21
-69.4784
0
LINE
8
BLACK
6
CONTINUOUS
10
176.403
20
-69.4784
11
176.471
21
-69.6382
0
LINE
8
BLACK
6
CONTINUOUS
10
176.471
20
-69.6382
11
176.501
21
-69.8094
0
LINE
8
BLACK
6
CONTINUOUS
10
176.501
20
-69.8094
11
176.49
21
-69.9828
0
LINE
8
BLACK
6
CONTINUOUS
10
176.49
20
-69.9828
11
176.44
21
-70.1491
0
LINE
8
BLACK
6
CONTINUOUS
10
176.44
20
-70.1491
11
176.353
21
-70.2993
0
LINE
8
BLACK
6
CONTINUOUS
10
176.353
20
-70.2993
11
176.233
21
-70.4254
0
LINE
8
BLACK
6
CONTINUOUS
10
176.233
20
-70.4254
11
176.088
21
-70.5206
0
LINE
8
BLACK
6
CONTINUOUS
10
176.088
20
-70.5206
11
175.925
21
-70.5799
0
LINE
8
BLACK
6
CONTINUOUS
10
175.925
20
-70.5799
11
175.752
21
-70.6
0
LINE
8
BLACK
6
CONTINUOUS
10
175.752
20
-70.6
11
174.752
21
-70.6
0
LINE
8
BLACK
6
CONTINUOUS
10
174.752
20
-70.6
11
174.659
21
-70.5942
0
LINE
8
BLACK
6
CONTINUOUS
10
174.659
20
-70.5942
11
174.491
21
-70.553
0
LINE
8
BLACK
6
CONTINUOUS
10
174.491
20
-70.553
11
174.336
21
-70.474
0
LINE
8
BLACK
6
CONTINUOUS
10
174.336
20
-70.474
11
174.203
21
-70.3615
0
LINE
8
BLACK
6
CONTINUOUS
10
174.203
20
-70.3615
11
174.101
21
-70.2216
0
LINE
8
BLACK
6
CONTINUOUS
10
174.101
20
-70.2216
11
174.033
21
-70.0618
0
LINE
8
BLACK
6
CONTINUOUS
10
174.033
20
-70.0618
11
174.003
21
-69.8906
0
LINE
8
BLACK
6
CONTINUOUS
10
174.003
20
-69.8906
11
174.014
21
-69.7172
0
LINE
8
BLACK
6
CONTINUOUS
10
174.014
20
-69.7172
11
174.064
21
-69.5509
0
LINE
8
BLACK
6
CONTINUOUS
10
174.064
20
-69.5509
11
174.151
21
-69.4007
0
LINE
8
BLACK
6
CONTINUOUS
10
174.151
20
-69.4007
11
174.271
21
-69.2746
0
LINE
8
BLACK
6
CONTINUOUS
10
174.271
20
-69.2746
11
174.416
21
-69.1794
0
LINE
8
BLACK
6
CONTINUOUS
10
174.416
20
-69.1794
11
174.579
21
-69.1201
0
LINE
8
BLACK
6
CONTINUOUS
10
174.579
20
-69.1201
11
174.752
21
-69.1
0
LINE
8
BLACK
6
CONTINUOUS
10
174.752
20
-69.1
11
175.752
21
-69.1
0
LINE
8
BLACK
6
CONTINUOUS
10
175.752
20
-69.1
11
175.845
21
-69.1058
0
LINE
8
BLACK
6
CONTINUOUS
10
159.605
20
-69.1058
11
159.773
21
-69.147
0
LINE
8
BLACK
6
CONTINUOUS
10
159.773
20
-69.147
11
159.928
21
-69.226
0
LINE
8
BLACK
6
CONTINUOUS
10
159.928
20
-69.226
11
160.061
21
-69.3385
0
LINE
8
BLACK
6
CONTINUOUS
10
160.061
20
-69.3385
11
160.163
21
-69.4784
0
LINE
8
BLACK
6
CONTINUOUS
10
160.163
20
-69.4784
11
160.231
21
-69.6382
0
LINE
8
BLACK
6
CONTINUOUS
10
160.231
20
-69.6382
11
160.261
21
-69.8094
0
LINE
8
BLACK
6
CONTINUOUS
10
160.261
20
-69.8094
11
160.25
21
-69.9828
0
LINE
8
BLACK
6
CONTINUOUS
10
160.25
20
-69.9828
11
160.2
21
-70.1491
0
LINE
8
BLACK
6
CONTINUOUS
10
160.2
20
-70.1491
11
160.113
21
-70.2993
0
LINE
8
BLACK
6
CONTINUOUS
10
160.113
20
-70.2993
11
159.993
21
-70.4254
0
LINE
8
BLACK
6
CONTINUOUS
10
159.993
20
-70.4254
11
159.848
21
-70.5206
0
LINE
8
BLACK
6
CONTINUOUS
10
159.848
20
-70.5206
11
159.685
21
-70.5799
0
LINE
8
BLACK
6
CONTINUOUS
10
159.685
20
-70.5799
11
159.512
21
-70.6
0
LINE
8
BLACK
6
CONTINUOUS
10
159.512
20
-70.6
11
158.512
21
-70.6
0
LINE
8
BLACK
6
CONTINUOUS
10
158.512
20
-70.6
11
158.419
21
-70.5942
0
LINE
8
BLACK
6
CONTINUOUS
10
158.419
20
-70.5942
11
158.251
21
-70.553
0
LINE
8
BLACK
6
CONTINUOUS
10
158.251
20
-70.553
11
158.096
21
-70.474
0
LINE
8
BLACK
6
CONTINUOUS
10
158.096
20
-70.474
11
157.963
21
-70.3615
0
LINE
8
BLACK
6
CONTINUOUS
10
157.963
20
-70.3615
11
157.861
21
-70.2216
0
LINE
8
BLACK
6
CONTINUOUS
10
157.861
20
-70.2216
11
157.793
21
-70.0618
0
LINE
8
BLACK
6
CONTINUOUS
10
157.793
20
-70.0618
11
157.763
21
-69.8906
0
LINE
8
BLACK
6
CONTINUOUS
10
157.763
20
-69.8906
11
157.774
21
-69.7172
0
LINE
8
BLACK
6
CONTINUOUS
10
157.774
20
-69.7172
11
157.824
21
-69.5509
0
LINE
8
BLACK
6
CONTINUOUS
10
157.824
20
-69.5509
11
157.911
21
-69.4007
0
LINE
8
BLACK
6
CONTINUOUS
10
157.911
20
-69.4007
11
158.031
21
-69.2746
0
LINE
8
BLACK
6
CONTINUOUS
10
158.031
20
-69.2746
11
158.176
21
-69.1794
0
LINE
8
BLACK
6
CONTINUOUS
10
158.176
20
-69.1794
11
158.339
21
-69.1201
0
LINE
8
BLACK
6
CONTINUOUS
10
158.339
20
-69.1201
11
158.512
21
-69.1
0
LINE
8
BLACK
6
CONTINUOUS
10
158.512
20
-69.1
11
159.512
21
-69.1
0
LINE
8
BLACK
6
CONTINUOUS
10
159.512
20
-69.1
11
159.605
21
-69.1058
0
LINE
8
BLACK
6
CONTINUOUS
10
175.845
20
-66.5658
11
176.013
21
-66.607
0
LINE
8
BLACK
6
CONTINUOUS
10
176.013
20
-66.607
11
176.168
21
-66.686
0
LINE
8
BLACK
6
CONTINUOUS
10
176.168
20
-66.686
11
176.301
21
-66.7985
0
LINE
8
BLACK
6
CONTINUOUS
10
176.301
20
-66.7985
11
176.403
21
-66.9384
0
LINE
8
BLACK
6
CONTINUOUS
10
176.403
20
-66.9384
11
176.471
21
-67.0982
0
LINE
8
BLACK
6
CONTINUOUS
10
176.471
20
-67.0982
11
176.501
21
-67.2694
0
LINE
8
BLACK
6
CONTINUOUS
10
176.501
20
-67.2694
11
176.49
21
-67.4428
0
LINE
8
BLACK
6
CONTINUOUS
10
176.49
20
-67.4428
11
176.44
21
-67.6091
0
LINE
8
BLACK
6
CONTINUOUS
10
176.44
20
-67.6091
11
176.353
21
-67.7593
0
LINE
8
BLACK
6
CONTINUOUS
10
176.353
20
-67.7593
11
176.233
21
-67.8854
0
LINE
8
BLACK
6
CONTINUOUS
10
176.233
20
-67.8854
11
176.088
21
-67.9806
0
LINE
8
BLACK
6
CONTINUOUS
10
176.088
20
-67.9806
11
175.925
21
-68.0399
0
LINE
8
BLACK
6
CONTINUOUS
10
175.925
20
-68.0399
11
175.752
21
-68.06
0
LINE
8
BLACK
6
CONTINUOUS
10
175.752
20
-68.06
11
174.752
21
-68.06
0
LINE
8
BLACK
6
CONTINUOUS
10
174.752
20
-68.06
11
174.659
21
-68.0542
0
LINE
8
BLACK
6
CONTINUOUS
10
174.659
20
-68.0542
11
174.491
21
-68.013
0
LINE
8
BLACK
6
CONTINUOUS
10
174.491
20
-68.013
11
174.336
21
-67.934
0
LINE
8
BLACK
6
CONTINUOUS
10
174.336
20
-67.934
11
174.203
21
-67.8215
0
LINE
8
BLACK
6
CONTINUOUS
10
174.203
20
-67.8215
11
174.101
21
-67.6816
0
LINE
8
BLACK
6
CONTINUOUS
10
174.101
20
-67.6816
11
174.033
21
-67.5218
0
LINE
8
BLACK
6
CONTINUOUS
10
174.033
20
-67.5218
11
174.003
21
-67.3506
0
LINE
8
BLACK
6
CONTINUOUS
10
174.003
20
-67.3506
11
174.014
21
-67.1772
0
LINE
8
BLACK
6
CONTINUOUS
10
174.014
20
-67.1772
11
174.064
21
-67.0109
0
LINE
8
BLACK
6
CONTINUOUS
10
174.064
20
-67.0109
11
174.151
21
-66.8607
0
LINE
8
BLACK
6
CONTINUOUS
10
174.151
20
-66.8607
11
174.271
21
-66.7346
0
LINE
8
BLACK
6
CONTINUOUS
10
174.271
20
-66.7346
11
174.416
21
-66.6394
0
LINE
8
BLACK
6
CONTINUOUS
10
174.416
20
-66.6394
11
174.579
21
-66.5801
0
LINE
8
BLACK
6
CONTINUOUS
10
174.579
20
-66.5801
11
174.752
21
-66.56
0
LINE
8
BLACK
6
CONTINUOUS
10
174.752
20
-66.56
11
175.752
21
-66.56
0
LINE
8
BLACK
6
CONTINUOUS
10
175.752
20
-66.56
11
175.845
21
-66.5658
0
LINE
8
BLACK
6
CONTINUOUS
10
159.605
20
-66.5658
11
159.773
21
-66.607
0
LINE
8
BLACK
6
CONTINUOUS
10
159.773
20
-66.607
11
159.928
21
-66.686
0
LINE
8
BLACK
6
CONTINUOUS
10
159.928
20
-66.686
11
160.061
21
-66.7985
0
LINE
8
BLACK
6
CONTINUOUS
10
160.061
20
-66.7985
11
160.163
21
-66.9384
0
LINE
8
BLACK
6
CONTINUOUS
10
160.163
20
-66.9384
11
160.231
21
-67.0982
0
LINE
8
BLACK
6
CONTINUOUS
10
160.231
20
-67.0982
11
160.261
21
-67.2694
0
LINE
8
BLACK
6
CONTINUOUS
10
160.261
20
-67.2694
11
160.25
21
-67.4428
0
LINE
8
BLACK
6
CONTINUOUS
10
160.25
20
-67.4428
11
160.2
21
-67.6091
0
LINE
8
BLACK
6
CONTINUOUS
10
160.2
20
-67.6091
11
160.113
21
-67.7593
0
LINE
8
BLACK
6
CONTINUOUS
10
160.113
20
-67.7593
11
159.993
21
-67.8854
0
LINE
8
BLACK
6
CONTINUOUS
10
159.993
20
-67.8854
11
159.848
21
-67.9806
0
LINE
8
BLACK
6
CONTINUOUS
10
159.848
20
-67.9806
11
159.685
21
-68.0399
0
LINE
8
BLACK
6
CONTINUOUS
10
159.685
20
-68.0399
11
159.512
21
-68.06
0
LINE
8
BLACK
6
CONTINUOUS
10
159.512
20
-68.06
11
158.512
21
-68.06
0
LINE
8
BLACK
6
CONTINUOUS
10
158.512
20
-68.06
11
158.419
21
-68.0542
0
LINE
8
BLACK
6
CONTINUOUS
10
158.419
20
-68.0542
11
158.251
21
-68.013
0
LINE
8
BLACK
6
CONTINUOUS
10
158.251
20
-68.013
11
158.096
21
-67.934
0
LINE
8
BLACK
6
CONTINUOUS
10
158.096
20
-67.934
11
157.963
21
-67.8215
0
LINE
8
BLACK
6
CONTINUOUS
10
157.963
20
-67.8215
11
157.861
21
-67.6816
0
LINE
8
BLACK
6
CONTINUOUS
10
157.861
20
-67.6816
11
157.793
21
-67.5218
0
LINE
8
BLACK
6
CONTINUOUS
10
157.793
20
-67.5218
11
157.763
21
-67.3506
0
LINE
8
BLACK
6
CONTINUOUS
10
157.763
20
-67.3506
11
157.774
21
-67.1772
0
LINE
8
BLACK
6
CONTINUOUS
10
157.774
20
-67.1772
11
157.824
21
-67.0109
0
LINE
8
BLACK
6
CONTINUOUS
10
157.824
20
-67.0109
11
157.911
21
-66.8607
0
LINE
8
BLACK
6
CONTINUOUS
10
157.911
20
-66.8607
11
158.031
21
-66.7346
0
LINE
8
BLACK
6
CONTINUOUS
10
158.031
20
-66.7346
11
158.176
21
-66.6394
0
LINE
8
BLACK
6
CONTINUOUS
10
158.176
20
-66.6394
11
158.339
21
-66.5801
0
LINE
8
BLACK
6
CONTINUOUS
10
158.339
20
-66.5801
11
158.512
21
-66.56
0
LINE
8
BLACK
6
CONTINUOUS
10
158.512
20
-66.56
11
159.512
21
-66.56
0
LINE
8
BLACK
6
CONTINUOUS
10
159.512
20
-66.56
11
159.605
21
-66.5658
0
LINE
8
BLACK
6
CONTINUOUS
10
175.845
20
-64.0258
11
176.013
21
-64.067
0
LINE
8
BLACK
6
CONTINUOUS
10
176.013
20
-64.067
11
176.168
21
-64.146
0
LINE
8
BLACK
6
CONTINUOUS
10
176.168
20
-64.146
11
176.301
21
-64.2585
0
LINE
8
BLACK
6
CONTINUOUS
10
176.301
20
-64.2585
11
176.403
21
-64.3984
0
LINE
8
BLACK
6
CONTINUOUS
10
176.403
20
-64.3984
11
176.471
21
-64.5582
0
LINE
8
BLACK
6
CONTINUOUS
10
176.471
20
-64.5582
11
176.501
21
-64.7294
0
LINE
8
BLACK
6
CONTINUOUS
10
176.501
20
-64.7294
11
176.49
21
-64.9028
0
LINE
8
BLACK
6
CONTINUOUS
10
176.49
20
-64.9028
11
176.44
21
-65.0691
0
LINE
8
BLACK
6
CONTINUOUS
10
176.44
20
-65.0691
11
176.353
21
-65.2193
0
LINE
8
BLACK
6
CONTINUOUS
10
176.353
20
-65.2193
11
176.233
21
-65.3454
0
LINE
8
BLACK
6
CONTINUOUS
10
176.233
20
-65.3454
11
176.088
21
-65.4406
0
LINE
8
BLACK
6
CONTINUOUS
10
176.088
20
-65.4406
11
175.925
21
-65.4999
0
LINE
8
BLACK
6
CONTINUOUS
10
175.925
20
-65.4999
11
175.752
21
-65.52
0
LINE
8
BLACK
6
CONTINUOUS
10
175.752
20
-65.52
11
174.752
21
-65.52
0
LINE
8
BLACK
6
CONTINUOUS
10
174.752
20
-65.52
11
174.659
21
-65.5142
0
LINE
8
BLACK
6
CONTINUOUS
10
174.659
20
-65.5142
11
174.491
21
-65.473
0
LINE
8
BLACK
6
CONTINUOUS
10
174.491
20
-65.473
11
174.336
21
-65.394
0
LINE
8
BLACK
6
CONTINUOUS
10
174.336
20
-65.394
11
174.203
21
-65.2815
0
LINE
8
BLACK
6
CONTINUOUS
10
174.203
20
-65.2815
11
174.101
21
-65.1416
0
LINE
8
BLACK
6
CONTINUOUS
10
174.101
20
-65.1416
11
174.033
21
-64.9818
0
LINE
8
BLACK
6
CONTINUOUS
10
174.033
20
-64.9818
11
174.003
21
-64.8106
0
LINE
8
BLACK
6
CONTINUOUS
10
174.003
20
-64.8106
11
174.014
21
-64.6372
0
LINE
8
BLACK
6
CONTINUOUS
10
174.014
20
-64.6372
11
174.064
21
-64.4709
0
LINE
8
BLACK
6
CONTINUOUS
10
174.064
20
-64.4709
11
174.151
21
-64.3207
0
LINE
8
BLACK
6
CONTINUOUS
10
174.151
20
-64.3207
11
174.271
21
-64.1946
0
LINE
8
BLACK
6
CONTINUOUS
10
174.271
20
-64.1946
11
174.416
21
-64.0994
0
LINE
8
BLACK
6
CONTINUOUS
10
174.416
20
-64.0994
11
174.579
21
-64.0401
0
LINE
8
BLACK
6
CONTINUOUS
10
174.579
20
-64.0401
11
174.752
21
-64.02
0
LINE
8
BLACK
6
CONTINUOUS
10
174.752
20
-64.02
11
175.752
21
-64.02
0
LINE
8
BLACK
6
CONTINUOUS
10
175.752
20
-64.02
11
175.845
21
-64.0258
0
LINE
8
BLACK
6
CONTINUOUS
10
159.605
20
-64.0258
11
159.773
21
-64.067
0
LINE
8
BLACK
6
CONTINUOUS
10
159.773
20
-64.067
11
159.928
21
-64.146
0
LINE
8
BLACK
6
CONTINUOUS
10
159.928
20
-64.146
11
160.061
21
-64.2585
0
LINE
8
BLACK
6
CONTINUOUS
10
160.061
20
-64.2585
11
160.163
21
-64.3984
0
LINE
8
BLACK
6
CONTINUOUS
10
160.163
20
-64.3984
11
160.231
21
-64.5582
0
LINE
8
BLACK
6
CONTINUOUS
10
160.231
20
-64.5582
11
160.261
21
-64.7294
0
LINE
8
BLACK
6
CONTINUOUS
10
160.261
20
-64.7294
11
160.25
21
-64.9028
0
LINE
8
BLACK
6
CONTINUOUS
10
160.25
20
-64.9028
11
160.2
21
-65.0691
0
LINE
8
BLACK
6
CONTINUOUS
10
160.2
20
-65.0691
11
160.113
21
-65.2193
0
LINE
8
BLACK
6
CONTINUOUS
10
160.113
20
-65.2193
11
159.993
21
-65.3454
0
LINE
8
BLACK
6
CONTINUOUS
10
159.993
20
-65.3454
11
159.848
21
-65.4406
0
LINE
8
BLACK
6
CONTINUOUS
10
159.848
20
-65.4406
11
159.685
21
-65.4999
0
LINE
8
BLACK
6
CONTINUOUS
10
159.685
20
-65.4999
11
159.512
21
-65.52
0
LINE
8
BLACK
6
CONTINUOUS
10
159.512
20
-65.52
11
158.512
21
-65.52
0
LINE
8
BLACK
6
CONTINUOUS
10
158.512
20
-65.52
11
158.419
21
-65.5142
0
LINE
8
BLACK
6
CONTINUOUS
10
158.419
20
-65.5142
11
158.251
21
-65.473
0
LINE
8
BLACK
6
CONTINUOUS
10
158.251
20
-65.473
11
158.096
21
-65.394
0
LINE
8
BLACK
6
CONTINUOUS
10
158.096
20
-65.394
11
157.963
21
-65.2815
0
LINE
8
BLACK
6
CONTINUOUS
10
157.963
20
-65.2815
11
157.861
21
-65.1416
0
LINE
8
BLACK
6
CONTINUOUS
10
157.861
20
-65.1416
11
157.793
21
-64.9818
0
LINE
8
BLACK
6
CONTINUOUS
10
157.793
20
-64.9818
11
157.763
21
-64.8106
0
LINE
8
BLACK
6
CONTINUOUS
10
157.763
20
-64.8106
11
157.774
21
-64.6372
0
LINE
8
BLACK
6
CONTINUOUS
10
157.774
20
-64.6372
11
157.824
21
-64.4709
0
LINE
8
BLACK
6
CONTINUOUS
10
157.824
20
-64.4709
11
157.911
21
-64.3207
0
LINE
8
BLACK
6
CONTINUOUS
10
157.911
20
-64.3207
11
158.031
21
-64.1946
0
LINE
8
BLACK
6
CONTINUOUS
10
158.031
20
-64.1946
11
158.176
21
-64.0994
0
LINE
8
BLACK
6
CONTINUOUS
10
158.176
20
-64.0994
11
158.339
21
-64.0401
0
LINE
8
BLACK
6
CONTINUOUS
10
158.339
20
-64.0401
11
158.512
21
-64.02
0
LINE
8
BLACK
6
CONTINUOUS
10
158.512
20
-64.02
11
159.512
21
-64.02
0
LINE
8
BLACK
6
CONTINUOUS
10
159.512
20
-64.02
11
159.605
21
-64.0258
0
LINE
8
BLACK
6
CONTINUOUS
10
175.845
20
-61.4858
11
176.013
21
-61.527
0
LINE
8
BLACK
6
CONTINUOUS
10
176.013
20
-61.527
11
176.168
21
-61.606
0
LINE
8
BLACK
6
CONTINUOUS
10
176.168
20
-61.606
11
176.301
21
-61.7185
0
LINE
8
BLACK
6
CONTINUOUS
10
176.301
20
-61.7185
11
176.403
21
-61.8584
0
LINE
8
BLACK
6
CONTINUOUS
10
176.403
20
-61.8584
11
176.471
21
-62.0182
0
LINE
8
BLACK
6
CONTINUOUS
10
176.471
20
-62.0182
11
176.501
21
-62.1894
0
LINE
8
BLACK
6
CONTINUOUS
10
176.501
20
-62.1894
11
176.49
21
-62.3628
0
LINE
8
BLACK
6
CONTINUOUS
10
176.49
20
-62.3628
11
176.44
21
-62.5291
0
LINE
8
BLACK
6
CONTINUOUS
10
176.44
20
-62.5291
11
176.353
21
-62.6793
0
LINE
8
BLACK
6
CONTINUOUS
10
176.353
20
-62.6793
11
176.233
21
-62.8054
0
LINE
8
BLACK
6
CONTINUOUS
10
176.233
20
-62.8054
11
176.088
21
-62.9006
0
LINE
8
BLACK
6
CONTINUOUS
10
176.088
20
-62.9006
11
175.925
21
-62.9599
0
LINE
8
BLACK
6
CONTINUOUS
10
175.925
20
-62.9599
11
175.752
21
-62.98
0
LINE
8
BLACK
6
CONTINUOUS
10
175.752
20
-62.98
11
174.752
21
-62.98
0
LINE
8
BLACK
6
CONTINUOUS
10
174.752
20
-62.98
11
174.659
21
-62.9742
0
LINE
8
BLACK
6
CONTINUOUS
10
174.659
20
-62.9742
11
174.491
21
-62.933
0
LINE
8
BLACK
6
CONTINUOUS
10
174.491
20
-62.933
11
174.336
21
-62.854
0
LINE
8
BLACK
6
CONTINUOUS
10
174.336
20
-62.854
11
174.203
21
-62.7415
0
LINE
8
BLACK
6
CONTINUOUS
10
174.203
20
-62.7415
11
174.101
21
-62.6016
0
LINE
8
BLACK
6
CONTINUOUS
10
174.101
20
-62.6016
11
174.033
21
-62.4418
0
LINE
8
BLACK
6
CONTINUOUS
10
174.033
20
-62.4418
11
174.003
21
-62.2706
0
LINE
8
BLACK
6
CONTINUOUS
10
174.003
20
-62.2706
11
174.014
21
-62.0972
0
LINE
8
BLACK
6
CONTINUOUS
10
174.014
20
-62.0972
11
174.064
21
-61.9309
0
LINE
8
BLACK
6
CONTINUOUS
10
174.064
20
-61.9309
11
174.151
21
-61.7807
0
LINE
8
BLACK
6
CONTINUOUS
10
174.151
20
-61.7807
11
174.271
21
-61.6546
0
LINE
8
BLACK
6
CONTINUOUS
10
174.271
20
-61.6546
11
174.416
21
-61.5594
0
LINE
8
BLACK
6
CONTINUOUS
10
174.416
20
-61.5594
11
174.579
21
-61.5001
0
LINE
8
BLACK
6
CONTINUOUS
10
174.579
20
-61.5001
11
174.752
21
-61.48
0
LINE
8
BLACK
6
CONTINUOUS
10
174.752
20
-61.48
11
175.752
21
-61.48
0
LINE
8
BLACK
6
CONTINUOUS
10
175.752
20
-61.48
11
175.845
21
-61.4858
0
LINE
8
BLACK
6
CONTINUOUS
10
159.605
20
-61.4858
11
159.773
21
-61.527
0
LINE
8
BLACK
6
CONTINUOUS
10
159.773
20
-61.527
11
159.928
21
-61.606
0
LINE
8
BLACK
6
CONTINUOUS
10
159.928
20
-61.606
11
160.061
21
-61.7185
0
LINE
8
BLACK
6
CONTINUOUS
10
160.061
20
-61.7185
11
160.163
21
-61.8584
0
LINE
8
BLACK
6
CONTINUOUS
10
160.163
20
-61.8584
11
160.231
21
-62.0182
0
LINE
8
BLACK
6
CONTINUOUS
10
160.231
20
-62.0182
11
160.261
21
-62.1894
0
LINE
8
BLACK
6
CONTINUOUS
10
160.261
20
-62.1894
11
160.25
21
-62.3628
0
LINE
8
BLACK
6
CONTINUOUS
10
160.25
20
-62.3628
11
160.2
21
-62.5291
0
LINE
8
BLACK
6
CONTINUOUS
10
160.2
20
-62.5291
11
160.113
21
-62.6793
0
LINE
8
BLACK
6
CONTINUOUS
10
160.113
20
-62.6793
11
159.993
21
-62.8054
0
LINE
8
BLACK
6
CONTINUOUS
10
159.993
20
-62.8054
11
159.848
21
-62.9006
0
LINE
8
BLACK
6
CONTINUOUS
10
159.848
20
-62.9006
11
159.685
21
-62.9599
0
LINE
8
BLACK
6
CONTINUOUS
10
159.685
20
-62.9599
11
159.512
21
-62.98
0
LINE
8
BLACK
6
CONTINUOUS
10
159.512
20
-62.98
11
158.512
21
-62.98
0
LINE
8
BLACK
6
CONTINUOUS
10
158.512
20
-62.98
11
158.419
21
-62.9742
0
LINE
8
BLACK
6
CONTINUOUS
10
158.419
20
-62.9742
11
158.251
21
-62.933
0
LINE
8
BLACK
6
CONTINUOUS
10
158.251
20
-62.933
11
158.096
21
-62.854
0
LINE
8
BLACK
6
CONTINUOUS
10
158.096
20
-62.854
11
157.963
21
-62.7415
0
LINE
8
BLACK
6
CONTINUOUS
10
157.963
20
-62.7415
11
157.861
21
-62.6016
0
LINE
8
BLACK
6
CONTINUOUS
10
157.861
20
-62.6016
11
157.793
21
-62.4418
0
LINE
8
BLACK
6
CONTINUOUS
10
157.793
20
-62.4418
11
157.763
21
-62.2706
0
LINE
8
BLACK
6
CONTINUOUS
10
157.763
20
-62.2706
11
157.774
21
-62.0972
0
LINE
8
BLACK
6
CONTINUOUS
10
157.774
20
-62.0972
11
157.824
21
-61.9309
0
LINE
8
BLACK
6
CONTINUOUS
10
157.824
20
-61.9309
11
157.911
21
-61.7807
0
LINE
8
BLACK
6
CONTINUOUS
10
157.911
20
-61.7807
11
158.031
21
-61.6546
0
LINE
8
BLACK
6
CONTINUOUS
10
158.031
20
-61.6546
11
158.176
21
-61.5594
0
LINE
8
BLACK
6
CONTINUOUS
10
158.176
20
-61.5594
11
158.339
21
-61.5001
0
LINE
8
BLACK
6
CONTINUOUS
10
158.339
20
-61.5001
11
158.512
21
-61.48
0
LINE
8
BLACK
6
CONTINUOUS
10
158.512
20
-61.48
11
159.512
21
-61.48
0
LINE
8
BLACK
6
CONTINUOUS
10
159.512
20
-61.48
11
159.605
21
-61.4858
0
LINE
8
BLACK
6
CONTINUOUS
10
175.845
20
-58.9458
11
176.013
21
-58.987
0
LINE
8
BLACK
6
CONTINUOUS
10
176.013
20
-58.987
11
176.168
21
-59.066
0
LINE
8
BLACK
6
CONTINUOUS
10
176.168
20
-59.066
11
176.301
21
-59.1785
0
LINE
8
BLACK
6
CONTINUOUS
10
176.301
20
-59.1785
11
176.403
21
-59.3184
0
LINE
8
BLACK
6
CONTINUOUS
10
176.403
20
-59.3184
11
176.471
21
-59.4782
0
LINE
8
BLACK
6
CONTINUOUS
10
176.471
20
-59.4782
11
176.501
21
-59.6494
0
LINE
8
BLACK
6
CONTINUOUS
10
176.501
20
-59.6494
11
176.49
21
-59.8228
0
LINE
8
BLACK
6
CONTINUOUS
10
176.49
20
-59.8228
11
176.44
21
-59.9891
0
LINE
8
BLACK
6
CONTINUOUS
10
176.44
20
-59.9891
11
176.353
21
-60.1393
0
LINE
8
BLACK
6
CONTINUOUS
10
176.353
20
-60.1393
11
176.233
21
-60.2654
0
LINE
8
BLACK
6
CONTINUOUS
10
176.233
20
-60.2654
11
176.088
21
-60.3606
0
LINE
8
BLACK
6
CONTINUOUS
10
176.088
20
-60.3606
11
175.925
21
-60.4199
0
LINE
8
BLACK
6
CONTINUOUS
10
175.925
20
-60.4199
11
175.752
21
-60.44
0
LINE
8
BLACK
6
CONTINUOUS
10
175.752
20
-60.44
11
174.752
21
-60.44
0
LINE
8
BLACK
6
CONTINUOUS
10
174.752
20
-60.44
11
174.659
21
-60.4342
0
LINE
8
BLACK
6
CONTINUOUS
10
174.659
20
-60.4342
11
174.491
21
-60.393
0
LINE
8
BLACK
6
CONTINUOUS
10
174.491
20
-60.393
11
174.336
21
-60.314
0
LINE
8
BLACK
6
CONTINUOUS
10
174.336
20
-60.314
11
174.203
21
-60.2015
0
LINE
8
BLACK
6
CONTINUOUS
10
174.203
20
-60.2015
11
174.101
21
-60.0616
0
LINE
8
BLACK
6
CONTINUOUS
10
174.101
20
-60.0616
11
174.033
21
-59.9018
0
LINE
8
BLACK
6
CONTINUOUS
10
174.033
20
-59.9018
11
174.003
21
-59.7306
0
LINE
8
BLACK
6
CONTINUOUS
10
174.003
20
-59.7306
11
174.014
21
-59.5572
0
LINE
8
BLACK
6
CONTINUOUS
10
174.014
20
-59.5572
11
174.064
21
-59.3909
0
LINE
8
BLACK
6
CONTINUOUS
10
174.064
20
-59.3909
11
174.151
21
-59.2407
0
LINE
8
BLACK
6
CONTINUOUS
10
174.151
20
-59.2407
11
174.271
21
-59.1146
0
LINE
8
BLACK
6
CONTINUOUS
10
174.271
20
-59.1146
11
174.416
21
-59.0194
0
LINE
8
BLACK
6
CONTINUOUS
10
174.416
20
-59.0194
11
174.579
21
-58.9601
0
LINE
8
BLACK
6
CONTINUOUS
10
174.579
20
-58.9601
11
174.752
21
-58.94
0
LINE
8
BLACK
6
CONTINUOUS
10
174.752
20
-58.94
11
175.752
21
-58.94
0
LINE
8
BLACK
6
CONTINUOUS
10
175.752
20
-58.94
11
175.845
21
-58.9458
0
LINE
8
BLACK
6
CONTINUOUS
10
159.605
20
-58.9458
11
159.773
21
-58.987
0
LINE
8
BLACK
6
CONTINUOUS
10
159.773
20
-58.987
11
159.928
21
-59.066
0
LINE
8
BLACK
6
CONTINUOUS
10
159.928
20
-59.066
11
160.061
21
-59.1785
0
LINE
8
BLACK
6
CONTINUOUS
10
160.061
20
-59.1785
11
160.163
21
-59.3184
0
LINE
8
BLACK
6
CONTINUOUS
10
160.163
20
-59.3184
11
160.231
21
-59.4782
0
LINE
8
BLACK
6
CONTINUOUS
10
160.231
20
-59.4782
11
160.261
21
-59.6494
0
LINE
8
BLACK
6
CONTINUOUS
10
160.261
20
-59.6494
11
160.25
21
-59.8228
0
LINE
8
BLACK
6
CONTINUOUS
10
160.25
20
-59.8228
11
160.2
21
-59.9891
0
LINE
8
BLACK
6
CONTINUOUS
10
160.2
20
-59.9891
11
160.113
21
-60.1393
0
LINE
8
BLACK
6
CONTINUOUS
10
160.113
20
-60.1393
11
159.993
21
-60.2654
0
LINE
8
BLACK
6
CONTINUOUS
10
159.993
20
-60.2654
11
159.848
21
-60.3606
0
LINE
8
BLACK
6
CONTINUOUS
10
159.848
20
-60.3606
11
159.685
21
-60.4199
0
LINE
8
BLACK
6
CONTINUOUS
10
159.685
20
-60.4199
11
159.512
21
-60.44
0
LINE
8
BLACK
6
CONTINUOUS
10
159.512
20
-60.44
11
158.512
21
-60.44
0
LINE
8
BLACK
6
CONTINUOUS
10
158.512
20
-60.44
11
158.419
21
-60.4342
0
LINE
8
BLACK
6
CONTINUOUS
10
158.419
20
-60.4342
11
158.251
21
-60.393
0
LINE
8
BLACK
6
CONTINUOUS
10
158.251
20
-60.393
11
158.096
21
-60.314
0
LINE
8
BLACK
6
CONTINUOUS
10
158.096
20
-60.314
11
157.963
21
-60.2015
0
LINE
8
BLACK
6
CONTINUOUS
10
157.963
20
-60.2015
11
157.861
21
-60.0616
0
LINE
8
BLACK
6
CONTINUOUS
10
157.861
20
-60.0616
11
157.793
21
-59.9018
0
LINE
8
BLACK
6
CONTINUOUS
10
157.793
20
-59.9018
11
157.763
21
-59.7306
0
LINE
8
BLACK
6
CONTINUOUS
10
157.763
20
-59.7306
11
157.774
21
-59.5572
0
LINE
8
BLACK
6
CONTINUOUS
10
157.774
20
-59.5572
11
157.824
21
-59.3909
0
LINE
8
BLACK
6
CONTINUOUS
10
157.824
20
-59.3909
11
157.911
21
-59.2407
0
LINE
8
BLACK
6
CONTINUOUS
10
157.911
20
-59.2407
11
158.031
21
-59.1146
0
LINE
8
BLACK
6
CONTINUOUS
10
158.031
20
-59.1146
11
158.176
21
-59.0194
0
LINE
8
BLACK
6
CONTINUOUS
10
158.176
20
-59.0194
11
158.339
21
-58.9601
0
LINE
8
BLACK
6
CONTINUOUS
10
158.339
20
-58.9601
11
158.512
21
-58.94
0
LINE
8
BLACK
6
CONTINUOUS
10
158.512
20
-58.94
11
159.512
21
-58.94
0
LINE
8
BLACK
6
CONTINUOUS
10
159.512
20
-58.94
11
159.605
21
-58.9458
0
LINE
8
BLACK
6
CONTINUOUS
10
175.845
20
-56.4058
11
176.013
21
-56.447
0
LINE
8
BLACK
6
CONTINUOUS
10
176.013
20
-56.447
11
176.168
21
-56.526
0
LINE
8
BLACK
6
CONTINUOUS
10
176.168
20
-56.526
11
176.301
21
-56.6385
0
LINE
8
BLACK
6
CONTINUOUS
10
176.301
20
-56.6385
11
176.403
21
-56.7784
0
LINE
8
BLACK
6
CONTINUOUS
10
176.403
20
-56.7784
11
176.471
21
-56.9382
0
LINE
8
BLACK
6
CONTINUOUS
10
176.471
20
-56.9382
11
176.501
21
-57.1094
0
LINE
8
BLACK
6
CONTINUOUS
10
176.501
20
-57.1094
11
176.49
21
-57.2828
0
LINE
8
BLACK
6
CONTINUOUS
10
176.49
20
-57.2828
11
176.44
21
-57.4491
0
LINE
8
BLACK
6
CONTINUOUS
10
176.44
20
-57.4491
11
176.353
21
-57.5993
0
LINE
8
BLACK
6
CONTINUOUS
10
176.353
20
-57.5993
11
176.233
21
-57.7254
0
LINE
8
BLACK
6
CONTINUOUS
10
176.233
20
-57.7254
11
176.088
21
-57.8206
0
LINE
8
BLACK
6
CONTINUOUS
10
176.088
20
-57.8206
11
175.925
21
-57.8799
0
LINE
8
BLACK
6
CONTINUOUS
10
175.925
20
-57.8799
11
175.752
21
-57.9
0
LINE
8
BLACK
6
CONTINUOUS
10
175.752
20
-57.9
11
174.752
21
-57.9
0
LINE
8
BLACK
6
CONTINUOUS
10
174.752
20
-57.9
11
174.659
21
-57.8942
0
LINE
8
BLACK
6
CONTINUOUS
10
174.659
20
-57.8942
11
174.491
21
-57.853
0
LINE
8
BLACK
6
CONTINUOUS
10
174.491
20
-57.853
11
174.336
21
-57.774
0
LINE
8
BLACK
6
CONTINUOUS
10
174.336
20
-57.774
11
174.203
21
-57.6615
0
LINE
8
BLACK
6
CONTINUOUS
10
174.203
20
-57.6615
11
174.101
21
-57.5216
0
LINE
8
BLACK
6
CONTINUOUS
10
174.101
20
-57.5216
11
174.033
21
-57.3618
0
LINE
8
BLACK
6
CONTINUOUS
10
174.033
20
-57.3618
11
174.003
21
-57.1906
0
LINE
8
BLACK
6
CONTINUOUS
10
174.003
20
-57.1906
11
174.014
21
-57.0172
0
LINE
8
BLACK
6
CONTINUOUS
10
174.014
20
-57.0172
11
174.064
21
-56.8509
0
LINE
8
BLACK
6
CONTINUOUS
10
174.064
20
-56.8509
11
174.151
21
-56.7007
0
LINE
8
BLACK
6
CONTINUOUS
10
174.151
20
-56.7007
11
174.271
21
-56.5746
0
LINE
8
BLACK
6
CONTINUOUS
10
174.271
20
-56.5746
11
174.416
21
-56.4794
0
LINE
8
BLACK
6
CONTINUOUS
10
174.416
20
-56.4794
11
174.579
21
-56.4201
0
LINE
8
BLACK
6
CONTINUOUS
10
174.579
20
-56.4201
11
174.752
21
-56.4
0
LINE
8
BLACK
6
CONTINUOUS
10
174.752
20
-56.4
11
175.752
21
-56.4
0
LINE
8
BLACK
6
CONTINUOUS
10
175.752
20
-56.4
11
175.845
21
-56.4058
0
LINE
8
BLACK
6
CONTINUOUS
10
159.605
20
-56.4058
11
159.773
21
-56.447
0
LINE
8
BLACK
6
CONTINUOUS
10
159.773
20
-56.447
11
159.928
21
-56.526
0
LINE
8
BLACK
6
CONTINUOUS
10
159.928
20
-56.526
11
160.061
21
-56.6385
0
LINE
8
BLACK
6
CONTINUOUS
10
160.061
20
-56.6385
11
160.163
21
-56.7784
0
LINE
8
BLACK
6
CONTINUOUS
10
160.163
20
-56.7784
11
160.231
21
-56.9382
0
LINE
8
BLACK
6
CONTINUOUS
10
160.231
20
-56.9382
11
160.261
21
-57.1094
0
LINE
8
BLACK
6
CONTINUOUS
10
160.261
20
-57.1094
11
160.25
21
-57.2828
0
LINE
8
BLACK
6
CONTINUOUS
10
160.25
20
-57.2828
11
160.2
21
-57.4491
0
LINE
8
BLACK
6
CONTINUOUS
10
160.2
20
-57.4491
11
160.113
21
-57.5993
0
LINE
8
BLACK
6
CONTINUOUS
10
160.113
20
-57.5993
11
159.993
21
-57.7254
0
LINE
8
BLACK
6
CONTINUOUS
10
159.993
20
-57.7254
11
159.848
21
-57.8206
0
LINE
8
BLACK
6
CONTINUOUS
10
159.848
20
-57.8206
11
159.685
21
-57.8799
0
LINE
8
BLACK
6
CONTINUOUS
10
159.685
20
-57.8799
11
159.512
21
-57.9
0
LINE
8
BLACK
6
CONTINUOUS
10
159.512
20
-57.9
11
158.512
21
-57.9
0
LINE
8
BLACK
6
CONTINUOUS
10
158.512
20
-57.9
11
158.419
21
-57.8942
0
LINE
8
BLACK
6
CONTINUOUS
10
158.419
20
-57.8942
11
158.251
21
-57.853
0
LINE
8
BLACK
6
CONTINUOUS
10
158.251
20
-57.853
11
158.096
21
-57.774
0
LINE
8
BLACK
6
CONTINUOUS
10
158.096
20
-57.774
11
157.963
21
-57.6615
0
LINE
8
BLACK
6
CONTINUOUS
10
157.963
20
-57.6615
11
157.861
21
-57.5216
0
LINE
8
BLACK
6
CONTINUOUS
10
157.861
20
-57.5216
11
157.793
21
-57.3618
0
LINE
8
BLACK
6
CONTINUOUS
10
157.793
20
-57.3618
11
157.763
21
-57.1906
0
LINE
8
BLACK
6
CONTINUOUS
10
157.763
20
-57.1906
11
157.774
21
-57.0172
0
LINE
8
BLACK
6
CONTINUOUS
10
157.774
20
-57.0172
11
157.824
21
-56.8509
0
LINE
8
BLACK
6
CONTINUOUS
10
157.824
20
-56.8509
11
157.911
21
-56.7007
0
LINE
8
BLACK
6
CONTINUOUS
10
157.911
20
-56.7007
11
158.031
21
-56.5746
0
LINE
8
BLACK
6
CONTINUOUS
10
158.031
20
-56.5746
11
158.176
21
-56.4794
0
LINE
8
BLACK
6
CONTINUOUS
10
158.176
20
-56.4794
11
158.339
21
-56.4201
0
LINE
8
BLACK
6
CONTINUOUS
10
158.339
20
-56.4201
11
158.512
21
-56.4
0
LINE
8
BLACK
6
CONTINUOUS
10
158.512
20
-56.4
11
159.512
21
-56.4
0
LINE
8
BLACK
6
CONTINUOUS
10
159.512
20
-56.4
11
159.605
21
-56.4058
0
LINE
8
BLACK
6
CONTINUOUS
10
175.845
20
-53.8658
11
176.013
21
-53.907
0
LINE
8
BLACK
6
CONTINUOUS
10
176.013
20
-53.907
11
176.168
21
-53.986
0
LINE
8
BLACK
6
CONTINUOUS
10
176.168
20
-53.986
11
176.301
21
-54.0985
0
LINE
8
BLACK
6
CONTINUOUS
10
176.301
20
-54.0985
11
176.403
21
-54.2384
0
LINE
8
BLACK
6
CONTINUOUS
10
176.403
20
-54.2384
11
176.471
21
-54.3982
0
LINE
8
BLACK
6
CONTINUOUS
10
176.471
20
-54.3982
11
176.501
21
-54.5694
0
LINE
8
BLACK
6
CONTINUOUS
10
176.501
20
-54.5694
11
176.49
21
-54.7428
0
LINE
8
BLACK
6
CONTINUOUS
10
176.49
20
-54.7428
11
176.44
21
-54.9091
0
LINE
8
BLACK
6
CONTINUOUS
10
176.44
20
-54.9091
11
176.353
21
-55.0593
0
LINE
8
BLACK
6
CONTINUOUS
10
176.353
20
-55.0593
11
176.233
21
-55.1854
0
LINE
8
BLACK
6
CONTINUOUS
10
176.233
20
-55.1854
11
176.088
21
-55.2806
0
LINE
8
BLACK
6
CONTINUOUS
10
176.088
20
-55.2806
11
175.925
21
-55.3399
0
LINE
8
BLACK
6
CONTINUOUS
10
175.925
20
-55.3399
11
175.752
21
-55.36
0
LINE
8
BLACK
6
CONTINUOUS
10
175.752
20
-55.36
11
174.752
21
-55.36
0
LINE
8
BLACK
6
CONTINUOUS
10
174.752
20
-55.36
11
174.659
21
-55.3542
0
LINE
8
BLACK
6
CONTINUOUS
10
174.659
20
-55.3542
11
174.491
21
-55.313
0
LINE
8
BLACK
6
CONTINUOUS
10
174.491
20
-55.313
11
174.336
21
-55.234
0
LINE
8
BLACK
6
CONTINUOUS
10
174.336
20
-55.234
11
174.203
21
-55.1215
0
LINE
8
BLACK
6
CONTINUOUS
10
174.203
20
-55.1215
11
174.101
21
-54.9816
0
LINE
8
BLACK
6
CONTINUOUS
10
174.101
20
-54.9816
11
174.033
21
-54.8218
0
LINE
8
BLACK
6
CONTINUOUS
10
174.033
20
-54.8218
11
174.003
21
-54.6506
0
LINE
8
BLACK
6
CONTINUOUS
10
174.003
20
-54.6506
11
174.014
21
-54.4772
0
LINE
8
BLACK
6
CONTINUOUS
10
174.014
20
-54.4772
11
174.064
21
-54.3109
0
LINE
8
BLACK
6
CONTINUOUS
10
174.064
20
-54.3109
11
174.151
21
-54.1607
0
LINE
8
BLACK
6
CONTINUOUS
10
174.151
20
-54.1607
11
174.271
21
-54.0346
0
LINE
8
BLACK
6
CONTINUOUS
10
174.271
20
-54.0346
11
174.416
21
-53.9394
0
LINE
8
BLACK
6
CONTINUOUS
10
174.416
20
-53.9394
11
174.579
21
-53.8801
0
LINE
8
BLACK
6
CONTINUOUS
10
174.579
20
-53.8801
11
174.752
21
-53.86
0
LINE
8
BLACK
6
CONTINUOUS
10
174.752
20
-53.86
11
175.752
21
-53.86
0
LINE
8
BLACK
6
CONTINUOUS
10
175.752
20
-53.86
11
175.845
21
-53.8658
0
LINE
8
BLACK
6
CONTINUOUS
10
159.605
20
-53.8658
11
159.773
21
-53.907
0
LINE
8
BLACK
6
CONTINUOUS
10
159.773
20
-53.907
11
159.928
21
-53.986
0
LINE
8
BLACK
6
CONTINUOUS
10
159.928
20
-53.986
11
160.061
21
-54.0985
0
LINE
8
BLACK
6
CONTINUOUS
10
160.061
20
-54.0985
11
160.163
21
-54.2384
0
LINE
8
BLACK
6
CONTINUOUS
10
160.163
20
-54.2384
11
160.231
21
-54.3982
0
LINE
8
BLACK
6
CONTINUOUS
10
160.231
20
-54.3982
11
160.261
21
-54.5694
0
LINE
8
BLACK
6
CONTINUOUS
10
160.261
20
-54.5694
11
160.25
21
-54.7428
0
LINE
8
BLACK
6
CONTINUOUS
10
160.25
20
-54.7428
11
160.2
21
-54.9091
0
LINE
8
BLACK
6
CONTINUOUS
10
160.2
20
-54.9091
11
160.113
21
-55.0593
0
LINE
8
BLACK
6
CONTINUOUS
10
160.113
20
-55.0593
11
159.993
21
-55.1854
0
LINE
8
BLACK
6
CONTINUOUS
10
159.993
20
-55.1854
11
159.848
21
-55.2806
0
LINE
8
BLACK
6
CONTINUOUS
10
159.848
20
-55.2806
11
159.685
21
-55.3399
0
LINE
8
BLACK
6
CONTINUOUS
10
159.685
20
-55.3399
11
159.512
21
-55.36
0
LINE
8
BLACK
6
CONTINUOUS
10
159.512
20
-55.36
11
158.512
21
-55.36
0
LINE
8
BLACK
6
CONTINUOUS
10
158.512
20
-55.36
11
158.419
21
-55.3542
0
LINE
8
BLACK
6
CONTINUOUS
10
158.419
20
-55.3542
11
158.251
21
-55.313
0
LINE
8
BLACK
6
CONTINUOUS
10
158.251
20
-55.313
11
158.096
21
-55.234
0
LINE
8
BLACK
6
CONTINUOUS
10
158.096
20
-55.234
11
157.963
21
-55.1215
0
LINE
8
BLACK
6
CONTINUOUS
10
157.963
20
-55.1215
11
157.861
21
-54.9816
0
LINE
8
BLACK
6
CONTINUOUS
10
157.861
20
-54.9816
11
157.793
21
-54.8218
0
LINE
8
BLACK
6
CONTINUOUS
10
157.793
20
-54.8218
11
157.763
21
-54.6506
0
LINE
8
BLACK
6
CONTINUOUS
10
157.763
20
-54.6506
11
157.774
21
-54.4772
0
LINE
8
BLACK
6
CONTINUOUS
10
157.774
20
-54.4772
11
157.824
21
-54.3109
0
LINE
8
BLACK
6
CONTINUOUS
10
157.824
20
-54.3109
11
157.911
21
-54.1607
0
LINE
8
BLACK
6
CONTINUOUS
10
157.911
20
-54.1607
11
158.031
21
-54.0346
0
LINE
8
BLACK
6
CONTINUOUS
10
158.031
20
-54.0346
11
158.176
21
-53.9394
0
LINE
8
BLACK
6
CONTINUOUS
10
158.176
20
-53.9394
11
158.339
21
-53.8801
0
LINE
8
BLACK
6
CONTINUOUS
10
158.339
20
-53.8801
11
158.512
21
-53.86
0
LINE
8
BLACK
6
CONTINUOUS
10
158.512
20
-53.86
11
159.512
21
-53.86
0
LINE
8
BLACK
6
CONTINUOUS
10
159.512
20
-53.86
11
159.605
21
-53.8658
  0
ENDSEC
  0
EOF
