  0
SECTION
  2
HEADER
  9
$ANGBASE
  50
0.0
  9
$ANGDIR
  70
1
  9
$MEASUREMENT
  70
1
  0
ENDSEC
  0
SECTION
  2
TABLES
  0
TABLE
  2
LTYPE
  70
4
  0
LTYPE
  5
40F
  2
CONTINUOUS
  70
0
  3
Solid line
  72
65
  73
0
  40
0.0
  0
LTYPE
  5
410
  2
DASHDOT
 70
0
  3
Dash Dot ____ _ ____ _
 72
65
 73
4
 40
2.0
 49
1.25
 49
-0.25
 49
0.25
 49
-0.25
  0
LTYPE
  5
411
  2
DASHED
 70
0
  3
Dashed __ __ __ __ __
 72
65
 73
2
 40
0.75
 49
0.5
 49
-0.25
  0
LTYPE
  5
43B
  2
DOTTED
 70
0
  3
Dotted .  .  .  .
 72
65
 73
2
 40
0.2
 49
0.0
 49
-0.2
  0
ENDTAB
  0
TABLE
  2
STYLE
  70
4
  0
STYLE
  2
KICAD
  70
0
  40
0
  41
1
  42
1
  50
0
  71
0
  3
isocp.shx
  0
STYLE
  2
KICADB
  70
0
  40
0
  41
1
  42
1
  50
0
  71
0
  3
isocp.shx
  0
STYLE
  2
KICADI
  70
0
  40
0
  41
1
  42
1
  50
15
  71
0
  3
isocp.shx
  0
STYLE
  2
KICADBI
  70
0
  40
0
  41
1
  42
1
  50
15
  71
0
  3
isocp.shx
  0
ENDTAB
  0
TABLE
  2
LAYER
  70
1
  0
LAYER
  2
BLACK
  70
0
  62
7
  6
CONTINUOUS
  0
ENDTAB
  0
ENDSEC
  0
SECTION
  2
ENTITIES
0
LINE
8
BLACK
6
CONTINUOUS
10
192.573
20
-179.782
11
191.758
21
-180.162
0
LINE
8
BLACK
6
CONTINUOUS
10
191.758
20
-180.162
11
191.25
21
-179.075
0
LINE
8
BLACK
6
CONTINUOUS
10
191.25
20
-179.075
11
192.066
21
-178.694
0
LINE
8
BLACK
6
CONTINUOUS
10
192.066
20
-178.694
11
192.573
21
-179.782
0
LINE
8
BLACK
6
CONTINUOUS
10
195.564
20
-178.387
11
194.748
21
-178.768
0
LINE
8
BLACK
6
CONTINUOUS
10
194.748
20
-178.768
11
194.241
21
-177.68
0
LINE
8
BLACK
6
CONTINUOUS
10
194.241
20
-177.68
11
195.057
21
-177.3
0
LINE
8
BLACK
6
CONTINUOUS
10
195.057
20
-177.3
11
195.564
21
-178.387
0
LINE
8
BLACK
6
CONTINUOUS
10
130.681
20
-172.81
11
130.174
21
-173.897
0
LINE
8
BLACK
6
CONTINUOUS
10
130.174
20
-173.897
11
129.358
21
-173.517
0
LINE
8
BLACK
6
CONTINUOUS
10
129.358
20
-173.517
11
129.865
21
-172.429
0
LINE
8
BLACK
6
CONTINUOUS
10
129.865
20
-172.429
11
130.681
21
-172.81
0
LINE
8
BLACK
6
CONTINUOUS
10
127.69
20
-171.415
11
127.183
21
-172.503
0
LINE
8
BLACK
6
CONTINUOUS
10
127.183
20
-172.503
11
126.367
21
-172.122
0
LINE
8
BLACK
6
CONTINUOUS
10
126.367
20
-172.122
11
126.874
21
-171.035
0
LINE
8
BLACK
6
CONTINUOUS
10
126.874
20
-171.035
11
127.69
21
-171.415
0
LINE
8
BLACK
6
CONTINUOUS
10
214.148
20
-169.756
11
213.333
21
-170.136
0
LINE
8
BLACK
6
CONTINUOUS
10
213.333
20
-170.136
11
212.826
21
-169.049
0
LINE
8
BLACK
6
CONTINUOUS
10
212.826
20
-169.049
11
213.641
21
-168.668
0
LINE
8
BLACK
6
CONTINUOUS
10
213.641
20
-168.668
11
214.148
21
-169.756
0
LINE
8
BLACK
6
CONTINUOUS
10
217.139
20
-168.361
11
216.323
21
-168.742
0
LINE
8
BLACK
6
CONTINUOUS
10
216.323
20
-168.742
11
215.816
21
-167.654
0
LINE
8
BLACK
6
CONTINUOUS
10
215.816
20
-167.654
11
216.632
21
-167.274
0
LINE
8
BLACK
6
CONTINUOUS
10
216.632
20
-167.274
11
217.139
21
-168.361
0
LINE
8
BLACK
6
CONTINUOUS
10
109.091
20
-162.65
11
108.584
21
-163.737
0
LINE
8
BLACK
6
CONTINUOUS
10
108.584
20
-163.737
11
107.768
21
-163.357
0
LINE
8
BLACK
6
CONTINUOUS
10
107.768
20
-163.357
11
108.275
21
-162.269
0
LINE
8
BLACK
6
CONTINUOUS
10
108.275
20
-162.269
11
109.091
21
-162.65
0
LINE
8
BLACK
6
CONTINUOUS
10
106.1
20
-161.255
11
105.593
21
-162.343
0
LINE
8
BLACK
6
CONTINUOUS
10
105.593
20
-162.343
11
104.777
21
-161.962
0
LINE
8
BLACK
6
CONTINUOUS
10
104.777
20
-161.962
11
105.284
21
-160.875
0
LINE
8
BLACK
6
CONTINUOUS
10
105.284
20
-160.875
11
106.1
21
-161.255
0
LINE
8
BLACK
6
CONTINUOUS
10
235.845
20
-157.898
11
234.958
21
-158.054
0
LINE
8
BLACK
6
CONTINUOUS
10
234.958
20
-158.054
11
234.75
21
-156.873
0
LINE
8
BLACK
6
CONTINUOUS
10
234.75
20
-156.873
11
235.636
21
-156.716
0
LINE
8
BLACK
6
CONTINUOUS
10
235.636
20
-156.716
11
235.845
21
-157.898
0
LINE
8
BLACK
6
CONTINUOUS
10
239.095
20
-157.325
11
238.208
21
-157.481
0
LINE
8
BLACK
6
CONTINUOUS
10
238.208
20
-157.481
11
238
21
-156.3
0
LINE
8
BLACK
6
CONTINUOUS
10
238
20
-156.3
11
238.886
21
-156.143
0
LINE
8
BLACK
6
CONTINUOUS
10
238.886
20
-156.143
11
239.095
21
-157.325
0
LINE
8
BLACK
6
CONTINUOUS
10
85.5966
20
-154.363
11
85.3882
21
-155.544
0
LINE
8
BLACK
6
CONTINUOUS
10
85.3882
20
-155.544
11
84.5019
21
-155.388
0
LINE
8
BLACK
6
CONTINUOUS
10
84.5019
20
-155.388
11
84.7103
21
-154.206
0
LINE
8
BLACK
6
CONTINUOUS
10
84.7103
20
-154.206
11
85.5966
21
-154.363
0
LINE
8
BLACK
6
CONTINUOUS
10
82.3467
20
-153.79
11
82.1384
21
-154.971
0
LINE
8
BLACK
6
CONTINUOUS
10
82.1384
20
-154.971
11
81.252
21
-154.815
0
LINE
8
BLACK
6
CONTINUOUS
10
81.252
20
-154.815
11
81.4604
21
-153.633
0
LINE
8
BLACK
6
CONTINUOUS
10
81.4604
20
-153.633
11
82.3467
21
-153.79
0
LINE
8
BLACK
6
CONTINUOUS
10
254.208
20
-152.339
11
253.322
21
-152.495
0
LINE
8
BLACK
6
CONTINUOUS
10
253.322
20
-152.495
11
253.114
21
-151.313
0
LINE
8
BLACK
6
CONTINUOUS
10
253.114
20
-151.313
11
254
21
-151.157
0
LINE
8
BLACK
6
CONTINUOUS
10
254
20
-151.157
11
254.208
21
-152.339
0
LINE
8
BLACK
6
CONTINUOUS
10
257.458
20
-151.766
11
256.572
21
-151.922
0
LINE
8
BLACK
6
CONTINUOUS
10
256.572
20
-151.922
11
256.363
21
-150.74
0
LINE
8
BLACK
6
CONTINUOUS
10
256.363
20
-150.74
11
257.25
21
-150.584
0
LINE
8
BLACK
6
CONTINUOUS
10
257.25
20
-150.584
11
257.458
21
-151.766
0
LINE
8
BLACK
6
CONTINUOUS
10
67.233
20
-148.803
11
67.0246
21
-149.985
0
LINE
8
BLACK
6
CONTINUOUS
10
67.0246
20
-149.985
11
66.1383
21
-149.829
0
LINE
8
BLACK
6
CONTINUOUS
10
66.1383
20
-149.829
11
66.3467
21
-148.647
0
LINE
8
BLACK
6
CONTINUOUS
10
66.3467
20
-148.647
11
67.233
21
-148.803
0
LINE
8
BLACK
6
CONTINUOUS
10
63.9831
20
-148.23
11
63.7747
21
-149.412
0
LINE
8
BLACK
6
CONTINUOUS
10
63.7747
20
-149.412
11
62.8884
21
-149.256
0
LINE
8
BLACK
6
CONTINUOUS
10
62.8884
20
-149.256
11
63.0968
21
-148.074
0
LINE
8
BLACK
6
CONTINUOUS
10
63.0968
20
-148.074
11
63.9831
21
-148.23
0
LINE
8
BLACK
6
CONTINUOUS
10
272.969
20
-149.031
11
272.083
21
-149.187
0
LINE
8
BLACK
6
CONTINUOUS
10
272.083
20
-149.187
11
271.874
21
-148.005
0
LINE
8
BLACK
6
CONTINUOUS
10
271.874
20
-148.005
11
272.761
21
-147.849
0
LINE
8
BLACK
6
CONTINUOUS
10
272.761
20
-147.849
11
272.969
21
-149.031
0
LINE
8
BLACK
6
CONTINUOUS
10
48.0754
20
-147.747
11
47.8671
21
-148.928
0
LINE
8
BLACK
6
CONTINUOUS
10
47.8671
20
-148.928
11
46.9807
21
-148.772
0
LINE
8
BLACK
6
CONTINUOUS
10
46.9807
20
-148.772
11
47.1891
21
-147.59
0
LINE
8
BLACK
6
CONTINUOUS
10
47.1891
20
-147.59
11
48.0754
21
-147.747
0
LINE
8
BLACK
6
CONTINUOUS
10
276.219
20
-148.458
11
275.332
21
-148.614
0
LINE
8
BLACK
6
CONTINUOUS
10
275.332
20
-148.614
11
275.124
21
-147.432
0
LINE
8
BLACK
6
CONTINUOUS
10
275.124
20
-147.432
11
276.01
21
-147.276
0
LINE
8
BLACK
6
CONTINUOUS
10
276.01
20
-147.276
11
276.219
21
-148.458
0
LINE
8
BLACK
6
CONTINUOUS
10
28.8297
20
-147.19
11
28.6213
21
-148.372
0
LINE
8
BLACK
6
CONTINUOUS
10
28.6213
20
-148.372
11
27.735
21
-148.216
0
LINE
8
BLACK
6
CONTINUOUS
10
27.735
20
-148.216
11
27.9433
21
-147.034
0
LINE
8
BLACK
6
CONTINUOUS
10
27.9433
20
-147.034
11
28.8297
21
-147.19
0
LINE
8
BLACK
6
CONTINUOUS
10
44.8256
20
-147.174
11
44.6172
21
-148.355
0
LINE
8
BLACK
6
CONTINUOUS
10
44.6172
20
-148.355
11
43.7309
21
-148.199
0
LINE
8
BLACK
6
CONTINUOUS
10
43.7309
20
-148.199
11
43.9392
21
-147.017
0
LINE
8
BLACK
6
CONTINUOUS
10
43.9392
20
-147.017
11
44.8256
21
-147.174
0
LINE
8
BLACK
6
CONTINUOUS
10
195.412
20
-148.005
11
194.526
21
-148.161
0
LINE
8
BLACK
6
CONTINUOUS
10
194.526
20
-148.161
11
194.318
21
-146.979
0
LINE
8
BLACK
6
CONTINUOUS
10
194.318
20
-146.979
11
195.204
21
-146.823
0
LINE
8
BLACK
6
CONTINUOUS
10
195.204
20
-146.823
11
195.412
21
-148.005
0
LINE
8
BLACK
6
CONTINUOUS
10
292
20
-147.996
11
291.114
21
-148.153
0
LINE
8
BLACK
6
CONTINUOUS
10
291.114
20
-148.153
11
290.906
21
-146.971
0
LINE
8
BLACK
6
CONTINUOUS
10
290.906
20
-146.971
11
291.792
21
-146.815
0
LINE
8
BLACK
6
CONTINUOUS
10
291.792
20
-146.815
11
292
21
-147.996
0
LINE
8
BLACK
6
CONTINUOUS
10
25.5798
20
-146.617
11
25.3714
21
-147.799
0
LINE
8
BLACK
6
CONTINUOUS
10
25.3714
20
-147.799
11
24.4851
21
-147.643
0
LINE
8
BLACK
6
CONTINUOUS
10
24.4851
20
-147.643
11
24.6935
21
-146.461
0
LINE
8
BLACK
6
CONTINUOUS
10
24.6935
20
-146.461
11
25.5798
21
-146.617
0
LINE
8
BLACK
6
CONTINUOUS
10
198.662
20
-147.432
11
197.776
21
-147.588
0
LINE
8
BLACK
6
CONTINUOUS
10
197.776
20
-147.588
11
197.568
21
-146.406
0
LINE
8
BLACK
6
CONTINUOUS
10
197.568
20
-146.406
11
198.454
21
-146.25
0
LINE
8
BLACK
6
CONTINUOUS
10
198.454
20
-146.25
11
198.662
21
-147.432
0
LINE
8
BLACK
6
CONTINUOUS
10
295.25
20
-147.423
11
294.364
21
-147.58
0
LINE
8
BLACK
6
CONTINUOUS
10
294.364
20
-147.58
11
294.156
21
-146.398
0
LINE
8
BLACK
6
CONTINUOUS
10
294.156
20
-146.398
11
295.042
21
-146.242
0
LINE
8
BLACK
6
CONTINUOUS
10
295.042
20
-146.242
11
295.25
21
-147.423
0
LINE
8
BLACK
6
CONTINUOUS
10
311.372
20
-147.418
11
310.486
21
-147.574
0
LINE
8
BLACK
6
CONTINUOUS
10
310.486
20
-147.574
11
310.278
21
-146.392
0
LINE
8
BLACK
6
CONTINUOUS
10
310.278
20
-146.392
11
311.164
21
-146.236
0
LINE
8
BLACK
6
CONTINUOUS
10
311.164
20
-146.236
11
311.372
21
-147.418
0
LINE
8
BLACK
6
CONTINUOUS
10
314.622
20
-146.845
11
313.736
21
-147.001
0
LINE
8
BLACK
6
CONTINUOUS
10
313.736
20
-147.001
11
313.527
21
-145.819
0
LINE
8
BLACK
6
CONTINUOUS
10
313.527
20
-145.819
11
314.414
21
-145.663
0
LINE
8
BLACK
6
CONTINUOUS
10
314.414
20
-145.663
11
314.622
21
-146.845
0
LINE
8
BLACK
6
CONTINUOUS
10
126.029
20
-144.469
11
125.82
21
-145.651
0
LINE
8
BLACK
6
CONTINUOUS
10
125.82
20
-145.651
11
124.934
21
-145.495
0
LINE
8
BLACK
6
CONTINUOUS
10
124.934
20
-145.495
11
125.142
21
-144.313
0
LINE
8
BLACK
6
CONTINUOUS
10
125.142
20
-144.313
11
126.029
21
-144.469
0
LINE
8
BLACK
6
CONTINUOUS
10
122.779
20
-143.896
11
122.571
21
-145.078
0
LINE
8
BLACK
6
CONTINUOUS
10
122.571
20
-145.078
11
121.684
21
-144.922
0
LINE
8
BLACK
6
CONTINUOUS
10
121.684
20
-144.922
11
121.893
21
-143.74
0
LINE
8
BLACK
6
CONTINUOUS
10
121.893
20
-143.74
11
122.779
21
-143.896
0
LINE
8
BLACK
6
CONTINUOUS
10
10.0691
20
-143.882
11
9.86071
21
-145.064
0
LINE
8
BLACK
6
CONTINUOUS
10
9.86071
20
-145.064
11
8.97438
21
-144.908
0
LINE
8
BLACK
6
CONTINUOUS
10
8.97438
20
-144.908
11
9.18276
21
-143.726
0
LINE
8
BLACK
6
CONTINUOUS
10
9.18276
20
-143.726
11
10.0691
21
-143.882
0
LINE
8
BLACK
6
CONTINUOUS
10
214.173
20
-144.697
11
213.287
21
-144.853
0
LINE
8
BLACK
6
CONTINUOUS
10
213.287
20
-144.853
11
213.078
21
-143.671
0
LINE
8
BLACK
6
CONTINUOUS
10
213.078
20
-143.671
11
213.965
21
-143.515
0
LINE
8
BLACK
6
CONTINUOUS
10
213.965
20
-143.515
11
214.173
21
-144.697
0
LINE
8
BLACK
6
CONTINUOUS
10
6.81922
20
-143.309
11
6.61084
21
-144.491
0
LINE
8
BLACK
6
CONTINUOUS
10
6.61084
20
-144.491
11
5.72451
21
-144.335
0
LINE
8
BLACK
6
CONTINUOUS
10
5.72451
20
-144.335
11
5.93289
21
-143.153
0
LINE
8
BLACK
6
CONTINUOUS
10
5.93289
20
-143.153
11
6.81922
21
-143.309
0
LINE
8
BLACK
6
CONTINUOUS
10
217.423
20
-144.124
11
216.537
21
-144.28
0
LINE
8
BLACK
6
CONTINUOUS
10
216.537
20
-144.28
11
216.328
21
-143.098
0
LINE
8
BLACK
6
CONTINUOUS
10
216.328
20
-143.098
11
217.215
21
-142.942
0
LINE
8
BLACK
6
CONTINUOUS
10
217.215
20
-142.942
11
217.423
21
-144.124
0
LINE
8
BLACK
6
CONTINUOUS
10
107.268
20
-141.161
11
107.06
21
-142.343
0
LINE
8
BLACK
6
CONTINUOUS
10
107.06
20
-142.343
11
106.174
21
-142.187
0
LINE
8
BLACK
6
CONTINUOUS
10
106.174
20
-142.187
11
106.382
21
-141.005
0
LINE
8
BLACK
6
CONTINUOUS
10
106.382
20
-141.005
11
107.268
21
-141.161
0
LINE
8
BLACK
6
CONTINUOUS
10
104.018
20
-140.588
11
103.81
21
-141.77
0
LINE
8
BLACK
6
CONTINUOUS
10
103.81
20
-141.77
11
102.924
21
-141.614
0
LINE
8
BLACK
6
CONTINUOUS
10
102.924
20
-141.614
11
103.132
21
-140.432
0
LINE
8
BLACK
6
CONTINUOUS
10
103.132
20
-140.432
11
104.018
21
-140.588
0
LINE
8
BLACK
6
CONTINUOUS
10
232.537
20
-139.138
11
231.65
21
-139.294
0
LINE
8
BLACK
6
CONTINUOUS
10
231.65
20
-139.294
11
231.442
21
-138.112
0
LINE
8
BLACK
6
CONTINUOUS
10
231.442
20
-138.112
11
232.328
21
-137.956
0
LINE
8
BLACK
6
CONTINUOUS
10
232.328
20
-137.956
11
232.537
21
-139.138
0
LINE
8
BLACK
6
CONTINUOUS
10
235.787
20
-138.564
11
234.9
21
-138.721
0
LINE
8
BLACK
6
CONTINUOUS
10
234.9
20
-138.721
11
234.692
21
-137.539
0
LINE
8
BLACK
6
CONTINUOUS
10
234.692
20
-137.539
11
235.578
21
-137.383
0
LINE
8
BLACK
6
CONTINUOUS
10
235.578
20
-137.383
11
235.787
21
-138.564
0
LINE
8
BLACK
6
CONTINUOUS
10
88.9046
20
-135.602
11
88.6962
21
-136.784
0
LINE
8
BLACK
6
CONTINUOUS
10
88.6962
20
-136.784
11
87.8099
21
-136.627
0
LINE
8
BLACK
6
CONTINUOUS
10
87.8099
20
-136.627
11
88.0183
21
-135.446
0
LINE
8
BLACK
6
CONTINUOUS
10
88.0183
20
-135.446
11
88.9046
21
-135.602
0
LINE
8
BLACK
6
CONTINUOUS
10
85.6547
20
-135.029
11
85.4464
21
-136.211
0
LINE
8
BLACK
6
CONTINUOUS
10
85.4464
20
-136.211
11
84.56
21
-136.054
0
LINE
8
BLACK
6
CONTINUOUS
10
84.56
20
-136.054
11
84.7684
21
-134.873
0
LINE
8
BLACK
6
CONTINUOUS
10
84.7684
20
-134.873
11
85.6547
21
-135.029
0
LINE
8
BLACK
6
CONTINUOUS
10
250.9
20
-133.578
11
250.014
21
-133.735
0
LINE
8
BLACK
6
CONTINUOUS
10
250.014
20
-133.735
11
249.806
21
-132.553
0
LINE
8
BLACK
6
CONTINUOUS
10
249.806
20
-132.553
11
250.692
21
-132.396
0
LINE
8
BLACK
6
CONTINUOUS
10
250.692
20
-132.396
11
250.9
21
-133.578
0
LINE
8
BLACK
6
CONTINUOUS
10
254.15
20
-133.005
11
253.264
21
-133.161
0
LINE
8
BLACK
6
CONTINUOUS
10
253.264
20
-133.161
11
253.055
21
-131.98
0
LINE
8
BLACK
6
CONTINUOUS
10
253.055
20
-131.98
11
253.942
21
-131.823
0
LINE
8
BLACK
6
CONTINUOUS
10
253.942
20
-131.823
11
254.15
21
-133.005
0
LINE
8
BLACK
6
CONTINUOUS
10
70.541
20
-130.043
11
70.3326
21
-131.225
0
LINE
8
BLACK
6
CONTINUOUS
10
70.3326
20
-131.225
11
69.4463
21
-131.068
0
LINE
8
BLACK
6
CONTINUOUS
10
69.4463
20
-131.068
11
69.6547
21
-129.886
0
LINE
8
BLACK
6
CONTINUOUS
10
69.6547
20
-129.886
11
70.541
21
-130.043
0
LINE
8
BLACK
6
CONTINUOUS
10
67.2911
20
-129.47
11
67.0827
21
-130.651
0
LINE
8
BLACK
6
CONTINUOUS
10
67.0827
20
-130.651
11
66.1964
21
-130.495
0
LINE
8
BLACK
6
CONTINUOUS
10
66.1964
20
-130.495
11
66.4048
21
-129.313
0
LINE
8
BLACK
6
CONTINUOUS
10
66.4048
20
-129.313
11
67.2911
21
-129.47
0
LINE
8
BLACK
6
CONTINUOUS
10
269.661
20
-130.27
11
268.775
21
-130.427
0
LINE
8
BLACK
6
CONTINUOUS
10
268.775
20
-130.427
11
268.566
21
-129.245
0
LINE
8
BLACK
6
CONTINUOUS
10
268.566
20
-129.245
11
269.453
21
-129.088
0
LINE
8
BLACK
6
CONTINUOUS
10
269.453
20
-129.088
11
269.661
21
-130.27
0
LINE
8
BLACK
6
CONTINUOUS
10
51.3834
20
-128.986
11
51.1751
21
-130.168
0
LINE
8
BLACK
6
CONTINUOUS
10
51.1751
20
-130.168
11
50.2887
21
-130.011
0
LINE
8
BLACK
6
CONTINUOUS
10
50.2887
20
-130.011
11
50.4971
21
-128.83
0
LINE
8
BLACK
6
CONTINUOUS
10
50.4971
20
-128.83
11
51.3834
21
-128.986
0
LINE
8
BLACK
6
CONTINUOUS
10
272.911
20
-129.697
11
272.024
21
-129.854
0
LINE
8
BLACK
6
CONTINUOUS
10
272.024
20
-129.854
11
271.816
21
-128.672
0
LINE
8
BLACK
6
CONTINUOUS
10
271.816
20
-128.672
11
272.702
21
-128.515
0
LINE
8
BLACK
6
CONTINUOUS
10
272.702
20
-128.515
11
272.911
21
-129.697
0
LINE
8
BLACK
6
CONTINUOUS
10
32.1377
20
-128.43
11
31.9293
21
-129.611
0
LINE
8
BLACK
6
CONTINUOUS
10
31.9293
20
-129.611
11
31.043
21
-129.455
0
LINE
8
BLACK
6
CONTINUOUS
10
31.043
20
-129.455
11
31.2513
21
-128.273
0
LINE
8
BLACK
6
CONTINUOUS
10
31.2513
20
-128.273
11
32.1377
21
-128.43
0
LINE
8
BLACK
6
CONTINUOUS
10
48.1336
20
-128.413
11
47.9252
21
-129.595
0
LINE
8
BLACK
6
CONTINUOUS
10
47.9252
20
-129.595
11
47.0389
21
-129.438
0
LINE
8
BLACK
6
CONTINUOUS
10
47.0389
20
-129.438
11
47.2472
21
-128.257
0
LINE
8
BLACK
6
CONTINUOUS
10
47.2472
20
-128.257
11
48.1336
21
-128.413
0
LINE
8
BLACK
6
CONTINUOUS
10
192.104
20
-129.244
11
191.218
21
-129.4
0
LINE
8
BLACK
6
CONTINUOUS
10
191.218
20
-129.4
11
191.01
21
-128.219
0
LINE
8
BLACK
6
CONTINUOUS
10
191.01
20
-128.219
11
191.896
21
-128.062
0
LINE
8
BLACK
6
CONTINUOUS
10
191.896
20
-128.062
11
192.104
21
-129.244
0
LINE
8
BLACK
6
CONTINUOUS
10
288.774
20
-128.963
11
287.888
21
-129.12
0
LINE
8
BLACK
6
CONTINUOUS
10
287.888
20
-129.12
11
287.68
21
-127.938
0
LINE
8
BLACK
6
CONTINUOUS
10
287.68
20
-127.938
11
288.566
21
-127.782
0
LINE
8
BLACK
6
CONTINUOUS
10
288.566
20
-127.782
11
288.774
21
-128.963
0
LINE
8
BLACK
6
CONTINUOUS
10
28.8878
20
-127.857
11
28.6794
21
-129.038
0
LINE
8
BLACK
6
CONTINUOUS
10
28.6794
20
-129.038
11
27.7931
21
-128.882
0
LINE
8
BLACK
6
CONTINUOUS
10
27.7931
20
-128.882
11
28.0015
21
-127.7
0
LINE
8
BLACK
6
CONTINUOUS
10
28.0015
20
-127.7
11
28.8878
21
-127.857
0
LINE
8
BLACK
6
CONTINUOUS
10
195.354
20
-128.671
11
194.468
21
-128.827
0
LINE
8
BLACK
6
CONTINUOUS
10
194.468
20
-128.827
11
194.26
21
-127.646
0
LINE
8
BLACK
6
CONTINUOUS
10
194.26
20
-127.646
11
195.146
21
-127.489
0
LINE
8
BLACK
6
CONTINUOUS
10
195.146
20
-127.489
11
195.354
21
-128.671
0
LINE
8
BLACK
6
CONTINUOUS
10
308.064
20
-128.657
11
307.178
21
-128.813
0
LINE
8
BLACK
6
CONTINUOUS
10
307.178
20
-128.813
11
306.97
21
-127.632
0
LINE
8
BLACK
6
CONTINUOUS
10
306.97
20
-127.632
11
307.856
21
-127.475
0
LINE
8
BLACK
6
CONTINUOUS
10
307.856
20
-127.475
11
308.064
21
-128.657
0
LINE
8
BLACK
6
CONTINUOUS
10
292.024
20
-128.39
11
291.138
21
-128.547
0
LINE
8
BLACK
6
CONTINUOUS
10
291.138
20
-128.547
11
290.93
21
-127.365
0
LINE
8
BLACK
6
CONTINUOUS
10
290.93
20
-127.365
11
291.816
21
-127.209
0
LINE
8
BLACK
6
CONTINUOUS
10
291.816
20
-127.209
11
292.024
21
-128.39
0
LINE
8
BLACK
6
CONTINUOUS
10
311.314
20
-128.084
11
310.428
21
-128.24
0
LINE
8
BLACK
6
CONTINUOUS
10
310.428
20
-128.24
11
310.219
21
-127.059
0
LINE
8
BLACK
6
CONTINUOUS
10
310.219
20
-127.059
11
311.106
21
-126.902
0
LINE
8
BLACK
6
CONTINUOUS
10
311.106
20
-126.902
11
311.314
21
-128.084
0
LINE
8
BLACK
6
CONTINUOUS
10
129.337
20
-125.709
11
129.128
21
-126.89
0
LINE
8
BLACK
6
CONTINUOUS
10
129.128
20
-126.89
11
128.242
21
-126.734
0
LINE
8
BLACK
6
CONTINUOUS
10
128.242
20
-126.734
11
128.45
21
-125.552
0
LINE
8
BLACK
6
CONTINUOUS
10
128.45
20
-125.552
11
129.337
21
-125.709
0
LINE
8
BLACK
6
CONTINUOUS
10
126.087
20
-125.136
11
125.879
21
-126.317
0
LINE
8
BLACK
6
CONTINUOUS
10
125.879
20
-126.317
11
124.992
21
-126.161
0
LINE
8
BLACK
6
CONTINUOUS
10
124.992
20
-126.161
11
125.201
21
-124.979
0
LINE
8
BLACK
6
CONTINUOUS
10
125.201
20
-124.979
11
126.087
21
-125.136
0
LINE
8
BLACK
6
CONTINUOUS
10
13.3771
20
-125.122
11
13.1687
21
-126.303
0
LINE
8
BLACK
6
CONTINUOUS
10
13.1687
20
-126.303
11
12.2824
21
-126.147
0
LINE
8
BLACK
6
CONTINUOUS
10
12.2824
20
-126.147
11
12.4908
21
-124.965
0
LINE
8
BLACK
6
CONTINUOUS
10
12.4908
20
-124.965
11
13.3771
21
-125.122
0
LINE
8
BLACK
6
CONTINUOUS
10
210.865
20
-125.936
11
209.979
21
-126.092
0
LINE
8
BLACK
6
CONTINUOUS
10
209.979
20
-126.092
11
209.77
21
-124.911
0
LINE
8
BLACK
6
CONTINUOUS
10
209.77
20
-124.911
11
210.657
21
-124.754
0
LINE
8
BLACK
6
CONTINUOUS
10
210.657
20
-124.754
11
210.865
21
-125.936
0
LINE
8
BLACK
6
CONTINUOUS
10
10.1272
20
-124.549
11
9.91884
21
-125.73
0
LINE
8
BLACK
6
CONTINUOUS
10
9.91884
20
-125.73
11
9.03251
21
-125.574
0
LINE
8
BLACK
6
CONTINUOUS
10
9.03251
20
-125.574
11
9.24089
21
-124.392
0
LINE
8
BLACK
6
CONTINUOUS
10
9.24089
20
-124.392
11
10.1272
21
-124.549
0
LINE
8
BLACK
6
CONTINUOUS
10
214.115
20
-125.363
11
213.229
21
-125.519
0
LINE
8
BLACK
6
CONTINUOUS
10
213.229
20
-125.519
11
213.02
21
-124.338
0
LINE
8
BLACK
6
CONTINUOUS
10
213.02
20
-124.338
11
213.907
21
-124.181
0
LINE
8
BLACK
6
CONTINUOUS
10
213.907
20
-124.181
11
214.115
21
-125.363
0
LINE
8
BLACK
6
CONTINUOUS
10
-12.4359
20
-122.84
11
-12.6443
21
-124.022
0
LINE
8
BLACK
6
CONTINUOUS
10
-12.6443
20
-124.022
11
-13.5306
21
-123.866
0
LINE
8
BLACK
6
CONTINUOUS
10
-13.5306
20
-123.866
11
-13.3223
21
-122.684
0
LINE
8
BLACK
6
CONTINUOUS
10
-13.3223
20
-122.684
11
-12.4359
21
-122.84
0
LINE
8
BLACK
6
CONTINUOUS
10
110.576
20
-122.401
11
110.368
21
-123.582
0
LINE
8
BLACK
6
CONTINUOUS
10
110.368
20
-123.582
11
109.482
21
-123.426
0
LINE
8
BLACK
6
CONTINUOUS
10
109.482
20
-123.426
11
109.69
21
-122.244
0
LINE
8
BLACK
6
CONTINUOUS
10
109.69
20
-122.244
11
110.576
21
-122.401
0
LINE
8
BLACK
6
CONTINUOUS
10
-15.6858
20
-122.267
11
-15.8942
21
-123.449
0
LINE
8
BLACK
6
CONTINUOUS
10
-15.8942
20
-123.449
11
-16.7805
21
-123.293
0
LINE
8
BLACK
6
CONTINUOUS
10
-16.7805
20
-123.293
11
-16.5721
21
-122.111
0
LINE
8
BLACK
6
CONTINUOUS
10
-16.5721
20
-122.111
11
-15.6858
21
-122.267
0
LINE
8
BLACK
6
CONTINUOUS
10
107.326
20
-121.828
11
107.118
21
-123.009
0
LINE
8
BLACK
6
CONTINUOUS
10
107.118
20
-123.009
11
106.232
21
-122.853
0
LINE
8
BLACK
6
CONTINUOUS
10
106.232
20
-122.853
11
106.44
21
-121.671
0
LINE
8
BLACK
6
CONTINUOUS
10
106.44
20
-121.671
11
107.326
21
-121.828
0
LINE
8
BLACK
6
CONTINUOUS
10
-31.1965
20
-119.532
11
-31.4049
21
-120.714
0
LINE
8
BLACK
6
CONTINUOUS
10
-31.4049
20
-120.714
11
-32.2912
21
-120.558
0
LINE
8
BLACK
6
CONTINUOUS
10
-32.2912
20
-120.558
11
-32.0829
21
-119.376
0
LINE
8
BLACK
6
CONTINUOUS
10
-32.0829
20
-119.376
11
-31.1965
21
-119.532
0
LINE
8
BLACK
6
CONTINUOUS
10
229.229
20
-120.377
11
228.342
21
-120.533
0
LINE
8
BLACK
6
CONTINUOUS
10
228.342
20
-120.533
11
228.134
21
-119.351
0
LINE
8
BLACK
6
CONTINUOUS
10
228.134
20
-119.351
11
229.02
21
-119.195
0
LINE
8
BLACK
6
CONTINUOUS
10
229.02
20
-119.195
11
229.229
21
-120.377
0
LINE
8
BLACK
6
CONTINUOUS
10
-34.4464
20
-118.959
11
-34.6548
21
-120.141
0
LINE
8
BLACK
6
CONTINUOUS
10
-34.6548
20
-120.141
11
-35.5411
21
-119.985
0
LINE
8
BLACK
6
CONTINUOUS
10
-35.5411
20
-119.985
11
-35.3327
21
-118.803
0
LINE
8
BLACK
6
CONTINUOUS
10
-35.3327
20
-118.803
11
-34.4464
21
-118.959
0
LINE
8
BLACK
6
CONTINUOUS
10
232.479
20
-119.804
11
231.592
21
-119.96
0
LINE
8
BLACK
6
CONTINUOUS
10
231.592
20
-119.96
11
231.384
21
-118.778
0
LINE
8
BLACK
6
CONTINUOUS
10
231.384
20
-118.778
11
232.27
21
-118.622
0
LINE
8
BLACK
6
CONTINUOUS
10
232.27
20
-118.622
11
232.479
21
-119.804
0
LINE
8
BLACK
6
CONTINUOUS
10
92.2126
20
-116.841
11
92.0042
21
-118.023
0
LINE
8
BLACK
6
CONTINUOUS
10
92.0042
20
-118.023
11
91.1179
21
-117.867
0
LINE
8
BLACK
6
CONTINUOUS
10
91.1179
20
-117.867
11
91.3263
21
-116.685
0
LINE
8
BLACK
6
CONTINUOUS
10
91.3263
20
-116.685
11
92.2126
21
-116.841
0
LINE
8
BLACK
6
CONTINUOUS
10
88.9627
20
-116.268
11
88.7544
21
-117.45
0
LINE
8
BLACK
6
CONTINUOUS
10
88.7544
20
-117.45
11
87.868
21
-117.294
0
LINE
8
BLACK
6
CONTINUOUS
10
87.868
20
-117.294
11
88.0764
21
-116.112
0
LINE
8
BLACK
6
CONTINUOUS
10
88.0764
20
-116.112
11
88.9627
21
-116.268
0
LINE
8
BLACK
6
CONTINUOUS
10
-49.9571
20
-116.224
11
-50.1655
21
-117.406
0
LINE
8
BLACK
6
CONTINUOUS
10
-50.1655
20
-117.406
11
-51.0518
21
-117.25
0
LINE
8
BLACK
6
CONTINUOUS
10
-51.0518
20
-117.25
11
-50.8434
21
-116.068
0
LINE
8
BLACK
6
CONTINUOUS
10
-50.8434
20
-116.068
11
-49.9571
21
-116.224
0
LINE
8
BLACK
6
CONTINUOUS
10
-53.207
20
-115.651
11
-53.4154
21
-116.833
0
LINE
8
BLACK
6
CONTINUOUS
10
-53.4154
20
-116.833
11
-54.3017
21
-116.677
0
LINE
8
BLACK
6
CONTINUOUS
10
-54.3017
20
-116.677
11
-54.0933
21
-115.495
0
LINE
8
BLACK
6
CONTINUOUS
10
-54.0933
20
-115.495
11
-53.207
21
-115.651
0
LINE
8
BLACK
6
CONTINUOUS
10
247.592
20
-114.818
11
246.706
21
-114.974
0
LINE
8
BLACK
6
CONTINUOUS
10
246.706
20
-114.974
11
246.498
21
-113.792
0
LINE
8
BLACK
6
CONTINUOUS
10
246.498
20
-113.792
11
247.384
21
-113.636
0
LINE
8
BLACK
6
CONTINUOUS
10
247.384
20
-113.636
11
247.592
21
-114.818
0
LINE
8
BLACK
6
CONTINUOUS
10
250.842
20
-114.245
11
249.956
21
-114.401
0
LINE
8
BLACK
6
CONTINUOUS
10
249.956
20
-114.401
11
249.747
21
-113.219
0
LINE
8
BLACK
6
CONTINUOUS
10
249.747
20
-113.219
11
250.634
21
-113.063
0
LINE
8
BLACK
6
CONTINUOUS
10
250.634
20
-113.063
11
250.842
21
-114.245
0
LINE
8
BLACK
6
CONTINUOUS
10
-68.7177
20
-112.916
11
-68.9261
21
-114.098
0
LINE
8
BLACK
6
CONTINUOUS
10
-68.9261
20
-114.098
11
-69.8124
21
-113.942
0
LINE
8
BLACK
6
CONTINUOUS
10
-69.8124
20
-113.942
11
-69.604
21
-112.76
0
LINE
8
BLACK
6
CONTINUOUS
10
-69.604
20
-112.76
11
-68.7177
21
-112.916
0
LINE
8
BLACK
6
CONTINUOUS
10
-71.9676
20
-112.343
11
-72.1759
21
-113.525
0
LINE
8
BLACK
6
CONTINUOUS
10
-72.1759
20
-113.525
11
-73.0623
21
-113.369
0
LINE
8
BLACK
6
CONTINUOUS
10
-73.0623
20
-113.369
11
-72.8539
21
-112.187
0
LINE
8
BLACK
6
CONTINUOUS
10
-72.8539
20
-112.187
11
-71.9676
21
-112.343
0
LINE
8
BLACK
6
CONTINUOUS
10
73.849
20
-111.282
11
73.6406
21
-112.464
0
LINE
8
BLACK
6
CONTINUOUS
10
73.6406
20
-112.464
11
72.7543
21
-112.308
0
LINE
8
BLACK
6
CONTINUOUS
10
72.7543
20
-112.308
11
72.9626
21
-111.126
0
LINE
8
BLACK
6
CONTINUOUS
10
72.9626
20
-111.126
11
73.849
21
-111.282
0
LINE
8
BLACK
6
CONTINUOUS
10
70.5991
20
-110.709
11
70.3907
21
-111.891
0
LINE
8
BLACK
6
CONTINUOUS
10
70.3907
20
-111.891
11
69.5044
21
-111.735
0
LINE
8
BLACK
6
CONTINUOUS
10
69.5044
20
-111.735
11
69.7128
21
-110.553
0
LINE
8
BLACK
6
CONTINUOUS
10
69.7128
20
-110.553
11
70.5991
21
-110.709
0
LINE
8
BLACK
6
CONTINUOUS
10
266.353
20
-111.51
11
265.467
21
-111.666
0
LINE
8
BLACK
6
CONTINUOUS
10
265.467
20
-111.666
11
265.258
21
-110.484
0
LINE
8
BLACK
6
CONTINUOUS
10
265.258
20
-110.484
11
266.145
21
-110.328
0
LINE
8
BLACK
6
CONTINUOUS
10
266.145
20
-110.328
11
266.353
21
-111.51
0
LINE
8
BLACK
6
CONTINUOUS
10
54.6914
20
-110.225
11
54.483
21
-111.407
0
LINE
8
BLACK
6
CONTINUOUS
10
54.483
20
-111.407
11
53.5967
21
-111.251
0
LINE
8
BLACK
6
CONTINUOUS
10
53.5967
20
-111.251
11
53.8051
21
-110.069
0
LINE
8
BLACK
6
CONTINUOUS
10
53.8051
20
-110.069
11
54.6914
21
-110.225
0
LINE
8
BLACK
6
CONTINUOUS
10
269.603
20
-110.937
11
268.716
21
-111.093
0
LINE
8
BLACK
6
CONTINUOUS
10
268.716
20
-111.093
11
268.508
21
-109.911
0
LINE
8
BLACK
6
CONTINUOUS
10
268.508
20
-109.911
11
269.394
21
-109.755
0
LINE
8
BLACK
6
CONTINUOUS
10
269.394
20
-109.755
11
269.603
21
-110.937
0
LINE
8
BLACK
6
CONTINUOUS
10
35.4457
20
-109.669
11
35.2373
21
-110.851
0
LINE
8
BLACK
6
CONTINUOUS
10
35.2373
20
-110.851
11
34.351
21
-110.694
0
LINE
8
BLACK
6
CONTINUOUS
10
34.351
20
-110.694
11
34.5593
21
-109.513
0
LINE
8
BLACK
6
CONTINUOUS
10
34.5593
20
-109.513
11
35.4457
21
-109.669
0
LINE
8
BLACK
6
CONTINUOUS
10
51.4416
20
-109.652
11
51.2332
21
-110.834
0
LINE
8
BLACK
6
CONTINUOUS
10
51.2332
20
-110.834
11
50.3469
21
-110.678
0
LINE
8
BLACK
6
CONTINUOUS
10
50.3469
20
-110.678
11
50.5552
21
-109.496
0
LINE
8
BLACK
6
CONTINUOUS
10
50.5552
20
-109.496
11
51.4416
21
-109.652
0
LINE
8
BLACK
6
CONTINUOUS
10
188.796
20
-110.484
11
187.91
21
-110.64
0
LINE
8
BLACK
6
CONTINUOUS
10
187.91
20
-110.64
11
187.702
21
-109.458
0
LINE
8
BLACK
6
CONTINUOUS
10
187.702
20
-109.458
11
188.588
21
-109.302
0
LINE
8
BLACK
6
CONTINUOUS
10
188.588
20
-109.302
11
188.796
21
-110.484
0
LINE
8
BLACK
6
CONTINUOUS
10
285.51
20
-110.453
11
284.624
21
-110.609
0
LINE
8
BLACK
6
CONTINUOUS
10
284.624
20
-110.609
11
284.416
21
-109.427
0
LINE
8
BLACK
6
CONTINUOUS
10
284.416
20
-109.427
11
285.302
21
-109.271
0
LINE
8
BLACK
6
CONTINUOUS
10
285.302
20
-109.271
11
285.51
21
-110.453
0
LINE
8
BLACK
6
CONTINUOUS
10
32.1958
20
-109.096
11
31.9874
21
-110.278
0
LINE
8
BLACK
6
CONTINUOUS
10
31.9874
20
-110.278
11
31.1011
21
-110.121
0
LINE
8
BLACK
6
CONTINUOUS
10
31.1011
20
-110.121
11
31.3095
21
-108.94
0
LINE
8
BLACK
6
CONTINUOUS
10
31.3095
20
-108.94
11
32.1958
21
-109.096
0
LINE
8
BLACK
6
CONTINUOUS
10
192.046
20
-109.911
11
191.16
21
-110.067
0
LINE
8
BLACK
6
CONTINUOUS
10
191.16
20
-110.067
11
190.952
21
-108.885
0
LINE
8
BLACK
6
CONTINUOUS
10
190.952
20
-108.885
11
191.838
21
-108.729
0
LINE
8
BLACK
6
CONTINUOUS
10
191.838
20
-108.729
11
192.046
21
-109.911
0
LINE
8
BLACK
6
CONTINUOUS
10
288.76
20
-109.88
11
287.874
21
-110.036
0
LINE
8
BLACK
6
CONTINUOUS
10
287.874
20
-110.036
11
287.666
21
-108.854
0
LINE
8
BLACK
6
CONTINUOUS
10
287.666
20
-108.854
11
288.552
21
-108.698
0
LINE
8
BLACK
6
CONTINUOUS
10
288.552
20
-108.698
11
288.76
21
-109.88
0
LINE
8
BLACK
6
CONTINUOUS
10
304.88
20
-109.875
11
303.994
21
-110.031
0
LINE
8
BLACK
6
CONTINUOUS
10
303.994
20
-110.031
11
303.786
21
-108.849
0
LINE
8
BLACK
6
CONTINUOUS
10
303.786
20
-108.849
11
304.672
21
-108.693
0
LINE
8
BLACK
6
CONTINUOUS
10
304.672
20
-108.693
11
304.88
21
-109.875
0
LINE
8
BLACK
6
CONTINUOUS
10
308.13
20
-109.302
11
307.244
21
-109.458
0
LINE
8
BLACK
6
CONTINUOUS
10
307.244
20
-109.458
11
307.035
21
-108.276
0
LINE
8
BLACK
6
CONTINUOUS
10
307.035
20
-108.276
11
307.922
21
-108.12
0
LINE
8
BLACK
6
CONTINUOUS
10
307.922
20
-108.12
11
308.13
21
-109.302
0
LINE
8
BLACK
6
CONTINUOUS
10
132.645
20
-106.948
11
132.436
21
-108.13
0
LINE
8
BLACK
6
CONTINUOUS
10
132.436
20
-108.13
11
131.55
21
-107.974
0
LINE
8
BLACK
6
CONTINUOUS
10
131.55
20
-107.974
11
131.758
21
-106.792
0
LINE
8
BLACK
6
CONTINUOUS
10
131.758
20
-106.792
11
132.645
21
-106.948
0
LINE
8
BLACK
6
CONTINUOUS
10
129.395
20
-106.375
11
129.187
21
-107.557
0
LINE
8
BLACK
6
CONTINUOUS
10
129.187
20
-107.557
11
128.3
21
-107.401
0
LINE
8
BLACK
6
CONTINUOUS
10
128.3
20
-107.401
11
128.509
21
-106.219
0
LINE
8
BLACK
6
CONTINUOUS
10
128.509
20
-106.219
11
129.395
21
-106.375
0
LINE
8
BLACK
6
CONTINUOUS
10
16.6851
20
-106.361
11
16.4767
21
-107.543
0
LINE
8
BLACK
6
CONTINUOUS
10
16.4767
20
-107.543
11
15.5904
21
-107.386
0
LINE
8
BLACK
6
CONTINUOUS
10
15.5904
20
-107.386
11
15.7988
21
-106.205
0
LINE
8
BLACK
6
CONTINUOUS
10
15.7988
20
-106.205
11
16.6851
21
-106.361
0
LINE
8
BLACK
6
CONTINUOUS
10
207.557
20
-107.176
11
206.671
21
-107.332
0
LINE
8
BLACK
6
CONTINUOUS
10
206.671
20
-107.332
11
206.462
21
-106.15
0
LINE
8
BLACK
6
CONTINUOUS
10
206.462
20
-106.15
11
207.349
21
-105.994
0
LINE
8
BLACK
6
CONTINUOUS
10
207.349
20
-105.994
11
207.557
21
-107.176
0
LINE
8
BLACK
6
CONTINUOUS
10
13.4352
20
-105.788
11
13.2268
21
-106.97
0
LINE
8
BLACK
6
CONTINUOUS
10
13.2268
20
-106.97
11
12.3405
21
-106.813
0
LINE
8
BLACK
6
CONTINUOUS
10
12.3405
20
-106.813
11
12.5489
21
-105.632
0
LINE
8
BLACK
6
CONTINUOUS
10
12.5489
20
-105.632
11
13.4352
21
-105.788
0
LINE
8
BLACK
6
CONTINUOUS
10
210.807
20
-106.603
11
209.921
21
-106.759
0
LINE
8
BLACK
6
CONTINUOUS
10
209.921
20
-106.759
11
209.712
21
-105.577
0
LINE
8
BLACK
6
CONTINUOUS
10
209.712
20
-105.577
11
210.599
21
-105.421
0
LINE
8
BLACK
6
CONTINUOUS
10
210.599
20
-105.421
11
210.807
21
-106.603
0
LINE
8
BLACK
6
CONTINUOUS
10
-9.12795
20
-104.08
11
-9.33632
21
-105.261
0
LINE
8
BLACK
6
CONTINUOUS
10
-9.33632
20
-105.261
11
-10.2226
21
-105.105
0
LINE
8
BLACK
6
CONTINUOUS
10
-10.2226
20
-105.105
11
-10.0143
21
-103.923
0
LINE
8
BLACK
6
CONTINUOUS
10
-10.0143
20
-103.923
11
-9.12795
21
-104.08
0
LINE
8
BLACK
6
CONTINUOUS
10
113.884
20
-103.64
11
113.676
21
-104.822
0
LINE
8
BLACK
6
CONTINUOUS
10
113.676
20
-104.822
11
112.79
21
-104.666
0
LINE
8
BLACK
6
CONTINUOUS
10
112.79
20
-104.666
11
112.998
21
-103.484
0
LINE
8
BLACK
6
CONTINUOUS
10
112.998
20
-103.484
11
113.884
21
-103.64
0
LINE
8
BLACK
6
CONTINUOUS
10
-12.3778
20
-103.506
11
-12.5862
21
-104.688
0
LINE
8
BLACK
6
CONTINUOUS
10
-12.5862
20
-104.688
11
-13.4725
21
-104.532
0
LINE
8
BLACK
6
CONTINUOUS
10
-13.4725
20
-104.532
11
-13.2641
21
-103.35
0
LINE
8
BLACK
6
CONTINUOUS
10
-13.2641
20
-103.35
11
-12.3778
21
-103.506
0
LINE
8
BLACK
6
CONTINUOUS
10
110.634
20
-103.067
11
110.426
21
-104.249
0
LINE
8
BLACK
6
CONTINUOUS
10
110.426
20
-104.249
11
109.54
21
-104.093
0
LINE
8
BLACK
6
CONTINUOUS
10
109.54
20
-104.093
11
109.748
21
-102.911
0
LINE
8
BLACK
6
CONTINUOUS
10
109.748
20
-102.911
11
110.634
21
-103.067
0
LINE
8
BLACK
6
CONTINUOUS
10
-27.8885
20
-100.772
11
-28.0969
21
-101.953
0
LINE
8
BLACK
6
CONTINUOUS
10
-28.0969
20
-101.953
11
-28.9832
21
-101.797
0
LINE
8
BLACK
6
CONTINUOUS
10
-28.9832
20
-101.797
11
-28.7749
21
-100.615
0
LINE
8
BLACK
6
CONTINUOUS
10
-28.7749
20
-100.615
11
-27.8885
21
-100.772
0
LINE
8
BLACK
6
CONTINUOUS
10
225.921
20
-101.616
11
225.034
21
-101.773
0
LINE
8
BLACK
6
CONTINUOUS
10
225.034
20
-101.773
11
224.826
21
-100.591
0
LINE
8
BLACK
6
CONTINUOUS
10
224.826
20
-100.591
11
225.712
21
-100.435
0
LINE
8
BLACK
6
CONTINUOUS
10
225.712
20
-100.435
11
225.921
21
-101.616
0
LINE
8
BLACK
6
CONTINUOUS
10
-31.1384
20
-100.198
11
-31.3468
21
-101.38
0
LINE
8
BLACK
6
CONTINUOUS
10
-31.3468
20
-101.38
11
-32.2331
21
-101.224
0
LINE
8
BLACK
6
CONTINUOUS
10
-32.2331
20
-101.224
11
-32.0247
21
-100.042
0
LINE
8
BLACK
6
CONTINUOUS
10
-32.0247
20
-100.042
11
-31.1384
21
-100.198
0
LINE
8
BLACK
6
CONTINUOUS
10
229.171
20
-101.043
11
228.284
21
-101.2
0
LINE
8
BLACK
6
CONTINUOUS
10
228.284
20
-101.2
11
228.076
21
-100.018
0
LINE
8
BLACK
6
CONTINUOUS
10
228.076
20
-100.018
11
228.962
21
-99.8615
0
LINE
8
BLACK
6
CONTINUOUS
10
228.962
20
-99.8615
11
229.171
21
-101.043
0
LINE
8
BLACK
6
CONTINUOUS
10
95.5206
20
-98.0808
11
95.3122
21
-99.2626
0
LINE
8
BLACK
6
CONTINUOUS
10
95.3122
20
-99.2626
11
94.4259
21
-99.1063
0
LINE
8
BLACK
6
CONTINUOUS
10
94.4259
20
-99.1063
11
94.6343
21
-97.9245
0
LINE
8
BLACK
6
CONTINUOUS
10
94.6343
20
-97.9245
11
95.5206
21
-98.0808
0
LINE
8
BLACK
6
CONTINUOUS
10
92.2707
20
-97.5078
11
92.0624
21
-98.6896
0
LINE
8
BLACK
6
CONTINUOUS
10
92.0624
20
-98.6896
11
91.176
21
-98.5333
0
LINE
8
BLACK
6
CONTINUOUS
10
91.176
20
-98.5333
11
91.3844
21
-97.3515
0
LINE
8
BLACK
6
CONTINUOUS
10
91.3844
20
-97.3515
11
92.2707
21
-97.5078
0
LINE
8
BLACK
6
CONTINUOUS
10
-46.6491
20
-97.4635
11
-46.8575
21
-98.6453
0
LINE
8
BLACK
6
CONTINUOUS
10
-46.8575
20
-98.6453
11
-47.7438
21
-98.489
0
LINE
8
BLACK
6
CONTINUOUS
10
-47.7438
20
-98.489
11
-47.5354
21
-97.3073
0
LINE
8
BLACK
6
CONTINUOUS
10
-47.5354
20
-97.3073
11
-46.6491
21
-97.4635
0
LINE
8
BLACK
6
CONTINUOUS
10
-49.899
20
-96.8905
11
-50.1074
21
-98.0723
0
LINE
8
BLACK
6
CONTINUOUS
10
-50.1074
20
-98.0723
11
-50.9937
21
-97.916
0
LINE
8
BLACK
6
CONTINUOUS
10
-50.9937
20
-97.916
11
-50.7853
21
-96.7342
0
LINE
8
BLACK
6
CONTINUOUS
10
-50.7853
20
-96.7342
11
-49.899
21
-96.8905
0
LINE
8
BLACK
6
CONTINUOUS
10
244.284
20
-96.0571
11
243.398
21
-96.2134
0
LINE
8
BLACK
6
CONTINUOUS
10
243.398
20
-96.2134
11
243.19
21
-95.0316
0
LINE
8
BLACK
6
CONTINUOUS
10
243.19
20
-95.0316
11
244.076
21
-94.8753
0
LINE
8
BLACK
6
CONTINUOUS
10
244.076
20
-94.8753
11
244.284
21
-96.0571
0
LINE
8
BLACK
6
CONTINUOUS
10
247.534
20
-95.484
11
246.648
21
-95.6403
0
LINE
8
BLACK
6
CONTINUOUS
10
246.648
20
-95.6403
11
246.439
21
-94.4586
0
LINE
8
BLACK
6
CONTINUOUS
10
246.439
20
-94.4586
11
247.326
21
-94.3023
0
LINE
8
BLACK
6
CONTINUOUS
10
247.326
20
-94.3023
11
247.534
21
-95.484
0
LINE
8
BLACK
6
CONTINUOUS
10
-65.4097
20
-94.1555
11
-65.6181
21
-95.3373
0
LINE
8
BLACK
6
CONTINUOUS
10
-65.6181
20
-95.3373
11
-66.5044
21
-95.181
0
LINE
8
BLACK
6
CONTINUOUS
10
-66.5044
20
-95.181
11
-66.296
21
-93.9993
0
LINE
8
BLACK
6
CONTINUOUS
10
-66.296
20
-93.9993
11
-65.4097
21
-94.1555
0
LINE
8
BLACK
6
CONTINUOUS
10
-68.6596
20
-93.5825
11
-68.868
21
-94.7643
0
LINE
8
BLACK
6
CONTINUOUS
10
-68.868
20
-94.7643
11
-69.7543
21
-94.608
0
LINE
8
BLACK
6
CONTINUOUS
10
-69.7543
20
-94.608
11
-69.5459
21
-93.4262
0
LINE
8
BLACK
6
CONTINUOUS
10
-69.5459
20
-93.4262
11
-68.6596
21
-93.5825
0
LINE
8
BLACK
6
CONTINUOUS
10
77.157
20
-92.5216
11
76.9486
21
-93.7033
0
LINE
8
BLACK
6
CONTINUOUS
10
76.9486
20
-93.7033
11
76.0623
21
-93.547
0
LINE
8
BLACK
6
CONTINUOUS
10
76.0623
20
-93.547
11
76.2706
21
-92.3653
0
LINE
8
BLACK
6
CONTINUOUS
10
76.2706
20
-92.3653
11
77.157
21
-92.5216
0
LINE
8
BLACK
6
CONTINUOUS
10
73.9071
20
-91.9485
11
73.6987
21
-93.1303
0
LINE
8
BLACK
6
CONTINUOUS
10
73.6987
20
-93.1303
11
72.8124
21
-92.974
0
LINE
8
BLACK
6
CONTINUOUS
10
72.8124
20
-92.974
11
73.0208
21
-91.7922
0
LINE
8
BLACK
6
CONTINUOUS
10
73.0208
20
-91.7922
11
73.9071
21
-91.9485
0
LINE
8
BLACK
6
CONTINUOUS
10
263.045
20
-92.7491
11
262.159
21
-92.9054
0
LINE
8
BLACK
6
CONTINUOUS
10
262.159
20
-92.9054
11
261.95
21
-91.7236
0
LINE
8
BLACK
6
CONTINUOUS
10
261.95
20
-91.7236
11
262.837
21
-91.5673
0
LINE
8
BLACK
6
CONTINUOUS
10
262.837
20
-91.5673
11
263.045
21
-92.7491
0
LINE
8
BLACK
6
CONTINUOUS
10
57.9994
20
-91.4648
11
57.791
21
-92.6466
0
LINE
8
BLACK
6
CONTINUOUS
10
57.791
20
-92.6466
11
56.9047
21
-92.4903
0
LINE
8
BLACK
6
CONTINUOUS
10
56.9047
20
-92.4903
11
57.1131
21
-91.3085
0
LINE
8
BLACK
6
CONTINUOUS
10
57.1131
20
-91.3085
11
57.9994
21
-91.4648
0
LINE
8
BLACK
6
CONTINUOUS
10
266.295
20
-92.176
11
265.408
21
-92.3323
0
LINE
8
BLACK
6
CONTINUOUS
10
265.408
20
-92.3323
11
265.2
21
-91.1506
0
LINE
8
BLACK
6
CONTINUOUS
10
265.2
20
-91.1506
11
266.086
21
-90.9943
0
LINE
8
BLACK
6
CONTINUOUS
10
266.086
20
-90.9943
11
266.295
21
-92.176
0
LINE
8
BLACK
6
CONTINUOUS
10
38.7537
20
-90.9084
11
38.5453
21
-92.0902
0
LINE
8
BLACK
6
CONTINUOUS
10
38.5453
20
-92.0902
11
37.659
21
-91.9339
0
LINE
8
BLACK
6
CONTINUOUS
10
37.659
20
-91.9339
11
37.8673
21
-90.7521
0
LINE
8
BLACK
6
CONTINUOUS
10
37.8673
20
-90.7521
11
38.7537
21
-90.9084
0
LINE
8
BLACK
6
CONTINUOUS
10
54.7496
20
-90.8918
11
54.5412
21
-92.0736
0
LINE
8
BLACK
6
CONTINUOUS
10
54.5412
20
-92.0736
11
53.6549
21
-91.9173
0
LINE
8
BLACK
6
CONTINUOUS
10
53.6549
20
-91.9173
11
53.8632
21
-90.7355
0
LINE
8
BLACK
6
CONTINUOUS
10
53.8632
20
-90.7355
11
54.7496
21
-90.8918
0
LINE
8
BLACK
6
CONTINUOUS
10
185.488
20
-91.723
11
184.602
21
-91.8793
0
LINE
8
BLACK
6
CONTINUOUS
10
184.602
20
-91.8793
11
184.394
21
-90.6975
0
LINE
8
BLACK
6
CONTINUOUS
10
184.394
20
-90.6975
11
185.28
21
-90.5413
0
LINE
8
BLACK
6
CONTINUOUS
10
185.28
20
-90.5413
11
185.488
21
-91.723
0
LINE
8
BLACK
6
CONTINUOUS
10
282.202
20
-91.6924
11
281.316
21
-91.8486
0
LINE
8
BLACK
6
CONTINUOUS
10
281.316
20
-91.8486
11
281.108
21
-90.6669
0
LINE
8
BLACK
6
CONTINUOUS
10
281.108
20
-90.6669
11
281.994
21
-90.5106
0
LINE
8
BLACK
6
CONTINUOUS
10
281.994
20
-90.5106
11
282.202
21
-91.6924
0
LINE
8
BLACK
6
CONTINUOUS
10
35.5038
20
-90.3353
11
35.2954
21
-91.5171
0
LINE
8
BLACK
6
CONTINUOUS
10
35.2954
20
-91.5171
11
34.4091
21
-91.3608
0
LINE
8
BLACK
6
CONTINUOUS
10
34.4091
20
-91.3608
11
34.6175
21
-90.1791
0
LINE
8
BLACK
6
CONTINUOUS
10
34.6175
20
-90.1791
11
35.5038
21
-90.3353
0
LINE
8
BLACK
6
CONTINUOUS
10
188.738
20
-91.15
11
187.852
21
-91.3063
0
LINE
8
BLACK
6
CONTINUOUS
10
187.852
20
-91.3063
11
187.644
21
-90.1245
0
LINE
8
BLACK
6
CONTINUOUS
10
187.644
20
-90.1245
11
188.53
21
-89.9682
0
LINE
8
BLACK
6
CONTINUOUS
10
188.53
20
-89.9682
11
188.738
21
-91.15
0
LINE
8
BLACK
6
CONTINUOUS
10
301.448
20
-91.1359
11
300.562
21
-91.2922
0
LINE
8
BLACK
6
CONTINUOUS
10
300.562
20
-91.2922
11
300.354
21
-90.1104
0
LINE
8
BLACK
6
CONTINUOUS
10
300.354
20
-90.1104
11
301.24
21
-89.9541
0
LINE
8
BLACK
6
CONTINUOUS
10
301.24
20
-89.9541
11
301.448
21
-91.1359
0
LINE
8
BLACK
6
CONTINUOUS
10
285.452
20
-91.1193
11
284.566
21
-91.2756
0
LINE
8
BLACK
6
CONTINUOUS
10
284.566
20
-91.2756
11
284.358
21
-90.0938
0
LINE
8
BLACK
6
CONTINUOUS
10
284.358
20
-90.0938
11
285.244
21
-89.9375
0
LINE
8
BLACK
6
CONTINUOUS
10
285.244
20
-89.9375
11
285.452
21
-91.1193
0
LINE
8
BLACK
6
CONTINUOUS
10
304.698
20
-90.5629
11
303.812
21
-90.7192
0
LINE
8
BLACK
6
CONTINUOUS
10
303.812
20
-90.7192
11
303.603
21
-89.5374
0
LINE
8
BLACK
6
CONTINUOUS
10
303.603
20
-89.5374
11
304.49
21
-89.3811
0
LINE
8
BLACK
6
CONTINUOUS
10
304.49
20
-89.3811
11
304.698
21
-90.5629
0
LINE
8
BLACK
6
CONTINUOUS
10
135.953
20
-88.1875
11
135.744
21
-89.3693
0
LINE
8
BLACK
6
CONTINUOUS
10
135.744
20
-89.3693
11
134.858
21
-89.213
0
LINE
8
BLACK
6
CONTINUOUS
10
134.858
20
-89.213
11
135.066
21
-88.0312
0
LINE
8
BLACK
6
CONTINUOUS
10
135.066
20
-88.0312
11
135.953
21
-88.1875
0
LINE
8
BLACK
6
CONTINUOUS
10
132.703
20
-87.6145
11
132.495
21
-88.7962
0
LINE
8
BLACK
6
CONTINUOUS
10
132.495
20
-88.7962
11
131.608
21
-88.6399
0
LINE
8
BLACK
6
CONTINUOUS
10
131.608
20
-88.6399
11
131.817
21
-87.4582
0
LINE
8
BLACK
6
CONTINUOUS
10
131.817
20
-87.4582
11
132.703
21
-87.6145
0
LINE
8
BLACK
6
CONTINUOUS
10
19.9931
20
-87.6004
11
19.7847
21
-88.7822
0
LINE
8
BLACK
6
CONTINUOUS
10
19.7847
20
-88.7822
11
18.8984
21
-88.6259
0
LINE
8
BLACK
6
CONTINUOUS
10
18.8984
20
-88.6259
11
19.1067
21
-87.4441
0
LINE
8
BLACK
6
CONTINUOUS
10
19.1067
20
-87.4441
11
19.9931
21
-87.6004
0
LINE
8
BLACK
6
CONTINUOUS
10
204.249
20
-88.415
11
203.363
21
-88.5713
0
LINE
8
BLACK
6
CONTINUOUS
10
203.363
20
-88.5713
11
203.154
21
-87.3895
0
LINE
8
BLACK
6
CONTINUOUS
10
203.154
20
-87.3895
11
204.041
21
-87.2333
0
LINE
8
BLACK
6
CONTINUOUS
10
204.041
20
-87.2333
11
204.249
21
-88.415
0
LINE
8
BLACK
6
CONTINUOUS
10
16.7432
20
-87.0273
11
16.5348
21
-88.2091
0
LINE
8
BLACK
6
CONTINUOUS
10
16.5348
20
-88.2091
11
15.6485
21
-88.0528
0
LINE
8
BLACK
6
CONTINUOUS
10
15.6485
20
-88.0528
11
15.8569
21
-86.8711
0
LINE
8
BLACK
6
CONTINUOUS
10
15.8569
20
-86.8711
11
16.7432
21
-87.0273
0
LINE
8
BLACK
6
CONTINUOUS
10
207.499
20
-87.842
11
206.613
21
-87.9983
0
LINE
8
BLACK
6
CONTINUOUS
10
206.613
20
-87.9983
11
206.404
21
-86.8165
0
LINE
8
BLACK
6
CONTINUOUS
10
206.404
20
-86.8165
11
207.291
21
-86.6602
0
LINE
8
BLACK
6
CONTINUOUS
10
207.291
20
-86.6602
11
207.499
21
-87.842
0
LINE
8
BLACK
6
CONTINUOUS
10
-5.81995
20
-85.3189
11
-6.02832
21
-86.5007
0
LINE
8
BLACK
6
CONTINUOUS
10
-6.02832
20
-86.5007
11
-6.91465
21
-86.3444
0
LINE
8
BLACK
6
CONTINUOUS
10
-6.91465
20
-86.3444
11
-6.70627
21
-85.1627
0
LINE
8
BLACK
6
CONTINUOUS
10
-6.70627
20
-85.1627
11
-5.81995
21
-85.3189
0
LINE
8
BLACK
6
CONTINUOUS
10
117.192
20
-84.8795
11
116.984
21
-86.0613
0
LINE
8
BLACK
6
CONTINUOUS
10
116.984
20
-86.0613
11
116.098
21
-85.905
0
LINE
8
BLACK
6
CONTINUOUS
10
116.098
20
-85.905
11
116.306
21
-84.7232
0
LINE
8
BLACK
6
CONTINUOUS
10
116.306
20
-84.7232
11
117.192
21
-84.8795
0
LINE
8
BLACK
6
CONTINUOUS
10
-9.06981
20
-84.7459
11
-9.27819
21
-85.9277
0
LINE
8
BLACK
6
CONTINUOUS
10
-9.27819
20
-85.9277
11
-10.1645
21
-85.7714
0
LINE
8
BLACK
6
CONTINUOUS
10
-10.1645
20
-85.7714
11
-9.95614
21
-84.5896
0
LINE
8
BLACK
6
CONTINUOUS
10
-9.95614
20
-84.5896
11
-9.06981
21
-84.7459
0
LINE
8
BLACK
6
CONTINUOUS
10
113.942
20
-84.3065
11
113.734
21
-85.4882
0
LINE
8
BLACK
6
CONTINUOUS
10
113.734
20
-85.4882
11
112.848
21
-85.332
0
LINE
8
BLACK
6
CONTINUOUS
10
112.848
20
-85.332
11
113.056
21
-84.1502
0
LINE
8
BLACK
6
CONTINUOUS
10
113.056
20
-84.1502
11
113.942
21
-84.3065
0
LINE
8
BLACK
6
CONTINUOUS
10
223.01
20
-85.107
11
222.123
21
-85.2633
0
LINE
8
BLACK
6
CONTINUOUS
10
222.123
20
-85.2633
11
221.915
21
-84.0815
0
LINE
8
BLACK
6
CONTINUOUS
10
221.915
20
-84.0815
11
222.801
21
-83.9253
0
LINE
8
BLACK
6
CONTINUOUS
10
222.801
20
-83.9253
11
223.01
21
-85.107
0
LINE
8
BLACK
6
CONTINUOUS
10
226.26
20
-84.534
11
225.373
21
-84.6903
0
LINE
8
BLACK
6
CONTINUOUS
10
225.373
20
-84.6903
11
225.165
21
-83.5085
0
LINE
8
BLACK
6
CONTINUOUS
10
225.165
20
-83.5085
11
226.051
21
-83.3522
0
LINE
8
BLACK
6
CONTINUOUS
10
226.051
20
-83.3522
11
226.26
21
-84.534
0
LINE
8
BLACK
6
CONTINUOUS
10
-24.5805
20
-82.0109
11
-24.7889
21
-83.1927
0
LINE
8
BLACK
6
CONTINUOUS
10
-24.7889
20
-83.1927
11
-25.6752
21
-83.0364
0
LINE
8
BLACK
6
CONTINUOUS
10
-25.6752
20
-83.0364
11
-25.4669
21
-81.8547
0
LINE
8
BLACK
6
CONTINUOUS
10
-25.4669
20
-81.8547
11
-24.5805
21
-82.0109
0
LINE
8
BLACK
6
CONTINUOUS
10
-27.8304
20
-81.4379
11
-28.0388
21
-82.6197
0
LINE
8
BLACK
6
CONTINUOUS
10
-28.0388
20
-82.6197
11
-28.9251
21
-82.4634
0
LINE
8
BLACK
6
CONTINUOUS
10
-28.9251
20
-82.4634
11
-28.7167
21
-81.2816
0
LINE
8
BLACK
6
CONTINUOUS
10
-28.7167
20
-81.2816
11
-27.8304
21
-81.4379
0
LINE
8
BLACK
6
CONTINUOUS
10
98.8286
20
-79.3202
11
98.6202
21
-80.502
0
LINE
8
BLACK
6
CONTINUOUS
10
98.6202
20
-80.502
11
97.7339
21
-80.3457
0
LINE
8
BLACK
6
CONTINUOUS
10
97.7339
20
-80.3457
11
97.9423
21
-79.164
0
LINE
8
BLACK
6
CONTINUOUS
10
97.9423
20
-79.164
11
98.8286
21
-79.3202
0
LINE
8
BLACK
6
CONTINUOUS
10
95.5787
20
-78.7472
11
95.3704
21
-79.929
0
LINE
8
BLACK
6
CONTINUOUS
10
95.3704
20
-79.929
11
94.484
21
-79.7727
0
LINE
8
BLACK
6
CONTINUOUS
10
94.484
20
-79.7727
11
94.6924
21
-78.5909
0
LINE
8
BLACK
6
CONTINUOUS
10
94.6924
20
-78.5909
11
95.5787
21
-78.7472
0
LINE
8
BLACK
6
CONTINUOUS
10
-43.3411
20
-78.7029
11
-43.5495
21
-79.8847
0
LINE
8
BLACK
6
CONTINUOUS
10
-43.5495
20
-79.8847
11
-44.4358
21
-79.7284
0
LINE
8
BLACK
6
CONTINUOUS
10
-44.4358
20
-79.7284
11
-44.2274
21
-78.5467
0
LINE
8
BLACK
6
CONTINUOUS
10
-44.2274
20
-78.5467
11
-43.3411
21
-78.7029
0
LINE
8
BLACK
6
CONTINUOUS
10
-46.591
20
-78.1299
11
-46.7994
21
-79.3117
0
LINE
8
BLACK
6
CONTINUOUS
10
-46.7994
20
-79.3117
11
-47.6857
21
-79.1554
0
LINE
8
BLACK
6
CONTINUOUS
10
-47.6857
20
-79.1554
11
-47.4773
21
-77.9736
0
LINE
8
BLACK
6
CONTINUOUS
10
-47.4773
20
-77.9736
11
-46.591
21
-78.1299
0
LINE
8
BLACK
6
CONTINUOUS
10
240.976
20
-77.2965
11
240.09
21
-77.4528
0
LINE
8
BLACK
6
CONTINUOUS
10
240.09
20
-77.4528
11
239.882
21
-76.271
0
LINE
8
BLACK
6
CONTINUOUS
10
239.882
20
-76.271
11
240.768
21
-76.1147
0
LINE
8
BLACK
6
CONTINUOUS
10
240.768
20
-76.1147
11
240.976
21
-77.2965
0
LINE
8
BLACK
6
CONTINUOUS
10
244.226
20
-76.7235
11
243.34
21
-76.8797
0
LINE
8
BLACK
6
CONTINUOUS
10
243.34
20
-76.8797
11
243.131
21
-75.698
0
LINE
8
BLACK
6
CONTINUOUS
10
243.131
20
-75.698
11
244.018
21
-75.5417
0
LINE
8
BLACK
6
CONTINUOUS
10
244.018
20
-75.5417
11
244.226
21
-76.7235
0
LINE
8
BLACK
6
CONTINUOUS
10
-62.1017
20
-75.395
11
-62.3101
21
-76.5767
0
LINE
8
BLACK
6
CONTINUOUS
10
-62.3101
20
-76.5767
11
-63.1964
21
-76.4204
0
LINE
8
BLACK
6
CONTINUOUS
10
-63.1964
20
-76.4204
11
-62.988
21
-75.2387
0
LINE
8
BLACK
6
CONTINUOUS
10
-62.988
20
-75.2387
11
-62.1017
21
-75.395
0
LINE
8
BLACK
6
CONTINUOUS
10
-65.3516
20
-74.8219
11
-65.56
21
-76.0037
0
LINE
8
BLACK
6
CONTINUOUS
10
-65.56
20
-76.0037
11
-66.4463
21
-75.8474
0
LINE
8
BLACK
6
CONTINUOUS
10
-66.4463
20
-75.8474
11
-66.2379
21
-74.6656
0
LINE
8
BLACK
6
CONTINUOUS
10
-66.2379
20
-74.6656
11
-65.3516
21
-74.8219
0
LINE
8
BLACK
6
CONTINUOUS
10
80.465
20
-73.761
11
80.2566
21
-74.9427
0
LINE
8
BLACK
6
CONTINUOUS
10
80.2566
20
-74.9427
11
79.3703
21
-74.7865
0
LINE
8
BLACK
6
CONTINUOUS
10
79.3703
20
-74.7865
11
79.5786
21
-73.6047
0
LINE
8
BLACK
6
CONTINUOUS
10
79.5786
20
-73.6047
11
80.465
21
-73.761
0
LINE
8
BLACK
6
CONTINUOUS
10
77.2151
20
-73.1879
11
77.0067
21
-74.3697
0
LINE
8
BLACK
6
CONTINUOUS
10
77.0067
20
-74.3697
11
76.1204
21
-74.2134
0
LINE
8
BLACK
6
CONTINUOUS
10
76.1204
20
-74.2134
11
76.3288
21
-73.0316
0
LINE
8
BLACK
6
CONTINUOUS
10
76.3288
20
-73.0316
11
77.2151
21
-73.1879
0
LINE
8
BLACK
6
CONTINUOUS
10
259.737
20
-73.9885
11
258.851
21
-74.1448
0
LINE
8
BLACK
6
CONTINUOUS
10
258.851
20
-74.1448
11
258.642
21
-72.963
0
LINE
8
BLACK
6
CONTINUOUS
10
258.642
20
-72.963
11
259.529
21
-72.8067
0
LINE
8
BLACK
6
CONTINUOUS
10
259.529
20
-72.8067
11
259.737
21
-73.9885
0
LINE
8
BLACK
6
CONTINUOUS
10
61.3074
20
-72.7042
11
61.099
21
-73.886
0
LINE
8
BLACK
6
CONTINUOUS
10
61.099
20
-73.886
11
60.2127
21
-73.7297
0
LINE
8
BLACK
6
CONTINUOUS
10
60.2127
20
-73.7297
11
60.4211
21
-72.548
0
LINE
8
BLACK
6
CONTINUOUS
10
60.4211
20
-72.548
11
61.3074
21
-72.7042
0
LINE
8
BLACK
6
CONTINUOUS
10
262.987
20
-73.4155
11
262.1
21
-73.5717
0
LINE
8
BLACK
6
CONTINUOUS
10
262.1
20
-73.5717
11
261.892
21
-72.39
0
LINE
8
BLACK
6
CONTINUOUS
10
261.892
20
-72.39
11
262.778
21
-72.2337
0
LINE
8
BLACK
6
CONTINUOUS
10
262.778
20
-72.2337
11
262.987
21
-73.4155
0
LINE
8
BLACK
6
CONTINUOUS
10
42.0617
20
-72.1478
11
41.8533
21
-73.3296
0
LINE
8
BLACK
6
CONTINUOUS
10
41.8533
20
-73.3296
11
40.967
21
-73.1733
0
LINE
8
BLACK
6
CONTINUOUS
10
40.967
20
-73.1733
11
41.1753
21
-71.9915
0
LINE
8
BLACK
6
CONTINUOUS
10
41.1753
20
-71.9915
11
42.0617
21
-72.1478
0
LINE
8
BLACK
6
CONTINUOUS
10
58.0576
20
-72.1312
11
57.8492
21
-73.313
0
LINE
8
BLACK
6
CONTINUOUS
10
57.8492
20
-73.313
11
56.9629
21
-73.1567
0
LINE
8
BLACK
6
CONTINUOUS
10
56.9629
20
-73.1567
11
57.1712
21
-71.9749
0
LINE
8
BLACK
6
CONTINUOUS
10
57.1712
20
-71.9749
11
58.0576
21
-72.1312
0
LINE
8
BLACK
6
CONTINUOUS
10
182.18
20
-72.9624
11
181.294
21
-73.1187
0
LINE
8
BLACK
6
CONTINUOUS
10
181.294
20
-73.1187
11
181.086
21
-71.937
0
LINE
8
BLACK
6
CONTINUOUS
10
181.086
20
-71.937
11
181.972
21
-71.7807
0
LINE
8
BLACK
6
CONTINUOUS
10
181.972
20
-71.7807
11
182.18
21
-72.9624
0
LINE
8
BLACK
6
CONTINUOUS
10
278.894
20
-72.9318
11
278.008
21
-73.088
0
LINE
8
BLACK
6
CONTINUOUS
10
278.008
20
-73.088
11
277.8
21
-71.9063
0
LINE
8
BLACK
6
CONTINUOUS
10
277.8
20
-71.9063
11
278.686
21
-71.75
0
LINE
8
BLACK
6
CONTINUOUS
10
278.686
20
-71.75
11
278.894
21
-72.9318
0
LINE
8
BLACK
6
CONTINUOUS
10
38.8118
20
-71.5748
11
38.6034
21
-72.7565
0
LINE
8
BLACK
6
CONTINUOUS
10
38.6034
20
-72.7565
11
37.7171
21
-72.6002
0
LINE
8
BLACK
6
CONTINUOUS
10
37.7171
20
-72.6002
11
37.9255
21
-71.4185
0
LINE
8
BLACK
6
CONTINUOUS
10
37.9255
20
-71.4185
11
38.8118
21
-71.5748
0
LINE
8
BLACK
6
CONTINUOUS
10
185.43
20
-72.3894
11
184.544
21
-72.5457
0
LINE
8
BLACK
6
CONTINUOUS
10
184.544
20
-72.5457
11
184.336
21
-71.3639
0
LINE
8
BLACK
6
CONTINUOUS
10
184.336
20
-71.3639
11
185.222
21
-71.2076
0
LINE
8
BLACK
6
CONTINUOUS
10
185.222
20
-71.2076
11
185.43
21
-72.3894
0
LINE
8
BLACK
6
CONTINUOUS
10
298.14
20
-72.3753
11
297.254
21
-72.5316
0
LINE
8
BLACK
6
CONTINUOUS
10
297.254
20
-72.5316
11
297.046
21
-71.3498
0
LINE
8
BLACK
6
CONTINUOUS
10
297.046
20
-71.3498
11
297.932
21
-71.1936
0
LINE
8
BLACK
6
CONTINUOUS
10
297.932
20
-71.1936
11
298.14
21
-72.3753
0
LINE
8
BLACK
6
CONTINUOUS
10
282.144
20
-72.3587
11
281.258
21
-72.515
0
LINE
8
BLACK
6
CONTINUOUS
10
281.258
20
-72.515
11
281.05
21
-71.3332
0
LINE
8
BLACK
6
CONTINUOUS
10
281.05
20
-71.3332
11
281.936
21
-71.177
0
LINE
8
BLACK
6
CONTINUOUS
10
281.936
20
-71.177
11
282.144
21
-72.3587
0
LINE
8
BLACK
6
CONTINUOUS
10
301.39
20
-71.8023
11
300.504
21
-71.9586
0
LINE
8
BLACK
6
CONTINUOUS
10
300.504
20
-71.9586
11
300.295
21
-70.7768
0
LINE
8
BLACK
6
CONTINUOUS
10
300.295
20
-70.7768
11
301.182
21
-70.6205
0
LINE
8
BLACK
6
CONTINUOUS
10
301.182
20
-70.6205
11
301.39
21
-71.8023
0
LINE
8
BLACK
6
CONTINUOUS
10
139.261
20
-69.4269
11
139.052
21
-70.6087
0
LINE
8
BLACK
6
CONTINUOUS
10
139.052
20
-70.6087
11
138.166
21
-70.4524
0
LINE
8
BLACK
6
CONTINUOUS
10
138.166
20
-70.4524
11
138.374
21
-69.2706
0
LINE
8
BLACK
6
CONTINUOUS
10
138.374
20
-69.2706
11
139.261
21
-69.4269
0
LINE
8
BLACK
6
CONTINUOUS
10
136.011
20
-68.8539
11
135.803
21
-70.0356
0
LINE
8
BLACK
6
CONTINUOUS
10
135.803
20
-70.0356
11
134.916
21
-69.8794
0
LINE
8
BLACK
6
CONTINUOUS
10
134.916
20
-69.8794
11
135.125
21
-68.6976
0
LINE
8
BLACK
6
CONTINUOUS
10
135.125
20
-68.6976
11
136.011
21
-68.8539
0
LINE
8
BLACK
6
CONTINUOUS
10
23.3011
20
-68.8398
11
23.0927
21
-70.0216
0
LINE
8
BLACK
6
CONTINUOUS
10
23.0927
20
-70.0216
11
22.2064
21
-69.8653
0
LINE
8
BLACK
6
CONTINUOUS
10
22.2064
20
-69.8653
11
22.4147
21
-68.6835
0
LINE
8
BLACK
6
CONTINUOUS
10
22.4147
20
-68.6835
11
23.3011
21
-68.8398
0
LINE
8
BLACK
6
CONTINUOUS
10
200.897
20
-69.4043
11
200.011
21
-69.5606
0
LINE
8
BLACK
6
CONTINUOUS
10
200.011
20
-69.5606
11
199.802
21
-68.3788
0
LINE
8
BLACK
6
CONTINUOUS
10
199.802
20
-68.3788
11
200.689
21
-68.2225
0
LINE
8
BLACK
6
CONTINUOUS
10
200.689
20
-68.2225
11
200.897
21
-69.4043
0
LINE
8
BLACK
6
CONTINUOUS
10
20.0512
20
-68.2668
11
19.8428
21
-69.4485
0
LINE
8
BLACK
6
CONTINUOUS
10
19.8428
20
-69.4485
11
18.9565
21
-69.2922
0
LINE
8
BLACK
6
CONTINUOUS
10
18.9565
20
-69.2922
11
19.1649
21
-68.1105
0
LINE
8
BLACK
6
CONTINUOUS
10
19.1649
20
-68.1105
11
20.0512
21
-68.2668
0
LINE
8
BLACK
6
CONTINUOUS
10
204.147
20
-68.8313
11
203.261
21
-68.9875
0
LINE
8
BLACK
6
CONTINUOUS
10
203.261
20
-68.9875
11
203.052
21
-67.8058
0
LINE
8
BLACK
6
CONTINUOUS
10
203.052
20
-67.8058
11
203.938
21
-67.6495
0
LINE
8
BLACK
6
CONTINUOUS
10
203.938
20
-67.6495
11
204.147
21
-68.8313
0
LINE
8
BLACK
6
CONTINUOUS
10
-2.51195
20
-66.5584
11
-2.72033
21
-67.7401
0
LINE
8
BLACK
6
CONTINUOUS
10
-2.72033
20
-67.7401
11
-3.60665
21
-67.5838
0
LINE
8
BLACK
6
CONTINUOUS
10
-3.60665
20
-67.5838
11
-3.39828
21
-66.4021
0
LINE
8
BLACK
6
CONTINUOUS
10
-3.39828
20
-66.4021
11
-2.51195
21
-66.5584
0
LINE
8
BLACK
6
CONTINUOUS
10
120.5
20
-66.1189
11
120.292
21
-67.3007
0
LINE
8
BLACK
6
CONTINUOUS
10
120.292
20
-67.3007
11
119.406
21
-67.1444
0
LINE
8
BLACK
6
CONTINUOUS
10
119.406
20
-67.1444
11
119.614
21
-65.9626
0
LINE
8
BLACK
6
CONTINUOUS
10
119.614
20
-65.9626
11
120.5
21
-66.1189
0
LINE
8
BLACK
6
CONTINUOUS
10
-5.76181
20
-65.9853
11
-5.97019
21
-67.1671
0
LINE
8
BLACK
6
CONTINUOUS
10
-5.97019
20
-67.1671
11
-6.85652
21
-67.0108
0
LINE
8
BLACK
6
CONTINUOUS
10
-6.85652
20
-67.0108
11
-6.64814
21
-65.829
0
LINE
8
BLACK
6
CONTINUOUS
10
-6.64814
20
-65.829
11
-5.76181
21
-65.9853
0
LINE
8
BLACK
6
CONTINUOUS
10
117.25
20
-65.5459
11
117.042
21
-66.7276
0
LINE
8
BLACK
6
CONTINUOUS
10
117.042
20
-66.7276
11
116.156
21
-66.5714
0
LINE
8
BLACK
6
CONTINUOUS
10
116.156
20
-66.5714
11
116.364
21
-65.3896
0
LINE
8
BLACK
6
CONTINUOUS
10
116.364
20
-65.3896
11
117.25
21
-65.5459
0
LINE
8
BLACK
6
CONTINUOUS
10
-21.2725
20
-63.2504
11
-21.4809
21
-64.4321
0
LINE
8
BLACK
6
CONTINUOUS
10
-21.4809
20
-64.4321
11
-22.3672
21
-64.2758
0
LINE
8
BLACK
6
CONTINUOUS
10
-22.3672
20
-64.2758
11
-22.1589
21
-63.0941
0
LINE
8
BLACK
6
CONTINUOUS
10
-22.1589
20
-63.0941
11
-21.2725
21
-63.2504
0
LINE
8
BLACK
6
CONTINUOUS
10
219.305
20
-64.0952
11
218.418
21
-64.2515
0
LINE
8
BLACK
6
CONTINUOUS
10
218.418
20
-64.2515
11
218.21
21
-63.0697
0
LINE
8
BLACK
6
CONTINUOUS
10
218.21
20
-63.0697
11
219.096
21
-62.9134
0
LINE
8
BLACK
6
CONTINUOUS
10
219.096
20
-62.9134
11
219.305
21
-64.0952
0
LINE
8
BLACK
6
CONTINUOUS
10
-24.5224
20
-62.6773
11
-24.7308
21
-63.8591
0
LINE
8
BLACK
6
CONTINUOUS
10
-24.7308
20
-63.8591
11
-25.6171
21
-63.7028
0
LINE
8
BLACK
6
CONTINUOUS
10
-25.6171
20
-63.7028
11
-25.4087
21
-62.521
0
LINE
8
BLACK
6
CONTINUOUS
10
-25.4087
20
-62.521
11
-24.5224
21
-62.6773
0
LINE
8
BLACK
6
CONTINUOUS
10
222.555
20
-63.5221
11
221.668
21
-63.6784
0
LINE
8
BLACK
6
CONTINUOUS
10
221.668
20
-63.6784
11
221.46
21
-62.4966
0
LINE
8
BLACK
6
CONTINUOUS
10
221.46
20
-62.4966
11
222.346
21
-62.3404
0
LINE
8
BLACK
6
CONTINUOUS
10
222.346
20
-62.3404
11
222.555
21
-63.5221
0
LINE
8
BLACK
6
CONTINUOUS
10
102.137
20
-60.5596
11
101.928
21
-61.7414
0
LINE
8
BLACK
6
CONTINUOUS
10
101.928
20
-61.7414
11
101.042
21
-61.5851
0
LINE
8
BLACK
6
CONTINUOUS
10
101.042
20
-61.5851
11
101.25
21
-60.4034
0
LINE
8
BLACK
6
CONTINUOUS
10
101.25
20
-60.4034
11
102.137
21
-60.5596
0
LINE
8
BLACK
6
CONTINUOUS
10
98.8867
20
-59.9866
11
98.6784
21
-61.1684
0
LINE
8
BLACK
6
CONTINUOUS
10
98.6784
20
-61.1684
11
97.792
21
-61.0121
0
LINE
8
BLACK
6
CONTINUOUS
10
97.792
20
-61.0121
11
98.0004
21
-59.8303
0
LINE
8
BLACK
6
CONTINUOUS
10
98.0004
20
-59.8303
11
98.8867
21
-59.9866
0
LINE
8
BLACK
6
CONTINUOUS
10
-40.0331
20
-59.9424
11
-40.2415
21
-61.1241
0
LINE
8
BLACK
6
CONTINUOUS
10
-40.2415
20
-61.1241
11
-41.1278
21
-60.9678
0
LINE
8
BLACK
6
CONTINUOUS
10
-41.1278
20
-60.9678
11
-40.9195
21
-59.7861
0
LINE
8
BLACK
6
CONTINUOUS
10
-40.9195
20
-59.7861
11
-40.0331
21
-59.9424
0
LINE
8
BLACK
6
CONTINUOUS
10
-43.283
20
-59.3693
11
-43.4914
21
-60.5511
0
LINE
8
BLACK
6
CONTINUOUS
10
-43.4914
20
-60.5511
11
-44.3777
21
-60.3948
0
LINE
8
BLACK
6
CONTINUOUS
10
-44.3777
20
-60.3948
11
-44.1693
21
-59.213
0
LINE
8
BLACK
6
CONTINUOUS
10
-44.1693
20
-59.213
11
-43.283
21
-59.3693
0
LINE
8
BLACK
6
CONTINUOUS
10
237.668
20
-58.5359
11
236.782
21
-58.6922
0
LINE
8
BLACK
6
CONTINUOUS
10
236.782
20
-58.6922
11
236.574
21
-57.5104
0
LINE
8
BLACK
6
CONTINUOUS
10
236.574
20
-57.5104
11
237.46
21
-57.3541
0
LINE
8
BLACK
6
CONTINUOUS
10
237.46
20
-57.3541
11
237.668
21
-58.5359
0
LINE
8
BLACK
6
CONTINUOUS
10
240.918
20
-57.9629
11
240.032
21
-58.1191
0
LINE
8
BLACK
6
CONTINUOUS
10
240.032
20
-58.1191
11
239.823
21
-56.9374
0
LINE
8
BLACK
6
CONTINUOUS
10
239.823
20
-56.9374
11
240.71
21
-56.7811
0
LINE
8
BLACK
6
CONTINUOUS
10
240.71
20
-56.7811
11
240.918
21
-57.9629
0
LINE
8
BLACK
6
CONTINUOUS
10
-58.7937
20
-56.6344
11
-59.0021
21
-57.8161
0
LINE
8
BLACK
6
CONTINUOUS
10
-59.0021
20
-57.8161
11
-59.8884
21
-57.6598
0
LINE
8
BLACK
6
CONTINUOUS
10
-59.8884
20
-57.6598
11
-59.68
21
-56.4781
0
LINE
8
BLACK
6
CONTINUOUS
10
-59.68
20
-56.4781
11
-58.7937
21
-56.6344
0
LINE
8
BLACK
6
CONTINUOUS
10
-62.0436
20
-56.0613
11
-62.252
21
-57.2431
0
LINE
8
BLACK
6
CONTINUOUS
10
-62.252
20
-57.2431
11
-63.1383
21
-57.0868
0
LINE
8
BLACK
6
CONTINUOUS
10
-63.1383
20
-57.0868
11
-62.9299
21
-55.905
0
LINE
8
BLACK
6
CONTINUOUS
10
-62.9299
20
-55.905
11
-62.0436
21
-56.0613
0
LINE
8
BLACK
6
CONTINUOUS
10
83.773
20
-55.0004
11
83.5646
21
-56.1821
0
LINE
8
BLACK
6
CONTINUOUS
10
83.5646
20
-56.1821
11
82.6783
21
-56.0259
0
LINE
8
BLACK
6
CONTINUOUS
10
82.6783
20
-56.0259
11
82.8866
21
-54.8441
0
LINE
8
BLACK
6
CONTINUOUS
10
82.8866
20
-54.8441
11
83.773
21
-55.0004
0
LINE
8
BLACK
6
CONTINUOUS
10
80.5231
20
-54.4273
11
80.3147
21
-55.6091
0
LINE
8
BLACK
6
CONTINUOUS
10
80.3147
20
-55.6091
11
79.4284
21
-55.4528
0
LINE
8
BLACK
6
CONTINUOUS
10
79.4284
20
-55.4528
11
79.6368
21
-54.2711
0
LINE
8
BLACK
6
CONTINUOUS
10
79.6368
20
-54.2711
11
80.5231
21
-54.4273
0
LINE
8
BLACK
6
CONTINUOUS
10
256.429
20
-55.2279
11
255.543
21
-55.3842
0
LINE
8
BLACK
6
CONTINUOUS
10
255.543
20
-55.3842
11
255.334
21
-54.2024
0
LINE
8
BLACK
6
CONTINUOUS
10
255.334
20
-54.2024
11
256.221
21
-54.0461
0
LINE
8
BLACK
6
CONTINUOUS
10
256.221
20
-54.0461
11
256.429
21
-55.2279
0
LINE
8
BLACK
6
CONTINUOUS
10
64.6154
20
-53.9437
11
64.407
21
-55.1254
0
LINE
8
BLACK
6
CONTINUOUS
10
64.407
20
-55.1254
11
63.5207
21
-54.9691
0
LINE
8
BLACK
6
CONTINUOUS
10
63.5207
20
-54.9691
11
63.7291
21
-53.7874
0
LINE
8
BLACK
6
CONTINUOUS
10
63.7291
20
-53.7874
11
64.6154
21
-53.9437
0
LINE
8
BLACK
6
CONTINUOUS
10
259.679
20
-54.6549
11
258.792
21
-54.8112
0
LINE
8
BLACK
6
CONTINUOUS
10
258.792
20
-54.8112
11
258.584
21
-53.6294
0
LINE
8
BLACK
6
CONTINUOUS
10
258.584
20
-53.6294
11
259.47
21
-53.4731
0
LINE
8
BLACK
6
CONTINUOUS
10
259.47
20
-53.4731
11
259.679
21
-54.6549
0
LINE
8
BLACK
6
CONTINUOUS
10
45.3697
20
-53.3872
11
45.1613
21
-54.569
0
LINE
8
BLACK
6
CONTINUOUS
10
45.1613
20
-54.569
11
44.275
21
-54.4127
0
LINE
8
BLACK
6
CONTINUOUS
10
44.275
20
-54.4127
11
44.4833
21
-53.2309
0
LINE
8
BLACK
6
CONTINUOUS
10
44.4833
20
-53.2309
11
45.3697
21
-53.3872
0
LINE
8
BLACK
6
CONTINUOUS
10
61.3656
20
-53.3706
11
61.1572
21
-54.5524
0
LINE
8
BLACK
6
CONTINUOUS
10
61.1572
20
-54.5524
11
60.2708
21
-54.3961
0
LINE
8
BLACK
6
CONTINUOUS
10
60.2708
20
-54.3961
11
60.4792
21
-53.2143
0
LINE
8
BLACK
6
CONTINUOUS
10
60.4792
20
-53.2143
11
61.3656
21
-53.3706
0
LINE
8
BLACK
6
CONTINUOUS
10
275.586
20
-54.1712
11
274.7
21
-54.3275
0
LINE
8
BLACK
6
CONTINUOUS
10
274.7
20
-54.3275
11
274.492
21
-53.1457
0
LINE
8
BLACK
6
CONTINUOUS
10
274.492
20
-53.1457
11
275.378
21
-52.9894
0
LINE
8
BLACK
6
CONTINUOUS
10
275.378
20
-52.9894
11
275.586
21
-54.1712
0
LINE
8
BLACK
6
CONTINUOUS
10
42.1198
20
-52.8142
11
41.9114
21
-53.9959
0
LINE
8
BLACK
6
CONTINUOUS
10
41.9114
20
-53.9959
11
41.0251
21
-53.8397
0
LINE
8
BLACK
6
CONTINUOUS
10
41.0251
20
-53.8397
11
41.2335
21
-52.6579
0
LINE
8
BLACK
6
CONTINUOUS
10
41.2335
20
-52.6579
11
42.1198
21
-52.8142
0
LINE
8
BLACK
6
CONTINUOUS
10
294.832
20
-53.6147
11
293.946
21
-53.771
0
LINE
8
BLACK
6
CONTINUOUS
10
293.946
20
-53.771
11
293.738
21
-52.5892
0
LINE
8
BLACK
6
CONTINUOUS
10
293.738
20
-52.5892
11
294.624
21
-52.433
0
LINE
8
BLACK
6
CONTINUOUS
10
294.624
20
-52.433
11
294.832
21
-53.6147
0
LINE
8
BLACK
6
CONTINUOUS
10
278.836
20
-53.5981
11
277.95
21
-53.7544
0
LINE
8
BLACK
6
CONTINUOUS
10
277.95
20
-53.7544
11
277.742
21
-52.5727
0
LINE
8
BLACK
6
CONTINUOUS
10
277.742
20
-52.5727
11
278.628
21
-52.4164
0
LINE
8
BLACK
6
CONTINUOUS
10
278.628
20
-52.4164
11
278.836
21
-53.5981
0
LINE
8
BLACK
6
CONTINUOUS
10
298.082
20
-53.0417
11
297.196
21
-53.198
0
LINE
8
BLACK
6
CONTINUOUS
10
297.196
20
-53.198
11
296.987
21
-52.0162
0
LINE
8
BLACK
6
CONTINUOUS
10
296.987
20
-52.0162
11
297.874
21
-51.8599
0
LINE
8
BLACK
6
CONTINUOUS
10
297.874
20
-51.8599
11
298.082
21
-53.0417
0
LINE
8
BLACK
6
CONTINUOUS
10
26.483
20
-50.057
11
26.2746
21
-51.2388
0
LINE
8
BLACK
6
CONTINUOUS
10
26.2746
20
-51.2388
11
25.3883
21
-51.0825
0
LINE
8
BLACK
6
CONTINUOUS
10
25.3883
20
-51.0825
11
25.5967
21
-49.9007
0
LINE
8
BLACK
6
CONTINUOUS
10
25.5967
20
-49.9007
11
26.483
21
-50.057
0
LINE
8
BLACK
6
CONTINUOUS
10
23.2331
20
-49.4839
11
23.0248
21
-50.6657
0
LINE
8
BLACK
6
CONTINUOUS
10
23.0248
20
-50.6657
11
22.1384
21
-50.5094
0
LINE
8
BLACK
6
CONTINUOUS
10
22.1384
20
-50.5094
11
22.3468
21
-49.3277
0
LINE
8
BLACK
6
CONTINUOUS
10
22.3468
20
-49.3277
11
23.2331
21
-49.4839
0
LINE
8
BLACK
6
CONTINUOUS
10
0.840155
20
-47.5476
11
0.631778
21
-48.7294
0
LINE
8
BLACK
6
CONTINUOUS
10
0.631778
20
-48.7294
11
-0.254549
21
-48.5731
0
LINE
8
BLACK
6
CONTINUOUS
10
-0.254549
20
-48.5731
11
-0.046172
21
-47.3913
0
LINE
8
BLACK
6
CONTINUOUS
10
-0.046172
20
-47.3913
11
0.840155
21
-47.5476
0
LINE
8
BLACK
6
CONTINUOUS
10
-2.40971
20
-46.9746
11
-2.61809
21
-48.1564
0
LINE
8
BLACK
6
CONTINUOUS
10
-2.61809
20
-48.1564
11
-3.50441
21
-48.0001
0
LINE
8
BLACK
6
CONTINUOUS
10
-3.50441
20
-48.0001
11
-3.29604
21
-46.8183
0
LINE
8
BLACK
6
CONTINUOUS
10
-3.29604
20
-46.8183
11
-2.40971
21
-46.9746
0
LINE
8
BLACK
6
CONTINUOUS
10
-17.9645
20
-44.4898
11
-18.1729
21
-45.6715
0
LINE
8
BLACK
6
CONTINUOUS
10
-18.1729
20
-45.6715
11
-19.0592
21
-45.5153
0
LINE
8
BLACK
6
CONTINUOUS
10
-19.0592
20
-45.5153
11
-18.8509
21
-44.3335
0
LINE
8
BLACK
6
CONTINUOUS
10
-18.8509
20
-44.3335
11
-17.9645
21
-44.4898
0
LINE
8
BLACK
6
CONTINUOUS
10
-21.2144
20
-43.9167
11
-21.4228
21
-45.0985
0
LINE
8
BLACK
6
CONTINUOUS
10
-21.4228
20
-45.0985
11
-22.3091
21
-44.9422
0
LINE
8
BLACK
6
CONTINUOUS
10
-22.3091
20
-44.9422
11
-22.1007
21
-43.7604
0
LINE
8
BLACK
6
CONTINUOUS
10
-22.1007
20
-43.7604
11
-21.2144
21
-43.9167
0
LINE
8
BLACK
6
CONTINUOUS
10
-36.7251
20
-41.1818
11
-36.9335
21
-42.3635
0
LINE
8
BLACK
6
CONTINUOUS
10
-36.9335
20
-42.3635
11
-37.8198
21
-42.2073
0
LINE
8
BLACK
6
CONTINUOUS
10
-37.8198
20
-42.2073
11
-37.6115
21
-41.0255
0
LINE
8
BLACK
6
CONTINUOUS
10
-37.6115
20
-41.0255
11
-36.7251
21
-41.1818
0
LINE
8
BLACK
6
CONTINUOUS
10
-39.975
20
-40.6087
11
-40.1834
21
-41.7905
0
LINE
8
BLACK
6
CONTINUOUS
10
-40.1834
20
-41.7905
11
-41.0697
21
-41.6342
0
LINE
8
BLACK
6
CONTINUOUS
10
-41.0697
20
-41.6342
11
-40.8613
21
-40.4525
0
LINE
8
BLACK
6
CONTINUOUS
10
-40.8613
20
-40.4525
11
-39.975
21
-40.6087
0
LINE
8
BLACK
6
CONTINUOUS
10
-55.4857
20
-37.8738
11
-55.6941
21
-39.0555
0
LINE
8
BLACK
6
CONTINUOUS
10
-55.6941
20
-39.0555
11
-56.5804
21
-38.8993
0
LINE
8
BLACK
6
CONTINUOUS
10
-56.5804
20
-38.8993
11
-56.372
21
-37.7175
0
LINE
8
BLACK
6
CONTINUOUS
10
-56.372
20
-37.7175
11
-55.4857
21
-37.8738
0
LINE
8
BLACK
6
CONTINUOUS
10
-58.7356
20
-37.3007
11
-58.944
21
-38.4825
0
LINE
8
BLACK
6
CONTINUOUS
10
-58.944
20
-38.4825
11
-59.8303
21
-38.3262
0
LINE
8
BLACK
6
CONTINUOUS
10
-59.8303
20
-38.3262
11
-59.6219
21
-37.1445
0
LINE
8
BLACK
6
CONTINUOUS
10
-59.6219
20
-37.1445
11
-58.7356
21
-37.3007
  0
ENDSEC
  0
EOF
