  0
SECTION
  2
HEADER
  9
$ANGBASE
  50
0.0
  9
$ANGDIR
  70
1
  9
$MEASUREMENT
  70
1
  0
ENDSEC
  0
SECTION
  2
TABLES
  0
TABLE
  2
LTYPE
  70
4
  0
LTYPE
  5
40F
  2
CONTINUOUS
  70
0
  3
Solid line
  72
65
  73
0
  40
0.0
  0
LTYPE
  5
410
  2
DASHDOT
 70
0
  3
Dash Dot ____ _ ____ _
 72
65
 73
4
 40
2.0
 49
1.25
 49
-0.25
 49
0.25
 49
-0.25
  0
LTYPE
  5
411
  2
DASHED
 70
0
  3
Dashed __ __ __ __ __
 72
65
 73
2
 40
0.75
 49
0.5
 49
-0.25
  0
LTYPE
  5
43B
  2
DOTTED
 70
0
  3
Dotted .  .  .  .
 72
65
 73
2
 40
0.2
 49
0.0
 49
-0.2
  0
ENDTAB
  0
TABLE
  2
STYLE
  70
4
  0
STYLE
  2
KICAD
  70
0
  40
0
  41
1
  42
1
  50
0
  71
0
  3
isocp.shx
  0
STYLE
  2
KICADB
  70
0
  40
0
  41
1
  42
1
  50
0
  71
0
  3
isocp.shx
  0
STYLE
  2
KICADI
  70
0
  40
0
  41
1
  42
1
  50
15
  71
0
  3
isocp.shx
  0
STYLE
  2
KICADBI
  70
0
  40
0
  41
1
  42
1
  50
15
  71
0
  3
isocp.shx
  0
ENDTAB
  0
TABLE
  2
LAYER
  70
1
  0
LAYER
  2
BLACK
  70
0
  62
7
  6
CONTINUOUS
  0
ENDTAB
  0
ENDSEC
  0
SECTION
  2
ENTITIES
0
LINE
8
BLACK
6
CONTINUOUS
10
25.1662
20
-32.2004
11
63.1739
21
-36.0401
0
LINE
8
BLACK
6
CONTINUOUS
10
63.1739
20
-36.0401
11
82.3328
21
-37.1101
0
LINE
8
BLACK
6
CONTINUOUS
10
82.3328
20
-37.1101
11
82.3356
21
-37.1114
0
LINE
8
BLACK
6
CONTINUOUS
10
82.3356
20
-37.1114
11
82.3387
21
-37.1108
0
LINE
8
BLACK
6
CONTINUOUS
10
82.3387
20
-37.1108
11
101.119
21
-40.4108
0
LINE
8
BLACK
6
CONTINUOUS
10
101.119
20
-40.4108
11
101.12
21
-40.4119
0
LINE
8
BLACK
6
CONTINUOUS
10
101.12
20
-40.4119
11
101.123
21
-40.4116
0
LINE
8
BLACK
6
CONTINUOUS
10
101.123
20
-40.4116
11
156.602
21
-54.8436
0
LINE
8
BLACK
6
CONTINUOUS
10
156.602
20
-54.8436
11
158.121
21
-52.9883
0
LINE
8
BLACK
6
CONTINUOUS
10
158.121
20
-52.9883
11
158.124
21
-52.9871
0
LINE
8
BLACK
6
CONTINUOUS
10
158.124
20
-52.9871
11
158.125
21
-52.9847
0
LINE
8
BLACK
6
CONTINUOUS
10
158.125
20
-52.9847
11
158.14
21
-52.9782
0
LINE
8
BLACK
6
CONTINUOUS
10
158.14
20
-52.9782
11
158.155
21
-52.9702
0
LINE
8
BLACK
6
CONTINUOUS
10
158.155
20
-52.9702
11
158.158
21
-52.971
0
LINE
8
BLACK
6
CONTINUOUS
10
158.158
20
-52.971
11
158.16
21
-52.97
0
LINE
8
BLACK
6
CONTINUOUS
10
158.16
20
-52.97
11
176.13
21
-52.96
0
LINE
8
BLACK
6
CONTINUOUS
10
176.13
20
-52.96
11
176.132
21
-52.9608
0
LINE
8
BLACK
6
CONTINUOUS
10
176.132
20
-52.9608
11
176.134
21
-52.9601
0
LINE
8
BLACK
6
CONTINUOUS
10
176.134
20
-52.9601
11
176.149
21
-52.968
0
LINE
8
BLACK
6
CONTINUOUS
10
176.149
20
-52.968
11
176.165
21
-52.9746
0
LINE
8
BLACK
6
CONTINUOUS
10
176.165
20
-52.9746
11
176.166
21
-52.9765
0
LINE
8
BLACK
6
CONTINUOUS
10
176.166
20
-52.9765
11
176.168
21
-52.9774
0
LINE
8
BLACK
6
CONTINUOUS
10
176.168
20
-52.9774
11
177.798
21
-54.8738
0
LINE
8
BLACK
6
CONTINUOUS
10
177.798
20
-54.8738
11
233.247
21
-40.4916
0
LINE
8
BLACK
6
CONTINUOUS
10
233.247
20
-40.4916
11
233.25
21
-40.4919
0
LINE
8
BLACK
6
CONTINUOUS
10
233.25
20
-40.4919
11
233.251
21
-40.4908
0
LINE
8
BLACK
6
CONTINUOUS
10
233.251
20
-40.4908
11
252.021
21
-37.1608
0
LINE
8
BLACK
6
CONTINUOUS
10
252.021
20
-37.1608
11
252.024
21
-37.1613
0
LINE
8
BLACK
6
CONTINUOUS
10
252.024
20
-37.1613
11
252.026
21
-37.1602
0
LINE
8
BLACK
6
CONTINUOUS
10
252.026
20
-37.1602
11
309.196
21
-32.2502
0
LINE
8
BLACK
6
CONTINUOUS
10
309.196
20
-32.2502
11
309.212
21
-32.2553
0
LINE
8
BLACK
6
CONTINUOUS
10
309.212
20
-32.2553
11
309.229
21
-32.259
0
LINE
8
BLACK
6
CONTINUOUS
10
309.229
20
-32.259
11
309.23
21
-32.261
0
LINE
8
BLACK
6
CONTINUOUS
10
309.23
20
-32.261
11
309.232
21
-32.2617
0
LINE
8
BLACK
6
CONTINUOUS
10
309.232
20
-32.2617
11
309.24
21
-32.2769
0
LINE
8
BLACK
6
CONTINUOUS
10
309.24
20
-32.2769
11
309.249
21
-32.2913
0
LINE
8
BLACK
6
CONTINUOUS
10
309.249
20
-32.2913
11
329.099
21
-144.851
0
LINE
8
BLACK
6
CONTINUOUS
10
329.099
20
-144.851
11
329.099
21
-144.851
0
LINE
8
BLACK
6
CONTINUOUS
10
329.099
20
-144.851
11
329.099
21
-144.851
0
LINE
8
BLACK
6
CONTINUOUS
10
329.099
20
-144.851
11
329.095
21
-144.87
0
LINE
8
BLACK
6
CONTINUOUS
10
329.095
20
-144.87
11
329.091
21
-144.889
0
LINE
8
BLACK
6
CONTINUOUS
10
329.091
20
-144.889
11
329.091
21
-144.889
0
LINE
8
BLACK
6
CONTINUOUS
10
329.091
20
-144.889
11
329.091
21
-144.889
0
LINE
8
BLACK
6
CONTINUOUS
10
329.091
20
-144.889
11
329.076
21
-144.898
0
LINE
8
BLACK
6
CONTINUOUS
10
329.076
20
-144.898
11
329.059
21
-144.909
0
LINE
8
BLACK
6
CONTINUOUS
10
329.059
20
-144.909
11
329.059
21
-144.909
0
LINE
8
BLACK
6
CONTINUOUS
10
329.059
20
-144.909
11
329.059
21
-144.909
0
LINE
8
BLACK
6
CONTINUOUS
10
329.059
20
-144.909
11
291.529
21
-151.509
0
LINE
8
BLACK
6
CONTINUOUS
10
291.529
20
-151.509
11
291.527
21
-151.509
0
LINE
8
BLACK
6
CONTINUOUS
10
291.527
20
-151.509
11
291.525
21
-151.51
0
LINE
8
BLACK
6
CONTINUOUS
10
291.525
20
-151.51
11
253.532
21
-155.399
0
LINE
8
BLACK
6
CONTINUOUS
10
253.532
20
-155.399
11
191.739
21
-180.826
0
LINE
8
BLACK
6
CONTINUOUS
10
191.739
20
-180.826
11
191.729
21
-180.826
0
LINE
8
BLACK
6
CONTINUOUS
10
191.729
20
-180.826
11
191.72
21
-180.83
0
LINE
8
BLACK
6
CONTINUOUS
10
191.72
20
-180.83
11
142.93
21
-180.58
0
LINE
8
BLACK
6
CONTINUOUS
10
142.93
20
-180.58
11
142.922
21
-180.577
0
LINE
8
BLACK
6
CONTINUOUS
10
142.922
20
-180.577
11
142.913
21
-180.577
0
LINE
8
BLACK
6
CONTINUOUS
10
142.913
20
-180.577
11
80.4872
21
-157.589
0
LINE
8
BLACK
6
CONTINUOUS
10
80.4872
20
-157.589
11
42.832
21
-151.479
0
LINE
8
BLACK
6
CONTINUOUS
10
42.832
20
-151.479
11
42.8317
21
-151.479
0
LINE
8
BLACK
6
CONTINUOUS
10
42.8317
20
-151.479
11
42.8313
21
-151.479
0
LINE
8
BLACK
6
CONTINUOUS
10
42.8313
20
-151.479
11
5.32131
21
-144.859
0
LINE
8
BLACK
6
CONTINUOUS
10
5.32131
20
-144.859
11
5.31274
21
-144.854
0
LINE
8
BLACK
6
CONTINUOUS
10
5.31274
20
-144.854
11
5.30275
21
-144.852
0
LINE
8
BLACK
6
CONTINUOUS
10
5.30275
20
-144.852
11
5.29725
21
-144.844
0
LINE
8
BLACK
6
CONTINUOUS
10
5.29725
20
-144.844
11
5.28904
21
-144.839
0
LINE
8
BLACK
6
CONTINUOUS
10
5.28904
20
-144.839
11
5.28684
21
-144.829
0
LINE
8
BLACK
6
CONTINUOUS
10
5.28684
20
-144.829
11
5.28109
21
-144.82
0
LINE
8
BLACK
6
CONTINUOUS
10
5.28109
20
-144.82
11
1.52809
21
-127.133
0
LINE
8
BLACK
6
CONTINUOUS
10
1.52809
20
-127.133
11
-73.4687
21
-113.869
0
LINE
8
BLACK
6
CONTINUOUS
10
-73.4687
20
-113.869
11
-73.4847
21
-113.859
0
LINE
8
BLACK
6
CONTINUOUS
10
-73.4847
20
-113.859
11
-73.501
21
-113.849
0
LINE
8
BLACK
6
CONTINUOUS
10
-73.501
20
-113.849
11
-73.501
21
-113.849
0
LINE
8
BLACK
6
CONTINUOUS
10
-73.501
20
-113.849
11
-73.501
21
-113.849
0
LINE
8
BLACK
6
CONTINUOUS
10
-73.501
20
-113.849
11
-73.5054
21
-113.829
0
LINE
8
BLACK
6
CONTINUOUS
10
-73.5054
20
-113.829
11
-73.5092
21
-113.811
0
LINE
8
BLACK
6
CONTINUOUS
10
-73.5092
20
-113.811
11
-73.5092
21
-113.811
0
LINE
8
BLACK
6
CONTINUOUS
10
-73.5092
20
-113.811
11
-73.5092
21
-113.811
0
LINE
8
BLACK
6
CONTINUOUS
10
-73.5092
20
-113.811
11
-73.5092
21
-113.811
0
LINE
8
BLACK
6
CONTINUOUS
10
-73.5092
20
-113.811
11
-56.9392
21
-20.0213
0
LINE
8
BLACK
6
CONTINUOUS
10
-56.9392
20
-20.0213
11
-56.9293
21
-20.0057
0
LINE
8
BLACK
6
CONTINUOUS
10
-56.9293
20
-20.0057
11
-56.9198
21
-19.9898
0
LINE
8
BLACK
6
CONTINUOUS
10
-56.9198
20
-19.9898
11
-56.9191
21
-19.9896
0
LINE
8
BLACK
6
CONTINUOUS
10
-56.9191
20
-19.9896
11
-56.9187
21
-19.989
0
LINE
8
BLACK
6
CONTINUOUS
10
-56.9187
20
-19.989
11
-56.9006
21
-19.985
0
LINE
8
BLACK
6
CONTINUOUS
10
-56.9006
20
-19.985
11
-56.8826
21
-19.9805
0
LINE
8
BLACK
6
CONTINUOUS
10
-56.8826
20
-19.9805
11
25.1662
21
-32.2004
0
LINE
8
BLACK
6
CONTINUOUS
10
-73.4021
20
-113.779
11
1.57871
21
-127.041
0
LINE
8
BLACK
6
CONTINUOUS
10
1.57871
20
-127.041
11
1.58727
21
-127.046
0
LINE
8
BLACK
6
CONTINUOUS
10
1.58727
20
-127.046
11
1.59725
21
-127.048
0
LINE
8
BLACK
6
CONTINUOUS
10
1.59725
20
-127.048
11
1.60276
21
-127.056
0
LINE
8
BLACK
6
CONTINUOUS
10
1.60276
20
-127.056
11
1.61097
21
-127.061
0
LINE
8
BLACK
6
CONTINUOUS
10
1.61097
20
-127.061
11
1.61316
21
-127.071
0
LINE
8
BLACK
6
CONTINUOUS
10
1.61316
20
-127.071
11
1.61891
21
-127.08
0
LINE
8
BLACK
6
CONTINUOUS
10
1.61891
20
-127.08
11
5.37191
21
-144.767
0
LINE
8
BLACK
6
CONTINUOUS
10
5.37191
20
-144.767
11
42.8483
21
-151.381
0
LINE
8
BLACK
6
CONTINUOUS
10
42.8483
20
-151.381
11
80.508
21
-157.491
0
LINE
8
BLACK
6
CONTINUOUS
10
80.508
20
-157.491
11
80.5123
21
-157.493
0
LINE
8
BLACK
6
CONTINUOUS
10
80.5123
20
-157.493
11
80.5173
21
-157.493
0
LINE
8
BLACK
6
CONTINUOUS
10
80.5173
20
-157.493
11
142.939
21
-180.48
0
LINE
8
BLACK
6
CONTINUOUS
10
142.939
20
-180.48
11
191.71
21
-180.73
0
LINE
8
BLACK
6
CONTINUOUS
10
191.71
20
-180.73
11
253.501
21
-155.304
0
LINE
8
BLACK
6
CONTINUOUS
10
253.501
20
-155.304
11
253.508
21
-155.304
0
LINE
8
BLACK
6
CONTINUOUS
10
253.508
20
-155.304
11
253.515
21
-155.3
0
LINE
8
BLACK
6
CONTINUOUS
10
253.515
20
-155.3
11
291.513
21
-151.41
0
LINE
8
BLACK
6
CONTINUOUS
10
291.513
20
-151.41
11
328.992
21
-144.819
0
LINE
8
BLACK
6
CONTINUOUS
10
328.992
20
-144.819
11
309.159
21
-32.3537
0
LINE
8
BLACK
6
CONTINUOUS
10
309.159
20
-32.3537
11
252.037
21
-37.2596
0
LINE
8
BLACK
6
CONTINUOUS
10
252.037
20
-37.2596
11
233.271
21
-40.5889
0
LINE
8
BLACK
6
CONTINUOUS
10
233.271
20
-40.5889
11
177.793
21
-54.9784
0
LINE
8
BLACK
6
CONTINUOUS
10
177.793
20
-54.9784
11
177.784
21
-54.9772
0
LINE
8
BLACK
6
CONTINUOUS
10
177.784
20
-54.9772
11
177.776
21
-54.9799
0
LINE
8
BLACK
6
CONTINUOUS
10
177.776
20
-54.9799
11
177.766
21
-54.9747
0
LINE
8
BLACK
6
CONTINUOUS
10
177.766
20
-54.9747
11
177.755
21
-54.9731
0
LINE
8
BLACK
6
CONTINUOUS
10
177.755
20
-54.9731
11
177.75
21
-54.9664
0
LINE
8
BLACK
6
CONTINUOUS
10
177.75
20
-54.9664
11
177.742
21
-54.9626
0
LINE
8
BLACK
6
CONTINUOUS
10
177.742
20
-54.9626
11
176.107
21
-53.06
0
LINE
8
BLACK
6
CONTINUOUS
10
176.107
20
-53.06
11
158.184
21
-53.07
0
LINE
8
BLACK
6
CONTINUOUS
10
158.184
20
-53.07
11
156.659
21
-54.9317
0
LINE
8
BLACK
6
CONTINUOUS
10
156.659
20
-54.9317
11
156.651
21
-54.9359
0
LINE
8
BLACK
6
CONTINUOUS
10
156.651
20
-54.9359
11
156.645
21
-54.9431
0
LINE
8
BLACK
6
CONTINUOUS
10
156.645
20
-54.9431
11
156.635
21
-54.9446
0
LINE
8
BLACK
6
CONTINUOUS
10
156.635
20
-54.9446
11
156.625
21
-54.9498
0
LINE
8
BLACK
6
CONTINUOUS
10
156.625
20
-54.9498
11
156.616
21
-54.9471
0
LINE
8
BLACK
6
CONTINUOUS
10
156.616
20
-54.9471
11
156.607
21
-54.9484
0
LINE
8
BLACK
6
CONTINUOUS
10
156.607
20
-54.9484
11
101.099
21
-40.5089
0
LINE
8
BLACK
6
CONTINUOUS
10
101.099
20
-40.5089
11
82.3243
21
-37.2098
0
LINE
8
BLACK
6
CONTINUOUS
10
82.3243
20
-37.2098
11
63.1672
21
-36.1399
0
LINE
8
BLACK
6
CONTINUOUS
10
63.1672
20
-36.1399
11
63.1661
21
-36.1394
0
LINE
8
BLACK
6
CONTINUOUS
10
63.1661
20
-36.1394
11
63.165
21
-36.1397
0
LINE
8
BLACK
6
CONTINUOUS
10
63.165
20
-36.1397
11
25.155
21
-32.2997
0
LINE
8
BLACK
6
CONTINUOUS
10
25.155
20
-32.2997
11
25.1539
21
-32.2991
0
LINE
8
BLACK
6
CONTINUOUS
10
25.1539
20
-32.2991
11
25.1526
21
-32.2995
0
LINE
8
BLACK
6
CONTINUOUS
10
25.1526
20
-32.2995
11
-56.8492
21
-20.0866
0
LINE
8
BLACK
6
CONTINUOUS
10
-56.8492
20
-20.0866
11
-73.4021
21
-113.779
  0
ENDSEC
  0
EOF
