%TF.GenerationSoftware,KiCad,Pcbnew,(6.0.4)*%
%TF.CreationDate,2022-12-23T13:38:45-05:00*%
%TF.ProjectId,atreuskeypad,61747265-7573-46b6-9579-7061642e6b69,rev?*%
%TF.SameCoordinates,Original*%
%TF.FileFunction,Legend,Bot*%
%TF.FilePolarity,Positive*%
%FSLAX46Y46*%
G04 Gerber Fmt 4.6, Leading zero omitted, Abs format (unit mm)*
G04 Created by KiCad (PCBNEW (6.0.4)) date 2022-12-23 13:38:45*
%MOMM*%
%LPD*%
G01*
G04 APERTURE LIST*
%ADD10C,0.150000*%
%ADD11C,0.120000*%
G04 APERTURE END LIST*
D10*
X186782666Y-154003238D02*
X186973142Y-153908000D01*
X187163619Y-153717523D01*
X187449333Y-153431809D01*
X187639809Y-153336571D01*
X187830285Y-153336571D01*
X187735047Y-153812761D02*
X187925523Y-153717523D01*
X188116000Y-153527047D01*
X188211238Y-153146095D01*
X188211238Y-152479428D01*
X188116000Y-152098476D01*
X187925523Y-151908000D01*
X187735047Y-151812761D01*
X187354095Y-151812761D01*
X187163619Y-151908000D01*
X186973142Y-152098476D01*
X186877904Y-152479428D01*
X186877904Y-153146095D01*
X186973142Y-153527047D01*
X187163619Y-153717523D01*
X187354095Y-153812761D01*
X187735047Y-153812761D01*
X185163619Y-152479428D02*
X185163619Y-153812761D01*
X186020761Y-152479428D02*
X186020761Y-153527047D01*
X185925523Y-153717523D01*
X185735047Y-153812761D01*
X185449333Y-153812761D01*
X185258857Y-153717523D01*
X185163619Y-153622285D01*
X183449333Y-153717523D02*
X183639809Y-153812761D01*
X184020761Y-153812761D01*
X184211238Y-153717523D01*
X184306476Y-153527047D01*
X184306476Y-152765142D01*
X184211238Y-152574666D01*
X184020761Y-152479428D01*
X183639809Y-152479428D01*
X183449333Y-152574666D01*
X183354095Y-152765142D01*
X183354095Y-152955619D01*
X184306476Y-153146095D01*
X182782666Y-152479428D02*
X182020761Y-152479428D01*
X182496952Y-151812761D02*
X182496952Y-153527047D01*
X182401714Y-153717523D01*
X182211238Y-153812761D01*
X182020761Y-153812761D01*
X181544571Y-152479428D02*
X180496952Y-152479428D01*
X181544571Y-153812761D01*
X180496952Y-153812761D01*
X178877904Y-153812761D02*
X178877904Y-152765142D01*
X178973142Y-152574666D01*
X179163619Y-152479428D01*
X179544571Y-152479428D01*
X179735047Y-152574666D01*
X178877904Y-153717523D02*
X179068380Y-153812761D01*
X179544571Y-153812761D01*
X179735047Y-153717523D01*
X179830285Y-153527047D01*
X179830285Y-153336571D01*
X179735047Y-153146095D01*
X179544571Y-153050857D01*
X179068380Y-153050857D01*
X178877904Y-152955619D01*
X177639809Y-153812761D02*
X177830285Y-153717523D01*
X177925523Y-153527047D01*
X177925523Y-151812761D01*
X176877904Y-153622285D02*
X176782666Y-153717523D01*
X176877904Y-153812761D01*
X176973142Y-153717523D01*
X176877904Y-153622285D01*
X176877904Y-153812761D01*
X176877904Y-152574666D02*
X176782666Y-152669904D01*
X176877904Y-152765142D01*
X176973142Y-152669904D01*
X176877904Y-152574666D01*
X176877904Y-152765142D01*
X173735047Y-152765142D02*
X173449333Y-152860380D01*
X173354095Y-152955619D01*
X173258857Y-153146095D01*
X173258857Y-153431809D01*
X173354095Y-153622285D01*
X173449333Y-153717523D01*
X173639809Y-153812761D01*
X174401714Y-153812761D01*
X174401714Y-151812761D01*
X173735047Y-151812761D01*
X173544571Y-151908000D01*
X173449333Y-152003238D01*
X173354095Y-152193714D01*
X173354095Y-152384190D01*
X173449333Y-152574666D01*
X173544571Y-152669904D01*
X173735047Y-152765142D01*
X174401714Y-152765142D01*
X172592190Y-152479428D02*
X172116000Y-153812761D01*
X171639809Y-152479428D02*
X172116000Y-153812761D01*
X172306476Y-154288952D01*
X172401714Y-154384190D01*
X172592190Y-154479428D01*
X169354095Y-153812761D02*
X169354095Y-151812761D01*
X168211238Y-153812761D02*
X169068380Y-152669904D01*
X168211238Y-151812761D02*
X169354095Y-152955619D01*
X166592190Y-153717523D02*
X166782666Y-153812761D01*
X167163619Y-153812761D01*
X167354095Y-153717523D01*
X167449333Y-153527047D01*
X167449333Y-152765142D01*
X167354095Y-152574666D01*
X167163619Y-152479428D01*
X166782666Y-152479428D01*
X166592190Y-152574666D01*
X166496952Y-152765142D01*
X166496952Y-152955619D01*
X167449333Y-153146095D01*
X165830285Y-152479428D02*
X165354095Y-153812761D01*
X164877904Y-152479428D02*
X165354095Y-153812761D01*
X165544571Y-154288952D01*
X165639809Y-154384190D01*
X165830285Y-154479428D01*
X164116000Y-153812761D02*
X164116000Y-151812761D01*
X164116000Y-152574666D02*
X163925523Y-152479428D01*
X163544571Y-152479428D01*
X163354095Y-152574666D01*
X163258857Y-152669904D01*
X163163619Y-152860380D01*
X163163619Y-153431809D01*
X163258857Y-153622285D01*
X163354095Y-153717523D01*
X163544571Y-153812761D01*
X163925523Y-153812761D01*
X164116000Y-153717523D01*
X162020761Y-153812761D02*
X162211238Y-153717523D01*
X162306476Y-153622285D01*
X162401714Y-153431809D01*
X162401714Y-152860380D01*
X162306476Y-152669904D01*
X162211238Y-152574666D01*
X162020761Y-152479428D01*
X161735047Y-152479428D01*
X161544571Y-152574666D01*
X161449333Y-152669904D01*
X161354095Y-152860380D01*
X161354095Y-153431809D01*
X161449333Y-153622285D01*
X161544571Y-153717523D01*
X161735047Y-153812761D01*
X162020761Y-153812761D01*
X159639809Y-153812761D02*
X159639809Y-152765142D01*
X159735047Y-152574666D01*
X159925523Y-152479428D01*
X160306476Y-152479428D01*
X160496952Y-152574666D01*
X159639809Y-153717523D02*
X159830285Y-153812761D01*
X160306476Y-153812761D01*
X160496952Y-153717523D01*
X160592190Y-153527047D01*
X160592190Y-153336571D01*
X160496952Y-153146095D01*
X160306476Y-153050857D01*
X159830285Y-153050857D01*
X159639809Y-152955619D01*
X158687428Y-153812761D02*
X158687428Y-152479428D01*
X158687428Y-152860380D02*
X158592190Y-152669904D01*
X158496952Y-152574666D01*
X158306476Y-152479428D01*
X158116000Y-152479428D01*
X156592190Y-153812761D02*
X156592190Y-151812761D01*
X156592190Y-153717523D02*
X156782666Y-153812761D01*
X157163619Y-153812761D01*
X157354095Y-153717523D01*
X157449333Y-153622285D01*
X157544571Y-153431809D01*
X157544571Y-152860380D01*
X157449333Y-152669904D01*
X157354095Y-152574666D01*
X157163619Y-152479428D01*
X156782666Y-152479428D01*
X156592190Y-152574666D01*
X154116000Y-153812761D02*
X154116000Y-151812761D01*
X153639809Y-151812761D01*
X153354095Y-151908000D01*
X153163619Y-152098476D01*
X153068380Y-152288952D01*
X152973142Y-152669904D01*
X152973142Y-152955619D01*
X153068380Y-153336571D01*
X153163619Y-153527047D01*
X153354095Y-153717523D01*
X153639809Y-153812761D01*
X154116000Y-153812761D01*
X152306476Y-152479428D02*
X151925523Y-153812761D01*
X151544571Y-152860380D01*
X151163619Y-153812761D01*
X150782666Y-152479428D01*
X149258857Y-153717523D02*
X149449333Y-153812761D01*
X149830285Y-153812761D01*
X150020761Y-153717523D01*
X150116000Y-153527047D01*
X150116000Y-152765142D01*
X150020761Y-152574666D01*
X149830285Y-152479428D01*
X149449333Y-152479428D01*
X149258857Y-152574666D01*
X149163619Y-152765142D01*
X149163619Y-152955619D01*
X150116000Y-153146095D01*
X147544571Y-153717523D02*
X147735047Y-153812761D01*
X148116000Y-153812761D01*
X148306476Y-153717523D01*
X148401714Y-153527047D01*
X148401714Y-152765142D01*
X148306476Y-152574666D01*
X148116000Y-152479428D01*
X147735047Y-152479428D01*
X147544571Y-152574666D01*
X147449333Y-152765142D01*
X147449333Y-152955619D01*
X148401714Y-153146095D01*
X146592190Y-153812761D02*
X146592190Y-151812761D01*
X146592190Y-152574666D02*
X146401714Y-152479428D01*
X146020761Y-152479428D01*
X145830285Y-152574666D01*
X145735047Y-152669904D01*
X145639809Y-152860380D01*
X145639809Y-153431809D01*
X145735047Y-153622285D01*
X145830285Y-153717523D01*
X146020761Y-153812761D01*
X146401714Y-153812761D01*
X146592190Y-153717523D01*
X144877904Y-153717523D02*
X144687428Y-153812761D01*
X144306476Y-153812761D01*
X144116000Y-153717523D01*
X144020761Y-153527047D01*
X144020761Y-153431809D01*
X144116000Y-153241333D01*
X144306476Y-153146095D01*
X144592190Y-153146095D01*
X144782666Y-153050857D01*
X144877904Y-152860380D01*
X144877904Y-152765142D01*
X144782666Y-152574666D01*
X144592190Y-152479428D01*
X144306476Y-152479428D01*
X144116000Y-152574666D01*
%TO.C,D58*%
X231233380Y-117842706D02*
X231059731Y-116857899D01*
X230825253Y-116899243D01*
X230692836Y-116970946D01*
X230615582Y-117081275D01*
X230585225Y-117183335D01*
X230571405Y-117379187D01*
X230596212Y-117519873D01*
X230676183Y-117699187D01*
X230739617Y-117784709D01*
X230849946Y-117861962D01*
X230998902Y-117884051D01*
X231233380Y-117842706D01*
X229605968Y-117114236D02*
X230074924Y-117031547D01*
X230204509Y-117492234D01*
X230149344Y-117453607D01*
X230047284Y-117423249D01*
X229812806Y-117464594D01*
X229727284Y-117528028D01*
X229688657Y-117583192D01*
X229658300Y-117685253D01*
X229699644Y-117919731D01*
X229763078Y-118005253D01*
X229818242Y-118043879D01*
X229920303Y-118074237D01*
X230154781Y-118032892D01*
X230240303Y-117969459D01*
X230278930Y-117914294D01*
X229070745Y-117643793D02*
X229156268Y-117580360D01*
X229194894Y-117525195D01*
X229225252Y-117423135D01*
X229216983Y-117376239D01*
X229153549Y-117290717D01*
X229098385Y-117252090D01*
X228996325Y-117221733D01*
X228808742Y-117254809D01*
X228723220Y-117318242D01*
X228684593Y-117373407D01*
X228654236Y-117475467D01*
X228662505Y-117522363D01*
X228725938Y-117607885D01*
X228781103Y-117646511D01*
X228883163Y-117676869D01*
X229070745Y-117643793D01*
X229172806Y-117674151D01*
X229227970Y-117712778D01*
X229291404Y-117798300D01*
X229324479Y-117985882D01*
X229294122Y-118087942D01*
X229255495Y-118143107D01*
X229169973Y-118206541D01*
X228982390Y-118239616D01*
X228880330Y-118209259D01*
X228825166Y-118170632D01*
X228761732Y-118085110D01*
X228728656Y-117897527D01*
X228759014Y-117795467D01*
X228797641Y-117740303D01*
X228883163Y-117676869D01*
%TO.C,D80*%
X271665593Y-127736028D02*
X271491944Y-126751221D01*
X271257466Y-126792565D01*
X271125049Y-126864268D01*
X271047795Y-126974597D01*
X271017438Y-127076657D01*
X271003618Y-127272509D01*
X271028425Y-127413195D01*
X271108396Y-127592509D01*
X271171830Y-127678031D01*
X271282159Y-127755284D01*
X271431115Y-127777373D01*
X271665593Y-127736028D01*
X270440871Y-127371736D02*
X270526393Y-127308303D01*
X270565019Y-127253138D01*
X270595377Y-127151078D01*
X270587108Y-127104182D01*
X270523675Y-127018660D01*
X270468510Y-126980033D01*
X270366450Y-126949676D01*
X270178867Y-126982751D01*
X270093345Y-127046185D01*
X270054719Y-127101350D01*
X270024361Y-127203410D01*
X270032630Y-127250305D01*
X270096063Y-127335828D01*
X270151228Y-127374454D01*
X270253288Y-127404812D01*
X270440871Y-127371736D01*
X270542931Y-127402094D01*
X270598095Y-127440720D01*
X270661529Y-127526243D01*
X270694605Y-127713825D01*
X270664247Y-127815885D01*
X270625620Y-127871050D01*
X270540098Y-127934483D01*
X270352516Y-127967559D01*
X270250455Y-127937201D01*
X270195291Y-127898575D01*
X270131857Y-127813053D01*
X270098781Y-127625470D01*
X270129139Y-127523410D01*
X270167766Y-127468245D01*
X270253288Y-127404812D01*
X269381642Y-127123324D02*
X269287851Y-127139862D01*
X269202329Y-127203295D01*
X269163702Y-127258460D01*
X269133344Y-127360520D01*
X269119525Y-127556371D01*
X269160869Y-127790849D01*
X269240841Y-127970163D01*
X269304274Y-128055685D01*
X269359439Y-128094312D01*
X269461499Y-128124669D01*
X269555290Y-128108132D01*
X269640813Y-128044698D01*
X269679439Y-127989533D01*
X269709797Y-127887473D01*
X269723617Y-127691622D01*
X269682272Y-127457144D01*
X269602300Y-127277830D01*
X269538867Y-127192308D01*
X269483702Y-127153681D01*
X269381642Y-127123324D01*
%TO.C,D39*%
X129702544Y-104548331D02*
X129528895Y-105533138D01*
X129763374Y-105574483D01*
X129912329Y-105552395D01*
X130022658Y-105475141D01*
X130086092Y-105389619D01*
X130166063Y-105210306D01*
X130190870Y-105069619D01*
X130177051Y-104873767D01*
X130146693Y-104771707D01*
X130069440Y-104661378D01*
X129937022Y-104589676D01*
X129702544Y-104548331D01*
X130419912Y-105690249D02*
X131029555Y-105797745D01*
X130767437Y-105364698D01*
X130908124Y-105389505D01*
X131010184Y-105359147D01*
X131065349Y-105320520D01*
X131128782Y-105234998D01*
X131170127Y-105000520D01*
X131139770Y-104898460D01*
X131101143Y-104843295D01*
X131015621Y-104779862D01*
X130734247Y-104730248D01*
X130632187Y-104760606D01*
X130577022Y-104799232D01*
X131672159Y-104895627D02*
X131859742Y-104928703D01*
X131945264Y-104992136D01*
X131983890Y-105047301D01*
X132052875Y-105204526D01*
X132066695Y-105400377D01*
X132000543Y-105775542D01*
X131937109Y-105861064D01*
X131881945Y-105899691D01*
X131779885Y-105930049D01*
X131592302Y-105896973D01*
X131506780Y-105833539D01*
X131468153Y-105778375D01*
X131437796Y-105676314D01*
X131479140Y-105441836D01*
X131542574Y-105356314D01*
X131597739Y-105317688D01*
X131699799Y-105287330D01*
X131887381Y-105320406D01*
X131972903Y-105383839D01*
X132011530Y-105439004D01*
X132041888Y-105541064D01*
%TO.C,D55*%
X126394546Y-123308919D02*
X126220897Y-124293726D01*
X126455376Y-124335071D01*
X126604331Y-124312983D01*
X126714660Y-124235729D01*
X126778094Y-124150207D01*
X126858065Y-123970894D01*
X126882872Y-123830207D01*
X126869053Y-123634355D01*
X126838695Y-123532295D01*
X126761442Y-123421966D01*
X126629024Y-123350264D01*
X126394546Y-123308919D01*
X127674661Y-124550064D02*
X127205705Y-124467375D01*
X127241499Y-123990150D01*
X127280126Y-124045314D01*
X127365648Y-124108748D01*
X127600126Y-124150093D01*
X127702186Y-124119735D01*
X127757351Y-124081108D01*
X127820784Y-123995586D01*
X127862129Y-123761108D01*
X127831772Y-123659048D01*
X127793145Y-123603883D01*
X127707623Y-123540450D01*
X127473145Y-123499105D01*
X127371084Y-123529463D01*
X127315920Y-123568089D01*
X128612573Y-124715443D02*
X128143617Y-124632754D01*
X128179411Y-124155529D01*
X128218038Y-124210693D01*
X128303560Y-124274127D01*
X128538038Y-124315472D01*
X128640098Y-124285114D01*
X128695263Y-124246487D01*
X128758697Y-124160965D01*
X128800041Y-123926487D01*
X128769684Y-123824427D01*
X128731057Y-123769262D01*
X128645535Y-123705829D01*
X128411057Y-123664484D01*
X128308997Y-123694842D01*
X128253832Y-123733468D01*
%TO.C,D88*%
X193853775Y-176815095D02*
X193431156Y-175908787D01*
X193215369Y-176009410D01*
X193106021Y-176112942D01*
X193059955Y-176239506D01*
X193057047Y-176345946D01*
X193094388Y-176538701D01*
X193154762Y-176668173D01*
X193278419Y-176820678D01*
X193361825Y-176886869D01*
X193488390Y-176932934D01*
X193637987Y-176915718D01*
X193853775Y-176815095D01*
X192576498Y-176780197D02*
X192642688Y-176696790D01*
X192665721Y-176633508D01*
X192668629Y-176527068D01*
X192648505Y-176483910D01*
X192565098Y-176417720D01*
X192501816Y-176394687D01*
X192395376Y-176391779D01*
X192222746Y-176472278D01*
X192156556Y-176555685D01*
X192133523Y-176618967D01*
X192130615Y-176725407D01*
X192150739Y-176768564D01*
X192234146Y-176834754D01*
X192297428Y-176857787D01*
X192403868Y-176860695D01*
X192576498Y-176780197D01*
X192682938Y-176783105D01*
X192746220Y-176806138D01*
X192829627Y-176872328D01*
X192910126Y-177044958D01*
X192907217Y-177151398D01*
X192884185Y-177214680D01*
X192817994Y-177298087D01*
X192645364Y-177378586D01*
X192538924Y-177375677D01*
X192475642Y-177352645D01*
X192392235Y-177286454D01*
X192311737Y-177113824D01*
X192314645Y-177007384D01*
X192337678Y-176944102D01*
X192403868Y-176860695D01*
X191713348Y-177182690D02*
X191779538Y-177099283D01*
X191802571Y-177036001D01*
X191805479Y-176929562D01*
X191785354Y-176886404D01*
X191701948Y-176820214D01*
X191638665Y-176797181D01*
X191532226Y-176794273D01*
X191359596Y-176874771D01*
X191293405Y-176958178D01*
X191270372Y-177021460D01*
X191267464Y-177127900D01*
X191287589Y-177171058D01*
X191370996Y-177237248D01*
X191434278Y-177260281D01*
X191540718Y-177263189D01*
X191713348Y-177182690D01*
X191819788Y-177185598D01*
X191883070Y-177208631D01*
X191966477Y-177274822D01*
X192046975Y-177447452D01*
X192044067Y-177553891D01*
X192021034Y-177617174D01*
X191954844Y-177700580D01*
X191782214Y-177781079D01*
X191675774Y-177778171D01*
X191612492Y-177755138D01*
X191529085Y-177688948D01*
X191448586Y-177516318D01*
X191451495Y-177409878D01*
X191474527Y-177346596D01*
X191540718Y-177263189D01*
%TO.C,D6*%
X42896344Y-51070138D02*
X42722696Y-52054946D01*
X42957174Y-52096291D01*
X43106129Y-52074202D01*
X43216458Y-51996949D01*
X43279892Y-51911427D01*
X43359863Y-51732113D01*
X43384670Y-51591426D01*
X43370851Y-51395575D01*
X43340493Y-51293515D01*
X43263240Y-51183186D01*
X43130822Y-51111483D01*
X42896344Y-51070138D01*
X44129564Y-52303015D02*
X43941981Y-52269939D01*
X43856459Y-52206506D01*
X43817832Y-52151341D01*
X43748848Y-51994116D01*
X43735028Y-51798265D01*
X43801180Y-51423100D01*
X43864614Y-51337578D01*
X43919778Y-51298951D01*
X44021838Y-51268593D01*
X44209421Y-51301669D01*
X44294943Y-51365103D01*
X44333570Y-51420267D01*
X44363927Y-51522328D01*
X44322583Y-51756806D01*
X44259149Y-51842328D01*
X44203984Y-51880954D01*
X44101924Y-51911312D01*
X43914342Y-51878236D01*
X43828820Y-51814803D01*
X43790193Y-51759638D01*
X43759835Y-51657578D01*
%TO.C,D44*%
X265049598Y-90214852D02*
X264875949Y-89230045D01*
X264641471Y-89271389D01*
X264509054Y-89343092D01*
X264431800Y-89453421D01*
X264401443Y-89555481D01*
X264387623Y-89751333D01*
X264412430Y-89892019D01*
X264492401Y-90071333D01*
X264555835Y-90156855D01*
X264666164Y-90234108D01*
X264815120Y-90256197D01*
X265049598Y-90214852D01*
X263526964Y-89806383D02*
X263642729Y-90462921D01*
X263695290Y-89389873D02*
X264053803Y-90051962D01*
X263444160Y-90159459D01*
X262589052Y-89971762D02*
X262704817Y-90628300D01*
X262757378Y-89555252D02*
X263115891Y-90217341D01*
X262506248Y-90324838D01*
%TO.C,D11*%
X136318539Y-67027156D02*
X136144890Y-68011963D01*
X136379369Y-68053308D01*
X136528324Y-68031220D01*
X136638653Y-67953966D01*
X136702087Y-67868444D01*
X136782058Y-67689131D01*
X136806865Y-67548444D01*
X136793046Y-67352592D01*
X136762688Y-67250532D01*
X136685435Y-67140203D01*
X136553017Y-67068501D01*
X136318539Y-67027156D01*
X137819198Y-67291762D02*
X137256451Y-67192535D01*
X137537824Y-67242149D02*
X137364176Y-68226956D01*
X137295192Y-68069732D01*
X137217939Y-67959403D01*
X137132416Y-67895969D01*
X138757110Y-67457142D02*
X138194363Y-67357914D01*
X138475737Y-67407528D02*
X138302088Y-68392336D01*
X138233104Y-68235111D01*
X138155851Y-68124782D01*
X138070329Y-68061348D01*
%TO.C,D45*%
X-65043981Y-72995192D02*
X-65217630Y-73979999D01*
X-64983151Y-74021344D01*
X-64834196Y-73999256D01*
X-64723867Y-73922002D01*
X-64660433Y-73836480D01*
X-64580462Y-73657167D01*
X-64555655Y-73516480D01*
X-64569474Y-73320628D01*
X-64599832Y-73218568D01*
X-64677085Y-73108239D01*
X-64809503Y-73036537D01*
X-65043981Y-72995192D01*
X-63752879Y-73899799D02*
X-63637113Y-73243261D01*
X-64053508Y-74233619D02*
X-64163952Y-73488840D01*
X-63554309Y-73596337D01*
X-62825954Y-74401716D02*
X-63294910Y-74319027D01*
X-63259116Y-73841802D01*
X-63220489Y-73896966D01*
X-63134967Y-73960400D01*
X-62900489Y-74001745D01*
X-62798429Y-73971387D01*
X-62743264Y-73932760D01*
X-62679830Y-73847238D01*
X-62638486Y-73612760D01*
X-62668843Y-73510700D01*
X-62707470Y-73455535D01*
X-62792992Y-73392102D01*
X-63027470Y-73350757D01*
X-63129530Y-73381115D01*
X-63184695Y-73419741D01*
%TO.C,D46*%
X-46283394Y-76303190D02*
X-46457043Y-77287997D01*
X-46222564Y-77329342D01*
X-46073609Y-77307254D01*
X-45963280Y-77230000D01*
X-45899846Y-77144478D01*
X-45819875Y-76965165D01*
X-45795068Y-76824478D01*
X-45808887Y-76628626D01*
X-45839245Y-76526566D01*
X-45916498Y-76416237D01*
X-46048916Y-76344535D01*
X-46283394Y-76303190D01*
X-44992292Y-77207797D02*
X-44876526Y-76551259D01*
X-45292921Y-77541617D02*
X-45403365Y-76796838D01*
X-44793722Y-76904335D01*
X-44112262Y-77701446D02*
X-44299845Y-77668370D01*
X-44385367Y-77604936D01*
X-44423994Y-77549772D01*
X-44492978Y-77392547D01*
X-44506798Y-77196695D01*
X-44440646Y-76821531D01*
X-44377212Y-76736008D01*
X-44322048Y-76697382D01*
X-44219988Y-76667024D01*
X-44032405Y-76700100D01*
X-43946883Y-76763533D01*
X-43908256Y-76818698D01*
X-43877899Y-76920758D01*
X-43919243Y-77155236D01*
X-43982677Y-77240758D01*
X-44037842Y-77279385D01*
X-44139902Y-77309743D01*
X-44327484Y-77276667D01*
X-44413006Y-77213233D01*
X-44451633Y-77158069D01*
X-44481991Y-77056009D01*
%TO.C,D52*%
X70906702Y-108882384D02*
X70733053Y-109867191D01*
X70967532Y-109908536D01*
X71116487Y-109886448D01*
X71226816Y-109809194D01*
X71290250Y-109723672D01*
X71370221Y-109544359D01*
X71395028Y-109403672D01*
X71381209Y-109207820D01*
X71350851Y-109105760D01*
X71273598Y-108995431D01*
X71141180Y-108923729D01*
X70906702Y-108882384D01*
X72186817Y-110123529D02*
X71717861Y-110040840D01*
X71753655Y-109563615D01*
X71792282Y-109618779D01*
X71877804Y-109682213D01*
X72112282Y-109723558D01*
X72214342Y-109693200D01*
X72269507Y-109654573D01*
X72332940Y-109569051D01*
X72374285Y-109334573D01*
X72343928Y-109232513D01*
X72305301Y-109177348D01*
X72219779Y-109113915D01*
X71985301Y-109072570D01*
X71883240Y-109102928D01*
X71828076Y-109141554D01*
X72625416Y-110104159D02*
X72664042Y-110159323D01*
X72749565Y-110222757D01*
X72984043Y-110264102D01*
X73086103Y-110233744D01*
X73141267Y-110195117D01*
X73204701Y-110109595D01*
X73221239Y-110015804D01*
X73199150Y-109866848D01*
X72735630Y-109204873D01*
X73345273Y-109312370D01*
%TO.C,D99*%
X287515143Y-107918713D02*
X287341494Y-106933906D01*
X287107016Y-106975250D01*
X286974599Y-107046953D01*
X286897345Y-107157282D01*
X286866988Y-107259342D01*
X286853168Y-107455194D01*
X286877975Y-107595880D01*
X286957946Y-107775194D01*
X287021380Y-107860716D01*
X287131709Y-107937969D01*
X287280665Y-107960058D01*
X287515143Y-107918713D01*
X286483439Y-108100630D02*
X286295857Y-108133706D01*
X286193797Y-108103349D01*
X286138632Y-108064722D01*
X286020034Y-107940573D01*
X285940063Y-107761260D01*
X285873911Y-107386095D01*
X285904269Y-107284035D01*
X285942895Y-107228870D01*
X286028417Y-107165436D01*
X286216000Y-107132361D01*
X286318060Y-107162718D01*
X286373225Y-107201345D01*
X286436658Y-107286867D01*
X286478003Y-107521345D01*
X286447645Y-107623405D01*
X286409019Y-107678570D01*
X286323496Y-107742003D01*
X286135914Y-107775079D01*
X286033854Y-107744722D01*
X285978689Y-107706095D01*
X285915256Y-107620573D01*
X285545527Y-108266010D02*
X285357945Y-108299085D01*
X285255885Y-108268728D01*
X285200720Y-108230101D01*
X285082122Y-108105952D01*
X285002150Y-107926639D01*
X284935999Y-107551474D01*
X284966356Y-107449414D01*
X285004983Y-107394249D01*
X285090505Y-107330816D01*
X285278088Y-107297740D01*
X285380148Y-107328097D01*
X285435312Y-107366724D01*
X285498746Y-107452246D01*
X285540091Y-107686724D01*
X285509733Y-107788785D01*
X285471106Y-107843949D01*
X285385584Y-107907383D01*
X285198002Y-107940459D01*
X285095942Y-107910101D01*
X285040777Y-107871474D01*
X284977344Y-107785952D01*
%TO.C,D103*%
X294474039Y-145379426D02*
X294300391Y-144394618D01*
X294065912Y-144435963D01*
X293933495Y-144507665D01*
X293856241Y-144617994D01*
X293825884Y-144720055D01*
X293812064Y-144915906D01*
X293836871Y-145056593D01*
X293916842Y-145235906D01*
X293980276Y-145321428D01*
X294090605Y-145398682D01*
X294239561Y-145420770D01*
X294474039Y-145379426D01*
X292973379Y-145644032D02*
X293536127Y-145544805D01*
X293254753Y-145594419D02*
X293081105Y-144609611D01*
X293199703Y-144733760D01*
X293310032Y-144811013D01*
X293412092Y-144841371D01*
X292190088Y-144766721D02*
X292096297Y-144783259D01*
X292010775Y-144846693D01*
X291972148Y-144901857D01*
X291941790Y-145003917D01*
X291927971Y-145199769D01*
X291969315Y-145434247D01*
X292049287Y-145613560D01*
X292112720Y-145699082D01*
X292167885Y-145737709D01*
X292269945Y-145768067D01*
X292363736Y-145751529D01*
X292449259Y-145688095D01*
X292487885Y-145632931D01*
X292518243Y-145530871D01*
X292532063Y-145335019D01*
X292490718Y-145100541D01*
X292410746Y-144921228D01*
X292347313Y-144835705D01*
X292292148Y-144797079D01*
X292190088Y-144766721D01*
X291533550Y-144882487D02*
X290923907Y-144989983D01*
X291318328Y-145307265D01*
X291177641Y-145332072D01*
X291092119Y-145395506D01*
X291053492Y-145450670D01*
X291023134Y-145552730D01*
X291064479Y-145787208D01*
X291127913Y-145872731D01*
X291183077Y-145911357D01*
X291285137Y-145941715D01*
X291566511Y-145892101D01*
X291652033Y-145828668D01*
X291690660Y-145773503D01*
%TO.C,D50*%
X32503394Y-107269212D02*
X32329745Y-108254019D01*
X32564224Y-108295364D01*
X32713179Y-108273276D01*
X32823508Y-108196022D01*
X32886942Y-108110500D01*
X32966913Y-107931187D01*
X32991720Y-107790500D01*
X32977901Y-107594648D01*
X32947543Y-107492588D01*
X32870290Y-107382259D01*
X32737872Y-107310557D01*
X32503394Y-107269212D01*
X33783509Y-108510357D02*
X33314553Y-108427668D01*
X33350347Y-107950443D01*
X33388974Y-108005607D01*
X33474496Y-108069041D01*
X33708974Y-108110386D01*
X33811034Y-108080028D01*
X33866199Y-108041401D01*
X33929632Y-107955879D01*
X33970977Y-107721401D01*
X33940620Y-107619341D01*
X33901993Y-107564176D01*
X33816471Y-107500743D01*
X33581993Y-107459398D01*
X33479932Y-107489756D01*
X33424768Y-107528382D01*
X34440048Y-108626123D02*
X34533839Y-108642661D01*
X34635899Y-108612303D01*
X34691064Y-108573676D01*
X34754497Y-108488154D01*
X34834469Y-108308841D01*
X34875814Y-108074363D01*
X34861994Y-107878511D01*
X34831636Y-107776451D01*
X34793009Y-107721286D01*
X34707487Y-107657853D01*
X34613696Y-107641315D01*
X34511636Y-107671673D01*
X34456471Y-107710299D01*
X34393038Y-107795822D01*
X34313066Y-107975135D01*
X34271721Y-108209613D01*
X34285541Y-108405464D01*
X34315899Y-108507525D01*
X34354526Y-108562689D01*
X34440048Y-108626123D01*
%TO.C,D60*%
X268357596Y-108975440D02*
X268183947Y-107990633D01*
X267949469Y-108031977D01*
X267817052Y-108103680D01*
X267739798Y-108214009D01*
X267709441Y-108316069D01*
X267695621Y-108511921D01*
X267720428Y-108652607D01*
X267800399Y-108831921D01*
X267863833Y-108917443D01*
X267974162Y-108994696D01*
X268123118Y-109016785D01*
X268357596Y-108975440D01*
X266777079Y-108238701D02*
X266964662Y-108205625D01*
X267066722Y-108235983D01*
X267121886Y-108274610D01*
X267240484Y-108398759D01*
X267320456Y-108578072D01*
X267386608Y-108953237D01*
X267356250Y-109055297D01*
X267317623Y-109110462D01*
X267232101Y-109173895D01*
X267044519Y-109206971D01*
X266942458Y-109176613D01*
X266887294Y-109137987D01*
X266823860Y-109052465D01*
X266782516Y-108817987D01*
X266812873Y-108715926D01*
X266851500Y-108660762D01*
X266937022Y-108597328D01*
X267124605Y-108564252D01*
X267226665Y-108594610D01*
X267281829Y-108633237D01*
X267345263Y-108718759D01*
X266073645Y-108362736D02*
X265979854Y-108379274D01*
X265894332Y-108442707D01*
X265855705Y-108497872D01*
X265825347Y-108599932D01*
X265811528Y-108795783D01*
X265852872Y-109030261D01*
X265932844Y-109209575D01*
X265996277Y-109295097D01*
X266051442Y-109333724D01*
X266153502Y-109364081D01*
X266247293Y-109347544D01*
X266332816Y-109284110D01*
X266371442Y-109228945D01*
X266401800Y-109126885D01*
X266415620Y-108931034D01*
X266374275Y-108696556D01*
X266294303Y-108517242D01*
X266230870Y-108431720D01*
X266175705Y-108393093D01*
X266073645Y-108362736D01*
%TO.C,D31*%
X242981012Y-74762262D02*
X242807363Y-73777455D01*
X242572885Y-73818799D01*
X242440468Y-73890502D01*
X242363214Y-74000831D01*
X242332857Y-74102891D01*
X242319037Y-74298743D01*
X242343844Y-74439429D01*
X242423815Y-74618743D01*
X242487249Y-74704265D01*
X242597578Y-74781518D01*
X242746534Y-74803607D01*
X242981012Y-74762262D01*
X241916347Y-73934565D02*
X241306704Y-74042061D01*
X241701125Y-74359343D01*
X241560438Y-74384150D01*
X241474916Y-74447584D01*
X241436289Y-74502748D01*
X241405932Y-74604809D01*
X241447276Y-74839287D01*
X241510710Y-74924809D01*
X241565874Y-74963435D01*
X241667935Y-74993793D01*
X241949308Y-74944179D01*
X242034831Y-74880746D01*
X242073457Y-74825581D01*
X240542440Y-75192248D02*
X241105187Y-75093021D01*
X240823814Y-75142634D02*
X240650166Y-74157827D01*
X240768764Y-74281976D01*
X240879093Y-74359229D01*
X240981153Y-74389587D01*
%TO.C,D16*%
X258433602Y-52693677D02*
X258259953Y-51708870D01*
X258025475Y-51750214D01*
X257893058Y-51821917D01*
X257815804Y-51932246D01*
X257785447Y-52034306D01*
X257771627Y-52230158D01*
X257796434Y-52370844D01*
X257876405Y-52550158D01*
X257939839Y-52635680D01*
X258050168Y-52712933D01*
X258199124Y-52735022D01*
X258433602Y-52693677D01*
X256932942Y-52958284D02*
X257495689Y-52859056D01*
X257214316Y-52908670D02*
X257040668Y-51923862D01*
X257159266Y-52048011D01*
X257269595Y-52125265D01*
X257371655Y-52155622D01*
X255915173Y-52122318D02*
X256102756Y-52089242D01*
X256204816Y-52119599D01*
X256259980Y-52158226D01*
X256378578Y-52282375D01*
X256458550Y-52461688D01*
X256524701Y-52836853D01*
X256494344Y-52938913D01*
X256455717Y-52994078D01*
X256370195Y-53057512D01*
X256182612Y-53090587D01*
X256080552Y-53060230D01*
X256025388Y-53021603D01*
X255961954Y-52936081D01*
X255920609Y-52701603D01*
X255950967Y-52599543D01*
X255989594Y-52544378D01*
X256075116Y-52480944D01*
X256262698Y-52447869D01*
X256364759Y-52478226D01*
X256419923Y-52516853D01*
X256483357Y-52602375D01*
%TO.C,D42*%
X227925382Y-99082118D02*
X227751733Y-98097311D01*
X227517255Y-98138655D01*
X227384838Y-98210358D01*
X227307584Y-98320687D01*
X227277227Y-98422747D01*
X227263407Y-98618599D01*
X227288214Y-98759285D01*
X227368185Y-98938599D01*
X227431619Y-99024121D01*
X227541948Y-99101374D01*
X227690904Y-99123463D01*
X227925382Y-99082118D01*
X226402748Y-98673649D02*
X226518513Y-99330187D01*
X226571074Y-98257139D02*
X226929587Y-98919228D01*
X226319944Y-99026725D01*
X225892447Y-98521860D02*
X225837282Y-98483234D01*
X225735222Y-98452876D01*
X225500744Y-98494221D01*
X225415222Y-98557654D01*
X225376595Y-98612819D01*
X225346238Y-98714879D01*
X225362776Y-98808670D01*
X225434478Y-98941088D01*
X226096453Y-99404608D01*
X225486810Y-99512104D01*
%TO.C,D97*%
X284207145Y-89158125D02*
X284033496Y-88173318D01*
X283799018Y-88214662D01*
X283666601Y-88286365D01*
X283589347Y-88396694D01*
X283558990Y-88498754D01*
X283545170Y-88694606D01*
X283569977Y-88835292D01*
X283649948Y-89014606D01*
X283713382Y-89100128D01*
X283823711Y-89177381D01*
X283972667Y-89199470D01*
X284207145Y-89158125D01*
X283175441Y-89340042D02*
X282987859Y-89373118D01*
X282885799Y-89342761D01*
X282830634Y-89304134D01*
X282712036Y-89179985D01*
X282632065Y-89000672D01*
X282565913Y-88625507D01*
X282596271Y-88523447D01*
X282634897Y-88468282D01*
X282720419Y-88404848D01*
X282908002Y-88371773D01*
X283010062Y-88402130D01*
X283065227Y-88440757D01*
X283128660Y-88526279D01*
X283170005Y-88760757D01*
X283139647Y-88862817D01*
X283101021Y-88917982D01*
X283015498Y-88981415D01*
X282827916Y-89014491D01*
X282725856Y-88984134D01*
X282670691Y-88945507D01*
X282607258Y-88859985D01*
X282204568Y-88495807D02*
X281548029Y-88611572D01*
X282143738Y-89521960D01*
%TO.C,D76*%
X197417162Y-145470560D02*
X197243513Y-144485753D01*
X197009035Y-144527097D01*
X196876618Y-144598800D01*
X196799364Y-144709129D01*
X196769007Y-144811189D01*
X196755187Y-145007041D01*
X196779994Y-145147727D01*
X196859965Y-145327041D01*
X196923399Y-145412563D01*
X197033728Y-145489816D01*
X197182684Y-145511905D01*
X197417162Y-145470560D01*
X196352497Y-144642863D02*
X195695958Y-144758628D01*
X196291667Y-145669015D01*
X194898733Y-144899201D02*
X195086316Y-144866125D01*
X195188376Y-144896482D01*
X195243540Y-144935109D01*
X195362138Y-145059258D01*
X195442110Y-145238571D01*
X195508261Y-145613736D01*
X195477904Y-145715796D01*
X195439277Y-145770961D01*
X195353755Y-145834395D01*
X195166172Y-145867470D01*
X195064112Y-145837113D01*
X195008948Y-145798486D01*
X194945514Y-145712964D01*
X194904169Y-145478486D01*
X194934527Y-145376426D01*
X194973154Y-145321261D01*
X195058676Y-145257827D01*
X195246258Y-145224752D01*
X195348319Y-145255109D01*
X195403483Y-145293736D01*
X195466917Y-145379258D01*
%TO.C,D10*%
X117557952Y-63719158D02*
X117384303Y-64703965D01*
X117618782Y-64745310D01*
X117767737Y-64723222D01*
X117878066Y-64645968D01*
X117941500Y-64560446D01*
X118021471Y-64381133D01*
X118046278Y-64240446D01*
X118032459Y-64044594D01*
X118002101Y-63942534D01*
X117924848Y-63832205D01*
X117792430Y-63760503D01*
X117557952Y-63719158D01*
X119058611Y-63983764D02*
X118495864Y-63884537D01*
X118777237Y-63934151D02*
X118603589Y-64918958D01*
X118534605Y-64761734D01*
X118457352Y-64651405D01*
X118371829Y-64587971D01*
X119494606Y-65076069D02*
X119588397Y-65092607D01*
X119690457Y-65062249D01*
X119745622Y-65023622D01*
X119809055Y-64938100D01*
X119889027Y-64758787D01*
X119930372Y-64524309D01*
X119916552Y-64328457D01*
X119886194Y-64226397D01*
X119847567Y-64171232D01*
X119762045Y-64107799D01*
X119668254Y-64091261D01*
X119566194Y-64121619D01*
X119511029Y-64160245D01*
X119447596Y-64245768D01*
X119367624Y-64425081D01*
X119326279Y-64659559D01*
X119340099Y-64855410D01*
X119370457Y-64957471D01*
X119409084Y-65012635D01*
X119494606Y-65076069D01*
%TO.C,D27*%
X133010541Y-85787743D02*
X132836892Y-86772550D01*
X133071371Y-86813895D01*
X133220326Y-86791807D01*
X133330655Y-86714553D01*
X133394089Y-86629031D01*
X133474060Y-86449718D01*
X133498867Y-86309031D01*
X133485048Y-86113179D01*
X133454690Y-86011119D01*
X133377437Y-85900790D01*
X133245019Y-85829088D01*
X133010541Y-85787743D01*
X133791343Y-86844138D02*
X133829969Y-86899303D01*
X133915491Y-86962737D01*
X134149969Y-87004081D01*
X134252030Y-86973724D01*
X134307194Y-86935097D01*
X134370628Y-86849575D01*
X134387166Y-86755784D01*
X134365077Y-86606828D01*
X133901557Y-85944853D01*
X134511200Y-86052349D01*
X134665821Y-87095040D02*
X135322360Y-87210805D01*
X135073947Y-86151577D01*
%TO.C,D18*%
X-42975396Y-57542602D02*
X-43149045Y-58527409D01*
X-42914566Y-58568754D01*
X-42765611Y-58546666D01*
X-42655282Y-58469412D01*
X-42591848Y-58383890D01*
X-42511877Y-58204577D01*
X-42487070Y-58063890D01*
X-42500889Y-57868038D01*
X-42531247Y-57765978D01*
X-42608500Y-57655649D01*
X-42740918Y-57583947D01*
X-42975396Y-57542602D01*
X-41474737Y-57807208D02*
X-42037484Y-57707981D01*
X-41756111Y-57757595D02*
X-41929759Y-58742402D01*
X-41998743Y-58585178D01*
X-42075996Y-58474849D01*
X-42161519Y-58411415D01*
X-41011217Y-58469183D02*
X-41113277Y-58499541D01*
X-41168442Y-58538168D01*
X-41231875Y-58623690D01*
X-41240144Y-58670585D01*
X-41209787Y-58772646D01*
X-41171160Y-58827810D01*
X-41085638Y-58891244D01*
X-40898055Y-58924320D01*
X-40795995Y-58893962D01*
X-40740831Y-58855335D01*
X-40677397Y-58769813D01*
X-40669128Y-58722917D01*
X-40699486Y-58620857D01*
X-40738112Y-58565693D01*
X-40823635Y-58502259D01*
X-41011217Y-58469183D01*
X-41096739Y-58405750D01*
X-41135366Y-58350585D01*
X-41165724Y-58248525D01*
X-41132648Y-58060943D01*
X-41069214Y-57975420D01*
X-41014050Y-57936794D01*
X-40911990Y-57906436D01*
X-40724407Y-57939512D01*
X-40638885Y-58002945D01*
X-40600258Y-58058110D01*
X-40569901Y-58160170D01*
X-40602976Y-58347753D01*
X-40666410Y-58433275D01*
X-40721575Y-58471901D01*
X-40823635Y-58502259D01*
%TO.C,D4*%
X-1633160Y-45230558D02*
X-1806808Y-46215366D01*
X-1572330Y-46256711D01*
X-1423375Y-46234622D01*
X-1313046Y-46157369D01*
X-1249612Y-46071847D01*
X-1169641Y-45892533D01*
X-1144834Y-45751846D01*
X-1158653Y-45555995D01*
X-1189011Y-45453935D01*
X-1266264Y-45343606D01*
X-1398682Y-45271903D01*
X-1633160Y-45230558D01*
X-342058Y-46135166D02*
X-226292Y-45478627D01*
X-642687Y-46468986D02*
X-753131Y-45724207D01*
X-143488Y-45831703D01*
%TO.C,D54*%
X107633958Y-120000921D02*
X107460309Y-120985728D01*
X107694788Y-121027073D01*
X107843743Y-121004985D01*
X107954072Y-120927731D01*
X108017506Y-120842209D01*
X108097477Y-120662896D01*
X108122284Y-120522209D01*
X108108465Y-120326357D01*
X108078107Y-120224297D01*
X108000854Y-120113968D01*
X107868436Y-120042266D01*
X107633958Y-120000921D01*
X108914073Y-121242066D02*
X108445117Y-121159377D01*
X108480911Y-120682152D01*
X108519538Y-120737316D01*
X108605060Y-120800750D01*
X108839538Y-120842095D01*
X108941598Y-120811737D01*
X108996763Y-120773110D01*
X109060196Y-120687588D01*
X109101541Y-120453110D01*
X109071184Y-120351050D01*
X109032557Y-120295885D01*
X108947035Y-120232452D01*
X108712557Y-120191107D01*
X108610496Y-120221465D01*
X108555332Y-120260091D01*
X109862973Y-121070907D02*
X109978738Y-120414369D01*
X109562343Y-121404727D02*
X109451899Y-120659948D01*
X110061542Y-120767445D01*
%TO.C,D83*%
X45133159Y-145346832D02*
X44959510Y-146331639D01*
X45193989Y-146372984D01*
X45342944Y-146350896D01*
X45453273Y-146273642D01*
X45516707Y-146188120D01*
X45596678Y-146008807D01*
X45621485Y-145868120D01*
X45607666Y-145672268D01*
X45577308Y-145570208D01*
X45500055Y-145459879D01*
X45367637Y-145388177D01*
X45133159Y-145346832D01*
X46159426Y-146108034D02*
X46057366Y-146138392D01*
X46002201Y-146177018D01*
X45938767Y-146262541D01*
X45930498Y-146309436D01*
X45960856Y-146411496D01*
X45999483Y-146466661D01*
X46085005Y-146530095D01*
X46272587Y-146563170D01*
X46374648Y-146532813D01*
X46429812Y-146494186D01*
X46493246Y-146408664D01*
X46501515Y-146361768D01*
X46471157Y-146259708D01*
X46432530Y-146204543D01*
X46347008Y-146141110D01*
X46159426Y-146108034D01*
X46073903Y-146044601D01*
X46035277Y-145989436D01*
X46004919Y-145887376D01*
X46037995Y-145699793D01*
X46101428Y-145614271D01*
X46156593Y-145575644D01*
X46258653Y-145545287D01*
X46446236Y-145578363D01*
X46531758Y-145641796D01*
X46570385Y-145696961D01*
X46600742Y-145799021D01*
X46567666Y-145986603D01*
X46504233Y-146072126D01*
X46449068Y-146110752D01*
X46347008Y-146141110D01*
X46788439Y-146654129D02*
X47398082Y-146761625D01*
X47135964Y-146328578D01*
X47276651Y-146353385D01*
X47378711Y-146323027D01*
X47433876Y-146284400D01*
X47497310Y-146198878D01*
X47538654Y-145964400D01*
X47508297Y-145862340D01*
X47469670Y-145807175D01*
X47384148Y-145743742D01*
X47102774Y-145694128D01*
X47000714Y-145724486D01*
X46945549Y-145763112D01*
%TO.C,D82*%
X25887399Y-144790388D02*
X25713750Y-145775195D01*
X25948229Y-145816540D01*
X26097184Y-145794452D01*
X26207513Y-145717198D01*
X26270947Y-145631676D01*
X26350918Y-145452363D01*
X26375725Y-145311676D01*
X26361906Y-145115824D01*
X26331548Y-145013764D01*
X26254295Y-144903435D01*
X26121877Y-144831733D01*
X25887399Y-144790388D01*
X26913666Y-145551590D02*
X26811606Y-145581948D01*
X26756441Y-145620574D01*
X26693007Y-145706097D01*
X26684738Y-145752992D01*
X26715096Y-145855052D01*
X26753723Y-145910217D01*
X26839245Y-145973651D01*
X27026827Y-146006726D01*
X27128888Y-145976369D01*
X27184052Y-145937742D01*
X27247486Y-145852220D01*
X27255755Y-145805324D01*
X27225397Y-145703264D01*
X27186770Y-145648099D01*
X27101248Y-145584666D01*
X26913666Y-145551590D01*
X26828143Y-145488157D01*
X26789517Y-145432992D01*
X26759159Y-145330932D01*
X26792235Y-145143349D01*
X26855668Y-145057827D01*
X26910833Y-145019200D01*
X27012893Y-144988843D01*
X27200476Y-145021919D01*
X27285998Y-145085352D01*
X27324625Y-145140517D01*
X27354982Y-145242577D01*
X27321906Y-145430159D01*
X27258473Y-145515682D01*
X27203308Y-145554308D01*
X27101248Y-145584666D01*
X27606113Y-146012163D02*
X27644739Y-146067327D01*
X27730262Y-146130761D01*
X27964740Y-146172106D01*
X28066800Y-146141748D01*
X28121964Y-146103121D01*
X28185398Y-146017599D01*
X28201936Y-145923808D01*
X28179847Y-145774852D01*
X27716327Y-145112877D01*
X28325970Y-145220374D01*
%TO.C,D93*%
X277591150Y-51636950D02*
X277417501Y-50652143D01*
X277183023Y-50693487D01*
X277050606Y-50765190D01*
X276973352Y-50875519D01*
X276942995Y-50977579D01*
X276929175Y-51173431D01*
X276953982Y-51314117D01*
X277033953Y-51493431D01*
X277097387Y-51578953D01*
X277207716Y-51656206D01*
X277356672Y-51678295D01*
X277591150Y-51636950D01*
X276559446Y-51818867D02*
X276371864Y-51851943D01*
X276269804Y-51821586D01*
X276214639Y-51782959D01*
X276096041Y-51658810D01*
X276016070Y-51479497D01*
X275949918Y-51104332D01*
X275980276Y-51002272D01*
X276018902Y-50947107D01*
X276104424Y-50883673D01*
X276292007Y-50850598D01*
X276394067Y-50880955D01*
X276449232Y-50919582D01*
X276512665Y-51005104D01*
X276554010Y-51239582D01*
X276523652Y-51341642D01*
X276485026Y-51396807D01*
X276399503Y-51460240D01*
X276211921Y-51493316D01*
X276109861Y-51462959D01*
X276054696Y-51424332D01*
X275991263Y-51338810D01*
X275588573Y-50974632D02*
X274978930Y-51082128D01*
X275373351Y-51399411D01*
X275232664Y-51424217D01*
X275147142Y-51487651D01*
X275108515Y-51542816D01*
X275078157Y-51644876D01*
X275119502Y-51879354D01*
X275182936Y-51964876D01*
X275238100Y-52003503D01*
X275340160Y-52033860D01*
X275621534Y-51984247D01*
X275707056Y-51920813D01*
X275745683Y-51865649D01*
%TO.C,D73*%
X85962332Y-133202240D02*
X85788683Y-134187047D01*
X86023162Y-134228392D01*
X86172117Y-134206304D01*
X86282446Y-134129050D01*
X86345880Y-134043528D01*
X86425851Y-133864215D01*
X86450658Y-133723528D01*
X86436839Y-133527676D01*
X86406481Y-133425616D01*
X86329228Y-133315287D01*
X86196810Y-133243585D01*
X85962332Y-133202240D01*
X86679700Y-134344158D02*
X87336239Y-134459923D01*
X87087826Y-133400695D01*
X87617612Y-134509537D02*
X88227255Y-134617033D01*
X87965137Y-134183986D01*
X88105824Y-134208793D01*
X88207884Y-134178435D01*
X88263049Y-134139808D01*
X88326483Y-134054286D01*
X88367827Y-133819808D01*
X88337470Y-133717748D01*
X88298843Y-133662583D01*
X88213321Y-133599150D01*
X87931947Y-133549536D01*
X87829887Y-133579894D01*
X87774722Y-133618520D01*
%TO.C,D89*%
X215428813Y-166789202D02*
X215006194Y-165882894D01*
X214790407Y-165983517D01*
X214681059Y-166087049D01*
X214634993Y-166213613D01*
X214632085Y-166320053D01*
X214669426Y-166512808D01*
X214729800Y-166642280D01*
X214853457Y-166794785D01*
X214936863Y-166860976D01*
X215063428Y-166907041D01*
X215213025Y-166889825D01*
X215428813Y-166789202D01*
X214151536Y-166754304D02*
X214217726Y-166670897D01*
X214240759Y-166607615D01*
X214243667Y-166501175D01*
X214223543Y-166458017D01*
X214140136Y-166391827D01*
X214076854Y-166368794D01*
X213970414Y-166365886D01*
X213797784Y-166446385D01*
X213731594Y-166529792D01*
X213708561Y-166593074D01*
X213705653Y-166699514D01*
X213725777Y-166742671D01*
X213809184Y-166808861D01*
X213872466Y-166831894D01*
X213978906Y-166834802D01*
X214151536Y-166754304D01*
X214257976Y-166757212D01*
X214321258Y-166780245D01*
X214404665Y-166846435D01*
X214485164Y-167019065D01*
X214482255Y-167125505D01*
X214459223Y-167188787D01*
X214393032Y-167272194D01*
X214220402Y-167352693D01*
X214113962Y-167349784D01*
X214050680Y-167326752D01*
X213967273Y-167260561D01*
X213886775Y-167087931D01*
X213889683Y-166981491D01*
X213912716Y-166918209D01*
X213978906Y-166834802D01*
X213616197Y-167634438D02*
X213443567Y-167714937D01*
X213337127Y-167712029D01*
X213273845Y-167688996D01*
X213127156Y-167599773D01*
X213003500Y-167447267D01*
X212842502Y-167102007D01*
X212845410Y-166995567D01*
X212868443Y-166932285D01*
X212934634Y-166848878D01*
X213107264Y-166768380D01*
X213213703Y-166771288D01*
X213276986Y-166794321D01*
X213360392Y-166860511D01*
X213461016Y-167076299D01*
X213458108Y-167182738D01*
X213435075Y-167246020D01*
X213368885Y-167329427D01*
X213196254Y-167409926D01*
X213089815Y-167407018D01*
X213026533Y-167383985D01*
X212943126Y-167317795D01*
%TO.C,D13*%
X202901652Y-66870070D02*
X202728003Y-65885263D01*
X202493525Y-65926607D01*
X202361108Y-65998310D01*
X202283854Y-66108639D01*
X202253497Y-66210699D01*
X202239677Y-66406551D01*
X202264484Y-66547237D01*
X202344455Y-66726551D01*
X202407889Y-66812073D01*
X202518218Y-66889326D01*
X202667174Y-66911415D01*
X202901652Y-66870070D01*
X201400992Y-67134677D02*
X201963739Y-67035449D01*
X201682366Y-67085063D02*
X201508718Y-66100255D01*
X201627316Y-66224404D01*
X201737645Y-66301658D01*
X201839705Y-66332015D01*
X200899075Y-66207752D02*
X200289432Y-66315248D01*
X200683853Y-66632531D01*
X200543166Y-66657337D01*
X200457644Y-66720771D01*
X200419017Y-66775936D01*
X200388659Y-66877996D01*
X200430004Y-67112474D01*
X200493438Y-67197996D01*
X200548602Y-67236623D01*
X200650662Y-67266980D01*
X200932036Y-67217367D01*
X201017558Y-67153933D01*
X201056185Y-67098769D01*
%TO.C,D37*%
X92578328Y-95681065D02*
X92404679Y-96665872D01*
X92639158Y-96707217D01*
X92788113Y-96685129D01*
X92898442Y-96607875D01*
X92961876Y-96522353D01*
X93041847Y-96343040D01*
X93066654Y-96202353D01*
X93052835Y-96006501D01*
X93022477Y-95904441D01*
X92945224Y-95794112D01*
X92812806Y-95722410D01*
X92578328Y-95681065D01*
X93295696Y-96822983D02*
X93905339Y-96930479D01*
X93643221Y-96497432D01*
X93783908Y-96522239D01*
X93885968Y-96491881D01*
X93941133Y-96453254D01*
X94004566Y-96367732D01*
X94045911Y-96133254D01*
X94015554Y-96031194D01*
X93976927Y-95976029D01*
X93891405Y-95912596D01*
X93610031Y-95862982D01*
X93507971Y-95893340D01*
X93452806Y-95931966D01*
X94233608Y-96988362D02*
X94890147Y-97104127D01*
X94641734Y-96044899D01*
%TO.C,D98*%
X303452906Y-88601680D02*
X303279257Y-87616873D01*
X303044779Y-87658217D01*
X302912362Y-87729920D01*
X302835108Y-87840249D01*
X302804751Y-87942309D01*
X302790931Y-88138161D01*
X302815738Y-88278847D01*
X302895709Y-88458161D01*
X302959143Y-88543683D01*
X303069472Y-88620936D01*
X303218428Y-88643025D01*
X303452906Y-88601680D01*
X302421202Y-88783597D02*
X302233620Y-88816673D01*
X302131560Y-88786316D01*
X302076395Y-88747689D01*
X301957797Y-88623540D01*
X301877826Y-88444227D01*
X301811674Y-88069062D01*
X301842032Y-87967002D01*
X301880658Y-87911837D01*
X301966180Y-87848403D01*
X302153763Y-87815328D01*
X302255823Y-87845685D01*
X302310988Y-87884312D01*
X302374421Y-87969834D01*
X302415766Y-88204312D01*
X302385408Y-88306372D01*
X302346782Y-88361537D01*
X302261259Y-88424970D01*
X302073677Y-88458046D01*
X301971617Y-88427689D01*
X301916452Y-88389062D01*
X301853019Y-88303540D01*
X301290271Y-88402767D02*
X301375794Y-88339334D01*
X301414420Y-88284169D01*
X301444778Y-88182109D01*
X301436509Y-88135213D01*
X301373075Y-88049691D01*
X301317911Y-88011064D01*
X301215851Y-87980707D01*
X301028268Y-88013783D01*
X300942746Y-88077216D01*
X300904119Y-88132381D01*
X300873762Y-88234441D01*
X300882031Y-88281337D01*
X300945464Y-88366859D01*
X301000629Y-88405485D01*
X301102689Y-88435843D01*
X301290271Y-88402767D01*
X301392332Y-88433125D01*
X301447496Y-88471752D01*
X301510930Y-88557274D01*
X301544005Y-88744856D01*
X301513648Y-88846916D01*
X301475021Y-88902081D01*
X301389499Y-88965515D01*
X301201916Y-88998590D01*
X301099856Y-88968233D01*
X301044692Y-88929606D01*
X300981258Y-88844084D01*
X300948182Y-88656501D01*
X300978540Y-88554441D01*
X301017167Y-88499277D01*
X301102689Y-88435843D01*
%TO.C,D102*%
X310537858Y-126040166D02*
X310364210Y-125055358D01*
X310129731Y-125096703D01*
X309997314Y-125168405D01*
X309920060Y-125278734D01*
X309889703Y-125380795D01*
X309875883Y-125576646D01*
X309900690Y-125717333D01*
X309980661Y-125896646D01*
X310044095Y-125982168D01*
X310154424Y-126059422D01*
X310303380Y-126081510D01*
X310537858Y-126040166D01*
X309037198Y-126304772D02*
X309599946Y-126205545D01*
X309318572Y-126255159D02*
X309144924Y-125270351D01*
X309263522Y-125394500D01*
X309373851Y-125471753D01*
X309475911Y-125502111D01*
X308253907Y-125427461D02*
X308160116Y-125443999D01*
X308074594Y-125507433D01*
X308035967Y-125562597D01*
X308005609Y-125664657D01*
X307991790Y-125860509D01*
X308033134Y-126094987D01*
X308113106Y-126274300D01*
X308176539Y-126359822D01*
X308231704Y-126398449D01*
X308333764Y-126428807D01*
X308427555Y-126412269D01*
X308513078Y-126348835D01*
X308551704Y-126293671D01*
X308582062Y-126191611D01*
X308595882Y-125995759D01*
X308554537Y-125761281D01*
X308474565Y-125581968D01*
X308411132Y-125496445D01*
X308355967Y-125457819D01*
X308253907Y-125427461D01*
X307567011Y-125645287D02*
X307511846Y-125606660D01*
X307409786Y-125576302D01*
X307175308Y-125617647D01*
X307089786Y-125681081D01*
X307051159Y-125736245D01*
X307020802Y-125838306D01*
X307037340Y-125932097D01*
X307109042Y-126064515D01*
X307771017Y-126528034D01*
X307161374Y-126635531D01*
%TO.C,D69*%
X10434809Y-122721802D02*
X10261160Y-123706609D01*
X10495639Y-123747954D01*
X10644594Y-123725866D01*
X10754923Y-123648612D01*
X10818357Y-123563090D01*
X10898328Y-123383777D01*
X10923135Y-123243090D01*
X10909316Y-123047238D01*
X10878958Y-122945178D01*
X10801705Y-122834849D01*
X10669287Y-122763147D01*
X10434809Y-122721802D01*
X11668029Y-123954678D02*
X11480446Y-123921602D01*
X11394924Y-123858169D01*
X11356297Y-123803004D01*
X11287313Y-123645780D01*
X11273493Y-123449928D01*
X11339645Y-123074763D01*
X11403078Y-122989241D01*
X11458243Y-122950614D01*
X11560303Y-122920257D01*
X11747886Y-122953333D01*
X11833408Y-123016766D01*
X11872035Y-123071931D01*
X11902392Y-123173991D01*
X11861047Y-123408469D01*
X11797614Y-123493991D01*
X11742449Y-123532618D01*
X11640389Y-123562976D01*
X11452807Y-123529900D01*
X11367284Y-123466466D01*
X11328658Y-123411302D01*
X11298300Y-123309241D01*
X12404424Y-123069098D02*
X12592007Y-123102174D01*
X12677529Y-123165607D01*
X12716155Y-123220772D01*
X12785140Y-123377997D01*
X12798960Y-123573848D01*
X12732808Y-123949013D01*
X12669374Y-124034535D01*
X12614210Y-124073162D01*
X12512150Y-124103520D01*
X12324567Y-124070444D01*
X12239045Y-124007010D01*
X12200418Y-123951846D01*
X12170061Y-123849785D01*
X12211405Y-123615307D01*
X12274839Y-123529785D01*
X12330004Y-123491159D01*
X12432064Y-123460801D01*
X12619646Y-123493877D01*
X12705168Y-123557310D01*
X12743795Y-123612475D01*
X12774153Y-123714535D01*
%TO.C,D101*%
X291247990Y-126346470D02*
X291074342Y-125361662D01*
X290839863Y-125403007D01*
X290707446Y-125474709D01*
X290630192Y-125585038D01*
X290599835Y-125687099D01*
X290586015Y-125882950D01*
X290610822Y-126023637D01*
X290690793Y-126202950D01*
X290754227Y-126288472D01*
X290864556Y-126365726D01*
X291013512Y-126387814D01*
X291247990Y-126346470D01*
X289747330Y-126611076D02*
X290310078Y-126511849D01*
X290028704Y-126561463D02*
X289855056Y-125576655D01*
X289973654Y-125700804D01*
X290083983Y-125778057D01*
X290186043Y-125808415D01*
X288964039Y-125733765D02*
X288870248Y-125750303D01*
X288784726Y-125813737D01*
X288746099Y-125868901D01*
X288715741Y-125970961D01*
X288701922Y-126166813D01*
X288743266Y-126401291D01*
X288823238Y-126580604D01*
X288886671Y-126666126D01*
X288941836Y-126704753D01*
X289043896Y-126735111D01*
X289137687Y-126718573D01*
X289223210Y-126655139D01*
X289261836Y-126599975D01*
X289292194Y-126497915D01*
X289306014Y-126302063D01*
X289264669Y-126067585D01*
X289184697Y-125888272D01*
X289121264Y-125802749D01*
X289066099Y-125764123D01*
X288964039Y-125733765D01*
X287871506Y-126941835D02*
X288434253Y-126842607D01*
X288152880Y-126892221D02*
X287979231Y-125907413D01*
X288097830Y-126031562D01*
X288208159Y-126108816D01*
X288310219Y-126139173D01*
%TO.C,D51*%
X51749155Y-107825657D02*
X51575506Y-108810464D01*
X51809985Y-108851809D01*
X51958940Y-108829721D01*
X52069269Y-108752467D01*
X52132703Y-108666945D01*
X52212674Y-108487632D01*
X52237481Y-108346945D01*
X52223662Y-108151093D01*
X52193304Y-108049033D01*
X52116051Y-107938704D01*
X51983633Y-107867002D01*
X51749155Y-107825657D01*
X53029270Y-109066802D02*
X52560314Y-108984113D01*
X52596108Y-108506888D01*
X52634735Y-108562052D01*
X52720257Y-108625486D01*
X52954735Y-108666831D01*
X53056795Y-108636473D01*
X53111960Y-108597846D01*
X53175393Y-108512324D01*
X53216738Y-108277846D01*
X53186381Y-108175786D01*
X53147754Y-108120621D01*
X53062232Y-108057188D01*
X52827754Y-108015843D01*
X52725693Y-108046201D01*
X52670529Y-108084827D01*
X54187726Y-108255643D02*
X53624979Y-108156415D01*
X53906353Y-108206029D02*
X53732704Y-109190837D01*
X53663720Y-109033612D01*
X53586467Y-108923283D01*
X53500945Y-108859849D01*
%TO.C,D32*%
X261741600Y-71454265D02*
X261567951Y-70469458D01*
X261333473Y-70510802D01*
X261201056Y-70582505D01*
X261123802Y-70692834D01*
X261093445Y-70794894D01*
X261079625Y-70990746D01*
X261104432Y-71131432D01*
X261184403Y-71310746D01*
X261247837Y-71396268D01*
X261358166Y-71473521D01*
X261507122Y-71495610D01*
X261741600Y-71454265D01*
X260676935Y-70626568D02*
X260067292Y-70734064D01*
X260461713Y-71051346D01*
X260321026Y-71076153D01*
X260235504Y-71139587D01*
X260196877Y-71194751D01*
X260166520Y-71296812D01*
X260207864Y-71531290D01*
X260271298Y-71616812D01*
X260326462Y-71655438D01*
X260428523Y-71685796D01*
X260709896Y-71636182D01*
X260795419Y-71572749D01*
X260834045Y-71517584D01*
X259708665Y-70894007D02*
X259653500Y-70855381D01*
X259551440Y-70825023D01*
X259316962Y-70866368D01*
X259231440Y-70929801D01*
X259192813Y-70984966D01*
X259162456Y-71087026D01*
X259178994Y-71180817D01*
X259250696Y-71313235D01*
X259912671Y-71776755D01*
X259303028Y-71884251D01*
%TO.C,D34*%
X35811392Y-88508624D02*
X35637743Y-89493431D01*
X35872222Y-89534776D01*
X36021177Y-89512688D01*
X36131506Y-89435434D01*
X36194940Y-89349912D01*
X36274911Y-89170599D01*
X36299718Y-89029912D01*
X36285899Y-88834060D01*
X36255541Y-88732000D01*
X36178288Y-88621671D01*
X36045870Y-88549969D01*
X35811392Y-88508624D01*
X36528760Y-89650542D02*
X37138403Y-89758038D01*
X36876285Y-89324991D01*
X37016972Y-89349798D01*
X37119032Y-89319440D01*
X37174197Y-89280813D01*
X37237630Y-89195291D01*
X37278975Y-88960813D01*
X37248618Y-88858753D01*
X37209991Y-88803588D01*
X37124469Y-88740155D01*
X36843095Y-88690541D01*
X36741035Y-88720899D01*
X36685870Y-88759525D01*
X38040407Y-89578610D02*
X38156172Y-88922072D01*
X37739777Y-89912430D02*
X37629333Y-89167651D01*
X38238976Y-89275148D01*
%TO.C,D81*%
X7126811Y-141482390D02*
X6953162Y-142467197D01*
X7187641Y-142508542D01*
X7336596Y-142486454D01*
X7446925Y-142409200D01*
X7510359Y-142323678D01*
X7590330Y-142144365D01*
X7615137Y-142003678D01*
X7601318Y-141807826D01*
X7570960Y-141705766D01*
X7493707Y-141595437D01*
X7361289Y-141523735D01*
X7126811Y-141482390D01*
X8153078Y-142243592D02*
X8051018Y-142273950D01*
X7995853Y-142312576D01*
X7932419Y-142398099D01*
X7924150Y-142444994D01*
X7954508Y-142547054D01*
X7993135Y-142602219D01*
X8078657Y-142665653D01*
X8266239Y-142698728D01*
X8368300Y-142668371D01*
X8423464Y-142629744D01*
X8486898Y-142544222D01*
X8495167Y-142497326D01*
X8464809Y-142395266D01*
X8426182Y-142340101D01*
X8340660Y-142276668D01*
X8153078Y-142243592D01*
X8067555Y-142180159D01*
X8028929Y-142124994D01*
X7998571Y-142022934D01*
X8031647Y-141835351D01*
X8095080Y-141749829D01*
X8150245Y-141711202D01*
X8252305Y-141680845D01*
X8439888Y-141713921D01*
X8525410Y-141777354D01*
X8564037Y-141832519D01*
X8594394Y-141934579D01*
X8561318Y-142122161D01*
X8497885Y-142207684D01*
X8442720Y-142246310D01*
X8340660Y-142276668D01*
X9565382Y-141912376D02*
X9002635Y-141813148D01*
X9284009Y-141862762D02*
X9110360Y-142847570D01*
X9041376Y-142690345D01*
X8964123Y-142580016D01*
X8878601Y-142516582D01*
%TO.C,D77*%
X216177750Y-142162562D02*
X216004101Y-141177755D01*
X215769623Y-141219099D01*
X215637206Y-141290802D01*
X215559952Y-141401131D01*
X215529595Y-141503191D01*
X215515775Y-141699043D01*
X215540582Y-141839729D01*
X215620553Y-142019043D01*
X215683987Y-142104565D01*
X215794316Y-142181818D01*
X215943272Y-142203907D01*
X216177750Y-142162562D01*
X215113085Y-141334865D02*
X214456546Y-141450630D01*
X215052255Y-142361017D01*
X214175173Y-141500244D02*
X213518634Y-141616009D01*
X214114343Y-142526397D01*
%TO.C,D53*%
X89270330Y-114441653D02*
X89096681Y-115426460D01*
X89331160Y-115467805D01*
X89480115Y-115445717D01*
X89590444Y-115368463D01*
X89653878Y-115282941D01*
X89733849Y-115103628D01*
X89758656Y-114962941D01*
X89744837Y-114767089D01*
X89714479Y-114665029D01*
X89637226Y-114554700D01*
X89504808Y-114482998D01*
X89270330Y-114441653D01*
X90550445Y-115682798D02*
X90081489Y-115600109D01*
X90117283Y-115122884D01*
X90155910Y-115178048D01*
X90241432Y-115241482D01*
X90475910Y-115282827D01*
X90577970Y-115252469D01*
X90633135Y-115213842D01*
X90696568Y-115128320D01*
X90737913Y-114893842D01*
X90707556Y-114791782D01*
X90668929Y-114736617D01*
X90583407Y-114673184D01*
X90348929Y-114631839D01*
X90246868Y-114662197D01*
X90191704Y-114700823D01*
X90925610Y-115748950D02*
X91535253Y-115856446D01*
X91273135Y-115423399D01*
X91413822Y-115448206D01*
X91515882Y-115417848D01*
X91571047Y-115379221D01*
X91634481Y-115293699D01*
X91675825Y-115059221D01*
X91645468Y-114957161D01*
X91606841Y-114901996D01*
X91521319Y-114838563D01*
X91239945Y-114788949D01*
X91137885Y-114819307D01*
X91082720Y-114857933D01*
%TO.C,D35*%
X55057153Y-89065069D02*
X54883504Y-90049876D01*
X55117983Y-90091221D01*
X55266938Y-90069133D01*
X55377267Y-89991879D01*
X55440701Y-89906357D01*
X55520672Y-89727044D01*
X55545479Y-89586357D01*
X55531660Y-89390505D01*
X55501302Y-89288445D01*
X55424049Y-89178116D01*
X55291631Y-89106414D01*
X55057153Y-89065069D01*
X55774521Y-90206987D02*
X56384164Y-90314483D01*
X56122046Y-89881436D01*
X56262733Y-89906243D01*
X56364793Y-89875885D01*
X56419958Y-89837258D01*
X56483391Y-89751736D01*
X56524736Y-89517258D01*
X56494379Y-89415198D01*
X56455752Y-89360033D01*
X56370230Y-89296600D01*
X56088856Y-89246986D01*
X55986796Y-89277344D01*
X55931631Y-89315970D01*
X57275180Y-90471593D02*
X56806224Y-90388904D01*
X56842018Y-89911679D01*
X56880645Y-89966843D01*
X56966167Y-90030277D01*
X57200645Y-90071622D01*
X57302705Y-90041264D01*
X57357870Y-90002637D01*
X57421304Y-89917115D01*
X57462648Y-89682637D01*
X57432291Y-89580577D01*
X57393664Y-89525412D01*
X57308142Y-89461979D01*
X57073664Y-89420634D01*
X56971604Y-89450992D01*
X56916439Y-89489618D01*
%TO.C,D87*%
X128459904Y-169730208D02*
X128037286Y-170636516D01*
X128253074Y-170737139D01*
X128402671Y-170754356D01*
X128529235Y-170708290D01*
X128612642Y-170642099D01*
X128736298Y-170489594D01*
X128796672Y-170360122D01*
X128834014Y-170167367D01*
X128831105Y-170060927D01*
X128785040Y-169934363D01*
X128675692Y-169830831D01*
X128459904Y-169730208D01*
X129254189Y-170731090D02*
X129147749Y-170733998D01*
X129084467Y-170757031D01*
X129001060Y-170823222D01*
X128980935Y-170866379D01*
X128983843Y-170972819D01*
X129006876Y-171036101D01*
X129073066Y-171119508D01*
X129245696Y-171200007D01*
X129352136Y-171197098D01*
X129415418Y-171174066D01*
X129498825Y-171107875D01*
X129518950Y-171064718D01*
X129516042Y-170958278D01*
X129493009Y-170894996D01*
X129426819Y-170811589D01*
X129254189Y-170731090D01*
X129187998Y-170647683D01*
X129164965Y-170584401D01*
X129162057Y-170477961D01*
X129242556Y-170305331D01*
X129325963Y-170239141D01*
X129389245Y-170216108D01*
X129495685Y-170213200D01*
X129668315Y-170293699D01*
X129734505Y-170377106D01*
X129757538Y-170440388D01*
X129760446Y-170546828D01*
X129679947Y-170719458D01*
X129596540Y-170785648D01*
X129533258Y-170808681D01*
X129426819Y-170811589D01*
X129720429Y-171421378D02*
X130324634Y-171703124D01*
X130358835Y-170615694D01*
%TO.C,D64*%
X-12070216Y-101679773D02*
X-12243865Y-102664580D01*
X-12009386Y-102705925D01*
X-11860431Y-102683837D01*
X-11750102Y-102606583D01*
X-11686668Y-102521061D01*
X-11606697Y-102341748D01*
X-11581890Y-102201061D01*
X-11595709Y-102005209D01*
X-11626067Y-101903149D01*
X-11703320Y-101792820D01*
X-11835738Y-101721118D01*
X-12070216Y-101679773D01*
X-10836996Y-102912649D02*
X-11024579Y-102879573D01*
X-11110101Y-102816140D01*
X-11148728Y-102760975D01*
X-11217712Y-102603751D01*
X-11231532Y-102407899D01*
X-11165380Y-102032734D01*
X-11101947Y-101947212D01*
X-11046782Y-101908585D01*
X-10944722Y-101878228D01*
X-10757139Y-101911304D01*
X-10671617Y-101974737D01*
X-10632990Y-102029902D01*
X-10602633Y-102131962D01*
X-10643978Y-102366440D01*
X-10707411Y-102451962D01*
X-10762576Y-102490589D01*
X-10864636Y-102520947D01*
X-11052218Y-102487871D01*
X-11137741Y-102424437D01*
X-11176367Y-102369273D01*
X-11206725Y-102267212D01*
X-9841201Y-102749759D02*
X-9725436Y-102093221D01*
X-10141831Y-103083579D02*
X-10252275Y-102338800D01*
X-9642632Y-102446297D01*
%TO.C,D66*%
X-52899389Y-113824365D02*
X-53073038Y-114809172D01*
X-52838559Y-114850517D01*
X-52689604Y-114828429D01*
X-52579275Y-114751175D01*
X-52515841Y-114665653D01*
X-52435870Y-114486340D01*
X-52411063Y-114345653D01*
X-52424882Y-114149801D01*
X-52455240Y-114047741D01*
X-52532493Y-113937412D01*
X-52664911Y-113865710D01*
X-52899389Y-113824365D01*
X-51666169Y-115057241D02*
X-51853752Y-115024165D01*
X-51939274Y-114960732D01*
X-51977901Y-114905567D01*
X-52046885Y-114748343D01*
X-52060705Y-114552491D01*
X-51994553Y-114177326D01*
X-51931120Y-114091804D01*
X-51875955Y-114053177D01*
X-51773895Y-114022820D01*
X-51586312Y-114055896D01*
X-51500790Y-114119329D01*
X-51462163Y-114174494D01*
X-51431806Y-114276554D01*
X-51473151Y-114511032D01*
X-51536584Y-114596554D01*
X-51591749Y-114635181D01*
X-51693809Y-114665539D01*
X-51881391Y-114632463D01*
X-51966914Y-114569029D01*
X-52005540Y-114513865D01*
X-52035898Y-114411804D01*
X-50728257Y-115222621D02*
X-50915840Y-115189545D01*
X-51001362Y-115126111D01*
X-51039989Y-115070947D01*
X-51108973Y-114913722D01*
X-51122793Y-114717870D01*
X-51056641Y-114342706D01*
X-50993207Y-114257183D01*
X-50938043Y-114218557D01*
X-50835983Y-114188199D01*
X-50648400Y-114221275D01*
X-50562878Y-114284708D01*
X-50524251Y-114339873D01*
X-50493894Y-114441933D01*
X-50535238Y-114676411D01*
X-50598672Y-114761933D01*
X-50653837Y-114800560D01*
X-50755897Y-114830918D01*
X-50943479Y-114797842D01*
X-51029001Y-114734408D01*
X-51067628Y-114679244D01*
X-51097986Y-114577184D01*
%TO.C,D63*%
X-30830804Y-98371776D02*
X-31004453Y-99356583D01*
X-30769974Y-99397928D01*
X-30621019Y-99375840D01*
X-30510690Y-99298586D01*
X-30447256Y-99213064D01*
X-30367285Y-99033751D01*
X-30342478Y-98893064D01*
X-30356297Y-98697212D01*
X-30386655Y-98595152D01*
X-30463908Y-98484823D01*
X-30596326Y-98413121D01*
X-30830804Y-98371776D01*
X-29597584Y-99604652D02*
X-29785167Y-99571576D01*
X-29870689Y-99508143D01*
X-29909316Y-99452978D01*
X-29978300Y-99295754D01*
X-29992120Y-99099902D01*
X-29925968Y-98724737D01*
X-29862535Y-98639215D01*
X-29807370Y-98600588D01*
X-29705310Y-98570231D01*
X-29517727Y-98603307D01*
X-29432205Y-98666740D01*
X-29393578Y-98721905D01*
X-29363221Y-98823965D01*
X-29404566Y-99058443D01*
X-29467999Y-99143965D01*
X-29523164Y-99182592D01*
X-29625224Y-99212950D01*
X-29812806Y-99179874D01*
X-29898329Y-99116440D01*
X-29936955Y-99061276D01*
X-29967313Y-98959215D01*
X-29175524Y-99679073D02*
X-28565881Y-99786569D01*
X-28827999Y-99353522D01*
X-28687312Y-99378329D01*
X-28585252Y-99347971D01*
X-28530087Y-99309344D01*
X-28466653Y-99223822D01*
X-28425309Y-98989344D01*
X-28455666Y-98887284D01*
X-28494293Y-98832119D01*
X-28579815Y-98768686D01*
X-28861189Y-98719072D01*
X-28963249Y-98749430D01*
X-29018414Y-98788056D01*
%TO.C,D30*%
X225014344Y-82572801D02*
X224840695Y-81587994D01*
X224606217Y-81629338D01*
X224473800Y-81701041D01*
X224396546Y-81811370D01*
X224366189Y-81913430D01*
X224352369Y-82109282D01*
X224377176Y-82249968D01*
X224457147Y-82429282D01*
X224520581Y-82514804D01*
X224630910Y-82592057D01*
X224779866Y-82614146D01*
X225014344Y-82572801D01*
X223949679Y-81745104D02*
X223340036Y-81852600D01*
X223734457Y-82169882D01*
X223593770Y-82194689D01*
X223508248Y-82258123D01*
X223469621Y-82313287D01*
X223439264Y-82415348D01*
X223480608Y-82649826D01*
X223544042Y-82735348D01*
X223599206Y-82773974D01*
X223701267Y-82804332D01*
X223982640Y-82754718D01*
X224068163Y-82691285D01*
X224106789Y-82636120D01*
X222730393Y-81960097D02*
X222636602Y-81976635D01*
X222551080Y-82040068D01*
X222512453Y-82095233D01*
X222482095Y-82197293D01*
X222468276Y-82393144D01*
X222509620Y-82627622D01*
X222589592Y-82806936D01*
X222653025Y-82892458D01*
X222708190Y-82931085D01*
X222810250Y-82961442D01*
X222904041Y-82944905D01*
X222989564Y-82881471D01*
X223028190Y-82826306D01*
X223058548Y-82724246D01*
X223072368Y-82528395D01*
X223031023Y-82293917D01*
X222951051Y-82114603D01*
X222887618Y-82029081D01*
X222832453Y-81990454D01*
X222730393Y-81960097D01*
%TO.C,D56*%
X194109164Y-126709972D02*
X193935515Y-125725165D01*
X193701037Y-125766509D01*
X193568620Y-125838212D01*
X193491366Y-125948541D01*
X193461009Y-126050601D01*
X193447189Y-126246453D01*
X193471996Y-126387139D01*
X193551967Y-126566453D01*
X193615401Y-126651975D01*
X193725730Y-126729228D01*
X193874686Y-126751317D01*
X194109164Y-126709972D01*
X192481752Y-125981502D02*
X192950708Y-125898813D01*
X193080293Y-126359500D01*
X193025128Y-126320873D01*
X192923068Y-126290515D01*
X192688590Y-126331860D01*
X192603068Y-126395294D01*
X192564441Y-126450458D01*
X192534084Y-126552519D01*
X192575428Y-126786997D01*
X192638862Y-126872519D01*
X192694026Y-126911145D01*
X192796087Y-126941503D01*
X193030565Y-126900158D01*
X193116087Y-126836725D01*
X193154714Y-126781560D01*
X191590735Y-126138613D02*
X191778318Y-126105537D01*
X191880378Y-126135894D01*
X191935542Y-126174521D01*
X192054140Y-126298670D01*
X192134112Y-126477983D01*
X192200263Y-126853148D01*
X192169906Y-126955208D01*
X192131279Y-127010373D01*
X192045757Y-127073807D01*
X191858174Y-127106882D01*
X191756114Y-127076525D01*
X191700950Y-127037898D01*
X191637516Y-126952376D01*
X191596171Y-126717898D01*
X191626529Y-126615838D01*
X191665156Y-126560673D01*
X191750678Y-126497239D01*
X191938260Y-126464164D01*
X192040321Y-126494521D01*
X192095485Y-126533148D01*
X192158919Y-126618670D01*
%TO.C,D70*%
X29195396Y-126029800D02*
X29021747Y-127014607D01*
X29256226Y-127055952D01*
X29405181Y-127033864D01*
X29515510Y-126956610D01*
X29578944Y-126871088D01*
X29658915Y-126691775D01*
X29683722Y-126551088D01*
X29669903Y-126355236D01*
X29639545Y-126253176D01*
X29562292Y-126142847D01*
X29429874Y-126071145D01*
X29195396Y-126029800D01*
X29912764Y-127171718D02*
X30569303Y-127287483D01*
X30320890Y-126228255D01*
X31132050Y-127386711D02*
X31225841Y-127403249D01*
X31327901Y-127372891D01*
X31383066Y-127334264D01*
X31446499Y-127248742D01*
X31526471Y-127069429D01*
X31567816Y-126834951D01*
X31553996Y-126639099D01*
X31523638Y-126537039D01*
X31485011Y-126481874D01*
X31399489Y-126418441D01*
X31305698Y-126401903D01*
X31203638Y-126432261D01*
X31148473Y-126470887D01*
X31085040Y-126556410D01*
X31005068Y-126735723D01*
X30963723Y-126970201D01*
X30977543Y-127166052D01*
X31007901Y-127268113D01*
X31046528Y-127323277D01*
X31132050Y-127386711D01*
%TO.C,D74*%
X104325960Y-138761509D02*
X104152311Y-139746316D01*
X104386790Y-139787661D01*
X104535745Y-139765573D01*
X104646074Y-139688319D01*
X104709508Y-139602797D01*
X104789479Y-139423484D01*
X104814286Y-139282797D01*
X104800467Y-139086945D01*
X104770109Y-138984885D01*
X104692856Y-138874556D01*
X104560438Y-138802854D01*
X104325960Y-138761509D01*
X105043328Y-139903427D02*
X105699867Y-140019192D01*
X105451454Y-138959964D01*
X106554975Y-139831495D02*
X106670740Y-139174957D01*
X106254345Y-140165315D02*
X106143901Y-139420536D01*
X106753544Y-139528033D01*
%TO.C,D38*%
X110941956Y-101240333D02*
X110768307Y-102225140D01*
X111002786Y-102266485D01*
X111151741Y-102244397D01*
X111262070Y-102167143D01*
X111325504Y-102081621D01*
X111405475Y-101902308D01*
X111430282Y-101761621D01*
X111416463Y-101565769D01*
X111386105Y-101463709D01*
X111308852Y-101353380D01*
X111176434Y-101281678D01*
X110941956Y-101240333D01*
X111659324Y-102382251D02*
X112268967Y-102489747D01*
X112006849Y-102056700D01*
X112147536Y-102081507D01*
X112249596Y-102051149D01*
X112304761Y-102012522D01*
X112368194Y-101927000D01*
X112409539Y-101692522D01*
X112379182Y-101590462D01*
X112340555Y-101535297D01*
X112255033Y-101471864D01*
X111973659Y-101422250D01*
X111871599Y-101452608D01*
X111816434Y-101491234D01*
X112906135Y-102166914D02*
X112804075Y-102197272D01*
X112748910Y-102235899D01*
X112685477Y-102321421D01*
X112677208Y-102368316D01*
X112707565Y-102470377D01*
X112746192Y-102525541D01*
X112831714Y-102588975D01*
X113019297Y-102622051D01*
X113121357Y-102591693D01*
X113176521Y-102553066D01*
X113239955Y-102467544D01*
X113248224Y-102420648D01*
X113217866Y-102318588D01*
X113179240Y-102263424D01*
X113093717Y-102199990D01*
X112906135Y-102166914D01*
X112820613Y-102103481D01*
X112781986Y-102048316D01*
X112751628Y-101946256D01*
X112784704Y-101758674D01*
X112848138Y-101673151D01*
X112903302Y-101634525D01*
X113005362Y-101604167D01*
X113192945Y-101637243D01*
X113278467Y-101700676D01*
X113317094Y-101755841D01*
X113347451Y-101857901D01*
X113314376Y-102045484D01*
X113250942Y-102131006D01*
X113195777Y-102169632D01*
X113093717Y-102199990D01*
%TO.C,D90*%
X237849376Y-155363881D02*
X237675727Y-154379074D01*
X237441249Y-154420418D01*
X237308832Y-154492121D01*
X237231578Y-154602450D01*
X237201221Y-154704510D01*
X237187401Y-154900362D01*
X237212208Y-155041048D01*
X237292179Y-155220362D01*
X237355613Y-155305884D01*
X237465942Y-155383137D01*
X237614898Y-155405226D01*
X237849376Y-155363881D01*
X236817672Y-155545798D02*
X236630090Y-155578874D01*
X236528030Y-155548517D01*
X236472865Y-155509890D01*
X236354267Y-155385741D01*
X236274296Y-155206428D01*
X236208144Y-154831263D01*
X236238502Y-154729203D01*
X236277128Y-154674038D01*
X236362650Y-154610604D01*
X236550233Y-154577529D01*
X236652293Y-154607886D01*
X236707458Y-154646513D01*
X236770891Y-154732035D01*
X236812236Y-154966513D01*
X236781878Y-155068573D01*
X236743252Y-155123738D01*
X236657729Y-155187171D01*
X236470147Y-155220247D01*
X236368087Y-155189890D01*
X236312922Y-155151263D01*
X236249489Y-155065741D01*
X235565425Y-154751177D02*
X235471634Y-154767715D01*
X235386112Y-154831148D01*
X235347485Y-154886313D01*
X235317127Y-154988373D01*
X235303308Y-155184224D01*
X235344652Y-155418702D01*
X235424624Y-155598016D01*
X235488057Y-155683538D01*
X235543222Y-155722165D01*
X235645282Y-155752522D01*
X235739073Y-155735985D01*
X235824596Y-155672551D01*
X235863222Y-155617386D01*
X235893580Y-155515326D01*
X235907400Y-155319475D01*
X235866055Y-155084997D01*
X235786083Y-154905683D01*
X235722650Y-154820161D01*
X235667485Y-154781534D01*
X235565425Y-154751177D01*
%TO.C,D26*%
X114249954Y-82479746D02*
X114076305Y-83464553D01*
X114310784Y-83505898D01*
X114459739Y-83483810D01*
X114570068Y-83406556D01*
X114633502Y-83321034D01*
X114713473Y-83141721D01*
X114738280Y-83001034D01*
X114724461Y-82805182D01*
X114694103Y-82703122D01*
X114616850Y-82592793D01*
X114484432Y-82521091D01*
X114249954Y-82479746D01*
X115030756Y-83536141D02*
X115069382Y-83591306D01*
X115154904Y-83654740D01*
X115389382Y-83696084D01*
X115491443Y-83665727D01*
X115546607Y-83627100D01*
X115610041Y-83541578D01*
X115626579Y-83447787D01*
X115604490Y-83298831D01*
X115140970Y-82636856D01*
X115750613Y-82744352D01*
X116421086Y-83878002D02*
X116233503Y-83844926D01*
X116147981Y-83781492D01*
X116109354Y-83726328D01*
X116040370Y-83569103D01*
X116026550Y-83373251D01*
X116092702Y-82998087D01*
X116156136Y-82912564D01*
X116211300Y-82873938D01*
X116313360Y-82843580D01*
X116500943Y-82876656D01*
X116586465Y-82940089D01*
X116625092Y-82995254D01*
X116655449Y-83097314D01*
X116614105Y-83331792D01*
X116550671Y-83417314D01*
X116495506Y-83455941D01*
X116393446Y-83486299D01*
X116205864Y-83453223D01*
X116120342Y-83389789D01*
X116081715Y-83334625D01*
X116051357Y-83232565D01*
%TO.C,D85*%
X82654335Y-151962828D02*
X82480686Y-152947635D01*
X82715165Y-152988980D01*
X82864120Y-152966892D01*
X82974449Y-152889638D01*
X83037883Y-152804116D01*
X83117854Y-152624803D01*
X83142661Y-152484116D01*
X83128842Y-152288264D01*
X83098484Y-152186204D01*
X83021231Y-152075875D01*
X82888813Y-152004173D01*
X82654335Y-151962828D01*
X83680602Y-152724030D02*
X83578542Y-152754388D01*
X83523377Y-152793014D01*
X83459943Y-152878537D01*
X83451674Y-152925432D01*
X83482032Y-153027492D01*
X83520659Y-153082657D01*
X83606181Y-153146091D01*
X83793763Y-153179166D01*
X83895824Y-153148809D01*
X83950988Y-153110182D01*
X84014422Y-153024660D01*
X84022691Y-152977764D01*
X83992333Y-152875704D01*
X83953706Y-152820539D01*
X83868184Y-152757106D01*
X83680602Y-152724030D01*
X83595079Y-152660597D01*
X83556453Y-152605432D01*
X83526095Y-152503372D01*
X83559171Y-152315789D01*
X83622604Y-152230267D01*
X83677769Y-152191640D01*
X83779829Y-152161283D01*
X83967412Y-152194359D01*
X84052934Y-152257792D01*
X84091561Y-152312957D01*
X84121918Y-152415017D01*
X84088842Y-152602599D01*
X84025409Y-152688122D01*
X83970244Y-152726748D01*
X83868184Y-152757106D01*
X84872362Y-153369352D02*
X84403406Y-153286663D01*
X84439200Y-152809438D01*
X84477827Y-152864602D01*
X84563349Y-152928036D01*
X84797827Y-152969381D01*
X84899887Y-152939023D01*
X84955052Y-152900396D01*
X85018486Y-152814874D01*
X85059830Y-152580396D01*
X85029473Y-152478336D01*
X84990846Y-152423171D01*
X84905324Y-152359738D01*
X84670846Y-152318393D01*
X84568786Y-152348751D01*
X84513621Y-152387377D01*
%TO.C,D62*%
X-49591391Y-95063778D02*
X-49765040Y-96048585D01*
X-49530561Y-96089930D01*
X-49381606Y-96067842D01*
X-49271277Y-95990588D01*
X-49207843Y-95905066D01*
X-49127872Y-95725753D01*
X-49103065Y-95585066D01*
X-49116884Y-95389214D01*
X-49147242Y-95287154D01*
X-49224495Y-95176825D01*
X-49356913Y-95105123D01*
X-49591391Y-95063778D01*
X-48358171Y-96296654D02*
X-48545754Y-96263578D01*
X-48631276Y-96200145D01*
X-48669903Y-96144980D01*
X-48738887Y-95987756D01*
X-48752707Y-95791904D01*
X-48686555Y-95416739D01*
X-48623122Y-95331217D01*
X-48567957Y-95292590D01*
X-48465897Y-95262233D01*
X-48278314Y-95295309D01*
X-48192792Y-95358742D01*
X-48154165Y-95413907D01*
X-48123808Y-95515967D01*
X-48165153Y-95750445D01*
X-48228586Y-95835967D01*
X-48283751Y-95874594D01*
X-48385811Y-95904952D01*
X-48573393Y-95871876D01*
X-48658916Y-95808442D01*
X-48697542Y-95753278D01*
X-48727900Y-95651217D01*
X-47872677Y-96285553D02*
X-47834051Y-96340717D01*
X-47748528Y-96404151D01*
X-47514050Y-96445496D01*
X-47411990Y-96415138D01*
X-47356826Y-96376511D01*
X-47293392Y-96290989D01*
X-47276854Y-96197198D01*
X-47298943Y-96048242D01*
X-47762463Y-95386267D01*
X-47152820Y-95493764D01*
%TO.C,D48*%
X-8762218Y-82919186D02*
X-8935867Y-83903993D01*
X-8701388Y-83945338D01*
X-8552433Y-83923250D01*
X-8442104Y-83845996D01*
X-8378670Y-83760474D01*
X-8298699Y-83581161D01*
X-8273892Y-83440474D01*
X-8287711Y-83244622D01*
X-8318069Y-83142562D01*
X-8395322Y-83032233D01*
X-8527740Y-82960531D01*
X-8762218Y-82919186D01*
X-7471116Y-83823793D02*
X-7355350Y-83167255D01*
X-7771745Y-84157613D02*
X-7882189Y-83412834D01*
X-7272546Y-83520331D01*
X-6798039Y-83845767D02*
X-6900099Y-83876125D01*
X-6955264Y-83914752D01*
X-7018697Y-84000274D01*
X-7026966Y-84047169D01*
X-6996609Y-84149230D01*
X-6957982Y-84204394D01*
X-6872460Y-84267828D01*
X-6684877Y-84300904D01*
X-6582817Y-84270546D01*
X-6527653Y-84231919D01*
X-6464219Y-84146397D01*
X-6455950Y-84099501D01*
X-6486308Y-83997441D01*
X-6524934Y-83942277D01*
X-6610457Y-83878843D01*
X-6798039Y-83845767D01*
X-6883561Y-83782334D01*
X-6922188Y-83727169D01*
X-6952546Y-83625109D01*
X-6919470Y-83437527D01*
X-6856036Y-83352004D01*
X-6800872Y-83313378D01*
X-6698812Y-83283020D01*
X-6511229Y-83316096D01*
X-6425707Y-83379529D01*
X-6387080Y-83434694D01*
X-6356723Y-83536754D01*
X-6389798Y-83724337D01*
X-6453232Y-83809859D01*
X-6508397Y-83848485D01*
X-6610457Y-83878843D01*
%TO.C,D3*%
X-20437854Y-42172701D02*
X-20611502Y-43157509D01*
X-20377024Y-43198854D01*
X-20228069Y-43176765D01*
X-20117740Y-43099512D01*
X-20054306Y-43013990D01*
X-19974335Y-42834676D01*
X-19949528Y-42693989D01*
X-19963347Y-42498138D01*
X-19993705Y-42396078D01*
X-20070958Y-42285749D01*
X-20203376Y-42214046D01*
X-20437854Y-42172701D01*
X-19720486Y-43314619D02*
X-19110843Y-43422116D01*
X-19372961Y-42989068D01*
X-19232274Y-43013875D01*
X-19130214Y-42983517D01*
X-19075049Y-42944891D01*
X-19011615Y-42859369D01*
X-18970271Y-42624891D01*
X-19000628Y-42522830D01*
X-19039255Y-42467666D01*
X-19124777Y-42404232D01*
X-19406151Y-42354618D01*
X-19508211Y-42384976D01*
X-19563376Y-42423603D01*
%TO.C,D79*%
X252905006Y-131044025D02*
X252731357Y-130059218D01*
X252496879Y-130100562D01*
X252364462Y-130172265D01*
X252287208Y-130282594D01*
X252256851Y-130384654D01*
X252243031Y-130580506D01*
X252267838Y-130721192D01*
X252347809Y-130900506D01*
X252411243Y-130986028D01*
X252521572Y-131063281D01*
X252670528Y-131085370D01*
X252905006Y-131044025D01*
X251840341Y-130216328D02*
X251183802Y-130332093D01*
X251779511Y-131242480D01*
X250935390Y-131391322D02*
X250747808Y-131424397D01*
X250645748Y-131394040D01*
X250590583Y-131355413D01*
X250471985Y-131231264D01*
X250392013Y-131051951D01*
X250325862Y-130676786D01*
X250356219Y-130574726D01*
X250394846Y-130519561D01*
X250480368Y-130456128D01*
X250667951Y-130423052D01*
X250770011Y-130453409D01*
X250825175Y-130492036D01*
X250888609Y-130577558D01*
X250929954Y-130812036D01*
X250899596Y-130914097D01*
X250860969Y-130969261D01*
X250775447Y-131032695D01*
X250587865Y-131065771D01*
X250485805Y-131035413D01*
X250430640Y-130996786D01*
X250367207Y-130911264D01*
%TO.C,D29*%
X206253757Y-85880799D02*
X206080108Y-84895992D01*
X205845630Y-84937336D01*
X205713213Y-85009039D01*
X205635959Y-85119368D01*
X205605602Y-85221428D01*
X205591782Y-85417280D01*
X205616589Y-85557966D01*
X205696560Y-85737280D01*
X205759994Y-85822802D01*
X205870323Y-85900055D01*
X206019279Y-85922144D01*
X206253757Y-85880799D01*
X205158734Y-85155162D02*
X205103570Y-85116535D01*
X205001509Y-85086178D01*
X204767031Y-85127522D01*
X204681509Y-85190956D01*
X204642883Y-85246121D01*
X204612525Y-85348181D01*
X204629063Y-85441972D01*
X204700765Y-85574390D01*
X205362740Y-86037910D01*
X204753097Y-86145406D01*
X204284141Y-86228096D02*
X204096559Y-86261171D01*
X203994499Y-86230814D01*
X203939334Y-86192187D01*
X203820736Y-86068038D01*
X203740764Y-85888725D01*
X203674613Y-85513560D01*
X203704970Y-85411500D01*
X203743597Y-85356335D01*
X203829119Y-85292902D01*
X204016702Y-85259826D01*
X204118762Y-85290183D01*
X204173926Y-85328810D01*
X204237360Y-85414332D01*
X204278705Y-85648810D01*
X204248347Y-85750871D01*
X204209720Y-85806035D01*
X204124198Y-85869469D01*
X203936616Y-85902545D01*
X203834556Y-85872187D01*
X203779391Y-85833560D01*
X203715958Y-85748038D01*
%TO.C,D21*%
X20358802Y-66440039D02*
X20185153Y-67424846D01*
X20419632Y-67466191D01*
X20568587Y-67444103D01*
X20678916Y-67366849D01*
X20742350Y-67281327D01*
X20822321Y-67102014D01*
X20847128Y-66961327D01*
X20833309Y-66765475D01*
X20802951Y-66663415D01*
X20725698Y-66553086D01*
X20593280Y-66481384D01*
X20358802Y-66440039D01*
X21139604Y-67496434D02*
X21178230Y-67551599D01*
X21263752Y-67615033D01*
X21498230Y-67656377D01*
X21600291Y-67626020D01*
X21655455Y-67587393D01*
X21718889Y-67501871D01*
X21735427Y-67408080D01*
X21713338Y-67259124D01*
X21249818Y-66597149D01*
X21859461Y-66704645D01*
X22797373Y-66870025D02*
X22234626Y-66770797D01*
X22516000Y-66820411D02*
X22342351Y-67805219D01*
X22273367Y-67647994D01*
X22196114Y-67537665D01*
X22110592Y-67474231D01*
%TO.C,D5*%
X24009700Y-47739913D02*
X23836052Y-48724721D01*
X24070530Y-48766066D01*
X24219485Y-48743977D01*
X24329814Y-48666724D01*
X24393248Y-48581202D01*
X24473219Y-48401888D01*
X24498026Y-48261201D01*
X24484207Y-48065350D01*
X24453849Y-47963290D01*
X24376596Y-47852961D01*
X24244178Y-47781258D01*
X24009700Y-47739913D01*
X25289815Y-48981059D02*
X24820859Y-48898369D01*
X24856653Y-48421144D01*
X24895280Y-48476309D01*
X24980802Y-48539742D01*
X25215280Y-48581087D01*
X25317340Y-48550729D01*
X25372505Y-48512103D01*
X25435939Y-48426581D01*
X25477283Y-48192103D01*
X25446926Y-48090042D01*
X25408299Y-48034878D01*
X25322777Y-47971444D01*
X25088299Y-47930099D01*
X24986239Y-47960457D01*
X24931074Y-47999084D01*
%TO.C,D61*%
X-68351979Y-91755780D02*
X-68525628Y-92740587D01*
X-68291149Y-92781932D01*
X-68142194Y-92759844D01*
X-68031865Y-92682590D01*
X-67968431Y-92597068D01*
X-67888460Y-92417755D01*
X-67863653Y-92277068D01*
X-67877472Y-92081216D01*
X-67907830Y-91979156D01*
X-67985083Y-91868827D01*
X-68117501Y-91797125D01*
X-68351979Y-91755780D01*
X-67118759Y-92988656D02*
X-67306342Y-92955580D01*
X-67391864Y-92892147D01*
X-67430491Y-92836982D01*
X-67499475Y-92679758D01*
X-67513295Y-92483906D01*
X-67447143Y-92108741D01*
X-67383710Y-92023219D01*
X-67328545Y-91984592D01*
X-67226485Y-91954235D01*
X-67038902Y-91987311D01*
X-66953380Y-92050744D01*
X-66914753Y-92105909D01*
X-66884396Y-92207969D01*
X-66925741Y-92442447D01*
X-66989174Y-92527969D01*
X-67044339Y-92566596D01*
X-67146399Y-92596954D01*
X-67333981Y-92563878D01*
X-67419504Y-92500444D01*
X-67458130Y-92445280D01*
X-67488488Y-92343219D01*
X-65913408Y-92185766D02*
X-66476155Y-92086538D01*
X-66194781Y-92136152D02*
X-66368430Y-93120960D01*
X-66437414Y-92963735D01*
X-66514667Y-92853406D01*
X-66600189Y-92789972D01*
%TO.C,D12*%
X184185171Y-70428209D02*
X184011522Y-69443402D01*
X183777044Y-69484746D01*
X183644627Y-69556449D01*
X183567373Y-69666778D01*
X183537016Y-69768838D01*
X183523196Y-69964690D01*
X183548003Y-70105376D01*
X183627974Y-70284690D01*
X183691408Y-70370212D01*
X183801737Y-70447465D01*
X183950693Y-70469554D01*
X184185171Y-70428209D01*
X182684511Y-70692816D02*
X183247258Y-70593588D01*
X182965885Y-70643202D02*
X182792237Y-69658394D01*
X182910835Y-69782543D01*
X183021164Y-69859797D01*
X183123224Y-69890154D01*
X182152236Y-69867951D02*
X182097071Y-69829325D01*
X181995011Y-69798967D01*
X181760533Y-69840312D01*
X181675011Y-69903745D01*
X181636384Y-69958910D01*
X181606027Y-70060970D01*
X181622565Y-70154761D01*
X181694267Y-70287179D01*
X182356242Y-70750699D01*
X181746599Y-70858195D01*
%TO.C,D19*%
X-24214808Y-60850600D02*
X-24388457Y-61835407D01*
X-24153978Y-61876752D01*
X-24005023Y-61854664D01*
X-23894694Y-61777410D01*
X-23831260Y-61691888D01*
X-23751289Y-61512575D01*
X-23726482Y-61371888D01*
X-23740301Y-61176036D01*
X-23770659Y-61073976D01*
X-23847912Y-60963647D01*
X-23980330Y-60891945D01*
X-24214808Y-60850600D01*
X-22714149Y-61115206D02*
X-23276896Y-61015979D01*
X-22995523Y-61065593D02*
X-23169171Y-62050400D01*
X-23238155Y-61893176D01*
X-23315408Y-61782847D01*
X-23400931Y-61719413D01*
X-22245193Y-61197896D02*
X-22057610Y-61230972D01*
X-21972088Y-61294405D01*
X-21933462Y-61349570D01*
X-21864477Y-61506795D01*
X-21850657Y-61702646D01*
X-21916809Y-62077811D01*
X-21980243Y-62163333D01*
X-22035407Y-62201960D01*
X-22137467Y-62232318D01*
X-22325050Y-62199242D01*
X-22410572Y-62135808D01*
X-22449199Y-62080644D01*
X-22479556Y-61978583D01*
X-22438212Y-61744105D01*
X-22374778Y-61658583D01*
X-22319613Y-61619957D01*
X-22217553Y-61589599D01*
X-22029971Y-61622675D01*
X-21944449Y-61686108D01*
X-21905822Y-61741273D01*
X-21875464Y-61843333D01*
%TO.C,D8*%
X81299652Y-52683310D02*
X81126004Y-53668118D01*
X81360482Y-53709463D01*
X81509437Y-53687374D01*
X81619766Y-53610121D01*
X81683200Y-53524599D01*
X81763171Y-53345285D01*
X81787978Y-53204598D01*
X81774159Y-53008747D01*
X81743801Y-52906687D01*
X81666548Y-52796358D01*
X81534130Y-52724655D01*
X81299652Y-52683310D01*
X82325919Y-53444513D02*
X82223859Y-53474870D01*
X82168694Y-53513497D01*
X82105260Y-53599019D01*
X82096992Y-53645915D01*
X82127349Y-53747975D01*
X82165976Y-53803140D01*
X82251498Y-53866573D01*
X82439081Y-53899649D01*
X82541141Y-53869291D01*
X82596305Y-53830665D01*
X82659739Y-53745142D01*
X82668008Y-53698247D01*
X82637650Y-53596187D01*
X82599023Y-53541022D01*
X82513501Y-53477589D01*
X82325919Y-53444513D01*
X82240397Y-53381079D01*
X82201770Y-53325915D01*
X82171412Y-53223854D01*
X82204488Y-53036272D01*
X82267922Y-52950750D01*
X82323086Y-52912123D01*
X82425146Y-52881765D01*
X82612729Y-52914841D01*
X82698251Y-52978275D01*
X82736878Y-53033439D01*
X82767235Y-53135500D01*
X82734159Y-53323082D01*
X82670726Y-53408604D01*
X82615561Y-53447231D01*
X82513501Y-53477589D01*
%TO.C,D47*%
X-27522806Y-79611188D02*
X-27696455Y-80595995D01*
X-27461976Y-80637340D01*
X-27313021Y-80615252D01*
X-27202692Y-80537998D01*
X-27139258Y-80452476D01*
X-27059287Y-80273163D01*
X-27034480Y-80132476D01*
X-27048299Y-79936624D01*
X-27078657Y-79834564D01*
X-27155910Y-79724235D01*
X-27288328Y-79652533D01*
X-27522806Y-79611188D01*
X-26231704Y-80515795D02*
X-26115938Y-79859257D01*
X-26532333Y-80849615D02*
X-26642777Y-80104836D01*
X-26033134Y-80212333D01*
X-25867526Y-80918485D02*
X-25210987Y-81034250D01*
X-25459400Y-79975022D01*
%TO.C,D65*%
X-71659977Y-110516368D02*
X-71833626Y-111501175D01*
X-71599147Y-111542520D01*
X-71450192Y-111520432D01*
X-71339863Y-111443178D01*
X-71276429Y-111357656D01*
X-71196458Y-111178343D01*
X-71171651Y-111037656D01*
X-71185470Y-110841804D01*
X-71215828Y-110739744D01*
X-71293081Y-110629415D01*
X-71425499Y-110557713D01*
X-71659977Y-110516368D01*
X-70426757Y-111749244D02*
X-70614340Y-111716168D01*
X-70699862Y-111652735D01*
X-70738489Y-111597570D01*
X-70807473Y-111440346D01*
X-70821293Y-111244494D01*
X-70755141Y-110869329D01*
X-70691708Y-110783807D01*
X-70636543Y-110745180D01*
X-70534483Y-110714823D01*
X-70346900Y-110747899D01*
X-70261378Y-110811332D01*
X-70222751Y-110866497D01*
X-70192394Y-110968557D01*
X-70233739Y-111203035D01*
X-70297172Y-111288557D01*
X-70352337Y-111327184D01*
X-70454397Y-111357542D01*
X-70641979Y-111324466D01*
X-70727502Y-111261032D01*
X-70766128Y-111205868D01*
X-70796486Y-111103807D01*
X-69441950Y-111922892D02*
X-69910906Y-111840203D01*
X-69875112Y-111362978D01*
X-69836485Y-111418142D01*
X-69750963Y-111481576D01*
X-69516485Y-111522921D01*
X-69414425Y-111492563D01*
X-69359260Y-111453936D01*
X-69295826Y-111368414D01*
X-69254482Y-111133936D01*
X-69284839Y-111031876D01*
X-69323466Y-110976711D01*
X-69408988Y-110913278D01*
X-69643466Y-110871933D01*
X-69745526Y-110902291D01*
X-69800691Y-110940917D01*
%TO.C,D57*%
X212869752Y-123401974D02*
X212696103Y-122417167D01*
X212461625Y-122458511D01*
X212329208Y-122530214D01*
X212251954Y-122640543D01*
X212221597Y-122742603D01*
X212207777Y-122938455D01*
X212232584Y-123079141D01*
X212312555Y-123258455D01*
X212375989Y-123343977D01*
X212486318Y-123421230D01*
X212635274Y-123443319D01*
X212869752Y-123401974D01*
X211242340Y-122673504D02*
X211711296Y-122590815D01*
X211840881Y-123051502D01*
X211785716Y-123012875D01*
X211683656Y-122982517D01*
X211449178Y-123023862D01*
X211363656Y-123087296D01*
X211325029Y-123142460D01*
X211294672Y-123244521D01*
X211336016Y-123478999D01*
X211399450Y-123564521D01*
X211454614Y-123603147D01*
X211556675Y-123633505D01*
X211791153Y-123592160D01*
X211876675Y-123528727D01*
X211915302Y-123473562D01*
X210867175Y-122739656D02*
X210210636Y-122855421D01*
X210806345Y-123765809D01*
%TO.C,D94*%
X296836910Y-51080505D02*
X296663261Y-50095698D01*
X296428783Y-50137042D01*
X296296366Y-50208745D01*
X296219112Y-50319074D01*
X296188755Y-50421134D01*
X296174935Y-50616986D01*
X296199742Y-50757672D01*
X296279713Y-50936986D01*
X296343147Y-51022508D01*
X296453476Y-51099761D01*
X296602432Y-51121850D01*
X296836910Y-51080505D01*
X295805206Y-51262422D02*
X295617624Y-51295498D01*
X295515564Y-51265141D01*
X295460399Y-51226514D01*
X295341801Y-51102365D01*
X295261830Y-50923052D01*
X295195678Y-50547887D01*
X295226036Y-50445827D01*
X295264662Y-50390662D01*
X295350184Y-50327228D01*
X295537767Y-50294153D01*
X295639827Y-50324510D01*
X295694992Y-50363137D01*
X295758425Y-50448659D01*
X295799770Y-50683137D01*
X295769412Y-50785197D01*
X295730786Y-50840362D01*
X295645263Y-50903795D01*
X295457681Y-50936871D01*
X295355621Y-50906514D01*
X295300456Y-50867887D01*
X295237023Y-50782365D01*
X294376364Y-50837415D02*
X294492129Y-51493953D01*
X294544690Y-50420905D02*
X294903203Y-51082994D01*
X294293560Y-51190491D01*
%TO.C,D25*%
X95886326Y-76920477D02*
X95712677Y-77905284D01*
X95947156Y-77946629D01*
X96096111Y-77924541D01*
X96206440Y-77847287D01*
X96269874Y-77761765D01*
X96349845Y-77582452D01*
X96374652Y-77441765D01*
X96360833Y-77245913D01*
X96330475Y-77143853D01*
X96253222Y-77033524D01*
X96120804Y-76961822D01*
X95886326Y-76920477D01*
X96667128Y-77976872D02*
X96705754Y-78032037D01*
X96791276Y-78095471D01*
X97025754Y-78136815D01*
X97127815Y-78106458D01*
X97182979Y-78067831D01*
X97246413Y-77982309D01*
X97262951Y-77888518D01*
X97240862Y-77739562D01*
X96777342Y-77077587D01*
X97386985Y-77185083D01*
X98104353Y-78327001D02*
X97635397Y-78244312D01*
X97671191Y-77767087D01*
X97709818Y-77822251D01*
X97795340Y-77885685D01*
X98029818Y-77927030D01*
X98131878Y-77896672D01*
X98187043Y-77858045D01*
X98250477Y-77772523D01*
X98291821Y-77538045D01*
X98261464Y-77435985D01*
X98222837Y-77380820D01*
X98137315Y-77317387D01*
X97902837Y-77276042D01*
X97800777Y-77306400D01*
X97745612Y-77345026D01*
%TO.C,D67*%
X-34138802Y-117132363D02*
X-34312451Y-118117170D01*
X-34077972Y-118158515D01*
X-33929017Y-118136427D01*
X-33818688Y-118059173D01*
X-33755254Y-117973651D01*
X-33675283Y-117794338D01*
X-33650476Y-117653651D01*
X-33664295Y-117457799D01*
X-33694653Y-117355739D01*
X-33771906Y-117245410D01*
X-33904324Y-117173708D01*
X-34138802Y-117132363D01*
X-32905582Y-118365239D02*
X-33093165Y-118332163D01*
X-33178687Y-118268730D01*
X-33217314Y-118213565D01*
X-33286298Y-118056341D01*
X-33300118Y-117860489D01*
X-33233966Y-117485324D01*
X-33170533Y-117399802D01*
X-33115368Y-117361175D01*
X-33013308Y-117330818D01*
X-32825725Y-117363894D01*
X-32740203Y-117427327D01*
X-32701576Y-117482492D01*
X-32671219Y-117584552D01*
X-32712564Y-117819030D01*
X-32775997Y-117904552D01*
X-32831162Y-117943179D01*
X-32933222Y-117973537D01*
X-33120804Y-117940461D01*
X-33206327Y-117877027D01*
X-33244953Y-117821863D01*
X-33275311Y-117719802D01*
X-32483522Y-118439660D02*
X-31826983Y-118555425D01*
X-32075396Y-117496197D01*
%TO.C,D33*%
X17050804Y-85200627D02*
X16877155Y-86185434D01*
X17111634Y-86226779D01*
X17260589Y-86204691D01*
X17370918Y-86127437D01*
X17434352Y-86041915D01*
X17514323Y-85862602D01*
X17539130Y-85721915D01*
X17525311Y-85526063D01*
X17494953Y-85424003D01*
X17417700Y-85313674D01*
X17285282Y-85241972D01*
X17050804Y-85200627D01*
X17768172Y-86342545D02*
X18377815Y-86450041D01*
X18115697Y-86016994D01*
X18256384Y-86041801D01*
X18358444Y-86011443D01*
X18413609Y-85972816D01*
X18477042Y-85887294D01*
X18518387Y-85652816D01*
X18488030Y-85550756D01*
X18449403Y-85495591D01*
X18363881Y-85432158D01*
X18082507Y-85382544D01*
X17980447Y-85412902D01*
X17925282Y-85451528D01*
X18706084Y-86507924D02*
X19315727Y-86615420D01*
X19053609Y-86182373D01*
X19194296Y-86207180D01*
X19296356Y-86176822D01*
X19351521Y-86138195D01*
X19414955Y-86052673D01*
X19456299Y-85818195D01*
X19425942Y-85716135D01*
X19387315Y-85660970D01*
X19301793Y-85597537D01*
X19020419Y-85547923D01*
X18918359Y-85578281D01*
X18863194Y-85616907D01*
%TO.C,D100*%
X307353946Y-107257699D02*
X307180298Y-106272891D01*
X306945819Y-106314236D01*
X306813402Y-106385938D01*
X306736148Y-106496267D01*
X306705791Y-106598328D01*
X306691971Y-106794179D01*
X306716778Y-106934866D01*
X306796749Y-107114179D01*
X306860183Y-107199701D01*
X306970512Y-107276955D01*
X307119468Y-107299043D01*
X307353946Y-107257699D01*
X305853286Y-107522305D02*
X306416034Y-107423078D01*
X306134660Y-107472692D02*
X305961012Y-106487884D01*
X306079610Y-106612033D01*
X306189939Y-106689286D01*
X306291999Y-106719644D01*
X305069995Y-106644994D02*
X304976204Y-106661532D01*
X304890682Y-106724966D01*
X304852055Y-106780130D01*
X304821697Y-106882190D01*
X304807878Y-107078042D01*
X304849222Y-107312520D01*
X304929194Y-107491833D01*
X304992627Y-107577355D01*
X305047792Y-107615982D01*
X305149852Y-107646340D01*
X305243643Y-107629802D01*
X305329166Y-107566368D01*
X305367792Y-107511204D01*
X305398150Y-107409144D01*
X305411970Y-107213292D01*
X305370625Y-106978814D01*
X305290653Y-106799501D01*
X305227220Y-106713978D01*
X305172055Y-106675352D01*
X305069995Y-106644994D01*
X304132083Y-106810373D02*
X304038292Y-106826911D01*
X303952770Y-106890345D01*
X303914143Y-106945509D01*
X303883785Y-107047570D01*
X303869965Y-107243421D01*
X303911310Y-107477899D01*
X303991282Y-107657212D01*
X304054715Y-107742735D01*
X304109880Y-107781361D01*
X304211940Y-107811719D01*
X304305731Y-107795181D01*
X304391253Y-107731748D01*
X304429880Y-107676583D01*
X304460238Y-107574523D01*
X304474058Y-107378671D01*
X304432713Y-107144193D01*
X304352741Y-106964880D01*
X304289308Y-106879358D01*
X304234143Y-106840731D01*
X304132083Y-106810373D01*
%TO.C,D59*%
X249597008Y-112283438D02*
X249423359Y-111298631D01*
X249188881Y-111339975D01*
X249056464Y-111411678D01*
X248979210Y-111522007D01*
X248948853Y-111624067D01*
X248935033Y-111819919D01*
X248959840Y-111960605D01*
X249039811Y-112139919D01*
X249103245Y-112225441D01*
X249213574Y-112302694D01*
X249362530Y-112324783D01*
X249597008Y-112283438D01*
X247969596Y-111554968D02*
X248438552Y-111472279D01*
X248568137Y-111932966D01*
X248512972Y-111894339D01*
X248410912Y-111863981D01*
X248176434Y-111905326D01*
X248090912Y-111968760D01*
X248052285Y-112023924D01*
X248021928Y-112125985D01*
X248063272Y-112360463D01*
X248126706Y-112445985D01*
X248181870Y-112484611D01*
X248283931Y-112514969D01*
X248518409Y-112473624D01*
X248603931Y-112410191D01*
X248642558Y-112355026D01*
X247627392Y-112630735D02*
X247439810Y-112663810D01*
X247337750Y-112633453D01*
X247282585Y-112594826D01*
X247163987Y-112470677D01*
X247084015Y-112291364D01*
X247017864Y-111916199D01*
X247048221Y-111814139D01*
X247086848Y-111758974D01*
X247172370Y-111695541D01*
X247359953Y-111662465D01*
X247462013Y-111692822D01*
X247517177Y-111731449D01*
X247580611Y-111816971D01*
X247621956Y-112051449D01*
X247591598Y-112153510D01*
X247552971Y-112208674D01*
X247467449Y-112272108D01*
X247279867Y-112305184D01*
X247177807Y-112274826D01*
X247122642Y-112236199D01*
X247059209Y-112150677D01*
%TO.C,D84*%
X64290707Y-146403560D02*
X64117058Y-147388367D01*
X64351537Y-147429712D01*
X64500492Y-147407624D01*
X64610821Y-147330370D01*
X64674255Y-147244848D01*
X64754226Y-147065535D01*
X64779033Y-146924848D01*
X64765214Y-146728996D01*
X64734856Y-146626936D01*
X64657603Y-146516607D01*
X64525185Y-146444905D01*
X64290707Y-146403560D01*
X65316974Y-147164762D02*
X65214914Y-147195120D01*
X65159749Y-147233746D01*
X65096315Y-147319269D01*
X65088046Y-147366164D01*
X65118404Y-147468224D01*
X65157031Y-147523389D01*
X65242553Y-147586823D01*
X65430135Y-147619898D01*
X65532196Y-147589541D01*
X65587360Y-147550914D01*
X65650794Y-147465392D01*
X65659063Y-147418496D01*
X65628705Y-147316436D01*
X65590078Y-147261271D01*
X65504556Y-147197838D01*
X65316974Y-147164762D01*
X65231451Y-147101329D01*
X65192825Y-147046164D01*
X65162467Y-146944104D01*
X65195543Y-146756521D01*
X65258976Y-146670999D01*
X65314141Y-146632372D01*
X65416201Y-146602015D01*
X65603784Y-146635091D01*
X65689306Y-146698524D01*
X65727933Y-146753689D01*
X65758290Y-146855749D01*
X65725214Y-147043331D01*
X65661781Y-147128854D01*
X65606616Y-147167480D01*
X65504556Y-147197838D01*
X66519722Y-147473546D02*
X66635487Y-146817008D01*
X66219092Y-147807366D02*
X66108648Y-147062587D01*
X66718291Y-147170084D01*
%TO.C,D7*%
X62142104Y-51626583D02*
X61968456Y-52611391D01*
X62202934Y-52652736D01*
X62351889Y-52630647D01*
X62462218Y-52553394D01*
X62525652Y-52467872D01*
X62605623Y-52288558D01*
X62630430Y-52147871D01*
X62616611Y-51952020D01*
X62586253Y-51849960D01*
X62509000Y-51739631D01*
X62376582Y-51667928D01*
X62142104Y-51626583D01*
X62859472Y-52768501D02*
X63516011Y-52884267D01*
X63267598Y-51825038D01*
%TO.C,D9*%
X99663280Y-58242579D02*
X99489632Y-59227387D01*
X99724110Y-59268732D01*
X99873065Y-59246643D01*
X99983394Y-59169390D01*
X100046828Y-59083868D01*
X100126799Y-58904554D01*
X100151606Y-58763867D01*
X100137787Y-58568016D01*
X100107429Y-58465956D01*
X100030176Y-58355627D01*
X99897758Y-58283924D01*
X99663280Y-58242579D01*
X100694983Y-58424496D02*
X100882566Y-58457572D01*
X100968088Y-58521006D01*
X101006714Y-58576170D01*
X101075699Y-58733395D01*
X101089519Y-58929247D01*
X101023367Y-59304411D01*
X100959933Y-59389934D01*
X100904769Y-59428560D01*
X100802709Y-59458918D01*
X100615126Y-59425842D01*
X100529604Y-59362409D01*
X100490977Y-59307244D01*
X100460620Y-59205184D01*
X100501964Y-58970706D01*
X100565398Y-58885184D01*
X100620562Y-58846557D01*
X100722623Y-58816199D01*
X100910205Y-58849275D01*
X100995727Y-58912709D01*
X101034354Y-58967873D01*
X101064712Y-59069933D01*
%TO.C,D91*%
X256213004Y-149804613D02*
X256039355Y-148819806D01*
X255804877Y-148861150D01*
X255672460Y-148932853D01*
X255595206Y-149043182D01*
X255564849Y-149145242D01*
X255551029Y-149341094D01*
X255575836Y-149481780D01*
X255655807Y-149661094D01*
X255719241Y-149746616D01*
X255829570Y-149823869D01*
X255978526Y-149845958D01*
X256213004Y-149804613D01*
X255181300Y-149986530D02*
X254993718Y-150019606D01*
X254891658Y-149989249D01*
X254836493Y-149950622D01*
X254717895Y-149826473D01*
X254637924Y-149647160D01*
X254571772Y-149271995D01*
X254602130Y-149169935D01*
X254640756Y-149114770D01*
X254726278Y-149051336D01*
X254913861Y-149018261D01*
X255015921Y-149048618D01*
X255071086Y-149087245D01*
X255134519Y-149172767D01*
X255175864Y-149407245D01*
X255145506Y-149509305D01*
X255106880Y-149564470D01*
X255021357Y-149627903D01*
X254833775Y-149660979D01*
X254731715Y-149630622D01*
X254676550Y-149591995D01*
X254613117Y-149506473D01*
X253774432Y-150234599D02*
X254337179Y-150135372D01*
X254055806Y-150184985D02*
X253882158Y-149200178D01*
X254000756Y-149324327D01*
X254111085Y-149401580D01*
X254213145Y-149431938D01*
%TO.C,D92*%
X274973591Y-146496615D02*
X274799942Y-145511808D01*
X274565464Y-145553152D01*
X274433047Y-145624855D01*
X274355793Y-145735184D01*
X274325436Y-145837244D01*
X274311616Y-146033096D01*
X274336423Y-146173782D01*
X274416394Y-146353096D01*
X274479828Y-146438618D01*
X274590157Y-146515871D01*
X274739113Y-146537960D01*
X274973591Y-146496615D01*
X273941887Y-146678532D02*
X273754305Y-146711608D01*
X273652245Y-146681251D01*
X273597080Y-146642624D01*
X273478482Y-146518475D01*
X273398511Y-146339162D01*
X273332359Y-145963997D01*
X273362717Y-145861937D01*
X273401343Y-145806772D01*
X273486865Y-145743338D01*
X273674448Y-145710263D01*
X273776508Y-145740620D01*
X273831673Y-145779247D01*
X273895106Y-145864769D01*
X273936451Y-146099247D01*
X273906093Y-146201307D01*
X273867467Y-146256472D01*
X273781944Y-146319905D01*
X273594362Y-146352981D01*
X273492302Y-146322624D01*
X273437137Y-146283997D01*
X273373704Y-146198475D01*
X272940656Y-145936357D02*
X272885491Y-145897731D01*
X272783431Y-145867373D01*
X272548953Y-145908718D01*
X272463431Y-145972151D01*
X272424804Y-146027316D01*
X272394447Y-146129376D01*
X272410985Y-146223167D01*
X272482687Y-146355585D01*
X273144662Y-146819105D01*
X272535019Y-146926601D01*
%TO.C,D68*%
X-15378214Y-120440361D02*
X-15551863Y-121425168D01*
X-15317384Y-121466513D01*
X-15168429Y-121444425D01*
X-15058100Y-121367171D01*
X-14994666Y-121281649D01*
X-14914695Y-121102336D01*
X-14889888Y-120961649D01*
X-14903707Y-120765797D01*
X-14934065Y-120663737D01*
X-15011318Y-120553408D01*
X-15143736Y-120481706D01*
X-15378214Y-120440361D01*
X-14144994Y-121673237D02*
X-14332577Y-121640161D01*
X-14418099Y-121576728D01*
X-14456726Y-121521563D01*
X-14525710Y-121364339D01*
X-14539530Y-121168487D01*
X-14473378Y-120793322D01*
X-14409945Y-120707800D01*
X-14354780Y-120669173D01*
X-14252720Y-120638816D01*
X-14065137Y-120671892D01*
X-13979615Y-120735325D01*
X-13940988Y-120790490D01*
X-13910631Y-120892550D01*
X-13951976Y-121127028D01*
X-14015409Y-121212550D01*
X-14070574Y-121251177D01*
X-14172634Y-121281535D01*
X-14360216Y-121248459D01*
X-14445739Y-121185025D01*
X-14484365Y-121129861D01*
X-14514723Y-121027800D01*
X-13414035Y-121366942D02*
X-13516095Y-121397300D01*
X-13571260Y-121435927D01*
X-13634693Y-121521449D01*
X-13642962Y-121568344D01*
X-13612605Y-121670405D01*
X-13573978Y-121725569D01*
X-13488456Y-121789003D01*
X-13300873Y-121822079D01*
X-13198813Y-121791721D01*
X-13143649Y-121753094D01*
X-13080215Y-121667572D01*
X-13071946Y-121620676D01*
X-13102304Y-121518616D01*
X-13140930Y-121463452D01*
X-13226453Y-121400018D01*
X-13414035Y-121366942D01*
X-13499557Y-121303509D01*
X-13538184Y-121248344D01*
X-13568542Y-121146284D01*
X-13535466Y-120958702D01*
X-13472032Y-120873179D01*
X-13416868Y-120834553D01*
X-13314808Y-120804195D01*
X-13127225Y-120837271D01*
X-13041703Y-120900704D01*
X-13003076Y-120955869D01*
X-12972719Y-121057929D01*
X-13005794Y-121245512D01*
X-13069228Y-121331034D01*
X-13124393Y-121369660D01*
X-13226453Y-121400018D01*
%TO.C,D43*%
X246289010Y-93522850D02*
X246115361Y-92538043D01*
X245880883Y-92579387D01*
X245748466Y-92651090D01*
X245671212Y-92761419D01*
X245640855Y-92863479D01*
X245627035Y-93059331D01*
X245651842Y-93200017D01*
X245731813Y-93379331D01*
X245795247Y-93464853D01*
X245905576Y-93542106D01*
X246054532Y-93564195D01*
X246289010Y-93522850D01*
X244766376Y-93114381D02*
X244882141Y-93770919D01*
X244934702Y-92697871D02*
X245293215Y-93359960D01*
X244683572Y-93467457D01*
X244286433Y-92860532D02*
X243676790Y-92968028D01*
X244071211Y-93285311D01*
X243930524Y-93310117D01*
X243845002Y-93373551D01*
X243806375Y-93428716D01*
X243776017Y-93530776D01*
X243817362Y-93765254D01*
X243880796Y-93850776D01*
X243935960Y-93889403D01*
X244038020Y-93919760D01*
X244319394Y-93870147D01*
X244404916Y-93806713D01*
X244443543Y-93751549D01*
%TO.C,D49*%
X13742806Y-103961214D02*
X13569157Y-104946021D01*
X13803636Y-104987366D01*
X13952591Y-104965278D01*
X14062920Y-104888024D01*
X14126354Y-104802502D01*
X14206325Y-104623189D01*
X14231132Y-104482502D01*
X14217313Y-104286650D01*
X14186955Y-104184590D01*
X14109702Y-104074261D01*
X13977284Y-104002559D01*
X13742806Y-103961214D01*
X15033908Y-104865821D02*
X15149674Y-104209283D01*
X14733279Y-105199641D02*
X14622835Y-104454862D01*
X15232478Y-104562359D01*
X15712421Y-104308510D02*
X15900004Y-104341586D01*
X15985526Y-104405019D01*
X16024152Y-104460184D01*
X16093137Y-104617409D01*
X16106957Y-104813260D01*
X16040805Y-105188425D01*
X15977371Y-105273947D01*
X15922207Y-105312574D01*
X15820147Y-105342932D01*
X15632564Y-105309856D01*
X15547042Y-105246422D01*
X15508415Y-105191258D01*
X15478058Y-105089197D01*
X15519402Y-104854719D01*
X15582836Y-104769197D01*
X15638001Y-104730571D01*
X15740061Y-104700213D01*
X15927643Y-104733289D01*
X16013165Y-104796722D01*
X16051792Y-104851887D01*
X16082150Y-104953947D01*
%TO.C,D72*%
X67598705Y-127642972D02*
X67425056Y-128627779D01*
X67659535Y-128669124D01*
X67808490Y-128647036D01*
X67918819Y-128569782D01*
X67982253Y-128484260D01*
X68062224Y-128304947D01*
X68087031Y-128164260D01*
X68073212Y-127968408D01*
X68042854Y-127866348D01*
X67965601Y-127756019D01*
X67833183Y-127684317D01*
X67598705Y-127642972D01*
X68316073Y-128784890D02*
X68972612Y-128900655D01*
X68724199Y-127841427D01*
X69317419Y-128864747D02*
X69356045Y-128919911D01*
X69441568Y-128983345D01*
X69676046Y-129024690D01*
X69778106Y-128994332D01*
X69833270Y-128955705D01*
X69896704Y-128870183D01*
X69913242Y-128776392D01*
X69891153Y-128627436D01*
X69427633Y-127965461D01*
X70037276Y-128072958D01*
%TO.C,D78*%
X234541378Y-136603294D02*
X234367729Y-135618487D01*
X234133251Y-135659831D01*
X234000834Y-135731534D01*
X233923580Y-135841863D01*
X233893223Y-135943923D01*
X233879403Y-136139775D01*
X233904210Y-136280461D01*
X233984181Y-136459775D01*
X234047615Y-136545297D01*
X234157944Y-136622550D01*
X234306900Y-136644639D01*
X234541378Y-136603294D01*
X233476713Y-135775597D02*
X232820174Y-135891362D01*
X233415883Y-136801749D01*
X232378743Y-136404381D02*
X232464266Y-136340948D01*
X232502892Y-136285783D01*
X232533250Y-136183723D01*
X232524981Y-136136827D01*
X232461547Y-136051305D01*
X232406383Y-136012678D01*
X232304323Y-135982321D01*
X232116740Y-136015397D01*
X232031218Y-136078830D01*
X231992591Y-136133995D01*
X231962234Y-136236055D01*
X231970503Y-136282951D01*
X232033936Y-136368473D01*
X232089101Y-136407099D01*
X232191161Y-136437457D01*
X232378743Y-136404381D01*
X232480804Y-136434739D01*
X232535968Y-136473366D01*
X232599402Y-136558888D01*
X232632477Y-136746470D01*
X232602120Y-136848530D01*
X232563493Y-136903695D01*
X232477971Y-136967129D01*
X232290388Y-137000204D01*
X232188328Y-136969847D01*
X232133164Y-136931220D01*
X232069730Y-136845698D01*
X232036654Y-136658115D01*
X232067012Y-136556055D01*
X232105639Y-136500891D01*
X232191161Y-136437457D01*
%TO.C,D24*%
X77522698Y-71361209D02*
X77349049Y-72346016D01*
X77583528Y-72387361D01*
X77732483Y-72365273D01*
X77842812Y-72288019D01*
X77906246Y-72202497D01*
X77986217Y-72023184D01*
X78011024Y-71882497D01*
X77997205Y-71686645D01*
X77966847Y-71584585D01*
X77889594Y-71474256D01*
X77757176Y-71402554D01*
X77522698Y-71361209D01*
X78303500Y-72417604D02*
X78342126Y-72472769D01*
X78427648Y-72536203D01*
X78662126Y-72577547D01*
X78764187Y-72547190D01*
X78819351Y-72508563D01*
X78882785Y-72423041D01*
X78899323Y-72329250D01*
X78877234Y-72180294D01*
X78413714Y-71518319D01*
X79023357Y-71625815D01*
X79751713Y-72431195D02*
X79867478Y-71774657D01*
X79451083Y-72765015D02*
X79340639Y-72020236D01*
X79950282Y-72127733D01*
%TO.C,D75*%
X123086548Y-142069506D02*
X122912899Y-143054313D01*
X123147378Y-143095658D01*
X123296333Y-143073570D01*
X123406662Y-142996316D01*
X123470096Y-142910794D01*
X123550067Y-142731481D01*
X123574874Y-142590794D01*
X123561055Y-142394942D01*
X123530697Y-142292882D01*
X123453444Y-142182553D01*
X123321026Y-142110851D01*
X123086548Y-142069506D01*
X123803916Y-143211424D02*
X124460455Y-143327189D01*
X124212042Y-142267961D01*
X125304575Y-143476030D02*
X124835619Y-143393341D01*
X124871413Y-142916116D01*
X124910040Y-142971280D01*
X124995562Y-143034714D01*
X125230040Y-143076059D01*
X125332100Y-143045701D01*
X125387265Y-143007074D01*
X125450699Y-142921552D01*
X125492043Y-142687074D01*
X125461686Y-142585014D01*
X125423059Y-142529849D01*
X125337537Y-142466416D01*
X125103059Y-142425071D01*
X125000999Y-142455429D01*
X124945834Y-142494055D01*
%TO.C,D40*%
X190801167Y-107949384D02*
X190627518Y-106964577D01*
X190393040Y-107005921D01*
X190260623Y-107077624D01*
X190183369Y-107187953D01*
X190153012Y-107290013D01*
X190139192Y-107485865D01*
X190163999Y-107626551D01*
X190243970Y-107805865D01*
X190307404Y-107891387D01*
X190417733Y-107968640D01*
X190566689Y-107990729D01*
X190801167Y-107949384D01*
X189278533Y-107540915D02*
X189394298Y-108197453D01*
X189446859Y-107124405D02*
X189805372Y-107786494D01*
X189195729Y-107893991D01*
X188517216Y-107336680D02*
X188423425Y-107353218D01*
X188337903Y-107416651D01*
X188299276Y-107471816D01*
X188268918Y-107573876D01*
X188255099Y-107769727D01*
X188296443Y-108004205D01*
X188376415Y-108183519D01*
X188439848Y-108269041D01*
X188495013Y-108307668D01*
X188597073Y-108338025D01*
X188690864Y-108321488D01*
X188776387Y-108258054D01*
X188815013Y-108202889D01*
X188845371Y-108100829D01*
X188859191Y-107904978D01*
X188817846Y-107670500D01*
X188737874Y-107491186D01*
X188674441Y-107405664D01*
X188619276Y-107367037D01*
X188517216Y-107336680D01*
%TO.C,D1*%
X-57959030Y-35556706D02*
X-58132678Y-36541514D01*
X-57898200Y-36582859D01*
X-57749245Y-36560770D01*
X-57638916Y-36483517D01*
X-57575482Y-36397995D01*
X-57495511Y-36218681D01*
X-57470704Y-36077994D01*
X-57484523Y-35882143D01*
X-57514881Y-35780083D01*
X-57592134Y-35669754D01*
X-57724552Y-35598051D01*
X-57959030Y-35556706D01*
X-56458371Y-35821313D02*
X-57021118Y-35722086D01*
X-56739744Y-35771699D02*
X-56913393Y-36756507D01*
X-56982377Y-36599282D01*
X-57059630Y-36488953D01*
X-57145153Y-36425520D01*
%TO.C,D36*%
X74214700Y-90121797D02*
X74041051Y-91106604D01*
X74275530Y-91147949D01*
X74424485Y-91125861D01*
X74534814Y-91048607D01*
X74598248Y-90963085D01*
X74678219Y-90783772D01*
X74703026Y-90643085D01*
X74689207Y-90447233D01*
X74658849Y-90345173D01*
X74581596Y-90234844D01*
X74449178Y-90163142D01*
X74214700Y-90121797D01*
X74932068Y-91263715D02*
X75541711Y-91371211D01*
X75279593Y-90938164D01*
X75420280Y-90962971D01*
X75522340Y-90932613D01*
X75577505Y-90893986D01*
X75640938Y-90808464D01*
X75682283Y-90573986D01*
X75651926Y-90471926D01*
X75613299Y-90416761D01*
X75527777Y-90353328D01*
X75246403Y-90303714D01*
X75144343Y-90334072D01*
X75089178Y-90372698D01*
X76385832Y-91520053D02*
X76198249Y-91486977D01*
X76112727Y-91423543D01*
X76074100Y-91368379D01*
X76005116Y-91211154D01*
X75991296Y-91015302D01*
X76057448Y-90640138D01*
X76120882Y-90554615D01*
X76176046Y-90515989D01*
X76278106Y-90485631D01*
X76465689Y-90518707D01*
X76551211Y-90582140D01*
X76589838Y-90637305D01*
X76620195Y-90739365D01*
X76578851Y-90973843D01*
X76515417Y-91059365D01*
X76460252Y-91097992D01*
X76358192Y-91128350D01*
X76170610Y-91095274D01*
X76085088Y-91031840D01*
X76046461Y-90976676D01*
X76016103Y-90874616D01*
%TO.C,D17*%
X-61735984Y-54234605D02*
X-61909633Y-55219412D01*
X-61675154Y-55260757D01*
X-61526199Y-55238669D01*
X-61415870Y-55161415D01*
X-61352436Y-55075893D01*
X-61272465Y-54896580D01*
X-61247658Y-54755893D01*
X-61261477Y-54560041D01*
X-61291835Y-54457981D01*
X-61369088Y-54347652D01*
X-61501506Y-54275950D01*
X-61735984Y-54234605D01*
X-60235325Y-54499211D02*
X-60798072Y-54399984D01*
X-60516699Y-54449598D02*
X-60690347Y-55434405D01*
X-60759331Y-55277181D01*
X-60836584Y-55166852D01*
X-60922107Y-55103418D01*
X-60080704Y-55541902D02*
X-59424165Y-55657667D01*
X-59672578Y-54598439D01*
%TO.C,D96*%
X300144908Y-69841092D02*
X299971259Y-68856285D01*
X299736781Y-68897629D01*
X299604364Y-68969332D01*
X299527110Y-69079661D01*
X299496753Y-69181721D01*
X299482933Y-69377573D01*
X299507740Y-69518259D01*
X299587711Y-69697573D01*
X299651145Y-69783095D01*
X299761474Y-69860348D01*
X299910430Y-69882437D01*
X300144908Y-69841092D01*
X299113204Y-70023009D02*
X298925622Y-70056085D01*
X298823562Y-70025728D01*
X298768397Y-69987101D01*
X298649799Y-69862952D01*
X298569828Y-69683639D01*
X298503676Y-69308474D01*
X298534034Y-69206414D01*
X298572660Y-69151249D01*
X298658182Y-69087815D01*
X298845765Y-69054740D01*
X298947825Y-69085097D01*
X299002990Y-69123724D01*
X299066423Y-69209246D01*
X299107768Y-69443724D01*
X299077410Y-69545784D01*
X299038784Y-69600949D01*
X298953261Y-69664382D01*
X298765679Y-69697458D01*
X298663619Y-69667101D01*
X298608454Y-69628474D01*
X298545021Y-69542952D01*
X297626479Y-69269733D02*
X297814062Y-69236657D01*
X297916122Y-69267014D01*
X297971286Y-69305641D01*
X298089884Y-69429790D01*
X298169856Y-69609103D01*
X298236007Y-69984268D01*
X298205650Y-70086328D01*
X298167023Y-70141493D01*
X298081501Y-70204927D01*
X297893918Y-70238002D01*
X297791858Y-70207645D01*
X297736694Y-70169018D01*
X297673260Y-70083496D01*
X297631915Y-69849018D01*
X297662273Y-69746958D01*
X297700900Y-69691793D01*
X297786422Y-69628359D01*
X297974004Y-69595284D01*
X298076065Y-69625641D01*
X298131229Y-69664268D01*
X298194663Y-69749790D01*
%TO.C,D86*%
X106869904Y-159570208D02*
X106447286Y-160476516D01*
X106663074Y-160577139D01*
X106812671Y-160594356D01*
X106939235Y-160548290D01*
X107022642Y-160482099D01*
X107146298Y-160329594D01*
X107206672Y-160200122D01*
X107244014Y-160007367D01*
X107241105Y-159900927D01*
X107195040Y-159774363D01*
X107085692Y-159670831D01*
X106869904Y-159570208D01*
X107664189Y-160571090D02*
X107557749Y-160573998D01*
X107494467Y-160597031D01*
X107411060Y-160663222D01*
X107390935Y-160706379D01*
X107393843Y-160812819D01*
X107416876Y-160876101D01*
X107483066Y-160959508D01*
X107655696Y-161040007D01*
X107762136Y-161037098D01*
X107825418Y-161014066D01*
X107908825Y-160947875D01*
X107928950Y-160904718D01*
X107926042Y-160798278D01*
X107903009Y-160734996D01*
X107836819Y-160651589D01*
X107664189Y-160571090D01*
X107597998Y-160487683D01*
X107574965Y-160424401D01*
X107572057Y-160317961D01*
X107652556Y-160145331D01*
X107735963Y-160079141D01*
X107799245Y-160056108D01*
X107905685Y-160053200D01*
X108078315Y-160133699D01*
X108144505Y-160217106D01*
X108167538Y-160280388D01*
X108170446Y-160386828D01*
X108089947Y-160559458D01*
X108006540Y-160625648D01*
X107943258Y-160648681D01*
X107836819Y-160651589D01*
X108605162Y-161482750D02*
X108432532Y-161402251D01*
X108366341Y-161318844D01*
X108343309Y-161255562D01*
X108317368Y-161085840D01*
X108354709Y-160893085D01*
X108515706Y-160547825D01*
X108599113Y-160481635D01*
X108662395Y-160458602D01*
X108768835Y-160455694D01*
X108941465Y-160536192D01*
X109007655Y-160619599D01*
X109030688Y-160682881D01*
X109033596Y-160789321D01*
X108932973Y-161005109D01*
X108849566Y-161071299D01*
X108786284Y-161094332D01*
X108679844Y-161097240D01*
X108507214Y-161016741D01*
X108441024Y-160933334D01*
X108417991Y-160870052D01*
X108415083Y-160763613D01*
%TO.C,D95*%
X280899148Y-70397537D02*
X280725499Y-69412730D01*
X280491021Y-69454074D01*
X280358604Y-69525777D01*
X280281350Y-69636106D01*
X280250993Y-69738166D01*
X280237173Y-69934018D01*
X280261980Y-70074704D01*
X280341951Y-70254018D01*
X280405385Y-70339540D01*
X280515714Y-70416793D01*
X280664670Y-70438882D01*
X280899148Y-70397537D01*
X279867444Y-70579454D02*
X279679862Y-70612530D01*
X279577802Y-70582173D01*
X279522637Y-70543546D01*
X279404039Y-70419397D01*
X279324068Y-70240084D01*
X279257916Y-69864919D01*
X279288274Y-69762859D01*
X279326900Y-69707694D01*
X279412422Y-69644260D01*
X279600005Y-69611185D01*
X279702065Y-69641542D01*
X279757230Y-69680169D01*
X279820663Y-69765691D01*
X279862008Y-70000169D01*
X279831650Y-70102229D01*
X279793024Y-70157394D01*
X279707501Y-70220827D01*
X279519919Y-70253903D01*
X279417859Y-70223546D01*
X279362694Y-70184919D01*
X279299261Y-70099397D01*
X278333823Y-69834447D02*
X278802780Y-69751757D01*
X278932365Y-70212444D01*
X278877200Y-70173817D01*
X278775140Y-70143460D01*
X278540662Y-70184804D01*
X278455140Y-70248238D01*
X278416513Y-70303403D01*
X278386155Y-70405463D01*
X278427500Y-70639941D01*
X278490934Y-70725463D01*
X278546098Y-70764090D01*
X278648158Y-70794447D01*
X278882637Y-70753103D01*
X278968159Y-70689669D01*
X279006785Y-70634504D01*
%TO.C,D22*%
X39119390Y-69748037D02*
X38945741Y-70732844D01*
X39180220Y-70774189D01*
X39329175Y-70752101D01*
X39439504Y-70674847D01*
X39502938Y-70589325D01*
X39582909Y-70410012D01*
X39607716Y-70269325D01*
X39593897Y-70073473D01*
X39563539Y-69971413D01*
X39486286Y-69861084D01*
X39353868Y-69789382D01*
X39119390Y-69748037D01*
X39900192Y-70804432D02*
X39938818Y-70859597D01*
X40024340Y-70923031D01*
X40258818Y-70964375D01*
X40360879Y-70934018D01*
X40416043Y-70895391D01*
X40479477Y-70809869D01*
X40496015Y-70716078D01*
X40473926Y-70567122D01*
X40010406Y-69905147D01*
X40620049Y-70012643D01*
X40838104Y-70969812D02*
X40876730Y-71024976D01*
X40962253Y-71088410D01*
X41196731Y-71129755D01*
X41298791Y-71099397D01*
X41353955Y-71060770D01*
X41417389Y-70975248D01*
X41433927Y-70881457D01*
X41411838Y-70732501D01*
X40948318Y-70070526D01*
X41557961Y-70178023D01*
%TO.C,D41*%
X209561754Y-104641387D02*
X209388105Y-103656580D01*
X209153627Y-103697924D01*
X209021210Y-103769627D01*
X208943956Y-103879956D01*
X208913599Y-103982016D01*
X208899779Y-104177868D01*
X208924586Y-104318554D01*
X209004557Y-104497868D01*
X209067991Y-104583390D01*
X209178320Y-104660643D01*
X209327276Y-104682732D01*
X209561754Y-104641387D01*
X208039120Y-104232918D02*
X208154885Y-104889456D01*
X208207446Y-103816408D02*
X208565959Y-104478497D01*
X207956316Y-104585994D01*
X207123182Y-105071373D02*
X207685929Y-104972146D01*
X207404556Y-105021759D02*
X207230908Y-104036952D01*
X207349506Y-104161101D01*
X207459835Y-104238354D01*
X207561895Y-104268712D01*
%TO.C,D20*%
X-5454220Y-64158598D02*
X-5627869Y-65143405D01*
X-5393390Y-65184750D01*
X-5244435Y-65162662D01*
X-5134106Y-65085408D01*
X-5070672Y-64999886D01*
X-4990701Y-64820573D01*
X-4965894Y-64679886D01*
X-4979713Y-64484034D01*
X-5010071Y-64381974D01*
X-5087324Y-64271645D01*
X-5219742Y-64199943D01*
X-5454220Y-64158598D01*
X-4673418Y-65214993D02*
X-4634792Y-65270158D01*
X-4549270Y-65333592D01*
X-4314792Y-65374936D01*
X-4212731Y-65344579D01*
X-4157567Y-65305952D01*
X-4094133Y-65220430D01*
X-4077595Y-65126639D01*
X-4099684Y-64977683D01*
X-4563204Y-64315708D01*
X-3953561Y-64423204D01*
X-3517566Y-65515509D02*
X-3423775Y-65532047D01*
X-3321715Y-65501689D01*
X-3266550Y-65463062D01*
X-3203117Y-65377540D01*
X-3123145Y-65198227D01*
X-3081800Y-64963749D01*
X-3095620Y-64767897D01*
X-3125978Y-64665837D01*
X-3164605Y-64610672D01*
X-3250127Y-64547239D01*
X-3343918Y-64530701D01*
X-3445978Y-64561059D01*
X-3501143Y-64599685D01*
X-3564576Y-64685208D01*
X-3644548Y-64864521D01*
X-3685893Y-65098999D01*
X-3672073Y-65294850D01*
X-3641715Y-65396911D01*
X-3603088Y-65452075D01*
X-3517566Y-65515509D01*
%TO.C,D104*%
X313845855Y-144800754D02*
X313672207Y-143815946D01*
X313437728Y-143857291D01*
X313305311Y-143928993D01*
X313228057Y-144039322D01*
X313197700Y-144141383D01*
X313183880Y-144337234D01*
X313208687Y-144477921D01*
X313288658Y-144657234D01*
X313352092Y-144742756D01*
X313462421Y-144820010D01*
X313611377Y-144842098D01*
X313845855Y-144800754D01*
X312345195Y-145065360D02*
X312907943Y-144966133D01*
X312626569Y-145015747D02*
X312452921Y-144030939D01*
X312571519Y-144155088D01*
X312681848Y-144232341D01*
X312783908Y-144262699D01*
X311561904Y-144188049D02*
X311468113Y-144204587D01*
X311382591Y-144268021D01*
X311343964Y-144323185D01*
X311313606Y-144425245D01*
X311299787Y-144621097D01*
X311341131Y-144855575D01*
X311421103Y-145034888D01*
X311484536Y-145120410D01*
X311539701Y-145159037D01*
X311641761Y-145189395D01*
X311735552Y-145172857D01*
X311821075Y-145109423D01*
X311859701Y-145054259D01*
X311890059Y-144952199D01*
X311903879Y-144756347D01*
X311862534Y-144521869D01*
X311782562Y-144342556D01*
X311719129Y-144257033D01*
X311663964Y-144218407D01*
X311561904Y-144188049D01*
X310447397Y-144723042D02*
X310563162Y-145379581D01*
X310615723Y-144306533D02*
X310974236Y-144968622D01*
X310364593Y-145076119D01*
%TO.C,D71*%
X48441157Y-126586245D02*
X48267508Y-127571052D01*
X48501987Y-127612397D01*
X48650942Y-127590309D01*
X48761271Y-127513055D01*
X48824705Y-127427533D01*
X48904676Y-127248220D01*
X48929483Y-127107533D01*
X48915664Y-126911681D01*
X48885306Y-126809621D01*
X48808053Y-126699292D01*
X48675635Y-126627590D01*
X48441157Y-126586245D01*
X49158525Y-127728163D02*
X49815064Y-127843928D01*
X49566651Y-126784700D01*
X50879728Y-127016231D02*
X50316981Y-126917003D01*
X50598355Y-126966617D02*
X50424706Y-127951425D01*
X50355722Y-127794200D01*
X50278469Y-127683871D01*
X50192947Y-127620437D01*
%TO.C,D2*%
X-39198442Y-38864704D02*
X-39372090Y-39849512D01*
X-39137612Y-39890857D01*
X-38988657Y-39868768D01*
X-38878328Y-39791515D01*
X-38814894Y-39705993D01*
X-38734923Y-39526679D01*
X-38710116Y-39385992D01*
X-38723935Y-39190141D01*
X-38754293Y-39088081D01*
X-38831546Y-38977752D01*
X-38963964Y-38906049D01*
X-39198442Y-38864704D01*
X-38417640Y-39921100D02*
X-38379014Y-39976265D01*
X-38293491Y-40039698D01*
X-38059013Y-40081043D01*
X-37956953Y-40050685D01*
X-37901789Y-40012059D01*
X-37838355Y-39926536D01*
X-37821817Y-39832745D01*
X-37843906Y-39683789D01*
X-38307426Y-39021815D01*
X-37697783Y-39129311D01*
%TO.C,D14*%
X221309387Y-61560943D02*
X221135738Y-60576136D01*
X220901260Y-60617480D01*
X220768843Y-60689183D01*
X220691589Y-60799512D01*
X220661232Y-60901572D01*
X220647412Y-61097424D01*
X220672219Y-61238110D01*
X220752190Y-61417424D01*
X220815624Y-61502946D01*
X220925953Y-61580199D01*
X221074909Y-61602288D01*
X221309387Y-61560943D01*
X219808727Y-61825550D02*
X220371474Y-61726322D01*
X220090101Y-61775936D02*
X219916453Y-60791128D01*
X220035051Y-60915277D01*
X220145380Y-60992531D01*
X220247440Y-61022888D01*
X218848841Y-61317853D02*
X218964606Y-61974391D01*
X219017167Y-60901343D02*
X219375680Y-61563432D01*
X218766037Y-61670929D01*
%TO.C,D28*%
X187493169Y-89188797D02*
X187319520Y-88203990D01*
X187085042Y-88245334D01*
X186952625Y-88317037D01*
X186875371Y-88427366D01*
X186845014Y-88529426D01*
X186831194Y-88725278D01*
X186856001Y-88865964D01*
X186935972Y-89045278D01*
X186999406Y-89130800D01*
X187109735Y-89208053D01*
X187258691Y-89230142D01*
X187493169Y-89188797D01*
X186398146Y-88463160D02*
X186342982Y-88424533D01*
X186240921Y-88394176D01*
X186006443Y-88435520D01*
X185920921Y-88498954D01*
X185882295Y-88554119D01*
X185851937Y-88656179D01*
X185868475Y-88749970D01*
X185940177Y-88882388D01*
X186602152Y-89345908D01*
X185992509Y-89453404D01*
X185330534Y-88989884D02*
X185416057Y-88926451D01*
X185454683Y-88871286D01*
X185485041Y-88769226D01*
X185476772Y-88722330D01*
X185413338Y-88636808D01*
X185358174Y-88598181D01*
X185256114Y-88567824D01*
X185068531Y-88600900D01*
X184983009Y-88664333D01*
X184944382Y-88719498D01*
X184914025Y-88821558D01*
X184922294Y-88868454D01*
X184985727Y-88953976D01*
X185040892Y-88992602D01*
X185142952Y-89022960D01*
X185330534Y-88989884D01*
X185432595Y-89020242D01*
X185487759Y-89058869D01*
X185551193Y-89144391D01*
X185584268Y-89331973D01*
X185553911Y-89434033D01*
X185515284Y-89489198D01*
X185429762Y-89552632D01*
X185242179Y-89585707D01*
X185140119Y-89555350D01*
X185084955Y-89516723D01*
X185021521Y-89431201D01*
X184988445Y-89243618D01*
X185018803Y-89141558D01*
X185057430Y-89086394D01*
X185142952Y-89022960D01*
%TO.C,D15*%
X239673015Y-56001675D02*
X239499366Y-55016868D01*
X239264888Y-55058212D01*
X239132471Y-55129915D01*
X239055217Y-55240244D01*
X239024860Y-55342304D01*
X239011040Y-55538156D01*
X239035847Y-55678842D01*
X239115818Y-55858156D01*
X239179252Y-55943678D01*
X239289581Y-56020931D01*
X239438537Y-56043020D01*
X239673015Y-56001675D01*
X238172355Y-56266282D02*
X238735102Y-56167054D01*
X238453729Y-56216668D02*
X238280081Y-55231860D01*
X238398679Y-55356009D01*
X238509008Y-55433263D01*
X238611068Y-55463620D01*
X237107690Y-55438585D02*
X237576647Y-55355895D01*
X237706232Y-55816582D01*
X237651067Y-55777955D01*
X237549007Y-55747598D01*
X237314529Y-55788942D01*
X237229007Y-55852376D01*
X237190380Y-55907541D01*
X237160022Y-56009601D01*
X237201367Y-56244079D01*
X237264801Y-56329601D01*
X237319965Y-56368228D01*
X237422025Y-56398585D01*
X237656504Y-56357241D01*
X237742026Y-56293807D01*
X237780652Y-56238642D01*
%TO.C,D23*%
X58365150Y-70304482D02*
X58191501Y-71289289D01*
X58425980Y-71330634D01*
X58574935Y-71308546D01*
X58685264Y-71231292D01*
X58748698Y-71145770D01*
X58828669Y-70966457D01*
X58853476Y-70825770D01*
X58839657Y-70629918D01*
X58809299Y-70527858D01*
X58732046Y-70417529D01*
X58599628Y-70345827D01*
X58365150Y-70304482D01*
X59145952Y-71360877D02*
X59184578Y-71416042D01*
X59270100Y-71479476D01*
X59504578Y-71520820D01*
X59606639Y-71490463D01*
X59661803Y-71451836D01*
X59725237Y-71366314D01*
X59741775Y-71272523D01*
X59719686Y-71123567D01*
X59256166Y-70461592D01*
X59865809Y-70569088D01*
X60020430Y-71611779D02*
X60630073Y-71719275D01*
X60367955Y-71286228D01*
X60508642Y-71311035D01*
X60610702Y-71280677D01*
X60665867Y-71242050D01*
X60729301Y-71156528D01*
X60770645Y-70922050D01*
X60740288Y-70819990D01*
X60701661Y-70764825D01*
X60616139Y-70701392D01*
X60334765Y-70651778D01*
X60232705Y-70682136D01*
X60177540Y-70720762D01*
D11*
%TO.C,D58*%
X232695749Y-120171772D02*
X228854998Y-120849000D01*
X232348452Y-118202157D02*
X232695749Y-120171772D01*
X232348452Y-118202157D02*
X228507702Y-118879385D01*
%TO.C,D80*%
X273127962Y-130065094D02*
X269287211Y-130742322D01*
X272780665Y-128095479D02*
X268939915Y-128772707D01*
X272780665Y-128095479D02*
X273127962Y-130065094D01*
%TO.C,D39*%
X132514700Y-108549830D02*
X128673950Y-107872602D01*
X132861997Y-106580215D02*
X129021246Y-105902987D01*
X132861997Y-106580215D02*
X132514700Y-108549830D01*
%TO.C,D55*%
X129553999Y-125340803D02*
X129206702Y-127310418D01*
X129553999Y-125340803D02*
X125713248Y-124663575D01*
X129206702Y-127310418D02*
X125365952Y-126633190D01*
%TO.C,D88*%
X195869122Y-178686311D02*
X192334521Y-180334522D01*
X195023885Y-176873695D02*
X195869122Y-178686311D01*
X195023885Y-176873695D02*
X191489285Y-178521906D01*
%TO.C,D6*%
X45586841Y-53019333D02*
X45239544Y-54988948D01*
X45239544Y-54988948D02*
X41398794Y-54311720D01*
X45586841Y-53019333D02*
X41746090Y-52342105D01*
%TO.C,D44*%
X266164670Y-90574303D02*
X262323920Y-91251531D01*
X266511967Y-92543918D02*
X262671216Y-93221146D01*
X266164670Y-90574303D02*
X266511967Y-92543918D01*
%TO.C,D11*%
X139477992Y-69059040D02*
X139130695Y-71028655D01*
X139130695Y-71028655D02*
X135289945Y-70351427D01*
X139477992Y-69059040D02*
X135637241Y-68381812D01*
%TO.C,D45*%
X-61884529Y-75027076D02*
X-65725280Y-74349848D01*
X-61884529Y-75027076D02*
X-62231826Y-76996691D01*
X-62231826Y-76996691D02*
X-66072576Y-76319463D01*
%TO.C,D46*%
X-43123942Y-78335074D02*
X-43471239Y-80304689D01*
X-43471239Y-80304689D02*
X-47311989Y-79627461D01*
X-43123942Y-78335074D02*
X-46964693Y-77657846D01*
%TO.C,D52*%
X73718858Y-112883883D02*
X69878108Y-112206655D01*
X74066155Y-110914268D02*
X73718858Y-112883883D01*
X74066155Y-110914268D02*
X70225404Y-110237040D01*
%TO.C,D99*%
X288630215Y-108278164D02*
X284789465Y-108955392D01*
X288630215Y-108278164D02*
X288977512Y-110247779D01*
X288977512Y-110247779D02*
X285136761Y-110925007D01*
%TO.C,D103*%
X295467452Y-147791181D02*
X291626701Y-148468409D01*
X295120155Y-145821566D02*
X295467452Y-147791181D01*
X295120155Y-145821566D02*
X291279405Y-146498794D01*
%TO.C,D50*%
X35315550Y-111270711D02*
X31474800Y-110593483D01*
X35662847Y-109301096D02*
X31822096Y-108623868D01*
X35662847Y-109301096D02*
X35315550Y-111270711D01*
%TO.C,D60*%
X269472668Y-109334891D02*
X265631918Y-110012119D01*
X269472668Y-109334891D02*
X269819965Y-111304506D01*
X269819965Y-111304506D02*
X265979214Y-111981734D01*
%TO.C,D31*%
X244096084Y-75121713D02*
X240255334Y-75798941D01*
X244096084Y-75121713D02*
X244443381Y-77091328D01*
X244443381Y-77091328D02*
X240602630Y-77768556D01*
%TO.C,D16*%
X259548674Y-53053128D02*
X255707924Y-53730356D01*
X259895971Y-55022743D02*
X256055220Y-55699971D01*
X259548674Y-53053128D02*
X259895971Y-55022743D01*
%TO.C,D42*%
X229387751Y-101411184D02*
X225547000Y-102088412D01*
X229040454Y-99441569D02*
X225199704Y-100118797D01*
X229040454Y-99441569D02*
X229387751Y-101411184D01*
%TO.C,D97*%
X285322217Y-89517576D02*
X281481467Y-90194804D01*
X285669514Y-91487191D02*
X281828763Y-92164419D01*
X285322217Y-89517576D02*
X285669514Y-91487191D01*
%TO.C,D76*%
X198879531Y-147799626D02*
X195038780Y-148476854D01*
X198532234Y-145830011D02*
X194691484Y-146507239D01*
X198532234Y-145830011D02*
X198879531Y-147799626D01*
%TO.C,D10*%
X120370108Y-67720657D02*
X116529358Y-67043429D01*
X120717405Y-65751042D02*
X120370108Y-67720657D01*
X120717405Y-65751042D02*
X116876654Y-65073814D01*
%TO.C,D27*%
X136169994Y-87819627D02*
X135822697Y-89789242D01*
X136169994Y-87819627D02*
X132329243Y-87142399D01*
X135822697Y-89789242D02*
X131981947Y-89112014D01*
%TO.C,D18*%
X-40163241Y-61544101D02*
X-44003991Y-60866873D01*
X-39815944Y-59574486D02*
X-43656695Y-58897258D01*
X-39815944Y-59574486D02*
X-40163241Y-61544101D01*
%TO.C,D4*%
X710039Y-49149368D02*
X-3130711Y-48472140D01*
X1057336Y-47179753D02*
X710039Y-49149368D01*
X1057336Y-47179753D02*
X-2783415Y-46502525D01*
%TO.C,D54*%
X110446114Y-124002420D02*
X106605364Y-123325192D01*
X110793411Y-122032805D02*
X106952660Y-121355577D01*
X110793411Y-122032805D02*
X110446114Y-124002420D01*
%TO.C,D83*%
X47945315Y-149348331D02*
X44104565Y-148671103D01*
X48292612Y-147378716D02*
X47945315Y-149348331D01*
X48292612Y-147378716D02*
X44451861Y-146701488D01*
%TO.C,D82*%
X29046852Y-146822272D02*
X28699555Y-148791887D01*
X28699555Y-148791887D02*
X24858805Y-148114659D01*
X29046852Y-146822272D02*
X25206101Y-146145044D01*
%TO.C,D93*%
X279053519Y-53966016D02*
X275212768Y-54643244D01*
X278706222Y-51996401D02*
X274865472Y-52673629D01*
X278706222Y-51996401D02*
X279053519Y-53966016D01*
%TO.C,D73*%
X88774488Y-137203739D02*
X84933738Y-136526511D01*
X89121785Y-135234124D02*
X85281034Y-134556896D01*
X89121785Y-135234124D02*
X88774488Y-137203739D01*
%TO.C,D89*%
X216598923Y-166847802D02*
X217444160Y-168660418D01*
X216598923Y-166847802D02*
X213064323Y-168496013D01*
X217444160Y-168660418D02*
X213909559Y-170308629D01*
%TO.C,D13*%
X204364021Y-69199136D02*
X200523270Y-69876364D01*
X204016724Y-67229521D02*
X200175974Y-67906749D01*
X204016724Y-67229521D02*
X204364021Y-69199136D01*
%TO.C,D37*%
X95737781Y-97712949D02*
X91897030Y-97035721D01*
X95737781Y-97712949D02*
X95390484Y-99682564D01*
X95390484Y-99682564D02*
X91549734Y-99005336D01*
%TO.C,D98*%
X304915275Y-90930746D02*
X301074524Y-91607974D01*
X304567978Y-88961131D02*
X304915275Y-90930746D01*
X304567978Y-88961131D02*
X300727228Y-89638359D01*
%TO.C,D102*%
X311183974Y-126482306D02*
X311531271Y-128451921D01*
X311531271Y-128451921D02*
X307690520Y-129129149D01*
X311183974Y-126482306D02*
X307343224Y-127159534D01*
%TO.C,D69*%
X13594262Y-124753686D02*
X9753511Y-124076458D01*
X13594262Y-124753686D02*
X13246965Y-126723301D01*
X13246965Y-126723301D02*
X9406215Y-126046073D01*
%TO.C,D101*%
X292241403Y-128758225D02*
X288400652Y-129435453D01*
X291894106Y-126788610D02*
X288053356Y-127465838D01*
X291894106Y-126788610D02*
X292241403Y-128758225D01*
%TO.C,D51*%
X54908608Y-109857541D02*
X51067857Y-109180313D01*
X54561311Y-111827156D02*
X50720561Y-111149928D01*
X54908608Y-109857541D02*
X54561311Y-111827156D01*
%TO.C,D32*%
X262856672Y-71813716D02*
X259015922Y-72490944D01*
X263203969Y-73783331D02*
X259363218Y-74460559D01*
X262856672Y-71813716D02*
X263203969Y-73783331D01*
%TO.C,D34*%
X38970845Y-90540508D02*
X38623548Y-92510123D01*
X38970845Y-90540508D02*
X35130094Y-89863280D01*
X38623548Y-92510123D02*
X34782798Y-91832895D01*
%TO.C,D81*%
X10286264Y-143514274D02*
X6445513Y-142837046D01*
X9938967Y-145483889D02*
X6098217Y-144806661D01*
X10286264Y-143514274D02*
X9938967Y-145483889D01*
%TO.C,D77*%
X217640119Y-144491628D02*
X213799368Y-145168856D01*
X217292822Y-142522013D02*
X213452072Y-143199241D01*
X217292822Y-142522013D02*
X217640119Y-144491628D01*
%TO.C,D53*%
X92082486Y-118443152D02*
X88241736Y-117765924D01*
X92429783Y-116473537D02*
X88589032Y-115796309D01*
X92429783Y-116473537D02*
X92082486Y-118443152D01*
%TO.C,D35*%
X58216606Y-91096953D02*
X54375855Y-90419725D01*
X57869309Y-93066568D02*
X54028559Y-92389340D01*
X58216606Y-91096953D02*
X57869309Y-93066568D01*
%TO.C,D87*%
X130985811Y-172510583D02*
X127451210Y-170862372D01*
X130140574Y-174323199D02*
X126605974Y-172674988D01*
X130985811Y-172510583D02*
X130140574Y-174323199D01*
%TO.C,D64*%
X-9258061Y-105681272D02*
X-13098811Y-105004044D01*
X-8910764Y-103711657D02*
X-12751515Y-103034429D01*
X-8910764Y-103711657D02*
X-9258061Y-105681272D01*
%TO.C,D66*%
X-50087234Y-117825864D02*
X-53927984Y-117148636D01*
X-49739937Y-115856249D02*
X-53580688Y-115179021D01*
X-49739937Y-115856249D02*
X-50087234Y-117825864D01*
%TO.C,D63*%
X-27671352Y-100403660D02*
X-31512103Y-99726432D01*
X-27671352Y-100403660D02*
X-28018649Y-102373275D01*
X-28018649Y-102373275D02*
X-31859399Y-101696047D01*
%TO.C,D30*%
X226476713Y-84901867D02*
X222635962Y-85579095D01*
X226129416Y-82932252D02*
X222288666Y-83609480D01*
X226129416Y-82932252D02*
X226476713Y-84901867D01*
%TO.C,D56*%
X195224236Y-127069423D02*
X195571533Y-129039038D01*
X195571533Y-129039038D02*
X191730782Y-129716266D01*
X195224236Y-127069423D02*
X191383486Y-127746651D01*
%TO.C,D70*%
X32354849Y-128061684D02*
X28514098Y-127384456D01*
X32354849Y-128061684D02*
X32007552Y-130031299D01*
X32007552Y-130031299D02*
X28166802Y-129354071D01*
%TO.C,D74*%
X107485413Y-140793393D02*
X103644662Y-140116165D01*
X107138116Y-142763008D02*
X103297366Y-142085780D01*
X107485413Y-140793393D02*
X107138116Y-142763008D01*
%TO.C,D38*%
X114101409Y-103272217D02*
X110260658Y-102594989D01*
X114101409Y-103272217D02*
X113754112Y-105241832D01*
X113754112Y-105241832D02*
X109913362Y-104564604D01*
%TO.C,D90*%
X238964448Y-155723332D02*
X239311745Y-157692947D01*
X238964448Y-155723332D02*
X235123698Y-156400560D01*
X239311745Y-157692947D02*
X235470994Y-158370175D01*
%TO.C,D26*%
X117409407Y-84511630D02*
X117062110Y-86481245D01*
X117409407Y-84511630D02*
X113568656Y-83834402D01*
X117062110Y-86481245D02*
X113221360Y-85804017D01*
%TO.C,D85*%
X85813788Y-153994712D02*
X85466491Y-155964327D01*
X85466491Y-155964327D02*
X81625741Y-155287099D01*
X85813788Y-153994712D02*
X81973037Y-153317484D01*
%TO.C,D62*%
X-46779236Y-99065277D02*
X-50619986Y-98388049D01*
X-46431939Y-97095662D02*
X-50272690Y-96418434D01*
X-46431939Y-97095662D02*
X-46779236Y-99065277D01*
%TO.C,D48*%
X-5602766Y-84951070D02*
X-5950063Y-86920685D01*
X-5950063Y-86920685D02*
X-9790813Y-86243457D01*
X-5602766Y-84951070D02*
X-9443517Y-84273842D01*
%TO.C,D3*%
X-18094655Y-46091511D02*
X-21935405Y-45414283D01*
X-17747358Y-44121896D02*
X-21588109Y-43444668D01*
X-17747358Y-44121896D02*
X-18094655Y-46091511D01*
%TO.C,D79*%
X254020078Y-131403476D02*
X254367375Y-133373091D01*
X254367375Y-133373091D02*
X250526624Y-134050319D01*
X254020078Y-131403476D02*
X250179328Y-132080704D01*
%TO.C,D29*%
X207716126Y-88209865D02*
X203875375Y-88887093D01*
X207368829Y-86240250D02*
X203528079Y-86917478D01*
X207368829Y-86240250D02*
X207716126Y-88209865D01*
%TO.C,D21*%
X23518255Y-68471923D02*
X19677504Y-67794695D01*
X23518255Y-68471923D02*
X23170958Y-70441538D01*
X23170958Y-70441538D02*
X19330208Y-69764310D01*
%TO.C,D5*%
X26352900Y-51658723D02*
X22512150Y-50981495D01*
X26700197Y-49689108D02*
X26352900Y-51658723D01*
X26700197Y-49689108D02*
X22859446Y-49011880D01*
%TO.C,D61*%
X-65539824Y-95757279D02*
X-69380574Y-95080051D01*
X-65192527Y-93787664D02*
X-65539824Y-95757279D01*
X-65192527Y-93787664D02*
X-69033278Y-93110436D01*
%TO.C,D12*%
X185300243Y-70787660D02*
X181459493Y-71464888D01*
X185647540Y-72757275D02*
X181806789Y-73434503D01*
X185300243Y-70787660D02*
X185647540Y-72757275D01*
%TO.C,D19*%
X-21055356Y-62882484D02*
X-21402653Y-64852099D01*
X-21055356Y-62882484D02*
X-24896107Y-62205256D01*
X-21402653Y-64852099D02*
X-25243403Y-64174871D01*
%TO.C,D8*%
X83990149Y-54632505D02*
X83642852Y-56602120D01*
X83990149Y-54632505D02*
X80149398Y-53955277D01*
X83642852Y-56602120D02*
X79802102Y-55924892D01*
%TO.C,D47*%
X-24710651Y-83612687D02*
X-28551401Y-82935459D01*
X-24363354Y-81643072D02*
X-28204105Y-80965844D01*
X-24363354Y-81643072D02*
X-24710651Y-83612687D01*
%TO.C,D65*%
X-68500525Y-112548252D02*
X-72341276Y-111871024D01*
X-68847822Y-114517867D02*
X-72688572Y-113840639D01*
X-68500525Y-112548252D02*
X-68847822Y-114517867D01*
%TO.C,D57*%
X213984824Y-123761425D02*
X214332121Y-125731040D01*
X213984824Y-123761425D02*
X210144074Y-124438653D01*
X214332121Y-125731040D02*
X210491370Y-126408268D01*
%TO.C,D94*%
X297951982Y-51439956D02*
X298299279Y-53409571D01*
X298299279Y-53409571D02*
X294458528Y-54086799D01*
X297951982Y-51439956D02*
X294111232Y-52117184D01*
%TO.C,D25*%
X99045779Y-78952361D02*
X98698482Y-80921976D01*
X98698482Y-80921976D02*
X94857732Y-80244748D01*
X99045779Y-78952361D02*
X95205028Y-78275133D01*
%TO.C,D67*%
X-31326647Y-121133862D02*
X-35167397Y-120456634D01*
X-30979350Y-119164247D02*
X-31326647Y-121133862D01*
X-30979350Y-119164247D02*
X-34820101Y-118487019D01*
%TO.C,D33*%
X20210257Y-87232511D02*
X16369506Y-86555283D01*
X19862960Y-89202126D02*
X16022210Y-88524898D01*
X20210257Y-87232511D02*
X19862960Y-89202126D01*
%TO.C,D100*%
X308347359Y-109669454D02*
X304506608Y-110346682D01*
X308000062Y-107699839D02*
X308347359Y-109669454D01*
X308000062Y-107699839D02*
X304159312Y-108377067D01*
%TO.C,D59*%
X250712080Y-112642889D02*
X251059377Y-114612504D01*
X251059377Y-114612504D02*
X247218626Y-115289732D01*
X250712080Y-112642889D02*
X246871330Y-113320117D01*
%TO.C,D84*%
X67450160Y-148435444D02*
X67102863Y-150405059D01*
X67102863Y-150405059D02*
X63262113Y-149727831D01*
X67450160Y-148435444D02*
X63609409Y-147758216D01*
%TO.C,D7*%
X64832601Y-53575778D02*
X60991850Y-52898550D01*
X64832601Y-53575778D02*
X64485304Y-55545393D01*
X64485304Y-55545393D02*
X60644554Y-54868165D01*
%TO.C,D9*%
X102353777Y-60191774D02*
X102006480Y-62161389D01*
X102006480Y-62161389D02*
X98165730Y-61484161D01*
X102353777Y-60191774D02*
X98513026Y-59514546D01*
%TO.C,D91*%
X257675373Y-152133679D02*
X253834622Y-152810907D01*
X257328076Y-150164064D02*
X257675373Y-152133679D01*
X257328076Y-150164064D02*
X253487326Y-150841292D01*
%TO.C,D92*%
X276088663Y-146856066D02*
X276435960Y-148825681D01*
X276435960Y-148825681D02*
X272595209Y-149502909D01*
X276088663Y-146856066D02*
X272247913Y-147533294D01*
%TO.C,D68*%
X-12218762Y-122472245D02*
X-16059513Y-121795017D01*
X-12566059Y-124441860D02*
X-16406809Y-123764632D01*
X-12218762Y-122472245D02*
X-12566059Y-124441860D01*
%TO.C,D43*%
X247404082Y-93882301D02*
X243563332Y-94559529D01*
X247404082Y-93882301D02*
X247751379Y-95851916D01*
X247751379Y-95851916D02*
X243910628Y-96529144D01*
%TO.C,D49*%
X16902259Y-105993098D02*
X13061508Y-105315870D01*
X16902259Y-105993098D02*
X16554962Y-107962713D01*
X16554962Y-107962713D02*
X12714212Y-107285485D01*
%TO.C,D72*%
X70758158Y-129674856D02*
X66917407Y-128997628D01*
X70758158Y-129674856D02*
X70410861Y-131644471D01*
X70410861Y-131644471D02*
X66570111Y-130967243D01*
%TO.C,D78*%
X235656450Y-136962745D02*
X231815700Y-137639973D01*
X236003747Y-138932360D02*
X232162996Y-139609588D01*
X235656450Y-136962745D02*
X236003747Y-138932360D01*
%TO.C,D24*%
X80682151Y-73393093D02*
X80334854Y-75362708D01*
X80682151Y-73393093D02*
X76841400Y-72715865D01*
X80334854Y-75362708D02*
X76494104Y-74685480D01*
%TO.C,D75*%
X126246001Y-144101390D02*
X122405250Y-143424162D01*
X125898704Y-146071005D02*
X122057954Y-145393777D01*
X126246001Y-144101390D02*
X125898704Y-146071005D01*
%TO.C,D40*%
X192263536Y-110278450D02*
X188422785Y-110955678D01*
X191916239Y-108308835D02*
X188075489Y-108986063D01*
X191916239Y-108308835D02*
X192263536Y-110278450D01*
%TO.C,D1*%
X-55268534Y-37505901D02*
X-55615831Y-39475516D01*
X-55268534Y-37505901D02*
X-59109285Y-36828673D01*
X-55615831Y-39475516D02*
X-59456581Y-38798288D01*
%TO.C,D36*%
X77374153Y-92153681D02*
X73533402Y-91476453D01*
X77026856Y-94123296D02*
X73186106Y-93446068D01*
X77374153Y-92153681D02*
X77026856Y-94123296D01*
%TO.C,D17*%
X-58576532Y-56266489D02*
X-58923829Y-58236104D01*
X-58576532Y-56266489D02*
X-62417283Y-55589261D01*
X-58923829Y-58236104D02*
X-62764579Y-57558876D01*
%TO.C,D96*%
X301259980Y-70200543D02*
X301607277Y-72170158D01*
X301259980Y-70200543D02*
X297419230Y-70877771D01*
X301607277Y-72170158D02*
X297766526Y-72847386D01*
%TO.C,D86*%
X109395811Y-162350583D02*
X105861210Y-160702372D01*
X109395811Y-162350583D02*
X108550574Y-164163199D01*
X108550574Y-164163199D02*
X105015974Y-162514988D01*
%TO.C,D95*%
X282014220Y-70756988D02*
X282361517Y-72726603D01*
X282361517Y-72726603D02*
X278520766Y-73403831D01*
X282014220Y-70756988D02*
X278173470Y-71434216D01*
%TO.C,D22*%
X41931546Y-73749536D02*
X38090796Y-73072308D01*
X42278843Y-71779921D02*
X41931546Y-73749536D01*
X42278843Y-71779921D02*
X38438092Y-71102693D01*
%TO.C,D41*%
X210676826Y-105000838D02*
X206836076Y-105678066D01*
X211024123Y-106970453D02*
X207183372Y-107647681D01*
X210676826Y-105000838D02*
X211024123Y-106970453D01*
%TO.C,D20*%
X-2642065Y-68160097D02*
X-6482815Y-67482869D01*
X-2294768Y-66190482D02*
X-2642065Y-68160097D01*
X-2294768Y-66190482D02*
X-6135519Y-65513254D01*
%TO.C,D104*%
X314491971Y-145242894D02*
X310651221Y-145920122D01*
X314839268Y-147212509D02*
X310998517Y-147889737D01*
X314491971Y-145242894D02*
X314839268Y-147212509D01*
%TO.C,D71*%
X51253313Y-130587744D02*
X47412563Y-129910516D01*
X51600610Y-128618129D02*
X51253313Y-130587744D01*
X51600610Y-128618129D02*
X47759859Y-127940901D01*
%TO.C,D2*%
X-36507946Y-40813899D02*
X-36855243Y-42783514D01*
X-36855243Y-42783514D02*
X-40695993Y-42106286D01*
X-36507946Y-40813899D02*
X-40348697Y-40136671D01*
%TO.C,D14*%
X222771756Y-63890009D02*
X218931005Y-64567237D01*
X222424459Y-61920394D02*
X222771756Y-63890009D01*
X222424459Y-61920394D02*
X218583709Y-62597622D01*
%TO.C,D28*%
X188955538Y-91517863D02*
X185114787Y-92195091D01*
X188608241Y-89548248D02*
X188955538Y-91517863D01*
X188608241Y-89548248D02*
X184767491Y-90225476D01*
%TO.C,D15*%
X240788087Y-56361126D02*
X236947337Y-57038354D01*
X241135384Y-58330741D02*
X237294633Y-59007969D01*
X240788087Y-56361126D02*
X241135384Y-58330741D01*
%TO.C,D23*%
X61524603Y-72336366D02*
X57683852Y-71659138D01*
X61177306Y-74305981D02*
X57336556Y-73628753D01*
X61524603Y-72336366D02*
X61177306Y-74305981D01*
%TD*%
M02*
