%TF.GenerationSoftware,KiCad,Pcbnew,(6.0.4)*%
%TF.CreationDate,2022-12-22T15:18:18-05:00*%
%TF.ProjectId,atreuskeypad,61747265-7573-46b6-9579-7061642e6b69,rev?*%
%TF.SameCoordinates,Original*%
%TF.FileFunction,Copper,L2,Bot*%
%TF.FilePolarity,Positive*%
%FSLAX46Y46*%
G04 Gerber Fmt 4.6, Leading zero omitted, Abs format (unit mm)*
G04 Created by KiCad (PCBNEW (6.0.4)) date 2022-12-22 15:18:18*
%MOMM*%
%LPD*%
G01*
G04 APERTURE LIST*
G04 Aperture macros list*
%AMHorizOval*
0 Thick line with rounded ends*
0 $1 width*
0 $2 $3 position (X,Y) of the first rounded end (center of the circle)*
0 $4 $5 position (X,Y) of the second rounded end (center of the circle)*
0 Add line between two ends*
20,1,$1,$2,$3,$4,$5,0*
0 Add two circle primitives to create the rounded ends*
1,1,$1,$2,$3*
1,1,$1,$4,$5*%
%AMRotRect*
0 Rectangle, with rotation*
0 The origin of the aperture is its center*
0 $1 length*
0 $2 width*
0 $3 Rotation angle, in degrees counterclockwise*
0 Add horizontal line*
21,1,$1,$2,0,0,$3*%
G04 Aperture macros list end*
%TA.AperFunction,ComponentPad*%
%ADD10C,2.600000*%
%TD*%
%TA.AperFunction,ConnectorPad*%
%ADD11C,3.800000*%
%TD*%
%TA.AperFunction,ComponentPad*%
%ADD12HorizOval,2.000000X0.246202X0.043412X-0.246202X-0.043412X0*%
%TD*%
%TA.AperFunction,ComponentPad*%
%ADD13HorizOval,2.000000X0.226577X0.105655X-0.226577X-0.105655X0*%
%TD*%
%TA.AperFunction,ComponentPad*%
%ADD14HorizOval,2.000000X0.226577X-0.105655X-0.226577X0.105655X0*%
%TD*%
%TA.AperFunction,ComponentPad*%
%ADD15HorizOval,2.000000X0.246202X-0.043412X-0.246202X0.043412X0*%
%TD*%
%TA.AperFunction,SMDPad,CuDef*%
%ADD16RotRect,0.900000X1.200000X190.000000*%
%TD*%
%TA.AperFunction,SMDPad,CuDef*%
%ADD17RotRect,0.900000X1.200000X170.000000*%
%TD*%
%TA.AperFunction,SMDPad,CuDef*%
%ADD18RotRect,0.900000X1.200000X205.000000*%
%TD*%
%TA.AperFunction,SMDPad,CuDef*%
%ADD19RotRect,0.900000X1.200000X155.000000*%
%TD*%
%TA.AperFunction,ViaPad*%
%ADD20C,0.800000*%
%TD*%
%TA.AperFunction,Conductor*%
%ADD21C,0.250000*%
%TD*%
G04 APERTURE END LIST*
D10*
%TO.P,MNT,1*%
%TO.N,N/C*%
X-41910000Y-44196000D03*
D11*
X-41910000Y-44196000D03*
%TD*%
D10*
%TO.P,MNT,1*%
%TO.N,N/C*%
X-48514000Y-82042000D03*
D11*
X-48514000Y-82042000D03*
%TD*%
D10*
%TO.P,MNT,1*%
%TO.N,N/C*%
X30226000Y-113284000D03*
D11*
X30226000Y-113284000D03*
%TD*%
D10*
%TO.P,MNT,1*%
%TO.N,N/C*%
X40132000Y-56896000D03*
D11*
X40132000Y-56896000D03*
%TD*%
D10*
%TO.P,MNT,1*%
%TO.N,N/C*%
X307340000Y-131572000D03*
D11*
X307340000Y-131572000D03*
%TD*%
D10*
%TO.P,MNT,1*%
%TO.N,N/C*%
X294132000Y-56642000D03*
D11*
X294132000Y-56642000D03*
%TD*%
D10*
%TO.P,MNT,1*%
%TO.N,N/C*%
X202184000Y-150876000D03*
D11*
X202184000Y-150876000D03*
%TD*%
D10*
%TO.P,MNT,1*%
%TO.N,N/C*%
X132334000Y-151130000D03*
D11*
X132334000Y-151130000D03*
%TD*%
D10*
%TO.P,MNT,1*%
%TO.N,N/C*%
X153670000Y-87630000D03*
D11*
X153670000Y-87630000D03*
%TD*%
%TO.P,MNT,1*%
%TO.N,N/C*%
X180848000Y-87376000D03*
D10*
X180848000Y-87376000D03*
%TD*%
D12*
%TO.P,SW104,2,2*%
%TO.N,COL8*%
X319617515Y-131684876D03*
%TO.P,SW104,1,1*%
%TO.N,Net-(D104-Pad2)*%
X313805052Y-135288954D03*
%TD*%
%TO.P,SW103,2,2*%
%TO.N,COL8*%
X300856927Y-134992874D03*
%TO.P,SW103,1,1*%
%TO.N,Net-(D103-Pad1)*%
X295044464Y-138596952D03*
%TD*%
%TO.P,SW102,2,2*%
%TO.N,COL8*%
X316309517Y-112924288D03*
%TO.P,SW102,1,1*%
%TO.N,Net-(D102-Pad2)*%
X310497054Y-116528366D03*
%TD*%
%TO.P,SW101,2,2*%
%TO.N,COL8*%
X297548930Y-116232286D03*
%TO.P,SW101,1,1*%
%TO.N,Net-(D101-Pad1)*%
X291736467Y-119836364D03*
%TD*%
%TO.P,SW100,2,2*%
%TO.N,COL8*%
X313001520Y-94163700D03*
%TO.P,SW100,1,1*%
%TO.N,Net-(D100-Pad2)*%
X307189057Y-97767778D03*
%TD*%
%TO.P,SW99,2,2*%
%TO.N,COL8*%
X294240932Y-97471698D03*
%TO.P,SW99,1,1*%
%TO.N,Net-(D99-Pad1)*%
X288428469Y-101075776D03*
%TD*%
%TO.P,SW98,2,2*%
%TO.N,COL8*%
X309693522Y-75403113D03*
%TO.P,SW98,1,1*%
%TO.N,Net-(D98-Pad2)*%
X303881059Y-79007191D03*
%TD*%
%TO.P,SW97,2,2*%
%TO.N,COL8*%
X290932934Y-78711110D03*
%TO.P,SW97,1,1*%
%TO.N,Net-(D97-Pad1)*%
X285120471Y-82315188D03*
%TD*%
%TO.P,SW96,2,2*%
%TO.N,COL8*%
X306385524Y-56642525D03*
%TO.P,SW96,1,1*%
%TO.N,Net-(D96-Pad2)*%
X300573061Y-60246603D03*
%TD*%
%TO.P,SW95,2,2*%
%TO.N,COL8*%
X287624936Y-59950523D03*
%TO.P,SW95,1,1*%
%TO.N,Net-(D95-Pad1)*%
X281812473Y-63554601D03*
%TD*%
%TO.P,SW94,2,2*%
%TO.N,COL8*%
X303077526Y-37881937D03*
%TO.P,SW94,1,1*%
%TO.N,Net-(D94-Pad2)*%
X297265063Y-41486015D03*
%TD*%
%TO.P,SW93,2,2*%
%TO.N,COL8*%
X284316939Y-41189935D03*
%TO.P,SW93,1,1*%
%TO.N,Net-(D93-Pad1)*%
X278504476Y-44794013D03*
%TD*%
%TO.P,SW92,2,2*%
%TO.N,COL7*%
X281611167Y-135549318D03*
%TO.P,SW92,1,1*%
%TO.N,Net-(D92-Pad2)*%
X275798704Y-139153396D03*
%TD*%
%TO.P,SW91,2,2*%
%TO.N,COL7*%
X262453619Y-136606046D03*
%TO.P,SW91,1,1*%
%TO.N,Net-(D91-Pad1)*%
X256641156Y-140210124D03*
%TD*%
%TO.P,SW90,2,2*%
%TO.N,COL6*%
X244089991Y-142165314D03*
%TO.P,SW90,1,1*%
%TO.N,Net-(D90-Pad2)*%
X238277528Y-145769392D03*
%TD*%
D13*
%TO.P,SW89,2,2*%
%TO.N,COL6*%
X218040745Y-152425174D03*
%TO.P,SW89,1,1*%
%TO.N,Net-(D89-Pad1)*%
X213359141Y-157410822D03*
%TD*%
D14*
%TO.P,SW86,2,2*%
%TO.N,COL4*%
X121082804Y-154334776D03*
%TO.P,SW86,1,1*%
%TO.N,Net-(D86-Pad2)*%
X114254299Y-153953172D03*
%TD*%
D13*
%TO.P,SW88,2,2*%
%TO.N,COL5*%
X196465706Y-162451067D03*
%TO.P,SW88,1,1*%
%TO.N,Net-(D88-Pad2)*%
X191784102Y-167436715D03*
%TD*%
D14*
%TO.P,SW87,2,2*%
%TO.N,COL5*%
X142787091Y-164351868D03*
%TO.P,SW87,1,1*%
%TO.N,Net-(D87-Pad1)*%
X135958586Y-163970264D03*
%TD*%
D15*
%TO.P,SW85,2,2*%
%TO.N,COL4*%
X94870378Y-145258652D03*
%TO.P,SW85,1,1*%
%TO.N,Net-(D85-Pad1)*%
X88175783Y-146657398D03*
%TD*%
%TO.P,SW84,2,2*%
%TO.N,COL3*%
X76903709Y-137448113D03*
%TO.P,SW84,1,1*%
%TO.N,Net-(D84-Pad2)*%
X70209114Y-138846859D03*
%TD*%
%TO.P,SW83,2,2*%
%TO.N,COL3*%
X57746162Y-136391386D03*
%TO.P,SW83,1,1*%
%TO.N,Net-(D83-Pad1)*%
X51051567Y-137790132D03*
%TD*%
%TO.P,SW82,2,2*%
%TO.N,COL2*%
X38500401Y-135834941D03*
%TO.P,SW82,1,1*%
%TO.N,Net-(D82-Pad2)*%
X31805806Y-137233687D03*
%TD*%
%TO.P,SW81,2,2*%
%TO.N,COL2*%
X19739814Y-132526943D03*
%TO.P,SW81,1,1*%
%TO.N,Net-(D81-Pad1)*%
X13045219Y-133925689D03*
%TD*%
D12*
%TO.P,SW80,2,2*%
%TO.N,COL7*%
X278303169Y-116788731D03*
%TO.P,SW80,1,1*%
%TO.N,Net-(D80-Pad2)*%
X272490706Y-120392809D03*
%TD*%
%TO.P,SW79,2,2*%
%TO.N,COL7*%
X259145622Y-117845458D03*
%TO.P,SW79,1,1*%
%TO.N,Net-(D79-Pad1)*%
X253333159Y-121449536D03*
%TD*%
%TO.P,SW78,2,2*%
%TO.N,COL6*%
X240781994Y-123404726D03*
%TO.P,SW78,1,1*%
%TO.N,Net-(D78-Pad2)*%
X234969531Y-127008804D03*
%TD*%
%TO.P,SW77,2,2*%
%TO.N,COL6*%
X222418366Y-128963995D03*
%TO.P,SW77,1,1*%
%TO.N,Net-(D77-Pad1)*%
X216605903Y-132568073D03*
%TD*%
%TO.P,SW76,2,2*%
%TO.N,COL5*%
X203657778Y-132271992D03*
%TO.P,SW76,1,1*%
%TO.N,Net-(D76-Pad2)*%
X197845315Y-135876070D03*
%TD*%
D15*
%TO.P,SW75,2,2*%
%TO.N,COL5*%
X135699551Y-133114060D03*
%TO.P,SW75,1,1*%
%TO.N,Net-(D75-Pad1)*%
X129004956Y-134512806D03*
%TD*%
%TO.P,SW74,2,2*%
%TO.N,COL4*%
X116938963Y-129806062D03*
%TO.P,SW74,1,1*%
%TO.N,Net-(D74-Pad2)*%
X110244368Y-131204808D03*
%TD*%
%TO.P,SW73,2,2*%
%TO.N,COL4*%
X98575335Y-124246794D03*
%TO.P,SW73,1,1*%
%TO.N,Net-(D73-Pad1)*%
X91880740Y-125645540D03*
%TD*%
%TO.P,SW72,2,2*%
%TO.N,COL3*%
X80211707Y-118687525D03*
%TO.P,SW72,1,1*%
%TO.N,Net-(D72-Pad2)*%
X73517112Y-120086271D03*
%TD*%
%TO.P,SW71,2,2*%
%TO.N,COL3*%
X61054160Y-117630798D03*
%TO.P,SW71,1,1*%
%TO.N,Net-(D71-Pad1)*%
X54359565Y-119029544D03*
%TD*%
%TO.P,SW70,2,2*%
%TO.N,COL2*%
X41808399Y-117074353D03*
%TO.P,SW70,1,1*%
%TO.N,Net-(D70-Pad2)*%
X35113804Y-118473099D03*
%TD*%
%TO.P,SW69,2,2*%
%TO.N,COL2*%
X23047811Y-113766355D03*
%TO.P,SW69,1,1*%
%TO.N,Net-(D69-Pad1)*%
X16353216Y-115165101D03*
%TD*%
%TO.P,SW68,2,2*%
%TO.N,COL1*%
X-2765212Y-111484914D03*
%TO.P,SW68,1,1*%
%TO.N,Net-(D68-Pad2)*%
X-9459807Y-112883660D03*
%TD*%
%TO.P,SW67,2,2*%
%TO.N,COL1*%
X-21525800Y-108176917D03*
%TO.P,SW67,1,1*%
%TO.N,Net-(D67-Pad1)*%
X-28220395Y-109575663D03*
%TD*%
%TO.P,SW66,2,2*%
%TO.N,COL0*%
X-40286387Y-104868919D03*
%TO.P,SW66,1,1*%
%TO.N,Net-(D66-Pad2)*%
X-46980982Y-106267665D03*
%TD*%
%TO.P,SW65,2,2*%
%TO.N,COL0*%
X-59046975Y-101560921D03*
%TO.P,SW65,1,1*%
%TO.N,Net-(D65-Pad1)*%
X-65741570Y-102959667D03*
%TD*%
%TO.P,SW64,2,2*%
%TO.N,COL1*%
X542786Y-92724327D03*
%TO.P,SW64,1,1*%
%TO.N,Net-(D64-Pad2)*%
X-6151809Y-94123073D03*
%TD*%
%TO.P,SW63,2,2*%
%TO.N,COL1*%
X-18217802Y-89416329D03*
%TO.P,SW63,1,1*%
%TO.N,Net-(D63-Pad1)*%
X-24912397Y-90815075D03*
%TD*%
%TO.P,SW62,2,2*%
%TO.N,COL0*%
X-36978390Y-86108331D03*
%TO.P,SW62,1,1*%
%TO.N,Net-(D62-Pad2)*%
X-43672985Y-87507077D03*
%TD*%
%TO.P,SW61,2,2*%
%TO.N,COL0*%
X-55738977Y-82800333D03*
%TO.P,SW61,1,1*%
%TO.N,Net-(D61-Pad1)*%
X-62433572Y-84199079D03*
%TD*%
D12*
%TO.P,SW60,2,2*%
%TO.N,COL7*%
X274995171Y-98028143D03*
%TO.P,SW60,1,1*%
%TO.N,Net-(D60-Pad2)*%
X269182708Y-101632221D03*
%TD*%
%TO.P,SW59,2,2*%
%TO.N,COL7*%
X255837624Y-99084870D03*
%TO.P,SW59,1,1*%
%TO.N,Net-(D59-Pad1)*%
X250025161Y-102688948D03*
%TD*%
%TO.P,SW58,2,2*%
%TO.N,COL6*%
X237473996Y-104644139D03*
%TO.P,SW58,1,1*%
%TO.N,Net-(D58-Pad2)*%
X231661533Y-108248217D03*
%TD*%
%TO.P,SW57,2,2*%
%TO.N,COL6*%
X219110368Y-110203407D03*
%TO.P,SW57,1,1*%
%TO.N,Net-(D57-Pad1)*%
X213297905Y-113807485D03*
%TD*%
%TO.P,SW56,2,2*%
%TO.N,COL5*%
X200349780Y-113511405D03*
%TO.P,SW56,1,1*%
%TO.N,Net-(D56-Pad2)*%
X194537317Y-117115483D03*
%TD*%
D15*
%TO.P,SW55,2,2*%
%TO.N,COL5*%
X139007549Y-114353472D03*
%TO.P,SW55,1,1*%
%TO.N,Net-(D55-Pad1)*%
X132312954Y-115752218D03*
%TD*%
%TO.P,SW54,2,2*%
%TO.N,COL4*%
X120246961Y-111045474D03*
%TO.P,SW54,1,1*%
%TO.N,Net-(D54-Pad2)*%
X113552366Y-112444220D03*
%TD*%
%TO.P,SW53,2,2*%
%TO.N,COL4*%
X101883333Y-105486206D03*
%TO.P,SW53,1,1*%
%TO.N,Net-(D53-Pad1)*%
X95188738Y-106884952D03*
%TD*%
%TO.P,SW52,2,2*%
%TO.N,COL3*%
X83519705Y-99926938D03*
%TO.P,SW52,1,1*%
%TO.N,Net-(D52-Pad2)*%
X76825110Y-101325684D03*
%TD*%
%TO.P,SW51,2,2*%
%TO.N,COL3*%
X64362158Y-98870210D03*
%TO.P,SW51,1,1*%
%TO.N,Net-(D51-Pad1)*%
X57667563Y-100268956D03*
%TD*%
%TO.P,SW50,2,2*%
%TO.N,COL2*%
X45116397Y-98313765D03*
%TO.P,SW50,1,1*%
%TO.N,Net-(D50-Pad2)*%
X38421802Y-99712511D03*
%TD*%
%TO.P,SW49,2,2*%
%TO.N,COL2*%
X26355809Y-95005768D03*
%TO.P,SW49,1,1*%
%TO.N,Net-(D49-Pad1)*%
X19661214Y-96404514D03*
%TD*%
%TO.P,SW48,2,2*%
%TO.N,COL1*%
X3850783Y-73963739D03*
%TO.P,SW48,1,1*%
%TO.N,Net-(D48-Pad2)*%
X-2843812Y-75362485D03*
%TD*%
%TO.P,SW47,2,2*%
%TO.N,COL1*%
X-14909804Y-70655741D03*
%TO.P,SW47,1,1*%
%TO.N,Net-(D47-Pad1)*%
X-21604399Y-72054487D03*
%TD*%
%TO.P,SW46,2,2*%
%TO.N,COL0*%
X-33670392Y-67347743D03*
%TO.P,SW46,1,1*%
%TO.N,Net-(D46-Pad2)*%
X-40364987Y-68746489D03*
%TD*%
%TO.P,SW45,2,2*%
%TO.N,COL0*%
X-52430980Y-64039746D03*
%TO.P,SW45,1,1*%
%TO.N,Net-(D45-Pad1)*%
X-59125575Y-65438492D03*
%TD*%
D12*
%TO.P,SW44,2,2*%
%TO.N,COL7*%
X271687173Y-79267555D03*
%TO.P,SW44,1,1*%
%TO.N,Net-(D44-Pad2)*%
X265874710Y-82871633D03*
%TD*%
%TO.P,SW43,2,2*%
%TO.N,COL7*%
X252529626Y-80324283D03*
%TO.P,SW43,1,1*%
%TO.N,Net-(D43-Pad1)*%
X246717163Y-83928361D03*
%TD*%
%TO.P,SW42,2,2*%
%TO.N,COL6*%
X234165998Y-85883551D03*
%TO.P,SW42,1,1*%
%TO.N,Net-(D42-Pad2)*%
X228353535Y-89487629D03*
%TD*%
%TO.P,SW41,2,2*%
%TO.N,COL6*%
X215802370Y-91442819D03*
%TO.P,SW41,1,1*%
%TO.N,Net-(D41-Pad1)*%
X209989907Y-95046897D03*
%TD*%
%TO.P,SW40,2,2*%
%TO.N,COL5*%
X197041782Y-94750817D03*
%TO.P,SW40,1,1*%
%TO.N,Net-(D40-Pad2)*%
X191229319Y-98354895D03*
%TD*%
D15*
%TO.P,SW39,2,2*%
%TO.N,COL5*%
X142315546Y-95592884D03*
%TO.P,SW39,1,1*%
%TO.N,Net-(D39-Pad1)*%
X135620951Y-96991630D03*
%TD*%
%TO.P,SW38,2,2*%
%TO.N,COL4*%
X123554959Y-92284887D03*
%TO.P,SW38,1,1*%
%TO.N,Net-(D38-Pad2)*%
X116860364Y-93683633D03*
%TD*%
%TO.P,SW37,2,2*%
%TO.N,COL4*%
X105191331Y-86725618D03*
%TO.P,SW37,1,1*%
%TO.N,Net-(D37-Pad1)*%
X98496736Y-88124364D03*
%TD*%
%TO.P,SW36,2,2*%
%TO.N,COL3*%
X86827703Y-81166350D03*
%TO.P,SW36,1,1*%
%TO.N,Net-(D36-Pad2)*%
X80133108Y-82565096D03*
%TD*%
%TO.P,SW35,2,2*%
%TO.N,COL3*%
X67670155Y-80109623D03*
%TO.P,SW35,1,1*%
%TO.N,Net-(D35-Pad1)*%
X60975560Y-81508369D03*
%TD*%
%TO.P,SW34,2,2*%
%TO.N,COL2*%
X48424395Y-79553178D03*
%TO.P,SW34,1,1*%
%TO.N,Net-(D34-Pad2)*%
X41729800Y-80951924D03*
%TD*%
%TO.P,SW33,2,2*%
%TO.N,COL2*%
X29663807Y-76245180D03*
%TO.P,SW33,1,1*%
%TO.N,Net-(D33-Pad1)*%
X22969212Y-77643926D03*
%TD*%
D12*
%TO.P,SW32,2,2*%
%TO.N,COL7*%
X268379176Y-60506968D03*
%TO.P,SW32,1,1*%
%TO.N,Net-(D32-Pad2)*%
X262566713Y-64111046D03*
%TD*%
%TO.P,SW31,2,2*%
%TO.N,COL7*%
X249221628Y-61563695D03*
%TO.P,SW31,1,1*%
%TO.N,Net-(D31-Pad1)*%
X243409165Y-65167773D03*
%TD*%
%TO.P,SW30,2,2*%
%TO.N,COL6*%
X230858000Y-67122963D03*
%TO.P,SW30,1,1*%
%TO.N,Net-(D30-Pad2)*%
X225045537Y-70727041D03*
%TD*%
%TO.P,SW29,2,2*%
%TO.N,COL6*%
X212494372Y-72682232D03*
%TO.P,SW29,1,1*%
%TO.N,Net-(D29-Pad1)*%
X206681909Y-76286310D03*
%TD*%
%TO.P,SW28,2,2*%
%TO.N,COL5*%
X193733785Y-75990229D03*
%TO.P,SW28,1,1*%
%TO.N,Net-(D28-Pad2)*%
X187921322Y-79594307D03*
%TD*%
D15*
%TO.P,SW27,2,2*%
%TO.N,COL5*%
X145623544Y-76832297D03*
%TO.P,SW27,1,1*%
%TO.N,Net-(D27-Pad1)*%
X138928949Y-78231043D03*
%TD*%
%TO.P,SW26,2,2*%
%TO.N,COL4*%
X126862957Y-73524299D03*
%TO.P,SW26,1,1*%
%TO.N,Net-(D26-Pad2)*%
X120168362Y-74923045D03*
%TD*%
%TO.P,SW25,2,2*%
%TO.N,COL4*%
X108499329Y-67965031D03*
%TO.P,SW25,1,1*%
%TO.N,Net-(D25-Pad1)*%
X101804734Y-69363777D03*
%TD*%
%TO.P,SW24,2,2*%
%TO.N,COL3*%
X90135701Y-62405762D03*
%TO.P,SW24,1,1*%
%TO.N,Net-(D24-Pad2)*%
X83441106Y-63804508D03*
%TD*%
%TO.P,SW23,2,2*%
%TO.N,COL3*%
X70978153Y-61349035D03*
%TO.P,SW23,1,1*%
%TO.N,Net-(D23-Pad1)*%
X64283558Y-62747781D03*
%TD*%
%TO.P,SW22,2,2*%
%TO.N,COL2*%
X51732393Y-60792590D03*
%TO.P,SW22,1,1*%
%TO.N,Net-(D22-Pad2)*%
X45037798Y-62191336D03*
%TD*%
%TO.P,SW21,2,2*%
%TO.N,COL2*%
X32971805Y-57484592D03*
%TO.P,SW21,1,1*%
%TO.N,Net-(D21-Pad1)*%
X26277210Y-58883338D03*
%TD*%
%TO.P,SW20,2,2*%
%TO.N,COL1*%
X7158781Y-55203151D03*
%TO.P,SW20,1,1*%
%TO.N,Net-(D20-Pad2)*%
X464186Y-56601897D03*
%TD*%
%TO.P,SW19,2,2*%
%TO.N,COL1*%
X-11601806Y-51895153D03*
%TO.P,SW19,1,1*%
%TO.N,Net-(D19-Pad1)*%
X-18296401Y-53293899D03*
%TD*%
%TO.P,SW18,2,2*%
%TO.N,COL0*%
X-30362394Y-48587156D03*
%TO.P,SW18,1,1*%
%TO.N,Net-(D18-Pad2)*%
X-37056989Y-49985902D03*
%TD*%
%TO.P,SW17,2,2*%
%TO.N,COL0*%
X-49122982Y-45279158D03*
%TO.P,SW17,1,1*%
%TO.N,Net-(D17-Pad1)*%
X-55817577Y-46677904D03*
%TD*%
D12*
%TO.P,SW16,2,2*%
%TO.N,COL7*%
X265071178Y-41746380D03*
%TO.P,SW16,1,1*%
%TO.N,Net-(D16-Pad2)*%
X259258715Y-45350458D03*
%TD*%
%TO.P,SW15,2,2*%
%TO.N,COL7*%
X245913630Y-42803107D03*
%TO.P,SW15,1,1*%
%TO.N,Net-(D15-Pad1)*%
X240101167Y-46407185D03*
%TD*%
%TO.P,SW14,2,2*%
%TO.N,COL6*%
X227550002Y-48362376D03*
%TO.P,SW14,1,1*%
%TO.N,Net-(D14-Pad2)*%
X221737539Y-51966454D03*
%TD*%
%TO.P,SW13,2,2*%
%TO.N,COL6*%
X209186374Y-53921644D03*
%TO.P,SW13,1,1*%
%TO.N,Net-(D13-Pad1)*%
X203373911Y-57525722D03*
%TD*%
%TO.P,SW12,2,2*%
%TO.N,COL5*%
X190425787Y-57229642D03*
%TO.P,SW12,1,1*%
%TO.N,Net-(D12-Pad2)*%
X184613324Y-60833720D03*
%TD*%
D15*
%TO.P,SW11,2,2*%
%TO.N,COL5*%
X148931542Y-58071709D03*
%TO.P,SW11,1,1*%
%TO.N,Net-(D11-Pad1)*%
X142236947Y-59470455D03*
%TD*%
%TO.P,SW10,2,2*%
%TO.N,COL4*%
X130170954Y-54763711D03*
%TO.P,SW10,1,1*%
%TO.N,Net-(D10-Pad2)*%
X123476359Y-56162457D03*
%TD*%
%TO.P,SW9,2,2*%
%TO.N,COL4*%
X111807326Y-49204443D03*
%TO.P,SW9,1,1*%
%TO.N,Net-(D9-Pad1)*%
X105112731Y-50603189D03*
%TD*%
%TO.P,SW8,2,2*%
%TO.N,COL3*%
X93443698Y-43645175D03*
%TO.P,SW8,1,1*%
%TO.N,Net-(D8-Pad2)*%
X86749103Y-45043921D03*
%TD*%
%TO.P,SW7,2,2*%
%TO.N,COL3*%
X74286151Y-42588447D03*
%TO.P,SW7,1,1*%
%TO.N,Net-(D7-Pad1)*%
X67591556Y-43987193D03*
%TD*%
%TO.P,SW6,2,2*%
%TO.N,COL2*%
X55040390Y-42032002D03*
%TO.P,SW6,1,1*%
%TO.N,Net-(D6-Pad2)*%
X48345795Y-43430748D03*
%TD*%
%TO.P,SW5,2,2*%
%TO.N,COL2*%
X36279803Y-38724005D03*
%TO.P,SW5,1,1*%
%TO.N,Net-(D5-Pad1)*%
X29585208Y-40122751D03*
%TD*%
%TO.P,SW4,2,2*%
%TO.N,COL1*%
X10466779Y-36442564D03*
%TO.P,SW4,1,1*%
%TO.N,Net-(D4-Pad2)*%
X3772184Y-37841310D03*
%TD*%
%TO.P,SW3,2,2*%
%TO.N,COL1*%
X-8293809Y-33134566D03*
%TO.P,SW3,1,1*%
%TO.N,Net-(D3-Pad1)*%
X-14988404Y-34533312D03*
%TD*%
%TO.P,SW2,2,2*%
%TO.N,COL0*%
X-27054396Y-29826568D03*
%TO.P,SW2,1,1*%
%TO.N,Net-(D2-Pad2)*%
X-33748991Y-31225314D03*
%TD*%
%TO.P,SW1,2,2*%
%TO.N,COL0*%
X-45814984Y-26518570D03*
%TO.P,SW1,1,1*%
%TO.N,Net-(D1-Pad1)*%
X-52509579Y-27917316D03*
%TD*%
D16*
%TO.P,D58,1,A*%
%TO.N,ROW3*%
X231931216Y-119291154D03*
%TO.P,D58,2,K*%
%TO.N,Net-(D58-Pad2)*%
X228681350Y-119864192D03*
%TD*%
%TO.P,D80,1,A*%
%TO.N,ROW4*%
X272363429Y-129184476D03*
%TO.P,D80,2,K*%
%TO.N,Net-(D80-Pad2)*%
X269113563Y-129757514D03*
%TD*%
D17*
%TO.P,D39,1,A*%
%TO.N,Net-(D39-Pad1)*%
X132097464Y-107460833D03*
%TO.P,D39,2,K*%
%TO.N,ROW2*%
X128847598Y-106887795D03*
%TD*%
%TO.P,D55,1,A*%
%TO.N,Net-(D55-Pad1)*%
X128789466Y-126221421D03*
%TO.P,D55,2,K*%
%TO.N,ROW3*%
X125539600Y-125648383D03*
%TD*%
D18*
%TO.P,D88,1,A*%
%TO.N,ROW5*%
X194902719Y-178033574D03*
%TO.P,D88,2,K*%
%TO.N,Net-(D88-Pad2)*%
X191911903Y-179428214D03*
%TD*%
D17*
%TO.P,D6,1,A*%
%TO.N,ROW0*%
X44822308Y-53899951D03*
%TO.P,D6,2,K*%
%TO.N,Net-(D6-Pad2)*%
X41572442Y-53326913D03*
%TD*%
D16*
%TO.P,D44,1,A*%
%TO.N,ROW2*%
X265747434Y-91663300D03*
%TO.P,D44,2,K*%
%TO.N,Net-(D44-Pad2)*%
X262497568Y-92236338D03*
%TD*%
D17*
%TO.P,D11,1,A*%
%TO.N,Net-(D11-Pad1)*%
X138713459Y-69939658D03*
%TO.P,D11,2,K*%
%TO.N,ROW0*%
X135463593Y-69366620D03*
%TD*%
%TO.P,D45,1,A*%
%TO.N,Net-(D45-Pad1)*%
X-62649062Y-75907694D03*
%TO.P,D45,2,K*%
%TO.N,ROW2*%
X-65898928Y-75334656D03*
%TD*%
%TO.P,D46,1,A*%
%TO.N,ROW2*%
X-43888475Y-79215692D03*
%TO.P,D46,2,K*%
%TO.N,Net-(D46-Pad2)*%
X-47138341Y-78642654D03*
%TD*%
%TO.P,D52,1,A*%
%TO.N,ROW3*%
X73301622Y-111794886D03*
%TO.P,D52,2,K*%
%TO.N,Net-(D52-Pad2)*%
X70051756Y-111221848D03*
%TD*%
D16*
%TO.P,D99,1,A*%
%TO.N,Net-(D99-Pad1)*%
X288212979Y-109367161D03*
%TO.P,D99,2,K*%
%TO.N,ROW3*%
X284963113Y-109940199D03*
%TD*%
%TO.P,D103,1,A*%
%TO.N,Net-(D103-Pad1)*%
X294702919Y-146910563D03*
%TO.P,D103,2,K*%
%TO.N,ROW5*%
X291453053Y-147483601D03*
%TD*%
D17*
%TO.P,D50,1,A*%
%TO.N,ROW3*%
X34898314Y-110181714D03*
%TO.P,D50,2,K*%
%TO.N,Net-(D50-Pad2)*%
X31648448Y-109608676D03*
%TD*%
D16*
%TO.P,D60,1,A*%
%TO.N,ROW3*%
X269055432Y-110423888D03*
%TO.P,D60,2,K*%
%TO.N,Net-(D60-Pad2)*%
X265805566Y-110996926D03*
%TD*%
%TO.P,D31,1,A*%
%TO.N,Net-(D31-Pad1)*%
X243678848Y-76210710D03*
%TO.P,D31,2,K*%
%TO.N,ROW1*%
X240428982Y-76783748D03*
%TD*%
%TO.P,D16,1,A*%
%TO.N,ROW0*%
X259131438Y-54142125D03*
%TO.P,D16,2,K*%
%TO.N,Net-(D16-Pad2)*%
X255881572Y-54715163D03*
%TD*%
%TO.P,D42,1,A*%
%TO.N,ROW2*%
X228623218Y-100530566D03*
%TO.P,D42,2,K*%
%TO.N,Net-(D42-Pad2)*%
X225373352Y-101103604D03*
%TD*%
%TO.P,D97,1,A*%
%TO.N,Net-(D97-Pad1)*%
X284904981Y-90606573D03*
%TO.P,D97,2,K*%
%TO.N,ROW2*%
X281655115Y-91179611D03*
%TD*%
%TO.P,D76,1,A*%
%TO.N,ROW4*%
X198114998Y-146919008D03*
%TO.P,D76,2,K*%
%TO.N,Net-(D76-Pad2)*%
X194865132Y-147492046D03*
%TD*%
D17*
%TO.P,D10,1,A*%
%TO.N,ROW0*%
X119952872Y-66631660D03*
%TO.P,D10,2,K*%
%TO.N,Net-(D10-Pad2)*%
X116703006Y-66058622D03*
%TD*%
%TO.P,D27,1,A*%
%TO.N,Net-(D27-Pad1)*%
X135405461Y-88700245D03*
%TO.P,D27,2,K*%
%TO.N,ROW1*%
X132155595Y-88127207D03*
%TD*%
%TO.P,D18,1,A*%
%TO.N,ROW1*%
X-40580477Y-60455104D03*
%TO.P,D18,2,K*%
%TO.N,Net-(D18-Pad2)*%
X-43830343Y-59882066D03*
%TD*%
%TO.P,D4,1,A*%
%TO.N,ROW0*%
X292803Y-48060371D03*
%TO.P,D4,2,K*%
%TO.N,Net-(D4-Pad2)*%
X-2957063Y-47487333D03*
%TD*%
%TO.P,D54,1,A*%
%TO.N,ROW3*%
X110028878Y-122913423D03*
%TO.P,D54,2,K*%
%TO.N,Net-(D54-Pad2)*%
X106779012Y-122340385D03*
%TD*%
%TO.P,D83,1,A*%
%TO.N,Net-(D83-Pad1)*%
X47528079Y-148259334D03*
%TO.P,D83,2,K*%
%TO.N,ROW5*%
X44278213Y-147686296D03*
%TD*%
%TO.P,D82,1,A*%
%TO.N,ROW5*%
X28282319Y-147702890D03*
%TO.P,D82,2,K*%
%TO.N,Net-(D82-Pad2)*%
X25032453Y-147129852D03*
%TD*%
D16*
%TO.P,D93,1,A*%
%TO.N,Net-(D93-Pad1)*%
X278288986Y-53085398D03*
%TO.P,D93,2,K*%
%TO.N,ROW0*%
X275039120Y-53658436D03*
%TD*%
D17*
%TO.P,D73,1,A*%
%TO.N,Net-(D73-Pad1)*%
X88357252Y-136114742D03*
%TO.P,D73,2,K*%
%TO.N,ROW4*%
X85107386Y-135541704D03*
%TD*%
D18*
%TO.P,D89,1,A*%
%TO.N,Net-(D89-Pad1)*%
X216477757Y-168007681D03*
%TO.P,D89,2,K*%
%TO.N,ROW5*%
X213486941Y-169402321D03*
%TD*%
D16*
%TO.P,D13,1,A*%
%TO.N,Net-(D13-Pad1)*%
X203599488Y-68318518D03*
%TO.P,D13,2,K*%
%TO.N,ROW0*%
X200349622Y-68891556D03*
%TD*%
D17*
%TO.P,D37,1,A*%
%TO.N,Net-(D37-Pad1)*%
X94973248Y-98593567D03*
%TO.P,D37,2,K*%
%TO.N,ROW2*%
X91723382Y-98020529D03*
%TD*%
D16*
%TO.P,D98,1,A*%
%TO.N,ROW2*%
X304150742Y-90050128D03*
%TO.P,D98,2,K*%
%TO.N,Net-(D98-Pad2)*%
X300900876Y-90623166D03*
%TD*%
%TO.P,D102,1,A*%
%TO.N,ROW4*%
X310766738Y-127571303D03*
%TO.P,D102,2,K*%
%TO.N,Net-(D102-Pad2)*%
X307516872Y-128144341D03*
%TD*%
D17*
%TO.P,D69,1,A*%
%TO.N,Net-(D69-Pad1)*%
X12829729Y-125634304D03*
%TO.P,D69,2,K*%
%TO.N,ROW4*%
X9579863Y-125061266D03*
%TD*%
D16*
%TO.P,D101,1,A*%
%TO.N,Net-(D101-Pad1)*%
X291476870Y-127877607D03*
%TO.P,D101,2,K*%
%TO.N,ROW4*%
X288227004Y-128450645D03*
%TD*%
D17*
%TO.P,D51,1,A*%
%TO.N,Net-(D51-Pad1)*%
X54144075Y-110738159D03*
%TO.P,D51,2,K*%
%TO.N,ROW3*%
X50894209Y-110165121D03*
%TD*%
D16*
%TO.P,D32,1,A*%
%TO.N,ROW1*%
X262439436Y-72902713D03*
%TO.P,D32,2,K*%
%TO.N,Net-(D32-Pad2)*%
X259189570Y-73475751D03*
%TD*%
D17*
%TO.P,D34,1,A*%
%TO.N,ROW2*%
X38206312Y-91421126D03*
%TO.P,D34,2,K*%
%TO.N,Net-(D34-Pad2)*%
X34956446Y-90848088D03*
%TD*%
%TO.P,D81,1,A*%
%TO.N,Net-(D81-Pad1)*%
X9521731Y-144394892D03*
%TO.P,D81,2,K*%
%TO.N,ROW5*%
X6271865Y-143821854D03*
%TD*%
D16*
%TO.P,D77,1,A*%
%TO.N,Net-(D77-Pad1)*%
X216875586Y-143611010D03*
%TO.P,D77,2,K*%
%TO.N,ROW4*%
X213625720Y-144184048D03*
%TD*%
D17*
%TO.P,D53,1,A*%
%TO.N,Net-(D53-Pad1)*%
X91665250Y-117354155D03*
%TO.P,D53,2,K*%
%TO.N,ROW3*%
X88415384Y-116781117D03*
%TD*%
%TO.P,D35,1,A*%
%TO.N,Net-(D35-Pad1)*%
X57452073Y-91977571D03*
%TO.P,D35,2,K*%
%TO.N,ROW2*%
X54202207Y-91404533D03*
%TD*%
D19*
%TO.P,D87,1,A*%
%TO.N,Net-(D87-Pad1)*%
X130019408Y-173163320D03*
%TO.P,D87,2,K*%
%TO.N,ROW5*%
X127028592Y-171768680D03*
%TD*%
D17*
%TO.P,D64,1,A*%
%TO.N,ROW3*%
X-9675297Y-104592275D03*
%TO.P,D64,2,K*%
%TO.N,Net-(D64-Pad2)*%
X-12925163Y-104019237D03*
%TD*%
%TO.P,D66,1,A*%
%TO.N,ROW4*%
X-50504470Y-116736867D03*
%TO.P,D66,2,K*%
%TO.N,Net-(D66-Pad2)*%
X-53754336Y-116163829D03*
%TD*%
%TO.P,D63,1,A*%
%TO.N,Net-(D63-Pad1)*%
X-28435885Y-101284278D03*
%TO.P,D63,2,K*%
%TO.N,ROW3*%
X-31685751Y-100711240D03*
%TD*%
D16*
%TO.P,D30,1,A*%
%TO.N,ROW1*%
X225712180Y-84021249D03*
%TO.P,D30,2,K*%
%TO.N,Net-(D30-Pad2)*%
X222462314Y-84594287D03*
%TD*%
%TO.P,D56,1,A*%
%TO.N,ROW3*%
X194807000Y-128158420D03*
%TO.P,D56,2,K*%
%TO.N,Net-(D56-Pad2)*%
X191557134Y-128731458D03*
%TD*%
D17*
%TO.P,D70,1,A*%
%TO.N,ROW4*%
X31590316Y-128942302D03*
%TO.P,D70,2,K*%
%TO.N,Net-(D70-Pad2)*%
X28340450Y-128369264D03*
%TD*%
%TO.P,D74,1,A*%
%TO.N,ROW4*%
X106720880Y-141674011D03*
%TO.P,D74,2,K*%
%TO.N,Net-(D74-Pad2)*%
X103471014Y-141100973D03*
%TD*%
%TO.P,D38,1,A*%
%TO.N,ROW2*%
X113336876Y-104152835D03*
%TO.P,D38,2,K*%
%TO.N,Net-(D38-Pad2)*%
X110087010Y-103579797D03*
%TD*%
D16*
%TO.P,D90,1,A*%
%TO.N,ROW5*%
X238547212Y-156812329D03*
%TO.P,D90,2,K*%
%TO.N,Net-(D90-Pad2)*%
X235297346Y-157385367D03*
%TD*%
D17*
%TO.P,D26,1,A*%
%TO.N,ROW1*%
X116644874Y-85392248D03*
%TO.P,D26,2,K*%
%TO.N,Net-(D26-Pad2)*%
X113395008Y-84819210D03*
%TD*%
%TO.P,D85,1,A*%
%TO.N,Net-(D85-Pad1)*%
X85049255Y-154875330D03*
%TO.P,D85,2,K*%
%TO.N,ROW5*%
X81799389Y-154302292D03*
%TD*%
%TO.P,D62,1,A*%
%TO.N,ROW3*%
X-47196472Y-97976280D03*
%TO.P,D62,2,K*%
%TO.N,Net-(D62-Pad2)*%
X-50446338Y-97403242D03*
%TD*%
%TO.P,D48,1,A*%
%TO.N,ROW2*%
X-6367299Y-85831688D03*
%TO.P,D48,2,K*%
%TO.N,Net-(D48-Pad2)*%
X-9617165Y-85258650D03*
%TD*%
%TO.P,D3,1,A*%
%TO.N,Net-(D3-Pad1)*%
X-18511891Y-45002514D03*
%TO.P,D3,2,K*%
%TO.N,ROW0*%
X-21761757Y-44429476D03*
%TD*%
D16*
%TO.P,D79,1,A*%
%TO.N,Net-(D79-Pad1)*%
X253602842Y-132492473D03*
%TO.P,D79,2,K*%
%TO.N,ROW4*%
X250352976Y-133065511D03*
%TD*%
%TO.P,D29,1,A*%
%TO.N,Net-(D29-Pad1)*%
X206951593Y-87329247D03*
%TO.P,D29,2,K*%
%TO.N,ROW1*%
X203701727Y-87902285D03*
%TD*%
D17*
%TO.P,D21,1,A*%
%TO.N,Net-(D21-Pad1)*%
X22753722Y-69352541D03*
%TO.P,D21,2,K*%
%TO.N,ROW1*%
X19503856Y-68779503D03*
%TD*%
%TO.P,D5,1,A*%
%TO.N,Net-(D5-Pad1)*%
X25935664Y-50569726D03*
%TO.P,D5,2,K*%
%TO.N,ROW0*%
X22685798Y-49996688D03*
%TD*%
%TO.P,D61,1,A*%
%TO.N,Net-(D61-Pad1)*%
X-65957060Y-94668282D03*
%TO.P,D61,2,K*%
%TO.N,ROW3*%
X-69206926Y-94095244D03*
%TD*%
D16*
%TO.P,D12,1,A*%
%TO.N,ROW0*%
X184883007Y-71876657D03*
%TO.P,D12,2,K*%
%TO.N,Net-(D12-Pad2)*%
X181633141Y-72449695D03*
%TD*%
D17*
%TO.P,D19,1,A*%
%TO.N,Net-(D19-Pad1)*%
X-21819889Y-63763102D03*
%TO.P,D19,2,K*%
%TO.N,ROW1*%
X-25069755Y-63190064D03*
%TD*%
%TO.P,D8,1,A*%
%TO.N,ROW0*%
X83225616Y-55513123D03*
%TO.P,D8,2,K*%
%TO.N,Net-(D8-Pad2)*%
X79975750Y-54940085D03*
%TD*%
%TO.P,D47,1,A*%
%TO.N,Net-(D47-Pad1)*%
X-25127887Y-82523690D03*
%TO.P,D47,2,K*%
%TO.N,ROW2*%
X-28377753Y-81950652D03*
%TD*%
%TO.P,D65,1,A*%
%TO.N,Net-(D65-Pad1)*%
X-69265058Y-113428870D03*
%TO.P,D65,2,K*%
%TO.N,ROW4*%
X-72514924Y-112855832D03*
%TD*%
D16*
%TO.P,D57,1,A*%
%TO.N,Net-(D57-Pad1)*%
X213567588Y-124850422D03*
%TO.P,D57,2,K*%
%TO.N,ROW3*%
X210317722Y-125423460D03*
%TD*%
%TO.P,D94,1,A*%
%TO.N,ROW0*%
X297534746Y-52528953D03*
%TO.P,D94,2,K*%
%TO.N,Net-(D94-Pad2)*%
X294284880Y-53101991D03*
%TD*%
D17*
%TO.P,D25,1,A*%
%TO.N,Net-(D25-Pad1)*%
X98281246Y-79832979D03*
%TO.P,D25,2,K*%
%TO.N,ROW1*%
X95031380Y-79259941D03*
%TD*%
%TO.P,D67,1,A*%
%TO.N,Net-(D67-Pad1)*%
X-31743883Y-120044865D03*
%TO.P,D67,2,K*%
%TO.N,ROW4*%
X-34993749Y-119471827D03*
%TD*%
%TO.P,D33,1,A*%
%TO.N,Net-(D33-Pad1)*%
X19445724Y-88113129D03*
%TO.P,D33,2,K*%
%TO.N,ROW2*%
X16195858Y-87540091D03*
%TD*%
D16*
%TO.P,D100,1,A*%
%TO.N,ROW3*%
X307582826Y-108788836D03*
%TO.P,D100,2,K*%
%TO.N,Net-(D100-Pad2)*%
X304332960Y-109361874D03*
%TD*%
%TO.P,D59,1,A*%
%TO.N,Net-(D59-Pad1)*%
X250294844Y-113731886D03*
%TO.P,D59,2,K*%
%TO.N,ROW3*%
X247044978Y-114304924D03*
%TD*%
D17*
%TO.P,D84,1,A*%
%TO.N,ROW5*%
X66685627Y-149316062D03*
%TO.P,D84,2,K*%
%TO.N,Net-(D84-Pad2)*%
X63435761Y-148743024D03*
%TD*%
%TO.P,D7,1,A*%
%TO.N,Net-(D7-Pad1)*%
X64068068Y-54456396D03*
%TO.P,D7,2,K*%
%TO.N,ROW0*%
X60818202Y-53883358D03*
%TD*%
%TO.P,D9,1,A*%
%TO.N,Net-(D9-Pad1)*%
X101589244Y-61072392D03*
%TO.P,D9,2,K*%
%TO.N,ROW0*%
X98339378Y-60499354D03*
%TD*%
D16*
%TO.P,D91,1,A*%
%TO.N,Net-(D91-Pad1)*%
X256910840Y-151253061D03*
%TO.P,D91,2,K*%
%TO.N,ROW5*%
X253660974Y-151826099D03*
%TD*%
%TO.P,D92,1,A*%
%TO.N,ROW5*%
X275671427Y-147945063D03*
%TO.P,D92,2,K*%
%TO.N,Net-(D92-Pad2)*%
X272421561Y-148518101D03*
%TD*%
D17*
%TO.P,D68,1,A*%
%TO.N,ROW4*%
X-12983295Y-123352863D03*
%TO.P,D68,2,K*%
%TO.N,Net-(D68-Pad2)*%
X-16233161Y-122779825D03*
%TD*%
D16*
%TO.P,D43,1,A*%
%TO.N,Net-(D43-Pad1)*%
X246986846Y-94971298D03*
%TO.P,D43,2,K*%
%TO.N,ROW2*%
X243736980Y-95544336D03*
%TD*%
D17*
%TO.P,D49,1,A*%
%TO.N,Net-(D49-Pad1)*%
X16137726Y-106873716D03*
%TO.P,D49,2,K*%
%TO.N,ROW3*%
X12887860Y-106300678D03*
%TD*%
%TO.P,D72,1,A*%
%TO.N,ROW4*%
X69993625Y-130555474D03*
%TO.P,D72,2,K*%
%TO.N,Net-(D72-Pad2)*%
X66743759Y-129982436D03*
%TD*%
D16*
%TO.P,D78,1,A*%
%TO.N,ROW4*%
X235239214Y-138051742D03*
%TO.P,D78,2,K*%
%TO.N,Net-(D78-Pad2)*%
X231989348Y-138624780D03*
%TD*%
D17*
%TO.P,D24,1,A*%
%TO.N,ROW1*%
X79917618Y-74273711D03*
%TO.P,D24,2,K*%
%TO.N,Net-(D24-Pad2)*%
X76667752Y-73700673D03*
%TD*%
%TO.P,D75,1,A*%
%TO.N,Net-(D75-Pad1)*%
X125481468Y-144982008D03*
%TO.P,D75,2,K*%
%TO.N,ROW4*%
X122231602Y-144408970D03*
%TD*%
D16*
%TO.P,D40,1,A*%
%TO.N,ROW2*%
X191499003Y-109397832D03*
%TO.P,D40,2,K*%
%TO.N,Net-(D40-Pad2)*%
X188249137Y-109970870D03*
%TD*%
D17*
%TO.P,D1,1,A*%
%TO.N,Net-(D1-Pad1)*%
X-56033067Y-38386519D03*
%TO.P,D1,2,K*%
%TO.N,ROW0*%
X-59282933Y-37813481D03*
%TD*%
%TO.P,D36,1,A*%
%TO.N,ROW2*%
X76609620Y-93034299D03*
%TO.P,D36,2,K*%
%TO.N,Net-(D36-Pad2)*%
X73359754Y-92461261D03*
%TD*%
%TO.P,D17,1,A*%
%TO.N,Net-(D17-Pad1)*%
X-59341065Y-57147107D03*
%TO.P,D17,2,K*%
%TO.N,ROW1*%
X-62590931Y-56574069D03*
%TD*%
D16*
%TO.P,D96,1,A*%
%TO.N,ROW1*%
X300842744Y-71289540D03*
%TO.P,D96,2,K*%
%TO.N,Net-(D96-Pad2)*%
X297592878Y-71862578D03*
%TD*%
D19*
%TO.P,D86,1,A*%
%TO.N,ROW5*%
X108429408Y-163003320D03*
%TO.P,D86,2,K*%
%TO.N,Net-(D86-Pad2)*%
X105438592Y-161608680D03*
%TD*%
D16*
%TO.P,D95,1,A*%
%TO.N,Net-(D95-Pad1)*%
X281596984Y-71845985D03*
%TO.P,D95,2,K*%
%TO.N,ROW1*%
X278347118Y-72419023D03*
%TD*%
D17*
%TO.P,D22,1,A*%
%TO.N,ROW1*%
X41514310Y-72660539D03*
%TO.P,D22,2,K*%
%TO.N,Net-(D22-Pad2)*%
X38264444Y-72087501D03*
%TD*%
D16*
%TO.P,D41,1,A*%
%TO.N,Net-(D41-Pad1)*%
X210259590Y-106089835D03*
%TO.P,D41,2,K*%
%TO.N,ROW2*%
X207009724Y-106662873D03*
%TD*%
D17*
%TO.P,D20,1,A*%
%TO.N,ROW1*%
X-3059301Y-67071100D03*
%TO.P,D20,2,K*%
%TO.N,Net-(D20-Pad2)*%
X-6309167Y-66498062D03*
%TD*%
D16*
%TO.P,D104,1,A*%
%TO.N,ROW5*%
X314074735Y-146331891D03*
%TO.P,D104,2,K*%
%TO.N,Net-(D104-Pad2)*%
X310824869Y-146904929D03*
%TD*%
D17*
%TO.P,D71,1,A*%
%TO.N,Net-(D71-Pad1)*%
X50836077Y-129498747D03*
%TO.P,D71,2,K*%
%TO.N,ROW4*%
X47586211Y-128925709D03*
%TD*%
%TO.P,D2,1,A*%
%TO.N,ROW0*%
X-37272479Y-41694517D03*
%TO.P,D2,2,K*%
%TO.N,Net-(D2-Pad2)*%
X-40522345Y-41121479D03*
%TD*%
D16*
%TO.P,D14,1,A*%
%TO.N,ROW0*%
X222007223Y-63009391D03*
%TO.P,D14,2,K*%
%TO.N,Net-(D14-Pad2)*%
X218757357Y-63582429D03*
%TD*%
%TO.P,D28,1,A*%
%TO.N,ROW1*%
X188191005Y-90637245D03*
%TO.P,D28,2,K*%
%TO.N,Net-(D28-Pad2)*%
X184941139Y-91210283D03*
%TD*%
%TO.P,D15,1,A*%
%TO.N,Net-(D15-Pad1)*%
X240370851Y-57450123D03*
%TO.P,D15,2,K*%
%TO.N,ROW0*%
X237120985Y-58023161D03*
%TD*%
D17*
%TO.P,D23,1,A*%
%TO.N,Net-(D23-Pad1)*%
X60760070Y-73216984D03*
%TO.P,D23,2,K*%
%TO.N,ROW1*%
X57510204Y-72643946D03*
%TD*%
D20*
%TO.N,COL8*%
X195068308Y-90170000D03*
%TO.N,COL7*%
X194564000Y-84836000D03*
%TO.N,COL6*%
X193009285Y-67818000D03*
%TO.N,COL4*%
X143510000Y-75184000D03*
X157226000Y-76200000D03*
%TO.N,COL3*%
X90170000Y-71374000D03*
X130556000Y-75184000D03*
X141383785Y-74262214D03*
X150105562Y-71120000D03*
%TO.N,COL2*%
X150114000Y-69088000D03*
X147828000Y-69088000D03*
X138708188Y-73635813D03*
%TO.N,COL1*%
X35565651Y-134299317D03*
X139732049Y-124968000D03*
%TO.N,COL0*%
X148844000Y-131984020D03*
X150368000Y-98044000D03*
%TO.N,ROW4*%
X197612000Y-144526000D03*
X141711020Y-130810000D03*
%TO.N,ROW3*%
X195072000Y-126238000D03*
X164088307Y-82029095D03*
X182118000Y-90754829D03*
%TO.N,ROW2*%
X192786000Y-108966000D03*
X183134000Y-91479329D03*
%TO.N,ROW1*%
X161798000Y-85073503D03*
%TO.N,ROW0*%
X162814008Y-77470008D03*
%TO.N,ROW5*%
X161798000Y-84074000D03*
%TO.N,ROW4*%
X161798000Y-83058000D03*
%TO.N,ROW3*%
X161798000Y-81788000D03*
%TO.N,ROW2*%
X161798000Y-80772000D03*
%TO.N,ROW1*%
X161798000Y-79502000D03*
%TO.N,ROW0*%
X161798000Y-78486000D03*
%TD*%
D21*
%TO.N,ROW0*%
X-48768000Y-48260000D02*
X-48836414Y-48260000D01*
X-47629473Y-49398527D02*
X-48768000Y-48260000D01*
X-41270527Y-49398527D02*
X-47629473Y-49398527D01*
X-37272479Y-45400479D02*
X-41270527Y-49398527D01*
X-37272479Y-41694517D02*
X-37272479Y-45400479D01*
X-48836414Y-48260000D02*
X-59282933Y-37813481D01*
%TO.N,ROW5*%
X291453053Y-140006145D02*
X291453053Y-147483601D01*
X297909403Y-133549795D02*
X291453053Y-140006145D01*
X300736000Y-137414000D02*
X297909403Y-134587403D01*
X307594000Y-137414000D02*
X300736000Y-137414000D01*
X314397794Y-133549795D02*
X311458205Y-133549795D01*
X315450921Y-134602922D02*
X314397794Y-133549795D01*
X315450921Y-144955705D02*
X315450921Y-134602922D01*
X314074735Y-146331891D02*
X315450921Y-144955705D01*
X311458205Y-133549795D02*
X307594000Y-137414000D01*
X297909403Y-134587403D02*
X297909403Y-133549795D01*
%TO.N,COL8*%
X287151824Y-74930000D02*
X290932934Y-78711110D01*
X261366000Y-74930000D02*
X287151824Y-74930000D01*
X258518706Y-77777294D02*
X261366000Y-74930000D01*
X226949687Y-88772313D02*
X237944706Y-77777294D01*
X216790963Y-88772313D02*
X226949687Y-88772313D01*
X215393276Y-90170000D02*
X216790963Y-88772313D01*
X195068308Y-90170000D02*
X215393276Y-90170000D01*
X237944706Y-77777294D02*
X258518706Y-77777294D01*
%TO.N,COL7*%
X232026665Y-61563695D02*
X249221628Y-61563695D01*
X223232360Y-70358000D02*
X232026665Y-61563695D01*
X194706472Y-84836000D02*
X209184472Y-70358000D01*
X209184472Y-70358000D02*
X223232360Y-70358000D01*
X194564000Y-84836000D02*
X194706472Y-84836000D01*
%TO.N,COL6*%
X195133852Y-62676148D02*
X203888356Y-53921644D01*
X195133852Y-65693433D02*
X195133852Y-62676148D01*
X193009285Y-67818000D02*
X195133852Y-65693433D01*
X203888356Y-53921644D02*
X209186374Y-53921644D01*
%TO.N,COL4*%
X156210000Y-75184000D02*
X157226000Y-76200000D01*
X143510000Y-75184000D02*
X156210000Y-75184000D01*
%TO.N,COL3*%
X94661295Y-66882705D02*
X90170000Y-71374000D01*
X105100274Y-69366979D02*
X102616000Y-66882705D01*
X116610979Y-69366979D02*
X105100274Y-69366979D01*
X121412000Y-72585520D02*
X119946480Y-72585520D01*
X124010480Y-75184000D02*
X121412000Y-72585520D01*
X130556000Y-75184000D02*
X124010480Y-75184000D01*
X119888000Y-72644000D02*
X116610979Y-69366979D01*
X102616000Y-66882705D02*
X94661295Y-66882705D01*
X146963348Y-74262214D02*
X141383785Y-74262214D01*
X150105562Y-71120000D02*
X146963348Y-74262214D01*
X119946480Y-72585520D02*
X119888000Y-72644000D01*
%TO.N,COL2*%
X147828000Y-69088000D02*
X150114000Y-69088000D01*
X137208375Y-72136000D02*
X138708188Y-73635813D01*
X120625630Y-72136000D02*
X137208375Y-72136000D01*
X114922815Y-66433185D02*
X120625630Y-72136000D01*
X91833185Y-66433185D02*
X114922815Y-66433185D01*
X85305956Y-59905956D02*
X91833185Y-66433185D01*
X52619027Y-59905956D02*
X85305956Y-59905956D01*
X51732393Y-60792590D02*
X52619027Y-59905956D01*
%TO.N,COL1*%
X132334000Y-132366049D02*
X139732049Y-124968000D01*
X132334000Y-133096000D02*
X132334000Y-132366049D01*
X132334000Y-134299743D02*
X132334000Y-133096000D01*
X129794000Y-136839743D02*
X132334000Y-134299743D01*
X129794000Y-140208000D02*
X129794000Y-136839743D01*
X129794000Y-142240000D02*
X129794000Y-140208000D01*
X126058446Y-145975554D02*
X129794000Y-142240000D01*
X114342023Y-145975554D02*
X126058446Y-145975554D01*
X109103531Y-143510000D02*
X110490000Y-142123531D01*
X106172000Y-143510000D02*
X109103531Y-143510000D01*
X90590685Y-142544039D02*
X100838000Y-142544039D01*
X81779982Y-133733336D02*
X90590685Y-142544039D01*
X79993964Y-131064000D02*
X81779982Y-132850018D01*
X73660000Y-131064000D02*
X79993964Y-131064000D01*
X72136000Y-132588000D02*
X73660000Y-131064000D01*
X69596000Y-132588000D02*
X72136000Y-132588000D01*
X68433502Y-131425502D02*
X69596000Y-132588000D01*
X55372000Y-131425502D02*
X68433502Y-131425502D01*
X38439466Y-131425502D02*
X55372000Y-131425502D01*
X100838000Y-142544039D02*
X105206039Y-142544039D01*
X35565651Y-134299317D02*
X38439466Y-131425502D01*
X81779982Y-132850018D02*
X81779982Y-133733336D01*
X110490000Y-142123531D02*
X114342023Y-145975554D01*
X105206039Y-142544039D02*
X106172000Y-143510000D01*
%TO.N,COL0*%
X148844000Y-99568000D02*
X150368000Y-98044000D01*
X148844000Y-131984020D02*
X148844000Y-99568000D01*
%TO.N,ROW5*%
X193936064Y-165219936D02*
X193936064Y-177066919D01*
X193936064Y-177066919D02*
X194902719Y-178033574D01*
X194056000Y-165100000D02*
X193936064Y-165219936D01*
X127028592Y-170567935D02*
X141386527Y-156210000D01*
X185166000Y-156210000D02*
X194056000Y-165100000D01*
X127028592Y-171768680D02*
X127028592Y-170567935D01*
X141386527Y-156210000D02*
X185166000Y-156210000D01*
X279101845Y-147483601D02*
X291453053Y-147483601D01*
X277617367Y-145999123D02*
X279101845Y-147483601D01*
X277617367Y-137663367D02*
X277617367Y-145999123D01*
X276352000Y-136398000D02*
X277617367Y-137663367D01*
X265684000Y-143256000D02*
X269494000Y-143256000D01*
X259842000Y-137414000D02*
X265684000Y-143256000D01*
X254254000Y-137414000D02*
X259842000Y-137414000D01*
X253660974Y-138007026D02*
X254254000Y-137414000D01*
X269494000Y-143256000D02*
X276352000Y-136398000D01*
X253660974Y-151826099D02*
X253660974Y-138007026D01*
X277617367Y-145999123D02*
X275671427Y-147945063D01*
X251271901Y-151826099D02*
X253660974Y-151826099D01*
X240096191Y-155263350D02*
X247834650Y-155263350D01*
X247834650Y-155263350D02*
X251271901Y-151826099D01*
X240096191Y-155263350D02*
X238547212Y-156812329D01*
X240096191Y-145729809D02*
X240096191Y-155263350D01*
X240538000Y-145288000D02*
X240096191Y-145729809D01*
X239576313Y-144326313D02*
X240538000Y-145288000D01*
X233879687Y-144326313D02*
X239576313Y-144326313D01*
X224536000Y-153670000D02*
X233879687Y-144326313D01*
X218505289Y-153670000D02*
X224536000Y-153670000D01*
X212344000Y-154686000D02*
X217489289Y-154686000D01*
X209296000Y-157734000D02*
X212344000Y-154686000D01*
X217489289Y-154686000D02*
X218505289Y-153670000D01*
X209296000Y-165862000D02*
X209296000Y-157734000D01*
X209296000Y-165862000D02*
X209946620Y-165862000D01*
X206502000Y-165862000D02*
X209296000Y-165862000D01*
X206502000Y-166434293D02*
X206502000Y-165862000D01*
X194902719Y-178033574D02*
X206502000Y-166434293D01*
X209946620Y-165862000D02*
X213486941Y-169402321D01*
%TO.N,ROW4*%
X309200154Y-129137887D02*
X310766738Y-127571303D01*
X288914246Y-129137887D02*
X309200154Y-129137887D01*
X288227004Y-128450645D02*
X288914246Y-129137887D01*
X273097260Y-128450645D02*
X288227004Y-128450645D01*
X272363429Y-129184476D02*
X273097260Y-128450645D01*
X250773484Y-133486019D02*
X268061886Y-133486019D01*
X250352976Y-133065511D02*
X250773484Y-133486019D01*
X268061886Y-133486019D02*
X272363429Y-129184476D01*
X240225445Y-133065511D02*
X250352976Y-133065511D01*
X235239214Y-138051742D02*
X240225445Y-133065511D01*
X228686400Y-144604556D02*
X235239214Y-138051742D01*
X214046228Y-144604556D02*
X228686400Y-144604556D01*
X213625720Y-144184048D02*
X214046228Y-144604556D01*
X198114998Y-146919008D02*
X200849958Y-144184048D01*
X200849958Y-144184048D02*
X213625720Y-144184048D01*
X198114998Y-145028998D02*
X198114998Y-146919008D01*
X197612000Y-144526000D02*
X198114998Y-145028998D01*
X141097000Y-122555000D02*
X141097000Y-130195980D01*
X141097000Y-130195980D02*
X141711020Y-130810000D01*
X141097000Y-122555000D02*
X134620000Y-129032000D01*
X141986000Y-121666000D02*
X141097000Y-122555000D01*
%TO.N,ROW3*%
X306010955Y-110360707D02*
X307582826Y-108788836D01*
X285383621Y-110360707D02*
X306010955Y-110360707D01*
X284963113Y-109940199D02*
X285383621Y-110360707D01*
X269539121Y-109940199D02*
X284963113Y-109940199D01*
X269055432Y-110423888D02*
X269539121Y-109940199D01*
X264753888Y-114725432D02*
X269055432Y-110423888D01*
X247465486Y-114725432D02*
X264753888Y-114725432D01*
X247044978Y-114304924D02*
X247465486Y-114725432D01*
X236917446Y-114304924D02*
X247044978Y-114304924D01*
X231931216Y-119291154D02*
X236917446Y-114304924D01*
X210738230Y-125843968D02*
X225378402Y-125843968D01*
X225378402Y-125843968D02*
X231931216Y-119291154D01*
X210317722Y-125423460D02*
X210738230Y-125843968D01*
X197541960Y-125423460D02*
X210317722Y-125423460D01*
X194807000Y-128158420D02*
X197541960Y-125423460D01*
X195072000Y-127893420D02*
X194807000Y-128158420D01*
X195072000Y-126238000D02*
X195072000Y-127893420D01*
X172814041Y-90754829D02*
X182118000Y-90754829D01*
X164088307Y-82029095D02*
X172814041Y-90754829D01*
%TO.N,ROW2*%
X172513943Y-91479329D02*
X183134000Y-91479329D01*
X302584158Y-91616712D02*
X304150742Y-90050128D01*
X281655115Y-91179611D02*
X282092216Y-91616712D01*
X282092216Y-91616712D02*
X302584158Y-91616712D01*
X265747434Y-91663300D02*
X266231123Y-91179611D01*
X266231123Y-91179611D02*
X281655115Y-91179611D01*
X256882785Y-100527949D02*
X265747434Y-91663300D01*
X248720593Y-100527949D02*
X256882785Y-100527949D01*
X243736980Y-95544336D02*
X248720593Y-100527949D01*
X228623218Y-100530566D02*
X233609448Y-95544336D01*
X233609448Y-95544336D02*
X243736980Y-95544336D01*
X222070403Y-107083381D02*
X228623218Y-100530566D01*
X207430232Y-107083381D02*
X222070403Y-107083381D01*
X207009724Y-106662873D02*
X207430232Y-107083381D01*
X204706597Y-108966000D02*
X207009724Y-106662873D01*
X192786000Y-108966000D02*
X204706597Y-108966000D01*
X191930835Y-108966000D02*
X191499003Y-109397832D01*
X192786000Y-108966000D02*
X191930835Y-108966000D01*
X161806614Y-80772000D02*
X172513943Y-91479329D01*
X161798000Y-80772000D02*
X161806614Y-80772000D01*
%TO.N,ROW1*%
X299276160Y-72856124D02*
X300842744Y-71289540D01*
X278347118Y-72419023D02*
X278784219Y-72856124D01*
X278784219Y-72856124D02*
X299276160Y-72856124D01*
X262923126Y-72419023D02*
X278347118Y-72419023D01*
X262439436Y-72902713D02*
X262923126Y-72419023D01*
X258137893Y-77204256D02*
X262439436Y-72902713D01*
X240849490Y-77204256D02*
X258137893Y-77204256D01*
X240428982Y-76783748D02*
X240849490Y-77204256D01*
X232949681Y-76783748D02*
X240428982Y-76783748D01*
X225712180Y-84021249D02*
X232949681Y-76783748D01*
X204122235Y-88322793D02*
X221410636Y-88322793D01*
X203701727Y-87902285D02*
X204122235Y-88322793D01*
X221410636Y-88322793D02*
X225712180Y-84021249D01*
X190925965Y-87902285D02*
X203701727Y-87902285D01*
X188191005Y-90637245D02*
X190925965Y-87902285D01*
X186624421Y-92203829D02*
X188191005Y-90637245D01*
X168928326Y-92203829D02*
X186624421Y-92203829D01*
X161798000Y-85073503D02*
X168928326Y-92203829D01*
%TO.N,ROW0*%
X295968162Y-54095537D02*
X297534746Y-52528953D01*
X275476221Y-54095537D02*
X295968162Y-54095537D01*
X275039120Y-53658436D02*
X275476221Y-54095537D01*
X259615127Y-53658436D02*
X275039120Y-53658436D01*
X259131438Y-54142125D02*
X259615127Y-53658436D01*
X237541493Y-58443669D02*
X254829894Y-58443669D01*
X237120985Y-58023161D02*
X237541493Y-58443669D01*
X254829894Y-58443669D02*
X259131438Y-54142125D01*
X226993453Y-58023161D02*
X237120985Y-58023161D01*
X222007223Y-63009391D02*
X226993453Y-58023161D01*
X215704550Y-69312064D02*
X222007223Y-63009391D01*
X200770130Y-69312064D02*
X215704550Y-69312064D01*
X200349622Y-68891556D02*
X200770130Y-69312064D01*
X187868108Y-68891556D02*
X200349622Y-68891556D01*
X184883007Y-71876657D02*
X187868108Y-68891556D01*
X179289656Y-77470008D02*
X184883007Y-71876657D01*
X162814008Y-77470008D02*
X179289656Y-77470008D01*
%TO.N,ROW5*%
X6292146Y-143821854D02*
X6271865Y-143821854D01*
X7874000Y-142240000D02*
X6292146Y-143821854D01*
X7874000Y-136906000D02*
X7874000Y-142240000D01*
X12297390Y-132482610D02*
X7874000Y-136906000D01*
X15134610Y-132482610D02*
X12297390Y-132482610D01*
X18796000Y-136144000D02*
X15134610Y-132482610D01*
X18796000Y-137280897D02*
X18796000Y-136144000D01*
X23501103Y-141986000D02*
X18796000Y-137280897D01*
X23876000Y-141986000D02*
X23501103Y-141986000D01*
X32766000Y-134366000D02*
X31496000Y-134366000D01*
X33528000Y-135128000D02*
X32766000Y-134366000D01*
X33528000Y-137780535D02*
X33528000Y-135128000D01*
X32742336Y-138566199D02*
X33528000Y-137780535D01*
X31496000Y-134366000D02*
X23876000Y-141986000D01*
X32742336Y-143242873D02*
X32742336Y-138566199D01*
X28282319Y-147702890D02*
X32742336Y-143242873D01*
X28298913Y-147686296D02*
X28282319Y-147702890D01*
X44278213Y-147686296D02*
X28298913Y-147686296D01*
X71854983Y-139473017D02*
X71854983Y-138148983D01*
X71854983Y-138148983D02*
X68580000Y-134874000D01*
X70658634Y-140669366D02*
X71854983Y-139473017D01*
X68580000Y-134874000D02*
X51698657Y-134874000D01*
X70658634Y-145343055D02*
X70658634Y-140669366D01*
X66685627Y-149316062D02*
X70658634Y-145343055D01*
X51698657Y-134874000D02*
X44278213Y-142294444D01*
X44278213Y-142294444D02*
X44278213Y-147686296D01*
X67564000Y-147574000D02*
X66685627Y-148452373D01*
X77978000Y-147574000D02*
X67564000Y-147574000D01*
X81799389Y-151395389D02*
X77978000Y-147574000D01*
X81799389Y-154302292D02*
X81799389Y-151395389D01*
X66685627Y-148452373D02*
X66685627Y-149316062D01*
X84469097Y-156972000D02*
X81799389Y-154302292D01*
X102616000Y-156972000D02*
X84469097Y-156972000D01*
X108204000Y-151384000D02*
X102616000Y-156972000D01*
X113792000Y-151384000D02*
X108204000Y-151384000D01*
X115913161Y-153505161D02*
X113792000Y-151384000D01*
X115913161Y-154652100D02*
X115913161Y-153505161D01*
X108429408Y-162135853D02*
X115913161Y-154652100D01*
X108429408Y-163003320D02*
X108429408Y-162135853D01*
X119061320Y-163003320D02*
X108429408Y-163003320D01*
X127028592Y-170970592D02*
X119061320Y-163003320D01*
X127028592Y-171768680D02*
X127028592Y-170970592D01*
X127028592Y-146975031D02*
X127028592Y-171768680D01*
X142435520Y-131568103D02*
X127028592Y-146975031D01*
X142435520Y-105044953D02*
X142435520Y-131568103D01*
X149489040Y-97991434D02*
X142435520Y-105044953D01*
X149489040Y-82297436D02*
X149489040Y-97991434D01*
X150486396Y-81300080D02*
X149489040Y-82297436D01*
X158885604Y-81300080D02*
X150486396Y-81300080D01*
X161798000Y-84074000D02*
X161659525Y-84074000D01*
X161659525Y-84074000D02*
X158885604Y-81300080D01*
%TO.N,ROW4*%
X-72215832Y-112855832D02*
X-72514924Y-112855832D01*
X-70612000Y-111252000D02*
X-72215832Y-112855832D01*
X-70612000Y-103886000D02*
X-70612000Y-111252000D01*
X-68403439Y-101677439D02*
X-70612000Y-103886000D01*
X-66802000Y-101092000D02*
X-67387439Y-101677439D01*
X-62367843Y-103748157D02*
X-65024000Y-101092000D01*
X-45857843Y-103748157D02*
X-62367843Y-103748157D01*
X-44450000Y-105156000D02*
X-45857843Y-103748157D01*
X-44450000Y-106005725D02*
X-44450000Y-105156000D01*
X-46531462Y-108087187D02*
X-44450000Y-106005725D01*
X-65024000Y-101092000D02*
X-66802000Y-101092000D01*
X-46531462Y-112763859D02*
X-46531462Y-108087187D01*
X-50504470Y-116736867D02*
X-46531462Y-112763859D01*
X-67387439Y-101677439D02*
X-68403439Y-101677439D01*
X-37728709Y-116736867D02*
X-50504470Y-116736867D01*
X-34993749Y-119471827D02*
X-37728709Y-116736867D01*
X-13462000Y-106680000D02*
X-27686000Y-106680000D01*
X-27686000Y-106680000D02*
X-34993749Y-113987749D01*
X-34993749Y-113987749D02*
X-34993749Y-119471827D01*
X-8523277Y-118892845D02*
X-8523277Y-114441277D01*
X-7813938Y-113731938D02*
X-7813938Y-112328062D01*
X-7813938Y-112328062D02*
X-13462000Y-106680000D01*
X-12983295Y-123352863D02*
X-8523277Y-118892845D01*
X-8523277Y-114441277D02*
X-7813938Y-113731938D01*
X9579863Y-125061266D02*
X7871460Y-123352863D01*
X7871460Y-123352863D02*
X-12983295Y-123352863D01*
X31169808Y-129362810D02*
X13881407Y-129362810D01*
X13881407Y-129362810D02*
X9579863Y-125061266D01*
X31590316Y-128942302D02*
X31169808Y-129362810D01*
X31606909Y-128925709D02*
X31590316Y-128942302D01*
X47586211Y-128925709D02*
X31606909Y-128925709D01*
X69993625Y-130555474D02*
X69573117Y-130975982D01*
X69573117Y-130975982D02*
X49636484Y-130975982D01*
X49636484Y-130975982D02*
X47586211Y-128925709D01*
X85107386Y-135541704D02*
X80121156Y-130555474D01*
X80121156Y-130555474D02*
X69993625Y-130555474D01*
X91660201Y-142094519D02*
X85107386Y-135541704D01*
X106300372Y-142094519D02*
X91660201Y-142094519D01*
X106720880Y-141674011D02*
X106300372Y-142094519D01*
X119496643Y-141674011D02*
X106720880Y-141674011D01*
X122231602Y-144408970D02*
X119496643Y-141674011D01*
X123952000Y-138176000D02*
X122231602Y-139896398D01*
X123952000Y-137296720D02*
X123952000Y-138176000D01*
X132216720Y-129032000D02*
X123952000Y-137296720D01*
X134620000Y-129032000D02*
X132216720Y-129032000D01*
X141986000Y-114300000D02*
X141986000Y-121666000D01*
X138377080Y-110691080D02*
X141986000Y-114300000D01*
X138377080Y-105357080D02*
X138377080Y-110691080D01*
X141487676Y-105357080D02*
X138377080Y-105357080D01*
X145542000Y-101302756D02*
X141487676Y-105357080D01*
X145542000Y-98552000D02*
X145542000Y-101302756D01*
X149039520Y-95054480D02*
X145542000Y-98552000D01*
X149039520Y-82111238D02*
X149039520Y-95054480D01*
X150300198Y-80850560D02*
X149039520Y-82111238D01*
X159071802Y-80850560D02*
X150300198Y-80850560D01*
X122231602Y-139896398D02*
X122231602Y-144408970D01*
X161279242Y-83058000D02*
X159071802Y-80850560D01*
X161798000Y-83058000D02*
X161279242Y-83058000D01*
%TO.N,ROW3*%
X-64905382Y-98396788D02*
X-69206926Y-94095244D01*
X-47616980Y-98396788D02*
X-64905382Y-98396788D01*
X-47196472Y-97976280D02*
X-47616980Y-98396788D01*
X-34420711Y-97976280D02*
X-47196472Y-97976280D01*
X-31685751Y-100711240D02*
X-34420711Y-97976280D01*
X-10095805Y-105012783D02*
X-27384208Y-105012783D01*
X-27384208Y-105012783D02*
X-31685751Y-100711240D01*
X-9675297Y-104592275D02*
X-10095805Y-105012783D01*
X11179457Y-104592275D02*
X-9675297Y-104592275D01*
X12887860Y-106300678D02*
X11179457Y-104592275D01*
X17189404Y-110602222D02*
X12887860Y-106300678D01*
X34477806Y-110602222D02*
X17189404Y-110602222D01*
X34898314Y-110181714D02*
X34477806Y-110602222D01*
X34914907Y-110165121D02*
X34898314Y-110181714D01*
X50894209Y-110165121D02*
X34914907Y-110165121D01*
X52944482Y-112215394D02*
X50894209Y-110165121D01*
X72881114Y-112215394D02*
X52944482Y-112215394D01*
X73301622Y-111794886D02*
X72881114Y-112215394D01*
X83429153Y-111794886D02*
X73301622Y-111794886D01*
X88415384Y-116781117D02*
X83429153Y-111794886D01*
X89998267Y-118364000D02*
X88415384Y-116781117D01*
X94996000Y-118364000D02*
X89998267Y-118364000D01*
X99965931Y-123333931D02*
X94996000Y-118364000D01*
X109608370Y-123333931D02*
X99965931Y-123333931D01*
X110028878Y-122913423D02*
X109608370Y-123333931D01*
X122804640Y-122913423D02*
X110028878Y-122913423D01*
X125539600Y-125648383D02*
X122804640Y-122913423D01*
X125539600Y-117558842D02*
X125539600Y-125648383D01*
X148590000Y-94508442D02*
X125539600Y-117558842D01*
X148590000Y-81925040D02*
X148590000Y-94508442D01*
X150114000Y-80401040D02*
X148590000Y-81925040D01*
X159258000Y-80401040D02*
X150114000Y-80401040D01*
X160644960Y-81788000D02*
X159258000Y-80401040D01*
X161798000Y-81788000D02*
X160644960Y-81788000D01*
%TO.N,ROW2*%
X-61597384Y-79636200D02*
X-65898928Y-75334656D01*
X-44308983Y-79636200D02*
X-61597384Y-79636200D01*
X-43888475Y-79215692D02*
X-44308983Y-79636200D01*
X-31112713Y-79215692D02*
X-43888475Y-79215692D01*
X-28377753Y-81950652D02*
X-31112713Y-79215692D01*
X-6787807Y-86252196D02*
X-24076209Y-86252196D01*
X-6367299Y-85831688D02*
X-6787807Y-86252196D01*
X-24076209Y-86252196D02*
X-28377753Y-81950652D01*
X15645247Y-85831688D02*
X-6367299Y-85831688D01*
X21655193Y-91841634D02*
X15645247Y-85831688D01*
X38206312Y-91421126D02*
X37785804Y-91841634D01*
X37785804Y-91841634D02*
X21655193Y-91841634D01*
X38222905Y-91404533D02*
X38206312Y-91421126D01*
X54202207Y-91404533D02*
X38222905Y-91404533D01*
X56252481Y-93454807D02*
X54202207Y-91404533D01*
X76609620Y-93034299D02*
X76189112Y-93454807D01*
X76189112Y-93454807D02*
X56252481Y-93454807D01*
X86737152Y-93034299D02*
X76609620Y-93034299D01*
X91723382Y-98020529D02*
X86737152Y-93034299D01*
X93524853Y-99822000D02*
X91723382Y-98020529D01*
X98401345Y-99822000D02*
X93524853Y-99822000D01*
X103341436Y-104762091D02*
X98401345Y-99822000D01*
X112727620Y-104762091D02*
X103341436Y-104762091D01*
X113336876Y-104152835D02*
X112727620Y-104762091D01*
X126112638Y-104152835D02*
X113336876Y-104152835D01*
X128847598Y-106887795D02*
X126112638Y-104152835D01*
X147694333Y-79951520D02*
X128847598Y-98798255D01*
X161798000Y-80772000D02*
X160977520Y-79951520D01*
X160977520Y-79951520D02*
X147694333Y-79951520D01*
X128847598Y-98798255D02*
X128847598Y-106887795D01*
%TO.N,ROW1*%
X-58289388Y-60875612D02*
X-62590931Y-56574069D01*
X-40580477Y-60455104D02*
X-41000985Y-60875612D01*
X-41000985Y-60875612D02*
X-58289388Y-60875612D01*
X-25069755Y-63190064D02*
X-27804715Y-60455104D01*
X-27804715Y-60455104D02*
X-40580477Y-60455104D01*
X-20768211Y-67491608D02*
X-25069755Y-63190064D01*
X-3479809Y-67491608D02*
X-20768211Y-67491608D01*
X-3059301Y-67071100D02*
X-3479809Y-67491608D01*
X19503856Y-68779503D02*
X17795453Y-67071100D01*
X17795453Y-67071100D02*
X-3059301Y-67071100D01*
X23805400Y-73081047D02*
X19503856Y-68779503D01*
X41093802Y-73081047D02*
X23805400Y-73081047D01*
X41514310Y-72660539D02*
X41093802Y-73081047D01*
X57510204Y-72643946D02*
X41530903Y-72643946D01*
X41530903Y-72643946D02*
X41514310Y-72660539D01*
X59560477Y-74694219D02*
X57510204Y-72643946D01*
X79497110Y-74694219D02*
X59560477Y-74694219D01*
X79917618Y-74273711D02*
X79497110Y-74694219D01*
X90045150Y-74273711D02*
X79917618Y-74273711D01*
X95031380Y-79259941D02*
X90045150Y-74273711D01*
X103940136Y-88168697D02*
X95031380Y-79259941D01*
X113868425Y-88168697D02*
X103940136Y-88168697D01*
X116644874Y-85392248D02*
X113868425Y-88168697D01*
X129420636Y-85392248D02*
X116644874Y-85392248D01*
X132155595Y-88127207D02*
X129420636Y-85392248D01*
X138267628Y-75600372D02*
X132155595Y-81712405D01*
X141061628Y-75600372D02*
X138267628Y-75600372D01*
X144963256Y-79502000D02*
X141061628Y-75600372D01*
X161798000Y-79502000D02*
X144963256Y-79502000D01*
X132155595Y-81712405D02*
X132155595Y-88127207D01*
%TO.N,ROW0*%
X144582973Y-78486000D02*
X161798000Y-78486000D01*
X135463593Y-69366620D02*
X144582973Y-78486000D01*
X122687832Y-69366620D02*
X135463593Y-69366620D01*
X119952872Y-66631660D02*
X122687832Y-69366620D01*
X116435348Y-67310000D02*
X119274532Y-67310000D01*
X111191286Y-62065938D02*
X116435348Y-67310000D01*
X99905962Y-62065938D02*
X111191286Y-62065938D01*
X119274532Y-67310000D02*
X119952872Y-66631660D01*
X98339378Y-60499354D02*
X99905962Y-62065938D01*
X82805108Y-55933631D02*
X83225616Y-55513123D01*
X62868475Y-55933631D02*
X82805108Y-55933631D01*
X60818202Y-53883358D02*
X62868475Y-55933631D01*
X83225616Y-55513123D02*
X88211847Y-60499354D01*
X88211847Y-60499354D02*
X98339378Y-60499354D01*
X60801609Y-53899951D02*
X60818202Y-53883358D01*
X44822308Y-53899951D02*
X60801609Y-53899951D01*
X44401800Y-54320459D02*
X44822308Y-53899951D01*
X27009569Y-54320459D02*
X44401800Y-54320459D01*
X22685798Y-49996688D02*
X27009569Y-54320459D01*
X2229120Y-49996688D02*
X22685798Y-49996688D01*
X292803Y-48060371D02*
X2229120Y-49996688D01*
X-127705Y-48480879D02*
X292803Y-48060371D01*
X-21761757Y-44429476D02*
X-17710354Y-48480879D01*
X-17710354Y-48480879D02*
X-127705Y-48480879D01*
X-34537520Y-44429476D02*
X-21761757Y-44429476D01*
X-37272479Y-41694517D02*
X-34537520Y-44429476D01*
X-37692987Y-42115025D02*
X-37272479Y-41694517D01*
%TO.N,Net-(D104-Pad2)*%
X310824869Y-138269137D02*
X310824869Y-146904929D01*
X313805052Y-135288954D02*
X310824869Y-138269137D01*
%TO.N,Net-(D102-Pad2)*%
X307516872Y-119547697D02*
X307516872Y-128144341D01*
X310497054Y-116567515D02*
X307516872Y-119547697D01*
X310497054Y-116528366D02*
X310497054Y-116567515D01*
%TO.N,Net-(D100-Pad2)*%
X304332960Y-100623875D02*
X304332960Y-109361874D01*
X307189057Y-97767778D02*
X304332960Y-100623875D01*
%TO.N,Net-(D98-Pad2)*%
X303881059Y-79007191D02*
X300900876Y-81987374D01*
X300900876Y-81987374D02*
X300900876Y-90623166D01*
%TO.N,Net-(D96-Pad2)*%
X300573061Y-60246603D02*
X297592878Y-63226786D01*
X297592878Y-63226786D02*
X297592878Y-71862578D01*
%TO.N,Net-(D94-Pad2)*%
X297779945Y-49606926D02*
X294284880Y-53101991D01*
X297779945Y-42000897D02*
X297779945Y-49606926D01*
X297265063Y-41486015D02*
X297779945Y-42000897D01*
%TO.N,Net-(D93-Pad1)*%
X279019358Y-52355026D02*
X278288986Y-53085398D01*
X279019358Y-45308895D02*
X279019358Y-52355026D01*
X278504476Y-44794013D02*
X279019358Y-45308895D01*
%TO.N,Net-(D95-Pad1)*%
X282327355Y-71115614D02*
X281596984Y-71845985D01*
X282327355Y-64069483D02*
X282327355Y-71115614D01*
X281812473Y-63554601D02*
X282327355Y-64069483D01*
%TO.N,Net-(D97-Pad1)*%
X285635353Y-89876201D02*
X284904981Y-90606573D01*
X285635353Y-82830070D02*
X285635353Y-89876201D01*
X285120471Y-82315188D02*
X285635353Y-82830070D01*
%TO.N,Net-(D99-Pad1)*%
X288943351Y-108636789D02*
X288212979Y-109367161D01*
X288943351Y-101590658D02*
X288943351Y-108636789D01*
X288428469Y-101075776D02*
X288943351Y-101590658D01*
%TO.N,Net-(D101-Pad1)*%
X292251349Y-127103128D02*
X291476870Y-127877607D01*
X291736467Y-119836364D02*
X292251349Y-120351246D01*
X292251349Y-120351246D02*
X292251349Y-127103128D01*
%TO.N,Net-(D103-Pad1)*%
X292910304Y-145117948D02*
X294702919Y-146910563D01*
X295044464Y-138636101D02*
X292910304Y-140770261D01*
X292910304Y-140770261D02*
X292910304Y-145117948D01*
X295044464Y-138596952D02*
X295044464Y-138636101D01*
%TO.N,Net-(D92-Pad2)*%
X275509090Y-139153396D02*
X272421561Y-142240925D01*
X275798704Y-139153396D02*
X275509090Y-139153396D01*
X272421561Y-142240925D02*
X272421561Y-148518101D01*
%TO.N,Net-(D80-Pad2)*%
X269113563Y-123769952D02*
X269113563Y-129757514D01*
X272490706Y-120392809D02*
X269113563Y-123769952D01*
%TO.N,Net-(D60-Pad2)*%
X269697590Y-107104902D02*
X265805566Y-110996926D01*
X269697590Y-102147103D02*
X269697590Y-107104902D01*
X269182708Y-101632221D02*
X269697590Y-102147103D01*
%TO.N,Net-(D44-Pad2)*%
X266389592Y-88344314D02*
X262497568Y-92236338D01*
X266389592Y-83386515D02*
X266389592Y-88344314D01*
X265874710Y-82871633D02*
X266389592Y-83386515D01*
%TO.N,Net-(D16-Pad2)*%
X259258715Y-45350458D02*
X255881572Y-48727601D01*
X255881572Y-48727601D02*
X255881572Y-54715163D01*
%TO.N,Net-(D32-Pad2)*%
X263081595Y-69583726D02*
X259189570Y-73475751D01*
X263081595Y-64625928D02*
X263081595Y-69583726D01*
X262566713Y-64111046D02*
X263081595Y-64625928D01*
%TO.N,Net-(D15-Pad1)*%
X240759299Y-57061675D02*
X240370851Y-57450123D01*
X240759299Y-47065317D02*
X240759299Y-57061675D01*
X240101167Y-46407185D02*
X240759299Y-47065317D01*
%TO.N,Net-(D31-Pad1)*%
X244067296Y-75822262D02*
X243678848Y-76210710D01*
X244067296Y-65825904D02*
X244067296Y-75822262D01*
X243409165Y-65167773D02*
X244067296Y-65825904D01*
%TO.N,Net-(D43-Pad1)*%
X247232045Y-94726099D02*
X246986846Y-94971298D01*
X246717163Y-83928361D02*
X247232045Y-84443243D01*
X247232045Y-84443243D02*
X247232045Y-94726099D01*
%TO.N,Net-(D59-Pad1)*%
X250540043Y-113486687D02*
X250294844Y-113731886D01*
X250540043Y-103203830D02*
X250540043Y-113486687D01*
X250025161Y-102688948D02*
X250540043Y-103203830D01*
%TO.N,Net-(D79-Pad1)*%
X253848041Y-121964418D02*
X253848041Y-132247274D01*
X253848041Y-132247274D02*
X253602842Y-132492473D01*
X253333159Y-121449536D02*
X253848041Y-121964418D01*
%TO.N,Net-(D91-Pad1)*%
X257156038Y-151007863D02*
X256910840Y-151253061D01*
X257156038Y-140725006D02*
X257156038Y-151007863D01*
X256641156Y-140210124D02*
X257156038Y-140725006D01*
%TO.N,Net-(D90-Pad2)*%
X235297346Y-148459960D02*
X235297346Y-157385367D01*
X237987914Y-145769392D02*
X235297346Y-148459960D01*
X238277528Y-145769392D02*
X237987914Y-145769392D01*
%TO.N,Net-(D78-Pad2)*%
X231989348Y-129988987D02*
X231989348Y-138624780D01*
X234969531Y-127008804D02*
X231989348Y-129988987D01*
%TO.N,Net-(D58-Pad2)*%
X232176415Y-108763099D02*
X232176415Y-116369127D01*
X232176415Y-116369127D02*
X228681350Y-119864192D01*
X231661533Y-108248217D02*
X232176415Y-108763099D01*
%TO.N,Net-(D42-Pad2)*%
X228868417Y-97608539D02*
X225373352Y-101103604D01*
X228868417Y-90002511D02*
X228868417Y-97608539D01*
X228353535Y-89487629D02*
X228868417Y-90002511D01*
%TO.N,Net-(D30-Pad2)*%
X222462314Y-73310264D02*
X222462314Y-84594287D01*
X225045537Y-70727041D02*
X222462314Y-73310264D01*
%TO.N,Net-(D14-Pad2)*%
X218757357Y-54657022D02*
X218757357Y-63582429D01*
X221737539Y-51966454D02*
X221447925Y-51966454D01*
X221447925Y-51966454D02*
X218757357Y-54657022D01*
%TO.N,Net-(D89-Pad1)*%
X216477757Y-160529438D02*
X216477757Y-168007681D01*
X213359141Y-157410822D02*
X216477757Y-160529438D01*
%TO.N,Net-(D77-Pad1)*%
X217264034Y-143222562D02*
X216875586Y-143611010D01*
X216605903Y-132568073D02*
X217264034Y-133226204D01*
X217264034Y-133226204D02*
X217264034Y-143222562D01*
%TO.N,Net-(D57-Pad1)*%
X213956036Y-124461974D02*
X213956036Y-114465616D01*
X213956036Y-114465616D02*
X213297905Y-113807485D01*
X213567588Y-124850422D02*
X213956036Y-124461974D01*
%TO.N,Net-(D41-Pad1)*%
X210504789Y-105844636D02*
X210259590Y-106089835D01*
X210504789Y-97220206D02*
X210504789Y-105844636D01*
X209989907Y-96705324D02*
X210504789Y-97220206D01*
X209989907Y-95046897D02*
X209989907Y-96705324D01*
%TO.N,Net-(D29-Pad1)*%
X207196791Y-76801192D02*
X207196791Y-87084049D01*
X207196791Y-87084049D02*
X206951593Y-87329247D01*
X206681909Y-76286310D02*
X207196791Y-76801192D01*
%TO.N,Net-(D13-Pad1)*%
X203987936Y-58139747D02*
X203987936Y-67930070D01*
X203373911Y-57525722D02*
X203987936Y-58139747D01*
X203987936Y-67930070D02*
X203599488Y-68318518D01*
%TO.N,Net-(D88-Pad2)*%
X190382020Y-177898331D02*
X191911903Y-179428214D01*
X190382020Y-168838797D02*
X190382020Y-177898331D01*
X191784102Y-167436715D02*
X190382020Y-168838797D01*
%TO.N,Net-(D76-Pad2)*%
X194865132Y-138566639D02*
X194865132Y-147492046D01*
X197845315Y-135876070D02*
X197555701Y-135876070D01*
X197555701Y-135876070D02*
X194865132Y-138566639D01*
%TO.N,Net-(D56-Pad2)*%
X191557134Y-120095666D02*
X191557134Y-128731458D01*
X194537317Y-117115483D02*
X191557134Y-120095666D01*
%TO.N,Net-(D40-Pad2)*%
X188249137Y-101335077D02*
X188249137Y-109970870D01*
X191229319Y-98354895D02*
X188249137Y-101335077D01*
%TO.N,Net-(D28-Pad2)*%
X184912000Y-91181144D02*
X184941139Y-91210283D01*
X184912000Y-82603629D02*
X184912000Y-91181144D01*
X187921322Y-79594307D02*
X184912000Y-82603629D01*
%TO.N,Net-(D12-Pad2)*%
X181633141Y-63813903D02*
X181633141Y-72449695D01*
X184613324Y-60833720D02*
X181633141Y-63813903D01*
%TO.N,Net-(D87-Pad1)*%
X130019408Y-171323433D02*
X130019408Y-173163320D01*
X135958586Y-165384255D02*
X130019408Y-171323433D01*
X135958586Y-163970264D02*
X135958586Y-165384255D01*
%TO.N,Net-(D75-Pad1)*%
X129004956Y-141458520D02*
X125481468Y-144982008D01*
X129004956Y-134512806D02*
X129004956Y-141458520D01*
%TO.N,Net-(D55-Pad1)*%
X132312954Y-122697933D02*
X128789466Y-126221421D01*
X132312954Y-115752218D02*
X132312954Y-122697933D01*
%TO.N,Net-(D39-Pad1)*%
X135620951Y-103937346D02*
X132097464Y-107460833D01*
X135620951Y-96991630D02*
X135620951Y-103937346D01*
%TO.N,Net-(D27-Pad1)*%
X138928949Y-85176757D02*
X135405461Y-88700245D01*
X138928949Y-78231043D02*
X138928949Y-85176757D01*
%TO.N,Net-(D11-Pad1)*%
X141869696Y-59837706D02*
X141869696Y-66783421D01*
X142236947Y-59470455D02*
X141869696Y-59837706D01*
X141869696Y-66783421D02*
X138713459Y-69939658D01*
%TO.N,Net-(D86-Pad2)*%
X108012782Y-161608680D02*
X105438592Y-161608680D01*
X114254299Y-155367163D02*
X108012782Y-161608680D01*
X114254299Y-153953172D02*
X114254299Y-155367163D01*
%TO.N,Net-(D74-Pad2)*%
X110244368Y-134327619D02*
X103471014Y-141100973D01*
X110244368Y-131204808D02*
X110244368Y-134327619D01*
%TO.N,Net-(D54-Pad2)*%
X113552366Y-115567031D02*
X106779012Y-122340385D01*
X113552366Y-112444220D02*
X113552366Y-115567031D01*
%TO.N,Net-(D38-Pad2)*%
X116860364Y-96806443D02*
X110087010Y-103579797D01*
X116860364Y-93683633D02*
X116860364Y-96806443D01*
%TO.N,Net-(D26-Pad2)*%
X120168362Y-78045856D02*
X113395008Y-84819210D01*
X120168362Y-74923045D02*
X120168362Y-78045856D01*
%TO.N,Net-(D10-Pad2)*%
X123476359Y-59285269D02*
X116703006Y-66058622D01*
X123476359Y-56162457D02*
X123476359Y-59285269D01*
%TO.N,Net-(D85-Pad1)*%
X88175783Y-146657398D02*
X88175783Y-151748802D01*
X88175783Y-151748802D02*
X85049255Y-154875330D01*
%TO.N,Net-(D73-Pad1)*%
X91880740Y-132591254D02*
X88357252Y-136114742D01*
X91880740Y-125645540D02*
X91880740Y-132591254D01*
%TO.N,Net-(D53-Pad1)*%
X95188738Y-113830667D02*
X91665250Y-117354155D01*
X95188738Y-106884952D02*
X95188738Y-113830667D01*
%TO.N,Net-(D37-Pad1)*%
X96177319Y-98593567D02*
X94973248Y-98593567D01*
X98496736Y-96274150D02*
X96177319Y-98593567D01*
X98496736Y-88124364D02*
X98496736Y-96274150D01*
%TO.N,Net-(D25-Pad1)*%
X101804734Y-76309491D02*
X98281246Y-79832979D01*
X101804734Y-69363777D02*
X101804734Y-76309491D01*
%TO.N,Net-(D9-Pad1)*%
X105112731Y-50603189D02*
X105112731Y-57548905D01*
X105112731Y-57548905D02*
X101589244Y-61072392D01*
%TO.N,Net-(D84-Pad2)*%
X70209114Y-141969671D02*
X63435761Y-148743024D01*
X70209114Y-138846859D02*
X70209114Y-141969671D01*
%TO.N,Net-(D72-Pad2)*%
X73517112Y-123209083D02*
X66743759Y-129982436D01*
X73517112Y-120086271D02*
X73517112Y-123209083D01*
%TO.N,Net-(D52-Pad2)*%
X76825110Y-104448494D02*
X70051756Y-111221848D01*
X76825110Y-101325684D02*
X76825110Y-104448494D01*
%TO.N,Net-(D36-Pad2)*%
X80133108Y-85687907D02*
X73359754Y-92461261D01*
X80133108Y-82565096D02*
X80133108Y-85687907D01*
%TO.N,Net-(D24-Pad2)*%
X83441106Y-66927319D02*
X76667752Y-73700673D01*
X83441106Y-63804508D02*
X83441106Y-66927319D01*
%TO.N,Net-(D8-Pad2)*%
X86749103Y-45043921D02*
X86749103Y-48166732D01*
X86749103Y-48166732D02*
X79975750Y-54940085D01*
%TO.N,Net-(D83-Pad1)*%
X51051567Y-144735846D02*
X47528079Y-148259334D01*
X51051567Y-137790132D02*
X51051567Y-144735846D01*
%TO.N,Net-(D71-Pad1)*%
X54359565Y-125975259D02*
X50836077Y-129498747D01*
X54359565Y-119029544D02*
X54359565Y-125975259D01*
%TO.N,Net-(D51-Pad1)*%
X57667563Y-107214671D02*
X54144075Y-110738159D01*
X57667563Y-100268956D02*
X57667563Y-107214671D01*
%TO.N,Net-(D35-Pad1)*%
X60975560Y-88454084D02*
X57452073Y-91977571D01*
X60975560Y-81508369D02*
X60975560Y-88454084D01*
%TO.N,Net-(D23-Pad1)*%
X64283558Y-62747781D02*
X64283558Y-69693496D01*
X64283558Y-69693496D02*
X60760070Y-73216984D01*
%TO.N,Net-(D7-Pad1)*%
X67591556Y-50932908D02*
X64068068Y-54456396D01*
X67591556Y-43987193D02*
X67591556Y-50932908D01*
%TO.N,Net-(D82-Pad2)*%
X31805806Y-139898194D02*
X25032453Y-146671547D01*
X25032453Y-146671547D02*
X25032453Y-147129852D01*
X31805806Y-137233687D02*
X31805806Y-139898194D01*
%TO.N,Net-(D70-Pad2)*%
X35113804Y-118473099D02*
X35113804Y-121595910D01*
X35113804Y-121595910D02*
X28340450Y-128369264D01*
%TO.N,Net-(D50-Pad2)*%
X38421802Y-99712511D02*
X38421802Y-102835322D01*
X38421802Y-102835322D02*
X31648448Y-109608676D01*
%TO.N,Net-(D34-Pad2)*%
X41729800Y-80951924D02*
X41729800Y-84074734D01*
X41729800Y-84074734D02*
X34956446Y-90848088D01*
%TO.N,Net-(D22-Pad2)*%
X45037798Y-65314147D02*
X38264444Y-72087501D01*
X45037798Y-62191336D02*
X45037798Y-65314147D01*
%TO.N,Net-(D6-Pad2)*%
X48345795Y-46553560D02*
X41572442Y-53326913D01*
X48345795Y-43430748D02*
X48345795Y-46553560D01*
%TO.N,Net-(D81-Pad1)*%
X13045219Y-140871404D02*
X9521731Y-144394892D01*
X13045219Y-133925689D02*
X13045219Y-140871404D01*
%TO.N,Net-(D69-Pad1)*%
X16353216Y-122110817D02*
X12829729Y-125634304D01*
X16353216Y-115165101D02*
X16353216Y-122110817D01*
%TO.N,Net-(D49-Pad1)*%
X19644744Y-103366698D02*
X16137726Y-106873716D01*
X19644744Y-97714396D02*
X19644744Y-103366698D01*
X19661214Y-97697926D02*
X19644744Y-97714396D01*
X19661214Y-96404514D02*
X19661214Y-97697926D01*
%TO.N,Net-(D33-Pad1)*%
X22969212Y-84589641D02*
X19445724Y-88113129D01*
X22969212Y-77643926D02*
X22969212Y-84589641D01*
%TO.N,Net-(D21-Pad1)*%
X26277210Y-65829053D02*
X22753722Y-69352541D01*
X26277210Y-58883338D02*
X26277210Y-65829053D01*
%TO.N,Net-(D5-Pad1)*%
X29585208Y-46920182D02*
X25935664Y-50569726D01*
X29585208Y-40122751D02*
X29585208Y-46920182D01*
%TO.N,Net-(D68-Pad2)*%
X-15337825Y-122779825D02*
X-16233161Y-122779825D01*
X-9459807Y-116901807D02*
X-15337825Y-122779825D01*
X-9459807Y-112883660D02*
X-9459807Y-116901807D01*
%TO.N,Net-(D64-Pad2)*%
X-11055237Y-104019237D02*
X-12925163Y-104019237D01*
X-6151809Y-99115809D02*
X-11055237Y-104019237D01*
X-6151809Y-94123073D02*
X-6151809Y-99115809D01*
%TO.N,Net-(D48-Pad2)*%
X-2843812Y-79297812D02*
X-8804650Y-85258650D01*
X-2843812Y-75362485D02*
X-2843812Y-79297812D01*
X-8804650Y-85258650D02*
X-9617165Y-85258650D01*
%TO.N,Net-(D20-Pad2)*%
X464186Y-59724709D02*
X-6309167Y-66498062D01*
X464186Y-56601897D02*
X464186Y-59724709D01*
%TO.N,Net-(D4-Pad2)*%
X3772184Y-40758086D02*
X-2957063Y-47487333D01*
X3772184Y-37841310D02*
X3772184Y-40758086D01*
%TO.N,Net-(D67-Pad1)*%
X-31743883Y-118357883D02*
X-31743883Y-120044865D01*
X-28220395Y-109575663D02*
X-28220395Y-114834395D01*
X-28220395Y-114834395D02*
X-31743883Y-118357883D01*
%TO.N,Net-(D63-Pad1)*%
X-24638000Y-90886682D02*
X-24638000Y-96266000D01*
X-28435885Y-100063885D02*
X-28435885Y-101284278D01*
X-24709607Y-90815075D02*
X-24638000Y-90886682D01*
X-24638000Y-96266000D02*
X-28435885Y-100063885D01*
X-24912397Y-90815075D02*
X-24709607Y-90815075D01*
%TO.N,Net-(D47-Pad1)*%
X-21604399Y-79000202D02*
X-25127887Y-82523690D01*
X-21604399Y-72054487D02*
X-21604399Y-79000202D01*
%TO.N,Net-(D19-Pad1)*%
X-21552490Y-63763102D02*
X-21819889Y-63763102D01*
X-18296401Y-60507013D02*
X-21552490Y-63763102D01*
X-18296401Y-53293899D02*
X-18296401Y-60507013D01*
%TO.N,Net-(D3-Pad1)*%
X-14988404Y-41479027D02*
X-18511891Y-45002514D01*
X-14988404Y-34533312D02*
X-14988404Y-41479027D01*
%TO.N,Net-(D66-Pad2)*%
X-52409829Y-116163829D02*
X-53754336Y-116163829D01*
X-46980982Y-110734982D02*
X-52409829Y-116163829D01*
X-46980982Y-106267665D02*
X-46980982Y-110734982D01*
%TO.N,Net-(D62-Pad2)*%
X-43672985Y-90629889D02*
X-50446338Y-97403242D01*
X-43672985Y-87507077D02*
X-43672985Y-90629889D01*
%TO.N,Net-(D46-Pad2)*%
X-40364987Y-71869300D02*
X-47138341Y-78642654D01*
X-40364987Y-68746489D02*
X-40364987Y-71869300D01*
%TO.N,Net-(D18-Pad2)*%
X-37056989Y-53108712D02*
X-43830343Y-59882066D01*
X-37056989Y-49985902D02*
X-37056989Y-53108712D01*
%TO.N,Net-(D2-Pad2)*%
X-33748991Y-31225314D02*
X-33748991Y-34348125D01*
X-33748991Y-34348125D02*
X-40522345Y-41121479D01*
%TO.N,Net-(D65-Pad1)*%
X-65741570Y-109905382D02*
X-69265058Y-113428870D01*
X-65741570Y-102959667D02*
X-65741570Y-109905382D01*
%TO.N,Net-(D61-Pad1)*%
X-62433572Y-91144794D02*
X-65957060Y-94668282D01*
X-62433572Y-84199079D02*
X-62433572Y-91144794D01*
%TO.N,Net-(D45-Pad1)*%
X-59125575Y-72384207D02*
X-62649062Y-75907694D01*
X-59125575Y-65438492D02*
X-59125575Y-72384207D01*
%TO.N,Net-(D17-Pad1)*%
X-55817577Y-53623619D02*
X-59341065Y-57147107D01*
X-55817577Y-46677904D02*
X-55817577Y-53623619D01*
%TO.N,Net-(D1-Pad1)*%
X-52509579Y-34863031D02*
X-56033067Y-38386519D01*
X-52509579Y-27917316D02*
X-52509579Y-34863031D01*
%TD*%
M02*
