%TF.GenerationSoftware,KiCad,Pcbnew,(6.0.4)*%
%TF.CreationDate,2022-12-29T17:09:08-05:00*%
%TF.ProjectId,atreuskeypad,61747265-7573-46b6-9579-7061642e6b69,rev?*%
%TF.SameCoordinates,Original*%
%TF.FileFunction,Legend,Top*%
%TF.FilePolarity,Positive*%
%FSLAX46Y46*%
G04 Gerber Fmt 4.6, Leading zero omitted, Abs format (unit mm)*
G04 Created by KiCad (PCBNEW (6.0.4)) date 2022-12-29 17:09:08*
%MOMM*%
%LPD*%
G01*
G04 APERTURE LIST*
G04 Aperture macros list*
%AMHorizOval*
0 Thick line with rounded ends*
0 $1 width*
0 $2 $3 position (X,Y) of the first rounded end (center of the circle)*
0 $4 $5 position (X,Y) of the second rounded end (center of the circle)*
0 Add line between two ends*
20,1,$1,$2,$3,$4,$5,0*
0 Add two circle primitives to create the rounded ends*
1,1,$1,$2,$3*
1,1,$1,$4,$5*%
G04 Aperture macros list end*
%ADD10C,0.300000*%
%ADD11C,0.150000*%
%ADD12HorizOval,2.000000X0.246202X-0.043412X-0.246202X0.043412X0*%
%ADD13HorizOval,2.000000X0.246202X0.043412X-0.246202X-0.043412X0*%
%ADD14HorizOval,2.000000X0.226577X0.105655X-0.226577X-0.105655X0*%
%ADD15HorizOval,2.000000X0.226577X-0.105655X-0.226577X0.105655X0*%
G04 APERTURE END LIST*
D10*
%TO.C,quetzal*%
X166769142Y-188141428D02*
X166769142Y-189665428D01*
X166769142Y-189084857D02*
X166624000Y-189157428D01*
X166333714Y-189157428D01*
X166188571Y-189084857D01*
X166116000Y-189012285D01*
X166043428Y-188867142D01*
X166043428Y-188431714D01*
X166116000Y-188286571D01*
X166188571Y-188214000D01*
X166333714Y-188141428D01*
X166624000Y-188141428D01*
X166769142Y-188214000D01*
X168148000Y-188141428D02*
X168148000Y-189157428D01*
X167494857Y-188141428D02*
X167494857Y-188939714D01*
X167567428Y-189084857D01*
X167712571Y-189157428D01*
X167930285Y-189157428D01*
X168075428Y-189084857D01*
X168148000Y-189012285D01*
X169454285Y-189084857D02*
X169309142Y-189157428D01*
X169018857Y-189157428D01*
X168873714Y-189084857D01*
X168801142Y-188939714D01*
X168801142Y-188359142D01*
X168873714Y-188214000D01*
X169018857Y-188141428D01*
X169309142Y-188141428D01*
X169454285Y-188214000D01*
X169526857Y-188359142D01*
X169526857Y-188504285D01*
X168801142Y-188649428D01*
X169962285Y-188141428D02*
X170542857Y-188141428D01*
X170180000Y-187633428D02*
X170180000Y-188939714D01*
X170252571Y-189084857D01*
X170397714Y-189157428D01*
X170542857Y-189157428D01*
X170905714Y-188141428D02*
X171704000Y-188141428D01*
X170905714Y-189157428D01*
X171704000Y-189157428D01*
X172937714Y-189157428D02*
X172937714Y-188359142D01*
X172865142Y-188214000D01*
X172720000Y-188141428D01*
X172429714Y-188141428D01*
X172284571Y-188214000D01*
X172937714Y-189084857D02*
X172792571Y-189157428D01*
X172429714Y-189157428D01*
X172284571Y-189084857D01*
X172212000Y-188939714D01*
X172212000Y-188794571D01*
X172284571Y-188649428D01*
X172429714Y-188576857D01*
X172792571Y-188576857D01*
X172937714Y-188504285D01*
X173881142Y-189157428D02*
X173736000Y-189084857D01*
X173663428Y-188939714D01*
X173663428Y-187633428D01*
D11*
%TO.C,MNT*%
X-43148095Y-41748380D02*
X-43148095Y-40748380D01*
X-42814761Y-41462666D01*
X-42481428Y-40748380D01*
X-42481428Y-41748380D01*
X-42005238Y-41748380D02*
X-42005238Y-40748380D01*
X-41433809Y-41748380D01*
X-41433809Y-40748380D01*
X-41100476Y-40748380D02*
X-40529047Y-40748380D01*
X-40814761Y-41748380D02*
X-40814761Y-40748380D01*
X28987904Y-110836380D02*
X28987904Y-109836380D01*
X29321238Y-110550666D01*
X29654571Y-109836380D01*
X29654571Y-110836380D01*
X30130761Y-110836380D02*
X30130761Y-109836380D01*
X30702190Y-110836380D01*
X30702190Y-109836380D01*
X31035523Y-109836380D02*
X31606952Y-109836380D01*
X31321238Y-110836380D02*
X31321238Y-109836380D01*
X152431904Y-85182380D02*
X152431904Y-84182380D01*
X152765238Y-84896666D01*
X153098571Y-84182380D01*
X153098571Y-85182380D01*
X153574761Y-85182380D02*
X153574761Y-84182380D01*
X154146190Y-85182380D01*
X154146190Y-84182380D01*
X154479523Y-84182380D02*
X155050952Y-84182380D01*
X154765238Y-85182380D02*
X154765238Y-84182380D01*
X306101904Y-129124380D02*
X306101904Y-128124380D01*
X306435238Y-128838666D01*
X306768571Y-128124380D01*
X306768571Y-129124380D01*
X307244761Y-129124380D02*
X307244761Y-128124380D01*
X307816190Y-129124380D01*
X307816190Y-128124380D01*
X308149523Y-128124380D02*
X308720952Y-128124380D01*
X308435238Y-129124380D02*
X308435238Y-128124380D01*
X131095904Y-148682380D02*
X131095904Y-147682380D01*
X131429238Y-148396666D01*
X131762571Y-147682380D01*
X131762571Y-148682380D01*
X132238761Y-148682380D02*
X132238761Y-147682380D01*
X132810190Y-148682380D01*
X132810190Y-147682380D01*
X133143523Y-147682380D02*
X133714952Y-147682380D01*
X133429238Y-148682380D02*
X133429238Y-147682380D01*
X38893904Y-54448380D02*
X38893904Y-53448380D01*
X39227238Y-54162666D01*
X39560571Y-53448380D01*
X39560571Y-54448380D01*
X40036761Y-54448380D02*
X40036761Y-53448380D01*
X40608190Y-54448380D01*
X40608190Y-53448380D01*
X40941523Y-53448380D02*
X41512952Y-53448380D01*
X41227238Y-54448380D02*
X41227238Y-53448380D01*
X179609904Y-84928380D02*
X179609904Y-83928380D01*
X179943238Y-84642666D01*
X180276571Y-83928380D01*
X180276571Y-84928380D01*
X180752761Y-84928380D02*
X180752761Y-83928380D01*
X181324190Y-84928380D01*
X181324190Y-83928380D01*
X181657523Y-83928380D02*
X182228952Y-83928380D01*
X181943238Y-84928380D02*
X181943238Y-83928380D01*
X200945904Y-148428380D02*
X200945904Y-147428380D01*
X201279238Y-148142666D01*
X201612571Y-147428380D01*
X201612571Y-148428380D01*
X202088761Y-148428380D02*
X202088761Y-147428380D01*
X202660190Y-148428380D01*
X202660190Y-147428380D01*
X202993523Y-147428380D02*
X203564952Y-147428380D01*
X203279238Y-148428380D02*
X203279238Y-147428380D01*
X-49752095Y-79594380D02*
X-49752095Y-78594380D01*
X-49418761Y-79308666D01*
X-49085428Y-78594380D01*
X-49085428Y-79594380D01*
X-48609238Y-79594380D02*
X-48609238Y-78594380D01*
X-48037809Y-79594380D01*
X-48037809Y-78594380D01*
X-47704476Y-78594380D02*
X-47133047Y-78594380D01*
X-47418761Y-79594380D02*
X-47418761Y-78594380D01*
X292893904Y-54194380D02*
X292893904Y-53194380D01*
X293227238Y-53908666D01*
X293560571Y-53194380D01*
X293560571Y-54194380D01*
X294036761Y-54194380D02*
X294036761Y-53194380D01*
X294608190Y-54194380D01*
X294608190Y-53194380D01*
X294941523Y-53194380D02*
X295512952Y-53194380D01*
X295227238Y-54194380D02*
X295227238Y-53194380D01*
%TO.C,quetzal*%
G36*
X168233170Y-121060384D02*
G01*
X168250662Y-121363998D01*
X168234454Y-121609983D01*
X168187367Y-121773345D01*
X168147429Y-121820136D01*
X168118100Y-121783500D01*
X168099903Y-121653646D01*
X168096678Y-121522400D01*
X168108218Y-121272773D01*
X168133180Y-121027192D01*
X168146660Y-120941444D01*
X168193045Y-120691813D01*
X168233170Y-121060384D01*
G37*
G36*
X168277091Y-118074336D02*
G01*
X168279349Y-118152795D01*
X168299426Y-118336509D01*
X168344909Y-118480437D01*
X168372578Y-118579393D01*
X168323385Y-118594341D01*
X168230379Y-118526260D01*
X168169280Y-118392782D01*
X168162801Y-118211598D01*
X168212616Y-118048030D01*
X168217897Y-118039479D01*
X168259121Y-118003693D01*
X168277091Y-118074336D01*
G37*
G36*
X160038896Y-132055491D02*
G01*
X160085243Y-132214751D01*
X160129803Y-132320725D01*
X160159293Y-132379532D01*
X160112403Y-132373350D01*
X160058069Y-132351956D01*
X160006895Y-132272927D01*
X159986174Y-132117222D01*
X159986447Y-132091649D01*
X159992836Y-131862820D01*
X160038896Y-132055491D01*
G37*
G36*
X161160445Y-135675989D02*
G01*
X161186331Y-135879850D01*
X161235432Y-136069224D01*
X161280536Y-136235660D01*
X161271582Y-136294537D01*
X161221657Y-136243509D01*
X161145854Y-136085268D01*
X161082325Y-135837179D01*
X161101474Y-135661426D01*
X161155080Y-135482476D01*
X161160445Y-135675989D01*
G37*
G36*
X162830667Y-143176469D02*
G01*
X162812539Y-143354419D01*
X162806524Y-143408275D01*
X162783586Y-143628540D01*
X162767752Y-143809800D01*
X162763130Y-143891936D01*
X162757975Y-143986521D01*
X162730634Y-143984241D01*
X162705203Y-143959544D01*
X162669398Y-143854272D01*
X162665904Y-143674893D01*
X162691489Y-143466948D01*
X162742919Y-143275979D01*
X162756026Y-143243818D01*
X162806294Y-143133816D01*
X162829880Y-143107150D01*
X162830667Y-143176469D01*
G37*
G36*
X162324200Y-129147878D02*
G01*
X162337602Y-129273924D01*
X162340729Y-129452483D01*
X162334205Y-129647670D01*
X162318651Y-129823598D01*
X162294690Y-129944384D01*
X162285064Y-129965991D01*
X162246947Y-129961554D01*
X162210203Y-129860805D01*
X162208527Y-129852702D01*
X162193486Y-129677414D01*
X162202914Y-129471576D01*
X162231406Y-129279092D01*
X162273559Y-129143866D01*
X162299903Y-129110229D01*
X162324200Y-129147878D01*
G37*
G36*
X158815071Y-132568771D02*
G01*
X158809393Y-132686219D01*
X158781419Y-132818609D01*
X158739426Y-132914102D01*
X158724707Y-132928201D01*
X158680549Y-132905950D01*
X158669494Y-132838929D01*
X158690035Y-132677197D01*
X158739939Y-132555400D01*
X158790178Y-132518103D01*
X158815071Y-132568771D01*
G37*
G36*
X159690735Y-133329421D02*
G01*
X159730660Y-133481363D01*
X159749628Y-133623599D01*
X159779702Y-133899592D01*
X159814072Y-134189967D01*
X159829600Y-134312329D01*
X159846276Y-134530854D01*
X159823676Y-134632309D01*
X159805953Y-134639970D01*
X159757709Y-134584271D01*
X159704783Y-134441054D01*
X159673579Y-134312329D01*
X159624749Y-134017266D01*
X159597132Y-133740203D01*
X159591516Y-133508016D01*
X159608688Y-133347585D01*
X159643547Y-133287007D01*
X159690735Y-133329421D01*
G37*
G36*
X162742240Y-134444654D02*
G01*
X162740977Y-134578389D01*
X162737850Y-134608766D01*
X162703628Y-134753805D01*
X162655968Y-134824129D01*
X162615212Y-134805045D01*
X162601190Y-134707482D01*
X162621573Y-134549660D01*
X162670673Y-134428516D01*
X162720151Y-134390339D01*
X162742240Y-134444654D01*
G37*
G36*
X165359450Y-130697654D02*
G01*
X165351114Y-130821482D01*
X165310537Y-131008485D01*
X165245950Y-131232789D01*
X165165581Y-131468520D01*
X165077659Y-131689802D01*
X164990415Y-131870763D01*
X164912076Y-131985526D01*
X164904246Y-131993097D01*
X164813175Y-132053226D01*
X164785465Y-132025413D01*
X164812659Y-131923011D01*
X164879208Y-131771525D01*
X164889999Y-131750507D01*
X164962141Y-131587536D01*
X165048953Y-131355932D01*
X165127806Y-131117868D01*
X165201553Y-130903176D01*
X165271522Y-130741403D01*
X165323644Y-130664635D01*
X165327317Y-130662874D01*
X165359450Y-130697654D01*
G37*
G36*
X158794310Y-146840707D02*
G01*
X158763106Y-146871911D01*
X158731902Y-146840707D01*
X158763106Y-146809503D01*
X158794310Y-146840707D01*
G37*
G36*
X159600773Y-131833736D02*
G01*
X159642464Y-132003121D01*
X159686648Y-132122739D01*
X159690891Y-132130173D01*
X159719241Y-132199640D01*
X159672340Y-132180537D01*
X159618094Y-132131174D01*
X159569318Y-132021695D01*
X159550040Y-131854275D01*
X159550381Y-131834737D01*
X159557558Y-131613189D01*
X159600773Y-131833736D01*
G37*
G36*
X171184191Y-106818385D02*
G01*
X171187275Y-106891153D01*
X171162101Y-107045644D01*
X171129748Y-107185636D01*
X171078308Y-107367639D01*
X171041805Y-107440149D01*
X171011846Y-107416287D01*
X171001080Y-107386741D01*
X170997217Y-107277670D01*
X171025130Y-107126997D01*
X171072329Y-106973490D01*
X171126325Y-106855918D01*
X171174627Y-106813047D01*
X171184191Y-106818385D01*
G37*
G36*
X174222938Y-104967905D02*
G01*
X174396537Y-105025371D01*
X174443081Y-105042680D01*
X174513121Y-105026436D01*
X174521091Y-104996117D01*
X174556186Y-104999911D01*
X174647996Y-105083678D01*
X174770723Y-105222326D01*
X174901010Y-105387088D01*
X174991334Y-105514875D01*
X175020354Y-105572364D01*
X174989125Y-105620627D01*
X174915805Y-105580985D01*
X174847614Y-105495498D01*
X174763462Y-105397910D01*
X174708326Y-105370683D01*
X174629226Y-105335251D01*
X174486920Y-105243403D01*
X174350010Y-105143466D01*
X174202601Y-105023782D01*
X174159268Y-104966319D01*
X174222938Y-104967905D01*
G37*
G36*
X169723248Y-114845874D02*
G01*
X169790175Y-114974878D01*
X169813872Y-115028299D01*
X169871648Y-115217874D01*
X169889246Y-115445098D01*
X169875911Y-115699184D01*
X169841630Y-116035388D01*
X169808847Y-116248873D01*
X169779416Y-116339350D01*
X169755192Y-116306529D01*
X169738029Y-116150120D01*
X169729783Y-115869834D01*
X169729400Y-115722057D01*
X169727148Y-115416843D01*
X169719090Y-115155020D01*
X169706466Y-114962940D01*
X169690519Y-114866954D01*
X169688976Y-114863949D01*
X169669765Y-114800529D01*
X169679961Y-114794270D01*
X169723248Y-114845874D01*
G37*
G36*
X172939953Y-102550703D02*
G01*
X173034057Y-102376257D01*
X173191073Y-102268396D01*
X173438644Y-102198119D01*
X173482848Y-102189488D01*
X173716699Y-102151339D01*
X173876441Y-102146478D01*
X174008847Y-102177106D01*
X174106092Y-102218832D01*
X174363920Y-102396795D01*
X174563936Y-102642663D01*
X174691885Y-102925837D01*
X174733510Y-103215716D01*
X174684230Y-103459830D01*
X174514431Y-103715557D01*
X174264571Y-103904842D01*
X173968455Y-104011678D01*
X173659885Y-104020058D01*
X173552206Y-103995874D01*
X173284387Y-103854013D01*
X173070365Y-103621909D01*
X172926625Y-103328429D01*
X172869651Y-103002437D01*
X172870429Y-102990110D01*
X173085550Y-102990110D01*
X173104374Y-103214208D01*
X173147452Y-103406475D01*
X173186606Y-103489908D01*
X173348825Y-103656673D01*
X173560179Y-103792502D01*
X173769230Y-103866830D01*
X173830743Y-103872661D01*
X173981765Y-103837947D01*
X174157802Y-103752159D01*
X174188065Y-103732476D01*
X174355480Y-103584674D01*
X174490093Y-103411509D01*
X174499784Y-103394379D01*
X174564543Y-103155690D01*
X174527122Y-102909365D01*
X174405284Y-102682304D01*
X174216793Y-102501406D01*
X173979410Y-102393572D01*
X173826717Y-102375105D01*
X173604281Y-102404462D01*
X173379057Y-102479687D01*
X173199803Y-102581514D01*
X173133472Y-102649047D01*
X173094183Y-102784838D01*
X173085550Y-102990110D01*
X172870429Y-102990110D01*
X172881119Y-102820733D01*
X172939953Y-102550703D01*
G37*
G36*
X166741667Y-127030193D02*
G01*
X166742751Y-127031412D01*
X166759495Y-127123379D01*
X166747993Y-127299628D01*
X166714828Y-127524581D01*
X166666581Y-127762661D01*
X166609834Y-127978291D01*
X166551168Y-128135895D01*
X166532197Y-128169575D01*
X166454840Y-128271424D01*
X166428114Y-128272550D01*
X166433405Y-128243164D01*
X166459200Y-128125215D01*
X166498179Y-127922388D01*
X166543069Y-127672933D01*
X166555774Y-127599547D01*
X166611874Y-127299431D01*
X166659057Y-127112094D01*
X166701071Y-127026146D01*
X166741667Y-127030193D01*
G37*
G36*
X161820289Y-129634566D02*
G01*
X161792298Y-129735075D01*
X161759385Y-129918971D01*
X161730251Y-130133829D01*
X161681475Y-130552255D01*
X161673274Y-130174134D01*
X161685190Y-129892799D01*
X161737672Y-129713320D01*
X161763311Y-129674871D01*
X161821351Y-129612524D01*
X161820289Y-129634566D01*
G37*
G36*
X157546153Y-139039724D02*
G01*
X157514949Y-139070928D01*
X157483745Y-139039724D01*
X157514949Y-139008520D01*
X157546153Y-139039724D01*
G37*
G36*
X165389694Y-131611053D02*
G01*
X165322217Y-131718490D01*
X165245744Y-131885513D01*
X165184627Y-132103548D01*
X165170872Y-132181358D01*
X165132523Y-132359332D01*
X165082972Y-132476918D01*
X165058226Y-132499992D01*
X165019814Y-132476036D01*
X165022020Y-132355487D01*
X165040934Y-132239057D01*
X165109045Y-131961380D01*
X165200220Y-131771480D01*
X165323424Y-131639260D01*
X165391130Y-131587855D01*
X165389694Y-131611053D01*
G37*
G36*
X174993069Y-104979394D02*
G01*
X175106340Y-105068744D01*
X175241357Y-105190429D01*
X175380425Y-105331585D01*
X175400742Y-105353865D01*
X175523447Y-105485939D01*
X175578929Y-105532892D01*
X175566312Y-105490059D01*
X175484717Y-105352779D01*
X175365366Y-105165909D01*
X175302080Y-105035290D01*
X175296431Y-104952526D01*
X175341112Y-104942846D01*
X175411048Y-105008218D01*
X175500034Y-105090076D01*
X175659983Y-105213099D01*
X175856783Y-105351092D01*
X175862860Y-105355163D01*
X176102918Y-105524064D01*
X176379646Y-105731059D01*
X176635146Y-105932780D01*
X176646813Y-105942351D01*
X176874602Y-106118426D01*
X177166882Y-106328428D01*
X177480975Y-106542304D01*
X177698524Y-106682987D01*
X177984378Y-106863320D01*
X178264779Y-107041157D01*
X178504264Y-107193955D01*
X178646389Y-107285504D01*
X178808791Y-107386204D01*
X178919639Y-107445712D01*
X178952049Y-107452768D01*
X178919986Y-107387452D01*
X178838084Y-107255127D01*
X178775446Y-107160551D01*
X178628274Y-106940483D01*
X178546835Y-106809912D01*
X178524956Y-106756314D01*
X178556466Y-106767166D01*
X178596765Y-106798052D01*
X178687138Y-106893932D01*
X178820912Y-107060971D01*
X178973705Y-107265599D01*
X179121132Y-107474244D01*
X179238812Y-107653336D01*
X179302362Y-107769306D01*
X179302539Y-107769764D01*
X179317130Y-107838032D01*
X179280647Y-107851322D01*
X179180812Y-107804075D01*
X179005342Y-107690728D01*
X178781081Y-107533651D01*
X178542534Y-107368326D01*
X178239059Y-107164709D01*
X177911874Y-106950169D01*
X177638317Y-106774860D01*
X177322661Y-106565913D01*
X176995170Y-106333437D01*
X176697642Y-106107917D01*
X176498720Y-105943755D01*
X176282263Y-105759760D01*
X176080910Y-105599468D01*
X175925951Y-105487358D01*
X175878379Y-105458449D01*
X175706673Y-105367391D01*
X175831339Y-105571862D01*
X175925631Y-105739926D01*
X175945122Y-105829936D01*
X175887769Y-105865251D01*
X175805278Y-105869946D01*
X175735581Y-105858671D01*
X175657097Y-105816067D01*
X175556519Y-105728961D01*
X175420538Y-105584179D01*
X175235845Y-105368550D01*
X174989132Y-105068900D01*
X174960663Y-105033960D01*
X174902537Y-104949140D01*
X174919237Y-104935238D01*
X174993069Y-104979394D01*
G37*
G36*
X158129947Y-130877163D02*
G01*
X158581207Y-130462389D01*
X158786674Y-130287960D01*
X158953883Y-130135159D01*
X159059663Y-130025725D01*
X159083602Y-129991051D01*
X159148216Y-129917542D01*
X159290394Y-129798941D01*
X159482709Y-129657658D01*
X159539052Y-129618948D01*
X159961455Y-129332968D01*
X160126480Y-128783086D01*
X160291506Y-128233204D01*
X160161510Y-127738921D01*
X159904889Y-126597431D01*
X159724044Y-125405914D01*
X159616764Y-124145969D01*
X159581125Y-122907292D01*
X159581026Y-122318731D01*
X159587300Y-121845126D01*
X159600886Y-121476735D01*
X159622721Y-121203815D01*
X159653742Y-121016626D01*
X159694888Y-120905425D01*
X159747094Y-120860471D01*
X159778161Y-120859892D01*
X159824086Y-120895605D01*
X159870053Y-120994611D01*
X159920370Y-121172057D01*
X159979347Y-121443090D01*
X160049923Y-121815344D01*
X160185183Y-122506288D01*
X160334123Y-123174615D01*
X160491475Y-123800833D01*
X160651969Y-124365448D01*
X160810337Y-124848970D01*
X160961310Y-125231906D01*
X160990745Y-125295957D01*
X161110191Y-125538500D01*
X161217659Y-125739973D01*
X161297637Y-125872073D01*
X161324719Y-125905269D01*
X161399534Y-125909808D01*
X161513395Y-125819081D01*
X161617533Y-125700879D01*
X161882673Y-125397513D01*
X162219705Y-125042006D01*
X162603016Y-124660139D01*
X163006996Y-124277693D01*
X163250534Y-124056997D01*
X163824311Y-123526085D01*
X164293392Y-123047696D01*
X164655068Y-122624604D01*
X164681863Y-122589851D01*
X164872860Y-122318002D01*
X165100567Y-121959560D01*
X165349974Y-121541529D01*
X165606072Y-121090912D01*
X165853851Y-120634714D01*
X166078304Y-120199937D01*
X166264419Y-119813586D01*
X166395887Y-119506063D01*
X166507469Y-119189084D01*
X166631046Y-118793028D01*
X166761687Y-118338257D01*
X166894463Y-117845137D01*
X167024446Y-117334030D01*
X167146704Y-116825300D01*
X167256310Y-116339312D01*
X167348333Y-115896429D01*
X167417844Y-115517015D01*
X167459913Y-115221433D01*
X167470492Y-115066850D01*
X167487822Y-114836600D01*
X167528100Y-114597385D01*
X167533183Y-114575842D01*
X167617595Y-114150728D01*
X167692125Y-113606818D01*
X167756312Y-112949776D01*
X167809698Y-112185265D01*
X167851821Y-111318948D01*
X167882222Y-110356490D01*
X167884855Y-110243949D01*
X167894374Y-109786988D01*
X167899065Y-109439223D01*
X167898178Y-109185100D01*
X167890964Y-109009068D01*
X167876672Y-108895572D01*
X167854552Y-108829060D01*
X167823856Y-108793979D01*
X167814687Y-108788259D01*
X167747877Y-108708021D01*
X167724355Y-108549802D01*
X167726213Y-108439382D01*
X167718985Y-108231701D01*
X167685016Y-108056360D01*
X167666676Y-108011338D01*
X167633075Y-107881430D01*
X167610899Y-107659942D01*
X167600559Y-107379622D01*
X167602467Y-107073219D01*
X167617033Y-106773483D01*
X167644671Y-106513160D01*
X167647616Y-106494024D01*
X167664060Y-106231887D01*
X167635127Y-105992700D01*
X167568405Y-105809367D01*
X167471477Y-105714789D01*
X167467673Y-105713504D01*
X167356049Y-105642331D01*
X167323656Y-105594419D01*
X167315751Y-105439333D01*
X167369393Y-105192833D01*
X167480315Y-104869557D01*
X167644251Y-104484146D01*
X167652311Y-104466647D01*
X167897794Y-103935302D01*
X167565259Y-103935302D01*
X167345856Y-103922740D01*
X167227618Y-103881361D01*
X167196142Y-103839968D01*
X167187148Y-103777696D01*
X167221437Y-103709742D01*
X167315766Y-103618565D01*
X167486891Y-103486623D01*
X167638385Y-103377026D01*
X167813005Y-103229679D01*
X167953828Y-103072157D01*
X167994846Y-103008125D01*
X168088312Y-102827382D01*
X167774984Y-102797275D01*
X167513367Y-102750817D01*
X167372185Y-102675731D01*
X167351302Y-102575663D01*
X167450584Y-102454262D01*
X167669893Y-102315173D01*
X167795203Y-102253543D01*
X168035764Y-102128084D01*
X168321403Y-101958525D01*
X168598441Y-101777097D01*
X168654752Y-101737469D01*
X169004200Y-101492709D01*
X169372579Y-101243643D01*
X169734418Y-101006748D01*
X170064250Y-100798499D01*
X170336604Y-100635374D01*
X170481110Y-100555986D01*
X170794849Y-100411871D01*
X171142370Y-100279598D01*
X171487959Y-100170392D01*
X171795906Y-100095480D01*
X172030496Y-100066088D01*
X172039780Y-100066014D01*
X172312832Y-100106123D01*
X172667250Y-100222249D01*
X173090575Y-100408094D01*
X173570349Y-100657358D01*
X174094113Y-100963743D01*
X174649409Y-101320949D01*
X175002118Y-101563803D01*
X175235541Y-101724960D01*
X175403987Y-101825815D01*
X175542736Y-101880416D01*
X175687066Y-101902809D01*
X175864172Y-101907046D01*
X176072080Y-101898898D01*
X176242997Y-101864797D01*
X176422042Y-101790260D01*
X176654337Y-101660804D01*
X176681593Y-101644660D01*
X176968681Y-101494295D01*
X177294378Y-101353695D01*
X177583941Y-101254611D01*
X177983465Y-101171371D01*
X178393614Y-101134138D01*
X178790775Y-101140461D01*
X179151338Y-101187888D01*
X179451690Y-101273967D01*
X179668221Y-101396247D01*
X179743561Y-101478851D01*
X179793556Y-101566092D01*
X179797841Y-101638930D01*
X179743636Y-101728090D01*
X179618159Y-101864294D01*
X179557408Y-101926354D01*
X179385347Y-102124170D01*
X179237445Y-102333363D01*
X179164344Y-102468717D01*
X179020459Y-102869059D01*
X178891062Y-103338723D01*
X178789357Y-103822222D01*
X178728543Y-104264069D01*
X178724056Y-104319282D01*
X178707263Y-104584709D01*
X178708038Y-104764437D01*
X178732949Y-104897095D01*
X178788560Y-105021313D01*
X178865195Y-105149635D01*
X179398287Y-105956583D01*
X179928951Y-106659477D01*
X180452936Y-107253495D01*
X180965993Y-107733815D01*
X181459743Y-108093072D01*
X181601696Y-108201475D01*
X181803836Y-108383588D01*
X182044691Y-108618727D01*
X182302789Y-108886204D01*
X182458269Y-109055022D01*
X182693611Y-109316928D01*
X182903399Y-109554595D01*
X183102736Y-109786266D01*
X183306730Y-110030187D01*
X183530485Y-110304602D01*
X183789109Y-110627755D01*
X184097705Y-111017891D01*
X184368217Y-111361837D01*
X184612922Y-111684122D01*
X184856011Y-112023102D01*
X185076828Y-112348559D01*
X185254718Y-112630271D01*
X185347420Y-112794442D01*
X185450059Y-112949241D01*
X185592238Y-113116582D01*
X185619467Y-113144255D01*
X185738145Y-113292717D01*
X185892099Y-113530545D01*
X186067975Y-113832154D01*
X186252416Y-114171957D01*
X186432068Y-114524368D01*
X186593574Y-114863802D01*
X186723581Y-115164673D01*
X186808732Y-115401394D01*
X186821177Y-115446480D01*
X186858808Y-115673137D01*
X186855476Y-115858695D01*
X186819038Y-115985093D01*
X186757351Y-116034268D01*
X186678271Y-115988158D01*
X186623034Y-115902009D01*
X186535247Y-115769645D01*
X186403728Y-115611887D01*
X186257932Y-115459418D01*
X186127312Y-115342921D01*
X186041324Y-115293077D01*
X186038278Y-115292877D01*
X185960131Y-115256915D01*
X185813708Y-115162516D01*
X185628462Y-115028886D01*
X185598487Y-115006140D01*
X185083066Y-114634961D01*
X184496666Y-114256671D01*
X183819863Y-113858370D01*
X183585114Y-113718921D01*
X183274139Y-113524768D01*
X182913018Y-113292709D01*
X182527827Y-113039546D01*
X182144647Y-112782077D01*
X182068716Y-112730292D01*
X181715371Y-112490828D01*
X181379610Y-112267315D01*
X181080860Y-112072375D01*
X180838548Y-111918631D01*
X180672102Y-111818702D01*
X180633335Y-111797744D01*
X180440147Y-111685506D01*
X180203411Y-111528002D01*
X179981779Y-111364946D01*
X179792159Y-111222250D01*
X179529410Y-111031815D01*
X179224065Y-110815429D01*
X178906653Y-110594876D01*
X178806235Y-110526101D01*
X178453169Y-110291059D01*
X178179477Y-110123471D01*
X177966687Y-110013296D01*
X177796327Y-109950496D01*
X177714097Y-109932523D01*
X177507676Y-109870918D01*
X177217114Y-109738173D01*
X176837140Y-109531724D01*
X176580551Y-109381299D01*
X176233413Y-109181923D01*
X175866975Y-108985515D01*
X175519238Y-108811589D01*
X175228202Y-108679659D01*
X175162115Y-108652928D01*
X174904638Y-108555650D01*
X174701951Y-108491507D01*
X174514020Y-108453670D01*
X174300807Y-108435308D01*
X174022276Y-108429590D01*
X173851550Y-108429332D01*
X173116914Y-108429997D01*
X172917138Y-108635677D01*
X172826692Y-108733939D01*
X172752411Y-108833473D01*
X172688574Y-108951609D01*
X172629461Y-109105678D01*
X172569350Y-109313011D01*
X172502522Y-109590938D01*
X172423256Y-109956791D01*
X172326278Y-110425720D01*
X172266889Y-110718266D01*
X172216355Y-110977305D01*
X172173125Y-111217565D01*
X172135649Y-111453774D01*
X172102375Y-111700661D01*
X172071754Y-111972953D01*
X172042234Y-112285379D01*
X172012265Y-112652667D01*
X171980297Y-113089545D01*
X171944777Y-113610741D01*
X171904157Y-114230984D01*
X171870238Y-114757172D01*
X171851360Y-115046519D01*
X171832870Y-115310227D01*
X171813101Y-115557854D01*
X171790385Y-115798959D01*
X171763057Y-116043100D01*
X171729448Y-116299836D01*
X171687892Y-116578724D01*
X171636722Y-116889323D01*
X171574272Y-117241191D01*
X171498873Y-117643887D01*
X171408860Y-118106970D01*
X171302566Y-118639997D01*
X171178323Y-119252527D01*
X171034465Y-119954118D01*
X170869324Y-120754329D01*
X170681234Y-121662717D01*
X170584960Y-122127194D01*
X170499870Y-122593700D01*
X170438489Y-123068929D01*
X170400231Y-123572210D01*
X170384511Y-124122875D01*
X170390743Y-124740254D01*
X170418342Y-125443675D01*
X170462119Y-126183705D01*
X170490934Y-126677311D01*
X170515637Y-127214935D01*
X170534710Y-127753969D01*
X170546633Y-128251804D01*
X170549952Y-128648815D01*
X170546017Y-129085403D01*
X170535083Y-129432231D01*
X170513960Y-129724299D01*
X170479462Y-129996605D01*
X170428401Y-130284148D01*
X170379422Y-130521051D01*
X170258704Y-131009984D01*
X170118317Y-131455017D01*
X169982539Y-131790715D01*
X169873003Y-132028767D01*
X169811952Y-132184340D01*
X169793609Y-132287359D01*
X169812197Y-132367750D01*
X169856046Y-132445997D01*
X169952737Y-132608844D01*
X170065440Y-132808628D01*
X170094218Y-132861346D01*
X170206904Y-133040789D01*
X170367080Y-133261528D01*
X170522145Y-133454221D01*
X170707327Y-133681854D01*
X170917653Y-133956298D01*
X171109324Y-134220317D01*
X171119095Y-134234319D01*
X171414176Y-134654989D01*
X171677717Y-135021138D01*
X171923860Y-135349318D01*
X172166747Y-135656082D01*
X172420519Y-135957982D01*
X172699320Y-136271569D01*
X173017290Y-136613396D01*
X173388573Y-137000015D01*
X173827308Y-137447977D01*
X174104668Y-137728702D01*
X174589259Y-138227025D01*
X174997943Y-138671752D01*
X175343209Y-139083587D01*
X175637545Y-139483236D01*
X175893440Y-139891404D01*
X176123382Y-140328795D01*
X176339859Y-140816115D01*
X176555361Y-141374068D01*
X176782375Y-142023360D01*
X176890454Y-142347341D01*
X177092543Y-142947530D01*
X177302619Y-143549788D01*
X177512388Y-144131647D01*
X177713555Y-144670639D01*
X177897823Y-145144295D01*
X178056899Y-145530149D01*
X178111654Y-145654958D01*
X178207820Y-145874636D01*
X178331764Y-146165727D01*
X178464706Y-146483838D01*
X178547299Y-146684688D01*
X178700273Y-147054437D01*
X178870689Y-147457792D01*
X179048090Y-147870817D01*
X179222017Y-148269580D01*
X179382014Y-148630147D01*
X179517622Y-148928584D01*
X179618385Y-149140957D01*
X179635130Y-149174325D01*
X179714501Y-149357588D01*
X179759512Y-149515187D01*
X179763352Y-149553795D01*
X179791262Y-149653473D01*
X179868457Y-149842993D01*
X179985132Y-150102253D01*
X180131484Y-150411152D01*
X180297709Y-150749588D01*
X180474002Y-151097461D01*
X180650559Y-151434668D01*
X180817577Y-151741108D01*
X180905585Y-151895744D01*
X181105473Y-152234846D01*
X181318567Y-152587705D01*
X181533569Y-152936510D01*
X181739178Y-153263448D01*
X181924096Y-153550709D01*
X182077023Y-153780479D01*
X182186659Y-153934948D01*
X182235629Y-153992355D01*
X182348902Y-154043730D01*
X182538531Y-154091215D01*
X182694150Y-154115595D01*
X182958061Y-154170744D01*
X183256330Y-154268620D01*
X183453292Y-154353543D01*
X183732963Y-154473032D01*
X184044883Y-154580031D01*
X184256718Y-154636245D01*
X184545039Y-154699083D01*
X184872128Y-154771449D01*
X185099224Y-154822364D01*
X185371037Y-154879204D01*
X185642468Y-154928569D01*
X185829375Y-154956380D01*
X186027194Y-154994932D01*
X186131645Y-155059404D01*
X186163216Y-155119384D01*
X186171200Y-155247804D01*
X186143965Y-155306924D01*
X186055871Y-155336947D01*
X185869707Y-155365808D01*
X185612217Y-155392126D01*
X185310147Y-155414519D01*
X184990243Y-155431607D01*
X184679248Y-155442009D01*
X184403909Y-155444342D01*
X184190971Y-155437227D01*
X184067178Y-155419281D01*
X184056307Y-155414731D01*
X183902823Y-155379223D01*
X183767244Y-155390547D01*
X183298619Y-155482060D01*
X182736124Y-155548028D01*
X182108321Y-155587169D01*
X181443776Y-155598201D01*
X180771052Y-155579841D01*
X180287051Y-155546779D01*
X179993970Y-155516946D01*
X179804108Y-155483473D01*
X179695959Y-155437990D01*
X179648016Y-155372132D01*
X179638536Y-155294478D01*
X179653100Y-155265769D01*
X180637062Y-155265769D01*
X180668266Y-155296973D01*
X180699470Y-155265769D01*
X180668266Y-155234565D01*
X180637062Y-155265769D01*
X179653100Y-155265769D01*
X179694433Y-155184289D01*
X179810158Y-155136929D01*
X179965635Y-155097988D01*
X180089953Y-155047661D01*
X180247495Y-154960888D01*
X180388396Y-154879331D01*
X180173565Y-154597975D01*
X180051906Y-154458526D01*
X179857856Y-154259216D01*
X179613503Y-154021744D01*
X179340934Y-153767812D01*
X179190158Y-153631811D01*
X178781609Y-153264568D01*
X178344626Y-152866056D01*
X177893212Y-152449512D01*
X177441368Y-152028174D01*
X177003095Y-151615278D01*
X176592396Y-151224062D01*
X176223271Y-150867763D01*
X175909722Y-150559619D01*
X175665751Y-150312867D01*
X175549235Y-150189624D01*
X175328545Y-149948497D01*
X175137676Y-149738646D01*
X174951769Y-149532432D01*
X174745968Y-149302218D01*
X174495413Y-149020365D01*
X174339312Y-148844361D01*
X174123949Y-148607370D01*
X173886886Y-148355524D01*
X173684030Y-148147970D01*
X173507268Y-147967620D01*
X173280402Y-147729375D01*
X173036596Y-147468320D01*
X172868223Y-147284877D01*
X172603678Y-147005618D01*
X172346191Y-146762460D01*
X172071130Y-146536259D01*
X171753858Y-146307873D01*
X171369744Y-146058161D01*
X170990761Y-145825951D01*
X170717118Y-145663435D01*
X170514707Y-145554024D01*
X170348515Y-145485313D01*
X170183530Y-145444900D01*
X169984739Y-145420381D01*
X169805011Y-145405906D01*
X169426929Y-145397982D01*
X168996269Y-145421933D01*
X168546931Y-145472798D01*
X168112812Y-145545621D01*
X167727812Y-145635442D01*
X167425829Y-145737304D01*
X167371934Y-145761791D01*
X166978551Y-145967731D01*
X166675328Y-146168371D01*
X166432253Y-146392143D01*
X166219317Y-146667484D01*
X166006507Y-147022828D01*
X165969746Y-147090339D01*
X165826136Y-147350464D01*
X165682103Y-147601070D01*
X165563124Y-147798094D01*
X165536736Y-147839233D01*
X165421193Y-148027148D01*
X165326636Y-148200947D01*
X165304101Y-148249207D01*
X165225688Y-148385697D01*
X165096776Y-148567119D01*
X164994767Y-148694663D01*
X164557645Y-149230983D01*
X164161019Y-149753149D01*
X163912467Y-150105653D01*
X163776067Y-150314155D01*
X163699573Y-150462785D01*
X163669688Y-150592766D01*
X163673115Y-150745322D01*
X163680994Y-150823343D01*
X163717903Y-151015706D01*
X163790195Y-151284757D01*
X163886611Y-151591409D01*
X163971979Y-151833336D01*
X164112169Y-152210585D01*
X164219283Y-152489041D01*
X164305976Y-152686049D01*
X164384905Y-152818953D01*
X164468725Y-152905096D01*
X164570091Y-152961822D01*
X164701659Y-153006475D01*
X164861292Y-153052104D01*
X165441835Y-153235564D01*
X166007905Y-153448830D01*
X166598874Y-153707833D01*
X167175109Y-153988424D01*
X167482067Y-154139514D01*
X167757771Y-154267793D01*
X167979591Y-154363290D01*
X168124895Y-154416036D01*
X168162136Y-154423263D01*
X168350880Y-154461129D01*
X168485639Y-154557883D01*
X168529936Y-154672262D01*
X168495596Y-154761050D01*
X168374640Y-154813273D01*
X168295907Y-154827944D01*
X168077554Y-154870489D01*
X167872597Y-154923813D01*
X167866580Y-154925701D01*
X167621533Y-154951503D01*
X167492133Y-154916965D01*
X167351195Y-154889278D01*
X167093612Y-154869481D01*
X166727326Y-154857922D01*
X166260278Y-154854948D01*
X166096030Y-154855825D01*
X165692327Y-154855389D01*
X165307392Y-154848441D01*
X164967944Y-154835957D01*
X164700700Y-154818909D01*
X164535961Y-154798976D01*
X164324213Y-154765624D01*
X164200420Y-154769297D01*
X164132968Y-154811213D01*
X164130310Y-154814593D01*
X164035040Y-154873734D01*
X163862165Y-154935741D01*
X163658021Y-154988723D01*
X163468944Y-155020787D01*
X163341268Y-155020042D01*
X163335881Y-155018472D01*
X163247247Y-155006772D01*
X163058959Y-154992662D01*
X162796114Y-154977696D01*
X162483810Y-154963426D01*
X162382762Y-154959459D01*
X162010120Y-154941739D01*
X161630567Y-154917454D01*
X161287102Y-154889719D01*
X161022725Y-154861652D01*
X161009789Y-154859955D01*
X160722328Y-154828092D01*
X160436171Y-154806898D01*
X160210281Y-154800665D01*
X160198487Y-154800895D01*
X159960411Y-154804873D01*
X159820828Y-154798277D01*
X159753480Y-154774536D01*
X159732107Y-154727081D01*
X159730428Y-154683773D01*
X159786148Y-154541577D01*
X159935552Y-154384141D01*
X160152006Y-154229431D01*
X160408875Y-154095408D01*
X160679525Y-154000037D01*
X160776211Y-153978439D01*
X161032323Y-153921523D01*
X161187553Y-153854258D01*
X161265577Y-153758226D01*
X161290067Y-153615009D01*
X161290624Y-153578219D01*
X161267664Y-153333011D01*
X161198019Y-153201275D01*
X161121960Y-153175105D01*
X161016016Y-153145570D01*
X160861546Y-153052072D01*
X160648882Y-152887269D01*
X160368360Y-152643821D01*
X160104875Y-152402656D01*
X159851580Y-152173310D01*
X159590102Y-151946718D01*
X159356893Y-151753998D01*
X159231165Y-151656780D01*
X158834850Y-151337293D01*
X158428081Y-150961516D01*
X158053582Y-150570872D01*
X157804112Y-150273140D01*
X157608212Y-150034430D01*
X157375913Y-149774965D01*
X157123467Y-149510275D01*
X156867124Y-149255890D01*
X156623136Y-149027340D01*
X156407756Y-148840157D01*
X156237234Y-148709870D01*
X156127823Y-148652010D01*
X156107305Y-148651636D01*
X155973646Y-148743723D01*
X155812260Y-148934467D01*
X155637624Y-149205058D01*
X155531729Y-149399430D01*
X155448608Y-149548993D01*
X155348437Y-149699369D01*
X155216761Y-149868017D01*
X155039125Y-150072396D01*
X154801075Y-150329963D01*
X154498339Y-150647587D01*
X154128397Y-151063387D01*
X153830301Y-151462927D01*
X153614622Y-151830123D01*
X153491933Y-152148890D01*
X153481638Y-152194326D01*
X153453491Y-152421414D01*
X153465540Y-152658021D01*
X153522800Y-152932905D01*
X153630284Y-153274822D01*
X153706941Y-153486653D01*
X153796902Y-153706579D01*
X153883734Y-153836802D01*
X154000186Y-153907166D01*
X154179007Y-153947515D01*
X154219534Y-153953771D01*
X154414824Y-153995462D01*
X154678287Y-154067939D01*
X154961459Y-154157562D01*
X155039745Y-154184600D01*
X155332507Y-154277073D01*
X155571124Y-154331207D01*
X155726990Y-154340638D01*
X155735087Y-154339259D01*
X155872136Y-154352451D01*
X156078235Y-154420761D01*
X156329057Y-154530638D01*
X156600277Y-154668534D01*
X156867569Y-154820900D01*
X157106607Y-154974185D01*
X157293066Y-155114841D01*
X157402619Y-155229319D01*
X157421337Y-155278497D01*
X157396942Y-155299097D01*
X157315230Y-155315160D01*
X157163410Y-155327315D01*
X156928691Y-155336191D01*
X156598282Y-155342415D01*
X156159391Y-155346617D01*
X156017160Y-155347507D01*
X155736851Y-155339218D01*
X155453664Y-155315166D01*
X155268266Y-155287578D01*
X154978295Y-155237104D01*
X154678408Y-155197204D01*
X154411325Y-155172655D01*
X154219770Y-155168229D01*
X154207332Y-155169008D01*
X154082698Y-155173406D01*
X153878619Y-155175835D01*
X153652258Y-155175812D01*
X153381660Y-155188866D01*
X153115720Y-155225286D01*
X152945897Y-155267061D01*
X152724421Y-155321720D01*
X152567926Y-155296427D01*
X152436830Y-155179389D01*
X152401808Y-155130552D01*
X156568429Y-155130552D01*
X156576996Y-155167653D01*
X156610035Y-155172157D01*
X156661403Y-155149323D01*
X156651640Y-155130552D01*
X156577576Y-155123083D01*
X156568429Y-155130552D01*
X152401808Y-155130552D01*
X152378458Y-155097991D01*
X152275485Y-154945762D01*
X152145836Y-154757244D01*
X152103804Y-154696747D01*
X152028621Y-154579600D01*
X151978967Y-154465867D01*
X151948874Y-154325050D01*
X151932374Y-154126652D01*
X151923502Y-153840173D01*
X151922087Y-153767980D01*
X151919522Y-153445502D01*
X151930421Y-153201842D01*
X151961522Y-152991184D01*
X152019565Y-152767712D01*
X152110268Y-152488619D01*
X152303048Y-151987666D01*
X152564905Y-151410601D01*
X152885189Y-150777346D01*
X153253250Y-150107824D01*
X153658439Y-149421958D01*
X154090106Y-148739670D01*
X154215535Y-148550088D01*
X154404281Y-148229894D01*
X154525415Y-147918038D01*
X154583959Y-147676378D01*
X154633784Y-147430874D01*
X154677884Y-147217622D01*
X154707283Y-147079991D01*
X154708712Y-147073631D01*
X154701412Y-146960064D01*
X154621682Y-146818359D01*
X154467928Y-146636776D01*
X154040890Y-146146679D01*
X153575378Y-145562832D01*
X153084807Y-144905004D01*
X152582593Y-144192962D01*
X152082153Y-143446474D01*
X151596902Y-142685308D01*
X151140259Y-141929233D01*
X150725638Y-141198015D01*
X150535599Y-140842784D01*
X150339404Y-140470077D01*
X150145399Y-140105930D01*
X149967378Y-139775916D01*
X149819135Y-139505605D01*
X149714464Y-139320571D01*
X149714458Y-139320560D01*
X149566833Y-139065160D01*
X149392718Y-138759598D01*
X149225803Y-138463062D01*
X149199365Y-138415646D01*
X149051640Y-138151521D01*
X148867888Y-137824874D01*
X148673959Y-137481581D01*
X148531196Y-137229896D01*
X148225561Y-136690129D01*
X147971953Y-136236162D01*
X147759120Y-135846209D01*
X147575813Y-135498482D01*
X147410780Y-135171196D01*
X147252772Y-134842563D01*
X147090537Y-134490797D01*
X146918447Y-134106776D01*
X146742146Y-133700828D01*
X146568971Y-133286266D01*
X146411223Y-132893695D01*
X146281203Y-132553716D01*
X146192093Y-132299675D01*
X146086413Y-131977158D01*
X145973549Y-131641200D01*
X145871708Y-131345707D01*
X145833767Y-131238742D01*
X145506602Y-130183330D01*
X145253819Y-129041381D01*
X145074417Y-127807479D01*
X144973480Y-126589356D01*
X144968759Y-126354007D01*
X144974867Y-126043951D01*
X144990113Y-125680960D01*
X145012803Y-125286806D01*
X145041247Y-124883261D01*
X145067040Y-124572877D01*
X145315167Y-124572877D01*
X145329527Y-124823237D01*
X145369879Y-125162321D01*
X145430404Y-125558159D01*
X145505284Y-125978780D01*
X145588700Y-126392215D01*
X145674833Y-126766495D01*
X145757864Y-127069648D01*
X145784420Y-127151027D01*
X145851104Y-127350313D01*
X145946274Y-127643939D01*
X146061970Y-128006871D01*
X146190231Y-128414074D01*
X146323094Y-128840512D01*
X146372052Y-128998888D01*
X146504593Y-129422341D01*
X146629697Y-129805722D01*
X146755023Y-130168820D01*
X146888226Y-130531426D01*
X147036964Y-130913329D01*
X147208895Y-131334320D01*
X147411674Y-131814188D01*
X147652961Y-132372724D01*
X147866515Y-132861346D01*
X148092546Y-133372033D01*
X148282419Y-133788845D01*
X148446928Y-134133555D01*
X148596869Y-134427934D01*
X148743037Y-134693755D01*
X148896227Y-134952790D01*
X148934034Y-135014417D01*
X149099977Y-135291116D01*
X149290462Y-135620510D01*
X149472177Y-135944693D01*
X149526425Y-136044147D01*
X149667676Y-136292711D01*
X149859212Y-136611827D01*
X150080958Y-136968955D01*
X150312837Y-137331552D01*
X150443600Y-137530847D01*
X150649614Y-137843593D01*
X150837038Y-138132156D01*
X150992490Y-138375620D01*
X151102588Y-138553070D01*
X151149075Y-138633548D01*
X151237089Y-138781431D01*
X151377507Y-138983704D01*
X151575579Y-139247054D01*
X151836559Y-139578165D01*
X152165696Y-139983723D01*
X152568243Y-140470412D01*
X152954551Y-140932061D01*
X153270892Y-141309486D01*
X153589009Y-141690668D01*
X153891320Y-142054418D01*
X154160241Y-142379546D01*
X154378187Y-142644863D01*
X154488167Y-142780136D01*
X154725745Y-143070250D01*
X154987102Y-143382729D01*
X155233736Y-143671813D01*
X155363910Y-143820970D01*
X155575691Y-144064023D01*
X155788814Y-144314543D01*
X155967570Y-144530367D01*
X156018670Y-144594024D01*
X156197462Y-144810858D01*
X156446781Y-145100328D01*
X156750913Y-145444840D01*
X157094146Y-145826798D01*
X157460766Y-146228608D01*
X157835061Y-146632675D01*
X157927749Y-146731723D01*
X158196356Y-147030009D01*
X158494979Y-147380495D01*
X158781823Y-147733290D01*
X158959468Y-147963227D01*
X159170594Y-148241259D01*
X159326967Y-148429118D01*
X159447480Y-148537402D01*
X159551029Y-148576709D01*
X159656505Y-148557639D01*
X159782805Y-148490788D01*
X159838343Y-148456226D01*
X159966771Y-148337298D01*
X160074120Y-148181609D01*
X160106503Y-148112777D01*
X160121249Y-148045535D01*
X160111846Y-147962316D01*
X160071784Y-147845552D01*
X159994555Y-147677679D01*
X159873648Y-147441129D01*
X159702553Y-147118335D01*
X159629134Y-146980845D01*
X159439880Y-146630917D01*
X159235563Y-146260559D01*
X159025166Y-145885274D01*
X158817674Y-145520568D01*
X158622070Y-145181944D01*
X158447336Y-144884906D01*
X158302456Y-144644958D01*
X158196414Y-144477604D01*
X158190246Y-144469208D01*
X158295047Y-144469208D01*
X158326251Y-144500412D01*
X158357455Y-144469208D01*
X158326251Y-144438005D01*
X158295047Y-144469208D01*
X158190246Y-144469208D01*
X158138192Y-144398349D01*
X158130550Y-144394475D01*
X158142009Y-144456731D01*
X158187840Y-144605523D01*
X158258591Y-144810515D01*
X158270065Y-144842295D01*
X158370097Y-145138057D01*
X158470526Y-145469690D01*
X158563863Y-145808218D01*
X158642623Y-146124664D01*
X158699320Y-146390051D01*
X158726466Y-146575401D01*
X158727678Y-146613510D01*
X158721389Y-146727255D01*
X158698720Y-146722706D01*
X158655734Y-146637882D01*
X158588480Y-146531123D01*
X158543252Y-146497464D01*
X158503164Y-146442759D01*
X158450631Y-146303254D01*
X158421226Y-146201027D01*
X158368900Y-146010391D01*
X158292355Y-145743872D01*
X158204153Y-145444862D01*
X158156235Y-145285615D01*
X158068904Y-144982633D01*
X158020420Y-144768405D01*
X158006401Y-144614591D01*
X158022470Y-144492855D01*
X158029747Y-144467112D01*
X158057749Y-144352475D01*
X158055356Y-144250240D01*
X158011310Y-144137320D01*
X157914355Y-143990629D01*
X157753234Y-143787084D01*
X157619939Y-143626702D01*
X157236496Y-143187202D01*
X156850028Y-142778429D01*
X156480074Y-142419544D01*
X156146173Y-142129706D01*
X155926343Y-141965916D01*
X155696212Y-141794852D01*
X155479409Y-141606383D01*
X155322696Y-141441175D01*
X155322150Y-141440485D01*
X155202086Y-141301429D01*
X155007520Y-141091062D01*
X154753660Y-140824857D01*
X154643019Y-140711012D01*
X156703160Y-140711012D01*
X156719531Y-140782227D01*
X156791652Y-140778605D01*
X156904254Y-140721706D01*
X157010503Y-140664033D01*
X157190041Y-140577776D01*
X157411906Y-140476552D01*
X157645134Y-140373974D01*
X157858763Y-140283659D01*
X158021829Y-140219220D01*
X158103370Y-140194274D01*
X158103740Y-140194270D01*
X158065911Y-140225030D01*
X157940508Y-140309198D01*
X157746159Y-140434608D01*
X157501493Y-140589091D01*
X157450352Y-140621040D01*
X157113876Y-140833799D01*
X156880065Y-141000502D01*
X156745787Y-141141318D01*
X156707912Y-141276418D01*
X156763308Y-141425973D01*
X156908844Y-141610153D01*
X157141389Y-141849130D01*
X157243953Y-141950633D01*
X157543938Y-142264262D01*
X157840583Y-142605500D01*
X158121403Y-142956801D01*
X158373910Y-143300617D01*
X158585621Y-143619401D01*
X158744050Y-143895606D01*
X158836711Y-144111684D01*
X158855779Y-144215906D01*
X158882055Y-144331903D01*
X158952350Y-144520662D01*
X159052396Y-144744573D01*
X159070260Y-144781248D01*
X159195748Y-145040941D01*
X159331223Y-145329857D01*
X159466236Y-145624629D01*
X159590337Y-145901891D01*
X159693077Y-146138275D01*
X159764008Y-146310415D01*
X159792680Y-146394942D01*
X159792836Y-146397133D01*
X159814198Y-146480135D01*
X159869722Y-146635561D01*
X159946566Y-146832318D01*
X160031885Y-147039314D01*
X160112837Y-147225457D01*
X160176579Y-147359653D01*
X160210268Y-147410811D01*
X160211344Y-147410324D01*
X160233732Y-147341910D01*
X160272941Y-147179046D01*
X160322441Y-146949896D01*
X160352697Y-146800713D01*
X160470622Y-146174808D01*
X160556012Y-145638644D01*
X160611310Y-145162148D01*
X160638960Y-144715248D01*
X160641406Y-144267868D01*
X160621090Y-143789938D01*
X160610408Y-143628834D01*
X160552446Y-142809238D01*
X160502689Y-142104642D01*
X160460069Y-141505572D01*
X160423518Y-141002556D01*
X160391968Y-140586124D01*
X160364352Y-140246801D01*
X160339601Y-139975117D01*
X160316649Y-139761600D01*
X160294426Y-139596777D01*
X160271866Y-139471176D01*
X160247900Y-139375325D01*
X160221461Y-139299752D01*
X160191481Y-139234985D01*
X160156892Y-139171552D01*
X160116627Y-139099981D01*
X160095455Y-139060871D01*
X159947214Y-138827589D01*
X159727190Y-138539449D01*
X159458631Y-138222514D01*
X159164785Y-137902846D01*
X158868900Y-137606508D01*
X158594223Y-137359561D01*
X158534385Y-137310814D01*
X158373609Y-137158405D01*
X158176446Y-136935467D01*
X157972854Y-136677189D01*
X157856048Y-136514028D01*
X157694159Y-136281676D01*
X157554776Y-136089040D01*
X157454654Y-135958825D01*
X157413768Y-135914653D01*
X157349571Y-135932905D01*
X157290193Y-136047792D01*
X157243989Y-136231182D01*
X157219318Y-136454946D01*
X157217699Y-136574614D01*
X157208166Y-136794092D01*
X157176405Y-137084621D01*
X157128408Y-137395665D01*
X157106633Y-137511365D01*
X157040924Y-137855714D01*
X156978811Y-138208337D01*
X156923617Y-138547007D01*
X156878662Y-138849501D01*
X156847271Y-139093592D01*
X156832766Y-139257056D01*
X156836757Y-139316728D01*
X156902354Y-139307707D01*
X157041577Y-139254476D01*
X157141871Y-139208326D01*
X157327758Y-139123845D01*
X157408764Y-139099139D01*
X157386632Y-139129103D01*
X157263106Y-139208630D01*
X157112786Y-139293481D01*
X156935471Y-139396815D01*
X156839049Y-139487632D01*
X156792863Y-139609407D01*
X156768947Y-139781036D01*
X156726193Y-140205986D01*
X156704212Y-140517032D01*
X156703160Y-140711012D01*
X154643019Y-140711012D01*
X154455715Y-140518285D01*
X154128894Y-140186817D01*
X153788404Y-139845924D01*
X153449454Y-139511079D01*
X153127252Y-139197751D01*
X152962192Y-139039724D01*
X152582092Y-138658336D01*
X152158933Y-138199849D01*
X151716578Y-137692524D01*
X151278895Y-137164618D01*
X150869749Y-136644391D01*
X150513004Y-136160100D01*
X150431656Y-136043380D01*
X150204589Y-135716108D01*
X149931595Y-135327398D01*
X149640457Y-134916542D01*
X149358955Y-134522830D01*
X149232424Y-134347340D01*
X148983231Y-133996194D01*
X148756374Y-133659580D01*
X148546336Y-133325555D01*
X148347602Y-132982173D01*
X148154655Y-132617492D01*
X147961981Y-132219568D01*
X147764062Y-131776456D01*
X147555384Y-131276212D01*
X147330430Y-130706894D01*
X147083686Y-130056557D01*
X146809634Y-129313257D01*
X146502759Y-128465050D01*
X146456694Y-128336776D01*
X146307989Y-127898934D01*
X146156396Y-127410355D01*
X146006982Y-126891470D01*
X145864811Y-126362713D01*
X145734951Y-125844517D01*
X145622468Y-125357314D01*
X145532427Y-124921538D01*
X145469895Y-124557621D01*
X145439938Y-124285997D01*
X145438072Y-124228418D01*
X145428671Y-124122271D01*
X145395789Y-124128467D01*
X145376619Y-124155449D01*
X145341497Y-124269414D01*
X145319195Y-124455920D01*
X145315167Y-124572877D01*
X145067040Y-124572877D01*
X145073753Y-124492098D01*
X145108628Y-124135089D01*
X145144182Y-123834006D01*
X145178721Y-123610620D01*
X145210554Y-123486705D01*
X145215287Y-123477560D01*
X145315403Y-123409591D01*
X145439548Y-123434387D01*
X145542122Y-123541123D01*
X145549955Y-123557016D01*
X145607008Y-123721724D01*
X145655361Y-123924312D01*
X145659429Y-123947065D01*
X145762992Y-124529889D01*
X145869263Y-125073785D01*
X145983012Y-125595132D01*
X146109009Y-126110315D01*
X146252023Y-126635713D01*
X146416824Y-127187709D01*
X146608182Y-127782684D01*
X146830867Y-128437021D01*
X147089649Y-129167101D01*
X147389296Y-129989305D01*
X147528107Y-130365032D01*
X147766568Y-130984851D01*
X148013682Y-131583987D01*
X148259740Y-132140930D01*
X148495032Y-132634172D01*
X148709849Y-133042203D01*
X148824010Y-133235793D01*
X148928934Y-133395989D01*
X149089183Y-133631019D01*
X149286665Y-133914777D01*
X149503290Y-134221157D01*
X149616040Y-134378724D01*
X149986302Y-134892876D01*
X150297409Y-135321470D01*
X150562391Y-135680776D01*
X150794275Y-135987065D01*
X151006090Y-136256606D01*
X151210865Y-136505668D01*
X151421627Y-136750521D01*
X151651405Y-137007436D01*
X151913227Y-137292681D01*
X152174034Y-137573140D01*
X152437898Y-137856257D01*
X152703076Y-138141253D01*
X152943661Y-138400253D01*
X153133745Y-138605381D01*
X153182199Y-138657829D01*
X153372326Y-138853556D01*
X153559029Y-139028683D01*
X153705083Y-139148493D01*
X153717496Y-139157092D01*
X153845004Y-139247324D01*
X154043464Y-139392958D01*
X154284904Y-139573279D01*
X154521738Y-139752613D01*
X154778772Y-139948679D01*
X154965228Y-140076587D01*
X155099378Y-140128470D01*
X155199495Y-140096466D01*
X155283849Y-139972709D01*
X155370714Y-139749337D01*
X155478361Y-139418484D01*
X155507313Y-139328426D01*
X155618625Y-139002607D01*
X155743027Y-138668562D01*
X155861669Y-138375750D01*
X155920869Y-138243339D01*
X156022698Y-137993452D01*
X156130614Y-137672446D01*
X156227985Y-137331930D01*
X156269757Y-137160637D01*
X156391654Y-136661692D01*
X156523620Y-136214922D01*
X156682659Y-135768600D01*
X156885775Y-135271000D01*
X156908011Y-135219112D01*
X157128590Y-134706117D01*
X156993930Y-134251790D01*
X156928377Y-134015614D01*
X156880527Y-133814597D01*
X156859708Y-133688384D01*
X156859469Y-133680365D01*
X156880518Y-133537251D01*
X156937044Y-133307472D01*
X157019572Y-133020803D01*
X157118626Y-132707019D01*
X157224730Y-132395894D01*
X157328407Y-132117203D01*
X157420183Y-131900721D01*
X157436655Y-131866752D01*
X157562977Y-131653325D01*
X158088309Y-131653325D01*
X158094831Y-131788655D01*
X158137118Y-131930595D01*
X158194267Y-132127043D01*
X158255130Y-132382800D01*
X158294883Y-132580607D01*
X158412804Y-133160504D01*
X158536367Y-133626921D01*
X158668660Y-133991171D01*
X158697087Y-134054139D01*
X158831685Y-134279490D01*
X159049240Y-134568025D01*
X159335930Y-134904108D01*
X159677936Y-135272099D01*
X160061435Y-135656360D01*
X160373095Y-135950535D01*
X160706138Y-136269437D01*
X161016872Y-136590815D01*
X161290724Y-136897627D01*
X161513119Y-137172828D01*
X161669483Y-137399376D01*
X161743284Y-137552911D01*
X161779922Y-137728530D01*
X161821991Y-138007975D01*
X161867354Y-138370489D01*
X161913872Y-138795312D01*
X161959408Y-139261686D01*
X162001823Y-139748852D01*
X162038978Y-140236051D01*
X162068736Y-140702524D01*
X162069981Y-140724737D01*
X162092715Y-141066877D01*
X162122935Y-141432944D01*
X162155223Y-141759229D01*
X162165502Y-141848078D01*
X162184443Y-142040280D01*
X162207841Y-142336018D01*
X162234298Y-142714152D01*
X162262412Y-143153539D01*
X162290784Y-143633038D01*
X162318012Y-144131508D01*
X162322579Y-144219577D01*
X162366920Y-145068253D01*
X162406832Y-145801735D01*
X162442940Y-146429543D01*
X162475867Y-146961197D01*
X162506238Y-147406215D01*
X162534678Y-147774118D01*
X162561812Y-148074425D01*
X162588265Y-148316656D01*
X162594902Y-148369700D01*
X162614251Y-148571689D01*
X162634368Y-148872619D01*
X162653954Y-149246634D01*
X162671706Y-149667876D01*
X162686326Y-150110488D01*
X162690647Y-150273140D01*
X162701318Y-150797887D01*
X162704083Y-151219014D01*
X162698329Y-151557504D01*
X162683443Y-151834338D01*
X162658813Y-152070500D01*
X162633370Y-152234735D01*
X162584644Y-152477927D01*
X162534968Y-152671091D01*
X162492737Y-152783239D01*
X162480770Y-152797941D01*
X162436281Y-152873702D01*
X162382323Y-153027042D01*
X162331844Y-153212751D01*
X162297789Y-153385622D01*
X162290676Y-153461715D01*
X162348080Y-153543769D01*
X162512194Y-153633345D01*
X162765773Y-153723328D01*
X163091572Y-153806601D01*
X163162860Y-153821616D01*
X163648865Y-153919646D01*
X164031851Y-153993628D01*
X164330835Y-154045712D01*
X164564834Y-154078048D01*
X164752863Y-154092786D01*
X164913940Y-154092076D01*
X165067081Y-154078067D01*
X165222320Y-154054435D01*
X165378412Y-154018109D01*
X165428448Y-153982382D01*
X165409543Y-153966399D01*
X165224344Y-153899213D01*
X164968996Y-153822979D01*
X164680687Y-153746924D01*
X164396610Y-153680273D01*
X164153954Y-153632255D01*
X163989909Y-153612094D01*
X163980861Y-153611960D01*
X163809328Y-153593106D01*
X163691484Y-153546509D01*
X163678464Y-153533950D01*
X163638010Y-153441882D01*
X163576951Y-153253732D01*
X163502070Y-152995193D01*
X163420148Y-152691956D01*
X163337968Y-152369714D01*
X163262312Y-152054158D01*
X163199964Y-151770982D01*
X163164713Y-151587845D01*
X163129463Y-151286250D01*
X163108055Y-150886010D01*
X163100066Y-150412481D01*
X163105075Y-149891015D01*
X163122659Y-149346967D01*
X163152396Y-148805692D01*
X163193866Y-148292541D01*
X163224297Y-148007904D01*
X163273397Y-147571451D01*
X163322609Y-147093609D01*
X163367063Y-146624290D01*
X163401886Y-146213407D01*
X163409947Y-146105937D01*
X163458109Y-145504363D01*
X163511759Y-144955076D01*
X163568628Y-144477753D01*
X163626446Y-144092069D01*
X163665401Y-143891040D01*
X163704423Y-143645724D01*
X163723998Y-143386182D01*
X163724531Y-143346442D01*
X163738762Y-143161395D01*
X163780730Y-142860765D01*
X163849348Y-142450410D01*
X163943528Y-141936187D01*
X164062183Y-141323955D01*
X164204225Y-140619571D01*
X164368568Y-139828895D01*
X164441052Y-139486261D01*
X164527241Y-139018550D01*
X164588861Y-138554109D01*
X164598868Y-138429822D01*
X173085710Y-138429822D01*
X173122997Y-138498744D01*
X173221139Y-138634031D01*
X173359558Y-138807456D01*
X173371428Y-138821739D01*
X173744437Y-139302389D01*
X174137116Y-139867006D01*
X174528432Y-140481562D01*
X174897356Y-141112030D01*
X175222857Y-141724383D01*
X175416901Y-142131344D01*
X175569885Y-142477949D01*
X175706945Y-142800174D01*
X175818590Y-143074780D01*
X175895329Y-143278530D01*
X175925688Y-143377071D01*
X175969654Y-143526084D01*
X176050776Y-143754103D01*
X176156069Y-144025833D01*
X176235693Y-144219577D01*
X176401809Y-144616440D01*
X176524283Y-144916852D01*
X176609459Y-145138734D01*
X176663677Y-145300005D01*
X176693279Y-145418587D01*
X176704607Y-145512398D01*
X176705441Y-145547007D01*
X176732685Y-145657178D01*
X176808289Y-145858758D01*
X176923143Y-146132358D01*
X177068135Y-146458591D01*
X177234152Y-146818068D01*
X177412084Y-147191402D01*
X177592818Y-147559203D01*
X177767242Y-147902086D01*
X177926245Y-148200661D01*
X178060716Y-148435541D01*
X178070518Y-148451614D01*
X178249828Y-148748807D01*
X178467184Y-149117006D01*
X178711836Y-149537275D01*
X178973037Y-149990675D01*
X179240037Y-150458268D01*
X179502089Y-150921118D01*
X179748445Y-151360285D01*
X179968355Y-151756831D01*
X180151071Y-152091820D01*
X180285845Y-152346313D01*
X180326347Y-152426211D01*
X180519252Y-152847316D01*
X180696102Y-153292636D01*
X180843230Y-153723894D01*
X180946970Y-154102812D01*
X180975626Y-154244702D01*
X181020059Y-154387974D01*
X181108125Y-154494548D01*
X181256047Y-154569916D01*
X181480046Y-154619570D01*
X181796346Y-154649002D01*
X182212860Y-154663543D01*
X182440661Y-154664820D01*
X182610748Y-154659815D01*
X182693131Y-154649584D01*
X182696521Y-154646530D01*
X182643414Y-154612877D01*
X182511114Y-154561471D01*
X182462492Y-154545352D01*
X182258213Y-154473765D01*
X182019916Y-154381774D01*
X181932025Y-154345603D01*
X181754223Y-154261378D01*
X181665763Y-154183807D01*
X181637021Y-154081777D01*
X181635588Y-154034246D01*
X181586605Y-153846907D01*
X181440520Y-153585364D01*
X181335729Y-153433455D01*
X181156064Y-153173687D01*
X180972975Y-152890549D01*
X180826020Y-152645220D01*
X180825694Y-152644638D01*
X180687335Y-152405457D01*
X180543752Y-152168617D01*
X180449081Y-152020560D01*
X180360548Y-151873227D01*
X180227340Y-151632844D01*
X180059249Y-151318666D01*
X179866068Y-150949948D01*
X179657587Y-150545947D01*
X179443597Y-150125915D01*
X179233892Y-149709110D01*
X179038262Y-149314785D01*
X178866498Y-148962197D01*
X178728393Y-148670599D01*
X178633737Y-148459248D01*
X178615303Y-148414435D01*
X178517588Y-148182570D01*
X178382844Y-147881650D01*
X178230350Y-147554015D01*
X178106731Y-147297461D01*
X177975841Y-147024103D01*
X177868267Y-146786761D01*
X177794831Y-146610218D01*
X177766351Y-146519259D01*
X177766300Y-146517654D01*
X177739741Y-146419583D01*
X177670591Y-146250327D01*
X177587475Y-146074431D01*
X177499430Y-145883494D01*
X177382393Y-145608306D01*
X177249988Y-145281930D01*
X177115839Y-144937431D01*
X177080356Y-144843656D01*
X176958163Y-144522802D01*
X176844659Y-144232682D01*
X176750005Y-143998705D01*
X176684365Y-143846283D01*
X176668554Y-143813926D01*
X176620013Y-143719239D01*
X176523885Y-143528346D01*
X176387986Y-143256891D01*
X176220129Y-142920516D01*
X176028129Y-142534863D01*
X175819800Y-142115573D01*
X175772003Y-142019263D01*
X175505618Y-141483694D01*
X175286857Y-141048178D01*
X175108627Y-140700582D01*
X174963838Y-140428774D01*
X174845399Y-140220623D01*
X174746218Y-140063996D01*
X174659205Y-139946762D01*
X174577269Y-139856789D01*
X174493317Y-139781944D01*
X174439582Y-139739673D01*
X174298551Y-139613855D01*
X174112895Y-139423558D01*
X173914969Y-139202547D01*
X173842578Y-139116695D01*
X173645180Y-138889417D01*
X173455083Y-138690374D01*
X173288811Y-138534561D01*
X173162886Y-138436973D01*
X173093831Y-138412605D01*
X173085710Y-138429822D01*
X164598868Y-138429822D01*
X164623700Y-138121429D01*
X164629548Y-137748998D01*
X164604194Y-137465305D01*
X164599669Y-137442001D01*
X164546317Y-137179234D01*
X164492793Y-136906490D01*
X164473644Y-136805754D01*
X164412741Y-136577016D01*
X164327459Y-136363562D01*
X164296622Y-136306491D01*
X164201211Y-136126478D01*
X164133425Y-135960147D01*
X164130536Y-135950535D01*
X164085119Y-135833880D01*
X163995894Y-135635126D01*
X163876203Y-135383138D01*
X163753259Y-135134293D01*
X163493523Y-134528513D01*
X163273122Y-133830672D01*
X163099776Y-133069454D01*
X162981202Y-132273544D01*
X162979615Y-132259057D01*
X162946931Y-131986671D01*
X162913336Y-131752897D01*
X162883931Y-131591401D01*
X162871528Y-131545929D01*
X162834060Y-131471126D01*
X162800449Y-131509801D01*
X162781886Y-131555344D01*
X162757501Y-131564258D01*
X162739844Y-131460940D01*
X162730849Y-131257881D01*
X162730392Y-131222309D01*
X162739468Y-130954484D01*
X162777723Y-130692641D01*
X162853412Y-130392873D01*
X162936251Y-130127291D01*
X163033764Y-129840196D01*
X163129116Y-129577577D01*
X163209183Y-129374711D01*
X163248291Y-129288715D01*
X163319056Y-129111817D01*
X163350574Y-128953942D01*
X163350669Y-128948352D01*
X163397773Y-128752550D01*
X163526329Y-128505588D01*
X163719187Y-128232832D01*
X163959196Y-127959647D01*
X164129590Y-127796331D01*
X164341032Y-127597427D01*
X164535815Y-127396080D01*
X164678730Y-127229120D01*
X164701698Y-127197833D01*
X164826162Y-127051005D01*
X164938150Y-126971272D01*
X165014716Y-126970220D01*
X165035096Y-127029498D01*
X165003037Y-127104975D01*
X164915768Y-127261765D01*
X164786655Y-127476891D01*
X164630579Y-127725011D01*
X164466751Y-127994108D01*
X164328125Y-128248008D01*
X164230319Y-128456407D01*
X164190129Y-128579833D01*
X164157648Y-128772764D01*
X164127816Y-128934207D01*
X164126357Y-128941428D01*
X164128895Y-129065024D01*
X164161157Y-129116733D01*
X164200630Y-129198167D01*
X164223665Y-129355096D01*
X164225870Y-129416995D01*
X164227946Y-129678545D01*
X164357907Y-129522525D01*
X164479532Y-129370473D01*
X164572823Y-129245455D01*
X164653512Y-129169197D01*
X164702870Y-129169497D01*
X164718610Y-129258309D01*
X164699190Y-129430166D01*
X164652357Y-129650903D01*
X164585857Y-129886354D01*
X164507437Y-130102356D01*
X164474983Y-130174590D01*
X164406046Y-130332083D01*
X164366717Y-130477685D01*
X164356120Y-130641843D01*
X164373380Y-130855008D01*
X164417621Y-131147628D01*
X164442778Y-131294334D01*
X164552241Y-131789195D01*
X164702065Y-132274223D01*
X164881261Y-132723056D01*
X165078844Y-133109327D01*
X165283826Y-133406672D01*
X165355857Y-133485425D01*
X165481473Y-133610240D01*
X166095657Y-132971001D01*
X166691542Y-132301693D01*
X167175923Y-131646230D01*
X167558483Y-130988566D01*
X167848900Y-130312659D01*
X168007003Y-129803361D01*
X168070416Y-129550213D01*
X168115743Y-129325411D01*
X168146158Y-129097953D01*
X168164832Y-128836836D01*
X168174941Y-128511059D01*
X168179466Y-128118349D01*
X168176519Y-127612678D01*
X168157092Y-127208438D01*
X168116825Y-126882832D01*
X168051364Y-126613064D01*
X167956349Y-126376340D01*
X167827425Y-126149863D01*
X167793309Y-126098003D01*
X167593191Y-125863425D01*
X167317338Y-125622385D01*
X167008465Y-125407769D01*
X166709287Y-125252463D01*
X166679987Y-125240864D01*
X166518708Y-125162569D01*
X166421233Y-125083026D01*
X166408069Y-125051885D01*
X166354464Y-124985859D01*
X166257154Y-124966751D01*
X166068302Y-124945502D01*
X165941647Y-124890680D01*
X165908806Y-124835259D01*
X165965929Y-124807791D01*
X166116256Y-124787887D01*
X166328228Y-124779572D01*
X166345661Y-124779528D01*
X166560971Y-124786764D01*
X166716995Y-124805808D01*
X166782170Y-124832661D01*
X166782516Y-124834869D01*
X166838888Y-124873057D01*
X166986963Y-124920772D01*
X167195179Y-124967922D01*
X167203769Y-124969551D01*
X167451916Y-125022757D01*
X167678023Y-125082190D01*
X167816194Y-125128606D01*
X168007366Y-125208320D01*
X168085588Y-124822302D01*
X168144090Y-124577121D01*
X168229376Y-124271702D01*
X168325315Y-123963010D01*
X168348926Y-123892433D01*
X168420813Y-123665683D01*
X168515064Y-123345350D01*
X168623951Y-122958987D01*
X168739744Y-122534144D01*
X168854713Y-122098373D01*
X168882923Y-121988993D01*
X169043460Y-121365465D01*
X169202837Y-120750336D01*
X169356637Y-120160400D01*
X169500441Y-119612444D01*
X169629832Y-119123261D01*
X169740392Y-118709641D01*
X169827703Y-118388375D01*
X169872829Y-118226702D01*
X169972576Y-117842404D01*
X170072891Y-117385667D01*
X170176267Y-116843434D01*
X170285197Y-116202644D01*
X170399389Y-115468804D01*
X170525602Y-114566304D01*
X170619777Y-113740429D01*
X170685511Y-112948182D01*
X170726402Y-112146565D01*
X170745595Y-111330634D01*
X170752370Y-110931085D01*
X170762306Y-110540090D01*
X170774373Y-110188970D01*
X170787537Y-109909048D01*
X170797007Y-109770437D01*
X170822667Y-109468050D01*
X170851325Y-109124437D01*
X170872574Y-108865523D01*
X170935843Y-108347906D01*
X171034191Y-107884314D01*
X171162052Y-107487497D01*
X171313862Y-107170207D01*
X171484053Y-106945196D01*
X171667059Y-106825214D01*
X171770422Y-106808600D01*
X171916400Y-106849978D01*
X172089608Y-106950658D01*
X172147235Y-106995823D01*
X172293964Y-107107615D01*
X172410945Y-107173260D01*
X172440926Y-107180511D01*
X172522077Y-107151852D01*
X172672529Y-107079414D01*
X172854475Y-106983503D01*
X173030110Y-106884427D01*
X173161627Y-106802492D01*
X173201670Y-106771893D01*
X173165557Y-106737470D01*
X173048042Y-106677998D01*
X173007000Y-106660292D01*
X172766654Y-106506251D01*
X172622508Y-106294221D01*
X172586447Y-106101588D01*
X172616936Y-105885834D01*
X172722291Y-105742086D01*
X172923347Y-105647096D01*
X173016306Y-105621993D01*
X173190519Y-105588166D01*
X173347345Y-105583770D01*
X173530580Y-105612288D01*
X173784023Y-105677204D01*
X173813309Y-105685381D01*
X174090204Y-105770403D01*
X174360848Y-105865748D01*
X174570191Y-105951913D01*
X174583499Y-105958239D01*
X174780283Y-106067419D01*
X175046771Y-106234499D01*
X175354832Y-106439876D01*
X175676331Y-106663946D01*
X175983137Y-106887106D01*
X176247116Y-107089753D01*
X176438739Y-107251001D01*
X176593724Y-107382754D01*
X176718148Y-107470487D01*
X176770544Y-107492550D01*
X176872625Y-107534178D01*
X177059551Y-107659791D01*
X177332823Y-107870483D01*
X177676831Y-108153000D01*
X177942013Y-108370871D01*
X178200320Y-108572485D01*
X178473362Y-108773154D01*
X178782749Y-108988191D01*
X179150092Y-109232907D01*
X179597003Y-109522614D01*
X179732148Y-109609276D01*
X180241085Y-109936583D01*
X180656366Y-110207340D01*
X180990719Y-110430278D01*
X181256870Y-110614129D01*
X181467547Y-110767622D01*
X181635479Y-110899488D01*
X181730092Y-110979802D01*
X181904291Y-111117465D01*
X182071673Y-111225876D01*
X182126930Y-111253454D01*
X182282473Y-111340273D01*
X182515553Y-111498702D01*
X182810795Y-111717008D01*
X183152822Y-111983460D01*
X183526259Y-112286324D01*
X183915730Y-112613868D01*
X183963148Y-112654562D01*
X184212842Y-112863223D01*
X184436280Y-113038640D01*
X184613424Y-113165905D01*
X184724236Y-113230110D01*
X184743247Y-113234925D01*
X184890419Y-113251724D01*
X184990010Y-113273408D01*
X185087446Y-113283924D01*
X185125181Y-113222365D01*
X185130428Y-113115462D01*
X185094432Y-112975520D01*
X184995253Y-112758645D01*
X184846103Y-112486609D01*
X184660196Y-112181186D01*
X184450743Y-111864146D01*
X184230958Y-111557262D01*
X184028345Y-111299430D01*
X183852272Y-111087278D01*
X183635937Y-110826294D01*
X183418601Y-110563848D01*
X183360265Y-110493351D01*
X183052134Y-110131544D01*
X182720276Y-109760316D01*
X182380869Y-109396181D01*
X182050091Y-109055651D01*
X181744118Y-108755241D01*
X181479130Y-108511463D01*
X181271302Y-108340831D01*
X181209235Y-108297676D01*
X180935567Y-108093642D01*
X180615309Y-107808759D01*
X180270487Y-107466442D01*
X179923129Y-107090104D01*
X179595261Y-106703158D01*
X179308910Y-106329018D01*
X179177950Y-106138493D01*
X178957835Y-105817239D01*
X178740432Y-105527145D01*
X178539854Y-105284769D01*
X178370214Y-105106665D01*
X178245624Y-105009390D01*
X178204272Y-104996235D01*
X178137725Y-104947653D01*
X178049164Y-104828722D01*
X178037208Y-104809012D01*
X177916479Y-104665803D01*
X177799714Y-104628874D01*
X177708179Y-104700076D01*
X177678265Y-104777808D01*
X177623692Y-104917512D01*
X177562069Y-104934349D01*
X177494668Y-104829990D01*
X177422763Y-104606106D01*
X177368985Y-104372157D01*
X177318183Y-104168186D01*
X177261841Y-104058607D01*
X177182594Y-104013558D01*
X177157823Y-104008971D01*
X177049315Y-104019839D01*
X177016809Y-104116719D01*
X177016450Y-104133787D01*
X176992953Y-104287099D01*
X176961020Y-104364550D01*
X176886563Y-104427471D01*
X176824261Y-104379581D01*
X176782048Y-104234812D01*
X176767774Y-104025230D01*
X176757740Y-103838406D01*
X176731882Y-103715074D01*
X176707360Y-103685670D01*
X176638381Y-103636275D01*
X176555956Y-103517147D01*
X176554273Y-103514049D01*
X176461601Y-103342427D01*
X176382364Y-103545821D01*
X176301414Y-103690689D01*
X176231602Y-103716056D01*
X176191765Y-103625965D01*
X176191079Y-103504753D01*
X176193714Y-103373329D01*
X176158560Y-103340463D01*
X176090071Y-103368931D01*
X175991872Y-103408194D01*
X175940865Y-103378435D01*
X175925714Y-103259940D01*
X175931499Y-103093174D01*
X175929886Y-102906293D01*
X175894327Y-102821770D01*
X175861994Y-102811960D01*
X175757228Y-102852600D01*
X175737415Y-102875386D01*
X175664334Y-102912479D01*
X175642846Y-102904591D01*
X175614717Y-102822641D01*
X175660707Y-102686551D01*
X175754726Y-102549464D01*
X175813524Y-102454672D01*
X175775809Y-102373910D01*
X175749697Y-102346639D01*
X175642184Y-102268391D01*
X175583383Y-102250290D01*
X175442214Y-102209312D01*
X175219206Y-102090445D01*
X174924849Y-101899790D01*
X174677111Y-101723319D01*
X174408226Y-101535786D01*
X174089559Y-101328182D01*
X173781302Y-101139469D01*
X173721151Y-101104523D01*
X173473010Y-100966096D01*
X173307238Y-100886304D01*
X173200711Y-100857075D01*
X173130306Y-100870334D01*
X173103299Y-100888796D01*
X172992906Y-100931840D01*
X172784642Y-100970623D01*
X172505453Y-101000560D01*
X172405450Y-101007528D01*
X172007907Y-101046805D01*
X171659022Y-101120018D01*
X171324736Y-101239637D01*
X170970988Y-101418136D01*
X170563717Y-101667984D01*
X170515278Y-101699643D01*
X170030236Y-102054623D01*
X169579227Y-102454441D01*
X169186055Y-102874791D01*
X168874529Y-103291365D01*
X168751728Y-103500280D01*
X168625759Y-103727631D01*
X168506162Y-103922481D01*
X168415290Y-104048827D01*
X168402448Y-104062791D01*
X168350103Y-104128862D01*
X168307927Y-104220667D01*
X168274375Y-104352428D01*
X168247902Y-104538367D01*
X168226962Y-104792703D01*
X168210009Y-105129661D01*
X168195499Y-105563459D01*
X168182338Y-106088373D01*
X168171253Y-106554975D01*
X168158901Y-107039549D01*
X168146233Y-107507103D01*
X168134199Y-107922647D01*
X168123750Y-108251191D01*
X168123012Y-108272648D01*
X168117326Y-108655304D01*
X168123619Y-109065999D01*
X168140453Y-109450586D01*
X168161068Y-109708029D01*
X168213966Y-110315262D01*
X168255129Y-111009788D01*
X168283629Y-111754554D01*
X168298537Y-112512506D01*
X168298923Y-113246592D01*
X168283858Y-113919757D01*
X168272967Y-114170191D01*
X168210457Y-115077904D01*
X168116391Y-115911047D01*
X167984045Y-116717374D01*
X167806697Y-117544635D01*
X167785391Y-117633828D01*
X167706664Y-117962510D01*
X167630620Y-118283492D01*
X167566591Y-118557190D01*
X167527936Y-118725965D01*
X167360694Y-119307620D01*
X167106469Y-119959365D01*
X166771625Y-120668433D01*
X166362529Y-121422057D01*
X165885543Y-122207470D01*
X165505703Y-122782476D01*
X165225507Y-123192289D01*
X165004958Y-123512968D01*
X164833733Y-123758744D01*
X164701510Y-123943842D01*
X164597967Y-124082492D01*
X164512782Y-124188922D01*
X164435634Y-124277358D01*
X164370962Y-124346604D01*
X164255292Y-124480523D01*
X164194368Y-124576712D01*
X164192683Y-124602799D01*
X164166373Y-124658389D01*
X164064617Y-124777733D01*
X163906084Y-124942607D01*
X163709446Y-125134784D01*
X163493374Y-125336038D01*
X163276538Y-125528144D01*
X163077609Y-125692875D01*
X163069248Y-125699454D01*
X162792931Y-125951048D01*
X162498893Y-126277364D01*
X162209215Y-126648013D01*
X161945975Y-127032606D01*
X161731254Y-127400752D01*
X161587132Y-127722062D01*
X161576112Y-127754543D01*
X161468956Y-127995731D01*
X161315555Y-128243337D01*
X161233587Y-128347418D01*
X161011160Y-128639751D01*
X160831267Y-128952235D01*
X160710773Y-129250543D01*
X160666547Y-129500350D01*
X160666546Y-129501430D01*
X160682136Y-129627610D01*
X160724885Y-129849495D01*
X160788760Y-130142466D01*
X160867728Y-130481908D01*
X160955756Y-130843203D01*
X161046812Y-131201732D01*
X161134863Y-131532881D01*
X161213876Y-131812030D01*
X161277819Y-132014563D01*
X161291999Y-132053659D01*
X161359000Y-132229885D01*
X161510088Y-131983945D01*
X161604074Y-131855175D01*
X161655249Y-131833658D01*
X161660413Y-131908281D01*
X161616367Y-132067933D01*
X161569307Y-132189638D01*
X161511212Y-132404618D01*
X161511858Y-132593285D01*
X161555850Y-132732995D01*
X161610838Y-132755210D01*
X161691656Y-132669886D01*
X161731451Y-132639176D01*
X161753189Y-132694885D01*
X161760882Y-132852970D01*
X161760944Y-132945380D01*
X161757301Y-133139328D01*
X161750099Y-133268237D01*
X161742378Y-133302559D01*
X161706235Y-133242482D01*
X161634297Y-133110081D01*
X161598788Y-133042666D01*
X161525012Y-132910020D01*
X161496090Y-132885366D01*
X161505262Y-132963051D01*
X161505613Y-132964762D01*
X161547609Y-133136694D01*
X161581137Y-133245597D01*
X161607129Y-133335871D01*
X161584341Y-133322388D01*
X161518293Y-133213776D01*
X161414508Y-133018664D01*
X161335269Y-132861346D01*
X161211446Y-132578090D01*
X161073586Y-132198165D01*
X160919671Y-131715203D01*
X160747683Y-131122838D01*
X160555605Y-130414701D01*
X160534309Y-130333828D01*
X160470632Y-130094714D01*
X160418972Y-129906918D01*
X160387273Y-129799053D01*
X160381763Y-129784377D01*
X160324686Y-129802657D01*
X160183452Y-129867692D01*
X159983926Y-129967296D01*
X159888870Y-130016558D01*
X159653758Y-130158695D01*
X159376841Y-130355655D01*
X159081008Y-130587767D01*
X158789149Y-130835359D01*
X158524152Y-131078760D01*
X158308906Y-131298299D01*
X158166301Y-131474303D01*
X158138253Y-131521075D01*
X158088309Y-131653325D01*
X157562977Y-131653325D01*
X157746516Y-131343229D01*
X158129947Y-130877163D01*
G37*
G36*
X169021037Y-118023877D02*
G01*
X169021591Y-118353844D01*
X169012902Y-118562371D01*
X168994434Y-118652526D01*
X168965651Y-118627380D01*
X168934044Y-118523140D01*
X168924238Y-118395704D01*
X168930141Y-118185737D01*
X168950347Y-117934347D01*
X168955896Y-117883459D01*
X169012874Y-117384196D01*
X169021037Y-118023877D01*
G37*
G36*
X160572309Y-134792344D02*
G01*
X160567766Y-134849361D01*
X160574594Y-134947438D01*
X160624823Y-135118189D01*
X160695349Y-135295809D01*
X160786457Y-135517047D01*
X160825678Y-135647353D01*
X160812840Y-135680252D01*
X160747772Y-135609265D01*
X160701884Y-135542435D01*
X160607357Y-135370279D01*
X160523902Y-135171683D01*
X160465186Y-134986160D01*
X160444873Y-134853222D01*
X160452225Y-134820549D01*
X160521958Y-134766134D01*
X160572309Y-134792344D01*
G37*
G36*
X158773507Y-133038168D02*
G01*
X158780976Y-133112232D01*
X158773507Y-133121379D01*
X158736406Y-133112812D01*
X158731902Y-133079774D01*
X158754736Y-133028405D01*
X158773507Y-133038168D01*
G37*
G36*
X161852295Y-133423017D02*
G01*
X161821091Y-133454221D01*
X161789887Y-133423017D01*
X161821091Y-133391813D01*
X161852295Y-133423017D01*
G37*
G36*
X162580424Y-133870783D02*
G01*
X162545268Y-133979645D01*
X162509078Y-134053412D01*
X162439436Y-134252777D01*
X162414350Y-134437145D01*
X162395125Y-134575169D01*
X162348809Y-134639384D01*
X162343442Y-134639970D01*
X162300705Y-134581418D01*
X162299811Y-134406902D01*
X162304857Y-134356602D01*
X162348719Y-134154349D01*
X162420196Y-133988365D01*
X162447808Y-133950569D01*
X162546865Y-133859292D01*
X162580424Y-133870783D01*
G37*
G36*
X159226539Y-131329739D02*
G01*
X159231165Y-131475891D01*
X159223986Y-131676541D01*
X159203906Y-131757246D01*
X159173110Y-131716450D01*
X159133783Y-131552596D01*
X159132561Y-131546119D01*
X159121552Y-131358421D01*
X159160937Y-131252802D01*
X159204702Y-131241625D01*
X159226539Y-131329739D01*
G37*
G36*
X169503820Y-116352717D02*
G01*
X169519420Y-116484496D01*
X169519176Y-116689253D01*
X169503049Y-116941566D01*
X169473715Y-117196973D01*
X169445458Y-117370373D01*
X169421078Y-117433095D01*
X169392898Y-117398741D01*
X169379748Y-117363500D01*
X169360392Y-117231750D01*
X169359178Y-117033035D01*
X169372763Y-116805029D01*
X169397803Y-116585409D01*
X169430954Y-116411849D01*
X169468873Y-116322027D01*
X169472413Y-116319333D01*
X169503820Y-116352717D01*
G37*
G36*
X178489971Y-106018438D02*
G01*
X178603480Y-106119303D01*
X178750205Y-106281184D01*
X178912180Y-106482634D01*
X179071441Y-106702204D01*
X179210024Y-106918445D01*
X179238788Y-106968496D01*
X179355251Y-107168091D01*
X179454117Y-107322069D01*
X179515576Y-107399749D01*
X179518781Y-107402066D01*
X179570685Y-107472284D01*
X179562440Y-107539891D01*
X179529322Y-107552201D01*
X179469025Y-107510310D01*
X179337811Y-107397816D01*
X179154187Y-107231189D01*
X178936665Y-107026899D01*
X178905244Y-106996885D01*
X178638290Y-106736969D01*
X178454759Y-106548637D01*
X178356430Y-106434363D01*
X178345080Y-106396620D01*
X178422487Y-106437882D01*
X178590428Y-106560621D01*
X178593204Y-106562756D01*
X178797009Y-106719135D01*
X178921512Y-106812542D01*
X178986239Y-106856243D01*
X179010711Y-106863509D01*
X179014457Y-106849042D01*
X178978060Y-106787473D01*
X178881429Y-106654900D01*
X178743403Y-106476892D01*
X178702341Y-106425426D01*
X178561496Y-106240332D01*
X178463761Y-106093052D01*
X178425467Y-106008876D01*
X178427641Y-106000039D01*
X178489971Y-106018438D01*
G37*
G36*
X173553885Y-101635667D02*
G01*
X173738723Y-101654096D01*
X173865809Y-101684448D01*
X173879795Y-101709341D01*
X173778524Y-101724009D01*
X173571231Y-101727234D01*
X173544173Y-101726867D01*
X173331239Y-101717534D01*
X173182204Y-101699420D01*
X173125668Y-101676214D01*
X173126603Y-101673017D01*
X173203921Y-101644448D01*
X173360983Y-101632225D01*
X173553885Y-101635667D01*
G37*
G36*
X167379434Y-122310273D02*
G01*
X167386601Y-122486422D01*
X167380305Y-122780746D01*
X167377760Y-122840971D01*
X167358456Y-123144301D01*
X167331636Y-123392758D01*
X167300596Y-123561226D01*
X167275441Y-123621070D01*
X167244749Y-123618200D01*
X167230527Y-123527740D01*
X167232228Y-123337551D01*
X167249155Y-123037709D01*
X167277567Y-122693457D01*
X167307872Y-122443890D01*
X167336999Y-122293705D01*
X167361877Y-122247600D01*
X167379434Y-122310273D01*
G37*
G36*
X174867599Y-102280599D02*
G01*
X174945561Y-102388490D01*
X174956730Y-102405351D01*
X175056717Y-102619675D01*
X175119974Y-102876739D01*
X175135760Y-103120042D01*
X175115922Y-103242652D01*
X175060265Y-103358719D01*
X175013449Y-103363932D01*
X174988004Y-103272197D01*
X174994973Y-103108398D01*
X174986037Y-102781737D01*
X174931372Y-102570084D01*
X174861375Y-102365739D01*
X174839827Y-102271130D01*
X174867599Y-102280599D01*
G37*
G36*
X162206966Y-131819915D02*
G01*
X162214406Y-131917451D01*
X162202039Y-131939530D01*
X162173674Y-131920917D01*
X162169261Y-131857620D01*
X162184503Y-131791028D01*
X162206966Y-131819915D01*
G37*
G36*
X162341639Y-133284394D02*
G01*
X162323889Y-133367695D01*
X162211257Y-133651020D01*
X162142524Y-133841210D01*
X162112848Y-133960039D01*
X162117386Y-134029277D01*
X162151295Y-134070697D01*
X162165390Y-134080272D01*
X162213370Y-134124639D01*
X162149227Y-134139228D01*
X162121212Y-134139752D01*
X161995966Y-134115886D01*
X161947161Y-134080328D01*
X161947247Y-133987227D01*
X161992704Y-133825247D01*
X162066963Y-133633876D01*
X162153458Y-133452600D01*
X162235621Y-133320904D01*
X162283493Y-133278715D01*
X162341639Y-133284394D01*
G37*
G36*
X173855075Y-102699240D02*
G01*
X174024371Y-102762992D01*
X174118820Y-102892277D01*
X174141306Y-103054969D01*
X174094714Y-103218943D01*
X173981929Y-103352074D01*
X173805833Y-103422238D01*
X173789998Y-103424082D01*
X173625015Y-103412317D01*
X173529897Y-103324783D01*
X173526712Y-103318971D01*
X173465591Y-103106803D01*
X173498101Y-102912997D01*
X173608529Y-102767207D01*
X173781164Y-102699084D01*
X173855075Y-102699240D01*
G37*
G36*
X159109271Y-132736641D02*
G01*
X159147870Y-132843679D01*
X159178169Y-133046082D01*
X159191902Y-133188987D01*
X159217002Y-133447019D01*
X159244417Y-133677169D01*
X159268629Y-133833635D01*
X159270836Y-133844270D01*
X159279677Y-133977683D01*
X159240326Y-134011638D01*
X159174241Y-133950254D01*
X159108258Y-133813066D01*
X159066283Y-133646816D01*
X159026942Y-133408406D01*
X158999534Y-133157783D01*
X158984663Y-132919666D01*
X158989213Y-132781098D01*
X159016249Y-132717891D01*
X159056887Y-132705326D01*
X159109271Y-132736641D01*
G37*
G36*
X170687226Y-106043936D02*
G01*
X170628233Y-106111142D01*
X170552557Y-106230394D01*
X170459620Y-106426550D01*
X170369407Y-106657383D01*
X170368526Y-106659897D01*
X170293692Y-106869853D01*
X170252765Y-106969337D01*
X170239786Y-106966154D01*
X170248796Y-106868112D01*
X170256955Y-106806063D01*
X170315728Y-106543193D01*
X170409953Y-106302803D01*
X170522930Y-106119589D01*
X170630044Y-106030977D01*
X170701131Y-106009096D01*
X170687226Y-106043936D01*
G37*
G36*
X169959147Y-111002992D02*
G01*
X169951326Y-111230515D01*
X169924413Y-111377129D01*
X169884833Y-111430836D01*
X169839009Y-111379639D01*
X169808773Y-111283828D01*
X169806555Y-111139939D01*
X169841143Y-110943142D01*
X169863822Y-110862575D01*
X169952977Y-110581739D01*
X169959147Y-111002992D01*
G37*
G36*
X169563502Y-112406909D02*
G01*
X169582701Y-112546059D01*
X169594917Y-112790618D01*
X169596648Y-112846432D01*
X169597771Y-113115973D01*
X169583700Y-113284695D01*
X169556089Y-113345427D01*
X169516595Y-113291001D01*
X169502967Y-113252060D01*
X169478925Y-113119262D01*
X169463775Y-112926571D01*
X169458177Y-112715365D01*
X169462794Y-112527018D01*
X169478288Y-112402906D01*
X169489000Y-112379023D01*
X169533531Y-112356715D01*
X169563502Y-112406909D01*
G37*
G36*
X172275926Y-103171846D02*
G01*
X172358061Y-103318740D01*
X172428280Y-103451167D01*
X172637315Y-103788701D01*
X172862488Y-104018119D01*
X173128836Y-104155801D01*
X173461395Y-104218130D01*
X173611702Y-104225494D01*
X173904526Y-104233517D01*
X174080672Y-104244582D01*
X174148274Y-104261695D01*
X174115470Y-104287859D01*
X173990396Y-104326080D01*
X173928217Y-104342376D01*
X173670259Y-104401990D01*
X173479614Y-104418813D01*
X173304668Y-104387950D01*
X173093810Y-104304507D01*
X172982285Y-104252679D01*
X172739199Y-104121897D01*
X172574202Y-103985915D01*
X172444459Y-103808603D01*
X172433060Y-103789404D01*
X172327992Y-103572719D01*
X172253455Y-103351024D01*
X172237280Y-103269152D01*
X172225519Y-103156566D01*
X172235073Y-103120959D01*
X172275926Y-103171846D01*
G37*
G36*
X164607081Y-125684394D02*
G01*
X164567792Y-125852068D01*
X164557164Y-125887380D01*
X164508224Y-126109094D01*
X164491983Y-126319818D01*
X164496974Y-126386530D01*
X164516360Y-126535549D01*
X164503912Y-126580292D01*
X164448864Y-126539509D01*
X164423499Y-126514466D01*
X164359603Y-126371498D01*
X164359978Y-126162150D01*
X164423020Y-125926062D01*
X164449810Y-125864488D01*
X164542786Y-125689473D01*
X164596978Y-125629818D01*
X164607081Y-125684394D01*
G37*
G36*
X164020114Y-125975590D02*
G01*
X163997903Y-126100631D01*
X163919932Y-126333154D01*
X163914438Y-126347679D01*
X163840927Y-126589971D01*
X163794867Y-126835824D01*
X163786970Y-126948201D01*
X163770410Y-127140369D01*
X163720421Y-127212974D01*
X163641321Y-127171829D01*
X163597483Y-127049280D01*
X163608148Y-126847719D01*
X163667979Y-126597670D01*
X163771637Y-126329657D01*
X163798247Y-126274403D01*
X163915680Y-126059571D01*
X163991171Y-125960935D01*
X164020114Y-125975590D01*
G37*
G36*
X167831596Y-122045923D02*
G01*
X167874976Y-122298840D01*
X167895548Y-122552356D01*
X167894003Y-122670002D01*
X167879285Y-122831178D01*
X167858805Y-122883298D01*
X167820320Y-122841953D01*
X167794033Y-122797302D01*
X167746678Y-122631168D01*
X167728678Y-122358202D01*
X167731625Y-122173223D01*
X167749838Y-121690339D01*
X167831596Y-122045923D01*
G37*
G36*
X170069356Y-106231698D02*
G01*
X170056120Y-106322403D01*
X170000120Y-106460100D01*
X169944036Y-106532767D01*
X169907619Y-106520034D01*
X169902909Y-106480406D01*
X169927779Y-106320422D01*
X169988355Y-106207843D01*
X170038608Y-106181985D01*
X170069356Y-106231698D01*
G37*
G36*
X162760527Y-144912738D02*
G01*
X162693659Y-145064293D01*
X162630282Y-145241951D01*
X162616329Y-145402950D01*
X162617995Y-145413335D01*
X162637339Y-145532833D01*
X162616644Y-145547494D01*
X162551263Y-145486457D01*
X162484846Y-145371030D01*
X162503501Y-145222959D01*
X162608308Y-145019361D01*
X162712328Y-144874345D01*
X162766692Y-144840712D01*
X162760527Y-144912738D01*
G37*
G36*
X169306418Y-113306417D02*
G01*
X169327438Y-113477641D01*
X169328122Y-113730269D01*
X169310959Y-114022990D01*
X169278432Y-114314496D01*
X169233028Y-114563477D01*
X169230027Y-114575842D01*
X169203424Y-114667511D01*
X169185504Y-114679863D01*
X169174622Y-114601426D01*
X169169135Y-114420725D01*
X169167413Y-114138987D01*
X169171228Y-113842595D01*
X169182292Y-113578947D01*
X169198768Y-113381454D01*
X169213684Y-113296481D01*
X169260911Y-113140462D01*
X169306418Y-113306417D01*
G37*
G36*
X166802518Y-128201821D02*
G01*
X166810263Y-128312015D01*
X166801422Y-128440562D01*
X166773310Y-128637676D01*
X166729796Y-128844467D01*
X166678072Y-129039050D01*
X166625332Y-129199540D01*
X166578771Y-129304052D01*
X166545581Y-129330700D01*
X166532958Y-129257599D01*
X166532958Y-129257292D01*
X166544119Y-129161011D01*
X166573488Y-128979400D01*
X166615012Y-128749563D01*
X166620551Y-128720362D01*
X166676455Y-128465758D01*
X166729496Y-128288157D01*
X166773556Y-128197023D01*
X166802518Y-128201821D01*
G37*
G36*
X167661564Y-119770212D02*
G01*
X167745139Y-119807185D01*
X167713195Y-119853852D01*
X167708308Y-119857009D01*
X167592601Y-119908003D01*
X167513160Y-119872658D01*
X167512305Y-119871806D01*
X167490688Y-119801577D01*
X167560087Y-119762684D01*
X167661564Y-119770212D01*
G37*
G36*
X163267900Y-135564387D02*
G01*
X163275340Y-135661923D01*
X163262973Y-135684002D01*
X163234608Y-135665389D01*
X163230195Y-135602091D01*
X163245436Y-135535500D01*
X163267900Y-135564387D01*
G37*
G36*
X160180475Y-133928226D02*
G01*
X160168727Y-133950785D01*
X160112097Y-134157911D01*
X160124025Y-134447405D01*
X160197927Y-134803906D01*
X160246156Y-135017333D01*
X160262262Y-135151636D01*
X160247978Y-135194997D01*
X160205036Y-135135596D01*
X160163501Y-135038675D01*
X160059110Y-134709845D01*
X160004241Y-134405738D01*
X159999405Y-134148817D01*
X160045109Y-133961548D01*
X160136984Y-133868160D01*
X160199658Y-133859426D01*
X160180475Y-133928226D01*
G37*
G36*
X163190320Y-126776009D02*
G01*
X163160103Y-126891587D01*
X163124146Y-127003726D01*
X163045600Y-127288310D01*
X162990344Y-127577020D01*
X162962649Y-127835779D01*
X162966782Y-128030509D01*
X162986473Y-128102747D01*
X163007045Y-128193830D01*
X162953168Y-128203271D01*
X162863303Y-128137071D01*
X162822530Y-128037149D01*
X162795330Y-127857184D01*
X162788413Y-127697730D01*
X162825053Y-127362356D01*
X162925545Y-127059973D01*
X163075750Y-126828953D01*
X163126182Y-126781123D01*
X163178951Y-126745985D01*
X163190320Y-126776009D01*
G37*
G36*
X162827056Y-141510254D02*
G01*
X162819348Y-141536039D01*
X162792215Y-141654414D01*
X162759568Y-141858670D01*
X162727335Y-142110395D01*
X162718963Y-142186311D01*
X162686859Y-142469112D01*
X162660003Y-142643666D01*
X162633635Y-142726137D01*
X162602992Y-142732692D01*
X162570271Y-142691047D01*
X162544606Y-142568254D01*
X162549903Y-142366300D01*
X162580056Y-142125207D01*
X162628958Y-141884999D01*
X162690500Y-141685699D01*
X162738036Y-141591665D01*
X162809505Y-141501904D01*
X162827056Y-141510254D01*
G37*
G36*
X178370668Y-105700463D02*
G01*
X178509768Y-105777069D01*
X178686267Y-105908721D01*
X178875540Y-106078024D01*
X178969616Y-106173862D01*
X179145048Y-106366853D01*
X179239383Y-106486207D01*
X179261552Y-106544739D01*
X179236204Y-106556432D01*
X179180916Y-106517508D01*
X179054126Y-106412557D01*
X178876868Y-106259313D01*
X178739565Y-106137756D01*
X178545584Y-105960519D01*
X178395458Y-105815699D01*
X178307849Y-105721768D01*
X178293591Y-105696299D01*
X178370668Y-105700463D01*
G37*
G36*
X162913229Y-142971420D02*
G01*
X162882025Y-143002624D01*
X162850821Y-142971420D01*
X162882025Y-142940216D01*
X162913229Y-142971420D01*
G37*
G36*
X163036533Y-134938613D02*
G01*
X163018515Y-135014417D01*
X162985797Y-135179139D01*
X162976489Y-135279651D01*
X162946307Y-135372291D01*
X162913229Y-135388864D01*
X162868707Y-135334814D01*
X162850821Y-135209282D01*
X162885438Y-135047626D01*
X162955255Y-134944049D01*
X163027310Y-134895393D01*
X163036533Y-134938613D01*
G37*
G36*
X179363148Y-108150852D02*
G01*
X179483501Y-108266138D01*
X179541005Y-108346744D01*
X179663567Y-108527826D01*
X179775571Y-108688905D01*
X179801502Y-108725105D01*
X179867508Y-108824110D01*
X179880177Y-108859894D01*
X179810327Y-108840023D01*
X179673912Y-108799864D01*
X179669740Y-108798624D01*
X179500352Y-108718438D01*
X179327918Y-108591145D01*
X179183690Y-108446266D01*
X179098917Y-108313319D01*
X179089743Y-108250741D01*
X179159957Y-108160779D01*
X179245871Y-108128316D01*
X179363148Y-108150852D01*
G37*
G36*
X162889923Y-140355734D02*
G01*
X162864477Y-140397095D01*
X162823351Y-140498209D01*
X162782789Y-140679704D01*
X162758112Y-140849552D01*
X162730305Y-141070012D01*
X162702350Y-141251350D01*
X162685484Y-141333213D01*
X162622709Y-141429990D01*
X162543201Y-141420934D01*
X162502685Y-141358570D01*
X162495394Y-141256427D01*
X162508332Y-141073408D01*
X162534843Y-140874909D01*
X162610117Y-140570222D01*
X162718816Y-140385234D01*
X162861343Y-140319274D01*
X162870390Y-140319086D01*
X162889923Y-140355734D01*
G37*
G36*
X166511734Y-126383539D02*
G01*
X166525140Y-126544446D01*
X166518946Y-126826989D01*
X166512643Y-126934461D01*
X166467854Y-127357868D01*
X166395321Y-127671131D01*
X166346800Y-127792569D01*
X166220023Y-128055941D01*
X166251968Y-127806309D01*
X166273447Y-127632804D01*
X166304062Y-127378429D01*
X166338644Y-127086309D01*
X166354802Y-126948201D01*
X166400261Y-126626599D01*
X166444659Y-126425019D01*
X166483362Y-126343864D01*
X166511734Y-126383539D01*
G37*
G36*
X169813793Y-108116629D02*
G01*
X169788225Y-108311851D01*
X169756499Y-108554513D01*
X169742372Y-108662697D01*
X169700128Y-108882975D01*
X169654486Y-108982455D01*
X169616759Y-108964283D01*
X169598262Y-108831608D01*
X169606667Y-108624950D01*
X169642772Y-108388869D01*
X169699800Y-108176032D01*
X169741124Y-108078881D01*
X169842449Y-107898201D01*
X169813793Y-108116629D01*
G37*
G36*
X158920284Y-130981210D02*
G01*
X158928219Y-131068155D01*
X158901541Y-131244291D01*
X158891261Y-131296922D01*
X158842614Y-131499017D01*
X158794867Y-131635515D01*
X158757136Y-131693738D01*
X158738536Y-131661011D01*
X158748184Y-131524659D01*
X158753586Y-131488373D01*
X158779622Y-131289472D01*
X158793131Y-131120672D01*
X158793623Y-131098324D01*
X158825083Y-130988840D01*
X158876633Y-130957906D01*
X158920284Y-130981210D01*
G37*
G36*
X170683035Y-107141606D02*
G01*
X170648642Y-107245898D01*
X170601045Y-107381366D01*
X170590352Y-107476948D01*
X170566085Y-107586571D01*
X170526988Y-107617366D01*
X170485150Y-107562645D01*
X170464924Y-107428694D01*
X170464580Y-107406580D01*
X170489143Y-107240515D01*
X170548657Y-107126230D01*
X170552636Y-107122714D01*
X170644119Y-107087454D01*
X170683035Y-107141606D01*
G37*
G36*
X162566008Y-137769716D02*
G01*
X162568954Y-137839948D01*
X162555018Y-137994969D01*
X162529401Y-138196720D01*
X162497306Y-138407142D01*
X162463935Y-138588178D01*
X162441467Y-138680879D01*
X162430702Y-138790305D01*
X162499686Y-138821296D01*
X162500299Y-138821297D01*
X162554170Y-138842684D01*
X162586733Y-138922882D01*
X162603817Y-139085951D01*
X162609913Y-139273754D01*
X162611103Y-139712420D01*
X162594143Y-140037981D01*
X162557088Y-140261094D01*
X162497990Y-140392413D01*
X162414903Y-140442595D01*
X162396168Y-140443836D01*
X162366118Y-140409325D01*
X162344692Y-140297695D01*
X162331009Y-140096712D01*
X162324189Y-139794141D01*
X162323176Y-139429708D01*
X162331621Y-138851836D01*
X162353402Y-138397972D01*
X162388529Y-138068019D01*
X162437010Y-137861883D01*
X162487727Y-137784551D01*
X162558037Y-137764984D01*
X162566008Y-137769716D01*
G37*
G36*
X158232639Y-140163066D02*
G01*
X158201435Y-140194270D01*
X158170231Y-140163066D01*
X158201435Y-140131862D01*
X158232639Y-140163066D01*
G37*
G36*
X171173224Y-104617528D02*
G01*
X171194966Y-104775124D01*
X171215877Y-105006897D01*
X171230680Y-105239976D01*
X171260916Y-105624309D01*
X171305166Y-105917261D01*
X171360959Y-106102785D01*
X171364845Y-106110587D01*
X171436105Y-106300546D01*
X171461488Y-106482357D01*
X171437415Y-106613477D01*
X171409770Y-106644437D01*
X171334791Y-106627319D01*
X171227692Y-106540338D01*
X171224656Y-106537130D01*
X171051475Y-106271710D01*
X170946776Y-105936003D01*
X170922181Y-105570831D01*
X170928144Y-105495498D01*
X170963115Y-105238156D01*
X171010189Y-104986426D01*
X171062276Y-104769755D01*
X171112286Y-104617593D01*
X171153130Y-104559388D01*
X171153515Y-104559380D01*
X171173224Y-104617528D01*
G37*
%TD*%
D12*
%TO.C,SW45*%
X-59125575Y-65438492D03*
X-52430980Y-64039746D03*
%TD*%
%TO.C,SW8*%
X86749103Y-45043921D03*
X93443698Y-43645175D03*
%TD*%
%TO.C,SW20*%
X464186Y-56601897D03*
X7158781Y-55203151D03*
%TD*%
%TO.C,SW66*%
X-46980982Y-106267665D03*
X-40286387Y-104868919D03*
%TD*%
D13*
%TO.C,SW42*%
X228353535Y-89487629D03*
X234165998Y-85883551D03*
%TD*%
D12*
%TO.C,SW75*%
X129004956Y-134512806D03*
X135699551Y-133114060D03*
%TD*%
%TO.C,SW69*%
X16353216Y-115165101D03*
X23047811Y-113766355D03*
%TD*%
D13*
%TO.C,SW94*%
X297265063Y-41486015D03*
X303077526Y-37881937D03*
%TD*%
D12*
%TO.C,SW4*%
X3772184Y-37841310D03*
X10466779Y-36442564D03*
%TD*%
D14*
%TO.C,SW89*%
X213359141Y-157410822D03*
X218040745Y-152425174D03*
%TD*%
D12*
%TO.C,SW63*%
X-24912397Y-90815075D03*
X-18217802Y-89416329D03*
%TD*%
D13*
%TO.C,SW14*%
X221737539Y-51966454D03*
X227550002Y-48362376D03*
%TD*%
%TO.C,SW100*%
X307189057Y-97767778D03*
X313001520Y-94163700D03*
%TD*%
%TO.C,SW58*%
X231661533Y-108248217D03*
X237473996Y-104644139D03*
%TD*%
%TO.C,SW29*%
X206681909Y-76286310D03*
X212494372Y-72682232D03*
%TD*%
D12*
%TO.C,SW74*%
X110244368Y-131204808D03*
X116938963Y-129806062D03*
%TD*%
D13*
%TO.C,SW77*%
X216605903Y-132568073D03*
X222418366Y-128963995D03*
%TD*%
D15*
%TO.C,SW86*%
X114254299Y-153953172D03*
X121082804Y-154334776D03*
%TD*%
D12*
%TO.C,SW2*%
X-33748991Y-31225314D03*
X-27054396Y-29826568D03*
%TD*%
%TO.C,SW11*%
X142236947Y-59470455D03*
X148931542Y-58071709D03*
%TD*%
%TO.C,SW73*%
X91880740Y-125645540D03*
X98575335Y-124246794D03*
%TD*%
%TO.C,SW33*%
X22969212Y-77643926D03*
X29663807Y-76245180D03*
%TD*%
%TO.C,SW3*%
X-14988404Y-34533312D03*
X-8293809Y-33134566D03*
%TD*%
D13*
%TO.C,SW40*%
X191229319Y-98354895D03*
X197041782Y-94750817D03*
%TD*%
D12*
%TO.C,SW52*%
X76825110Y-101325684D03*
X83519705Y-99926938D03*
%TD*%
D13*
%TO.C,SW96*%
X300573061Y-60246603D03*
X306385524Y-56642525D03*
%TD*%
%TO.C,SW31*%
X243409165Y-65167773D03*
X249221628Y-61563695D03*
%TD*%
%TO.C,SW59*%
X250025161Y-102688948D03*
X255837624Y-99084870D03*
%TD*%
D12*
%TO.C,SW81*%
X13045219Y-133925689D03*
X19739814Y-132526943D03*
%TD*%
%TO.C,SW7*%
X67591556Y-43987193D03*
X74286151Y-42588447D03*
%TD*%
%TO.C,SW18*%
X-37056989Y-49985902D03*
X-30362394Y-48587156D03*
%TD*%
%TO.C,SW10*%
X123476359Y-56162457D03*
X130170954Y-54763711D03*
%TD*%
D13*
%TO.C,SW79*%
X253333159Y-121449536D03*
X259145622Y-117845458D03*
%TD*%
D12*
%TO.C,SW37*%
X98496736Y-88124364D03*
X105191331Y-86725618D03*
%TD*%
D13*
%TO.C,SW78*%
X234969531Y-127008804D03*
X240781994Y-123404726D03*
%TD*%
%TO.C,SW43*%
X246717163Y-83928361D03*
X252529626Y-80324283D03*
%TD*%
%TO.C,SW41*%
X209989907Y-95046897D03*
X215802370Y-91442819D03*
%TD*%
%TO.C,SW101*%
X291736467Y-119836364D03*
X297548930Y-116232286D03*
%TD*%
%TO.C,SW16*%
X259258715Y-45350458D03*
X265071178Y-41746380D03*
%TD*%
D12*
%TO.C,SW27*%
X138928949Y-78231043D03*
X145623544Y-76832297D03*
%TD*%
%TO.C,SW23*%
X64283558Y-62747781D03*
X70978153Y-61349035D03*
%TD*%
%TO.C,SW67*%
X-28220395Y-109575663D03*
X-21525800Y-108176917D03*
%TD*%
%TO.C,SW5*%
X29585208Y-40122751D03*
X36279803Y-38724005D03*
%TD*%
D13*
%TO.C,SW95*%
X281812473Y-63554601D03*
X287624936Y-59950523D03*
%TD*%
D12*
%TO.C,SW39*%
X135620951Y-96991630D03*
X142315546Y-95592884D03*
%TD*%
%TO.C,SW21*%
X26277210Y-58883338D03*
X32971805Y-57484592D03*
%TD*%
D13*
%TO.C,SW91*%
X256641156Y-140210124D03*
X262453619Y-136606046D03*
%TD*%
D12*
%TO.C,SW65*%
X-65741570Y-102959667D03*
X-59046975Y-101560921D03*
%TD*%
D13*
%TO.C,SW98*%
X303881059Y-79007191D03*
X309693522Y-75403113D03*
%TD*%
%TO.C,SW103*%
X295044464Y-138596952D03*
X300856927Y-134992874D03*
%TD*%
D12*
%TO.C,SW82*%
X31805806Y-137233687D03*
X38500401Y-135834941D03*
%TD*%
%TO.C,SW36*%
X80133108Y-82565096D03*
X86827703Y-81166350D03*
%TD*%
%TO.C,SW83*%
X51051567Y-137790132D03*
X57746162Y-136391386D03*
%TD*%
D13*
%TO.C,SW97*%
X285120471Y-82315188D03*
X290932934Y-78711110D03*
%TD*%
%TO.C,SW92*%
X275798704Y-139153396D03*
X281611167Y-135549318D03*
%TD*%
D15*
%TO.C,SW87*%
X135958586Y-163970264D03*
X142787091Y-164351868D03*
%TD*%
D12*
%TO.C,SW50*%
X38421802Y-99712511D03*
X45116397Y-98313765D03*
%TD*%
D13*
%TO.C,SW32*%
X262566713Y-64111046D03*
X268379176Y-60506968D03*
%TD*%
%TO.C,SW93*%
X278504476Y-44794013D03*
X284316939Y-41189935D03*
%TD*%
D12*
%TO.C,SW55*%
X132312954Y-115752218D03*
X139007549Y-114353472D03*
%TD*%
%TO.C,SW6*%
X48345795Y-43430748D03*
X55040390Y-42032002D03*
%TD*%
D13*
%TO.C,SW104*%
X313805052Y-135288954D03*
X319617515Y-131684876D03*
%TD*%
%TO.C,SW44*%
X265874710Y-82871633D03*
X271687173Y-79267555D03*
%TD*%
D12*
%TO.C,SW47*%
X-21604399Y-72054487D03*
X-14909804Y-70655741D03*
%TD*%
D13*
%TO.C,SW13*%
X203373911Y-57525722D03*
X209186374Y-53921644D03*
%TD*%
D12*
%TO.C,SW22*%
X45037798Y-62191336D03*
X51732393Y-60792590D03*
%TD*%
%TO.C,SW64*%
X-6151809Y-94123073D03*
X542786Y-92724327D03*
%TD*%
%TO.C,SW38*%
X116860364Y-93683633D03*
X123554959Y-92284887D03*
%TD*%
D13*
%TO.C,SW12*%
X184613324Y-60833720D03*
X190425787Y-57229642D03*
%TD*%
D12*
%TO.C,SW26*%
X120168362Y-74923045D03*
X126862957Y-73524299D03*
%TD*%
%TO.C,SW25*%
X101804734Y-69363777D03*
X108499329Y-67965031D03*
%TD*%
%TO.C,SW61*%
X-62433572Y-84199079D03*
X-55738977Y-82800333D03*
%TD*%
%TO.C,SW53*%
X95188738Y-106884952D03*
X101883333Y-105486206D03*
%TD*%
%TO.C,SW9*%
X105112731Y-50603189D03*
X111807326Y-49204443D03*
%TD*%
%TO.C,SW1*%
X-52509579Y-27917316D03*
X-45814984Y-26518570D03*
%TD*%
%TO.C,SW49*%
X19661214Y-96404514D03*
X26355809Y-95005768D03*
%TD*%
%TO.C,SW24*%
X83441106Y-63804508D03*
X90135701Y-62405762D03*
%TD*%
D13*
%TO.C,SW28*%
X187921322Y-79594307D03*
X193733785Y-75990229D03*
%TD*%
%TO.C,SW102*%
X310497054Y-116528366D03*
X316309517Y-112924288D03*
%TD*%
D12*
%TO.C,SW19*%
X-18296401Y-53293899D03*
X-11601806Y-51895153D03*
%TD*%
%TO.C,SW17*%
X-55817577Y-46677904D03*
X-49122982Y-45279158D03*
%TD*%
D13*
%TO.C,SW15*%
X240101167Y-46407185D03*
X245913630Y-42803107D03*
%TD*%
D12*
%TO.C,SW84*%
X70209114Y-138846859D03*
X76903709Y-137448113D03*
%TD*%
%TO.C,SW72*%
X73517112Y-120086271D03*
X80211707Y-118687525D03*
%TD*%
%TO.C,SW68*%
X-9459807Y-112883660D03*
X-2765212Y-111484914D03*
%TD*%
%TO.C,SW62*%
X-43672985Y-87507077D03*
X-36978390Y-86108331D03*
%TD*%
D13*
%TO.C,SW57*%
X213297905Y-113807485D03*
X219110368Y-110203407D03*
%TD*%
D12*
%TO.C,SW54*%
X113552366Y-112444220D03*
X120246961Y-111045474D03*
%TD*%
D13*
%TO.C,SW56*%
X194537317Y-117115483D03*
X200349780Y-113511405D03*
%TD*%
D12*
%TO.C,SW85*%
X88175783Y-146657398D03*
X94870378Y-145258652D03*
%TD*%
D13*
%TO.C,SW99*%
X288428469Y-101075776D03*
X294240932Y-97471698D03*
%TD*%
D12*
%TO.C,SW51*%
X57667563Y-100268956D03*
X64362158Y-98870210D03*
%TD*%
%TO.C,SW34*%
X41729800Y-80951924D03*
X48424395Y-79553178D03*
%TD*%
D14*
%TO.C,SW88*%
X191784102Y-167436715D03*
X196465706Y-162451067D03*
%TD*%
D13*
%TO.C,SW30*%
X225045537Y-70727041D03*
X230858000Y-67122963D03*
%TD*%
%TO.C,SW76*%
X197845315Y-135876070D03*
X203657778Y-132271992D03*
%TD*%
D12*
%TO.C,SW48*%
X-2843812Y-75362485D03*
X3850783Y-73963739D03*
%TD*%
D13*
%TO.C,SW60*%
X269182708Y-101632221D03*
X274995171Y-98028143D03*
%TD*%
D12*
%TO.C,SW71*%
X54359565Y-119029544D03*
X61054160Y-117630798D03*
%TD*%
%TO.C,SW46*%
X-40364987Y-68746489D03*
X-33670392Y-67347743D03*
%TD*%
%TO.C,SW70*%
X35113804Y-118473099D03*
X41808399Y-117074353D03*
%TD*%
D13*
%TO.C,SW90*%
X238277528Y-145769392D03*
X244089991Y-142165314D03*
%TD*%
%TO.C,SW80*%
X272490706Y-120392809D03*
X278303169Y-116788731D03*
%TD*%
D12*
%TO.C,SW35*%
X60975560Y-81508369D03*
X67670155Y-80109623D03*
%TD*%
M02*
