%TF.GenerationSoftware,KiCad,Pcbnew,(6.0.4)*%
%TF.CreationDate,2022-12-22T15:18:18-05:00*%
%TF.ProjectId,atreuskeypad,61747265-7573-46b6-9579-7061642e6b69,rev?*%
%TF.SameCoordinates,Original*%
%TF.FileFunction,Paste,Bot*%
%TF.FilePolarity,Positive*%
%FSLAX46Y46*%
G04 Gerber Fmt 4.6, Leading zero omitted, Abs format (unit mm)*
G04 Created by KiCad (PCBNEW (6.0.4)) date 2022-12-22 15:18:18*
%MOMM*%
%LPD*%
G01*
G04 APERTURE LIST*
G04 Aperture macros list*
%AMRotRect*
0 Rectangle, with rotation*
0 The origin of the aperture is its center*
0 $1 length*
0 $2 width*
0 $3 Rotation angle, in degrees counterclockwise*
0 Add horizontal line*
21,1,$1,$2,0,0,$3*%
G04 Aperture macros list end*
%ADD10RotRect,0.900000X1.200000X190.000000*%
%ADD11RotRect,0.900000X1.200000X170.000000*%
%ADD12RotRect,0.900000X1.200000X205.000000*%
%ADD13RotRect,0.900000X1.200000X155.000000*%
G04 APERTURE END LIST*
D10*
%TO.C,D58*%
X231931216Y-119291154D03*
X228681350Y-119864192D03*
%TD*%
%TO.C,D80*%
X272363429Y-129184476D03*
X269113563Y-129757514D03*
%TD*%
D11*
%TO.C,D39*%
X132097464Y-107460833D03*
X128847598Y-106887795D03*
%TD*%
%TO.C,D55*%
X128789466Y-126221421D03*
X125539600Y-125648383D03*
%TD*%
D12*
%TO.C,D88*%
X194902719Y-178033574D03*
X191911903Y-179428214D03*
%TD*%
D11*
%TO.C,D6*%
X44822308Y-53899951D03*
X41572442Y-53326913D03*
%TD*%
D10*
%TO.C,D44*%
X265747434Y-91663300D03*
X262497568Y-92236338D03*
%TD*%
D11*
%TO.C,D11*%
X138713459Y-69939658D03*
X135463593Y-69366620D03*
%TD*%
%TO.C,D45*%
X-62649062Y-75907694D03*
X-65898928Y-75334656D03*
%TD*%
%TO.C,D46*%
X-43888475Y-79215692D03*
X-47138341Y-78642654D03*
%TD*%
%TO.C,D52*%
X73301622Y-111794886D03*
X70051756Y-111221848D03*
%TD*%
D10*
%TO.C,D99*%
X288212979Y-109367161D03*
X284963113Y-109940199D03*
%TD*%
%TO.C,D103*%
X294702919Y-146910563D03*
X291453053Y-147483601D03*
%TD*%
D11*
%TO.C,D50*%
X34898314Y-110181714D03*
X31648448Y-109608676D03*
%TD*%
D10*
%TO.C,D60*%
X269055432Y-110423888D03*
X265805566Y-110996926D03*
%TD*%
%TO.C,D31*%
X243678848Y-76210710D03*
X240428982Y-76783748D03*
%TD*%
%TO.C,D16*%
X259131438Y-54142125D03*
X255881572Y-54715163D03*
%TD*%
%TO.C,D42*%
X228623218Y-100530566D03*
X225373352Y-101103604D03*
%TD*%
%TO.C,D97*%
X284904981Y-90606573D03*
X281655115Y-91179611D03*
%TD*%
%TO.C,D76*%
X198114998Y-146919008D03*
X194865132Y-147492046D03*
%TD*%
D11*
%TO.C,D10*%
X119952872Y-66631660D03*
X116703006Y-66058622D03*
%TD*%
%TO.C,D27*%
X135405461Y-88700245D03*
X132155595Y-88127207D03*
%TD*%
%TO.C,D18*%
X-40580477Y-60455104D03*
X-43830343Y-59882066D03*
%TD*%
%TO.C,D4*%
X292803Y-48060371D03*
X-2957063Y-47487333D03*
%TD*%
%TO.C,D54*%
X110028878Y-122913423D03*
X106779012Y-122340385D03*
%TD*%
%TO.C,D83*%
X47528079Y-148259334D03*
X44278213Y-147686296D03*
%TD*%
%TO.C,D82*%
X28282319Y-147702890D03*
X25032453Y-147129852D03*
%TD*%
D10*
%TO.C,D93*%
X278288986Y-53085398D03*
X275039120Y-53658436D03*
%TD*%
D11*
%TO.C,D73*%
X88357252Y-136114742D03*
X85107386Y-135541704D03*
%TD*%
D12*
%TO.C,D89*%
X216477757Y-168007681D03*
X213486941Y-169402321D03*
%TD*%
D10*
%TO.C,D13*%
X203599488Y-68318518D03*
X200349622Y-68891556D03*
%TD*%
D11*
%TO.C,D37*%
X94973248Y-98593567D03*
X91723382Y-98020529D03*
%TD*%
D10*
%TO.C,D98*%
X304150742Y-90050128D03*
X300900876Y-90623166D03*
%TD*%
%TO.C,D102*%
X310766738Y-127571303D03*
X307516872Y-128144341D03*
%TD*%
D11*
%TO.C,D69*%
X12829729Y-125634304D03*
X9579863Y-125061266D03*
%TD*%
D10*
%TO.C,D101*%
X291476870Y-127877607D03*
X288227004Y-128450645D03*
%TD*%
D11*
%TO.C,D51*%
X54144075Y-110738159D03*
X50894209Y-110165121D03*
%TD*%
D10*
%TO.C,D32*%
X262439436Y-72902713D03*
X259189570Y-73475751D03*
%TD*%
D11*
%TO.C,D34*%
X38206312Y-91421126D03*
X34956446Y-90848088D03*
%TD*%
%TO.C,D81*%
X9521731Y-144394892D03*
X6271865Y-143821854D03*
%TD*%
D10*
%TO.C,D77*%
X216875586Y-143611010D03*
X213625720Y-144184048D03*
%TD*%
D11*
%TO.C,D53*%
X91665250Y-117354155D03*
X88415384Y-116781117D03*
%TD*%
%TO.C,D35*%
X57452073Y-91977571D03*
X54202207Y-91404533D03*
%TD*%
D13*
%TO.C,D87*%
X130019408Y-173163320D03*
X127028592Y-171768680D03*
%TD*%
D11*
%TO.C,D64*%
X-9675297Y-104592275D03*
X-12925163Y-104019237D03*
%TD*%
%TO.C,D66*%
X-50504470Y-116736867D03*
X-53754336Y-116163829D03*
%TD*%
%TO.C,D63*%
X-28435885Y-101284278D03*
X-31685751Y-100711240D03*
%TD*%
D10*
%TO.C,D30*%
X225712180Y-84021249D03*
X222462314Y-84594287D03*
%TD*%
%TO.C,D56*%
X194807000Y-128158420D03*
X191557134Y-128731458D03*
%TD*%
D11*
%TO.C,D70*%
X31590316Y-128942302D03*
X28340450Y-128369264D03*
%TD*%
%TO.C,D74*%
X106720880Y-141674011D03*
X103471014Y-141100973D03*
%TD*%
%TO.C,D38*%
X113336876Y-104152835D03*
X110087010Y-103579797D03*
%TD*%
D10*
%TO.C,D90*%
X238547212Y-156812329D03*
X235297346Y-157385367D03*
%TD*%
D11*
%TO.C,D26*%
X116644874Y-85392248D03*
X113395008Y-84819210D03*
%TD*%
%TO.C,D85*%
X85049255Y-154875330D03*
X81799389Y-154302292D03*
%TD*%
%TO.C,D62*%
X-47196472Y-97976280D03*
X-50446338Y-97403242D03*
%TD*%
%TO.C,D48*%
X-6367299Y-85831688D03*
X-9617165Y-85258650D03*
%TD*%
%TO.C,D3*%
X-18511891Y-45002514D03*
X-21761757Y-44429476D03*
%TD*%
D10*
%TO.C,D79*%
X253602842Y-132492473D03*
X250352976Y-133065511D03*
%TD*%
%TO.C,D29*%
X206951593Y-87329247D03*
X203701727Y-87902285D03*
%TD*%
D11*
%TO.C,D21*%
X22753722Y-69352541D03*
X19503856Y-68779503D03*
%TD*%
%TO.C,D5*%
X25935664Y-50569726D03*
X22685798Y-49996688D03*
%TD*%
%TO.C,D61*%
X-65957060Y-94668282D03*
X-69206926Y-94095244D03*
%TD*%
D10*
%TO.C,D12*%
X184883007Y-71876657D03*
X181633141Y-72449695D03*
%TD*%
D11*
%TO.C,D19*%
X-21819889Y-63763102D03*
X-25069755Y-63190064D03*
%TD*%
%TO.C,D8*%
X83225616Y-55513123D03*
X79975750Y-54940085D03*
%TD*%
%TO.C,D47*%
X-25127887Y-82523690D03*
X-28377753Y-81950652D03*
%TD*%
%TO.C,D65*%
X-69265058Y-113428870D03*
X-72514924Y-112855832D03*
%TD*%
D10*
%TO.C,D57*%
X213567588Y-124850422D03*
X210317722Y-125423460D03*
%TD*%
%TO.C,D94*%
X297534746Y-52528953D03*
X294284880Y-53101991D03*
%TD*%
D11*
%TO.C,D25*%
X98281246Y-79832979D03*
X95031380Y-79259941D03*
%TD*%
%TO.C,D67*%
X-31743883Y-120044865D03*
X-34993749Y-119471827D03*
%TD*%
%TO.C,D33*%
X19445724Y-88113129D03*
X16195858Y-87540091D03*
%TD*%
D10*
%TO.C,D100*%
X307582826Y-108788836D03*
X304332960Y-109361874D03*
%TD*%
%TO.C,D59*%
X250294844Y-113731886D03*
X247044978Y-114304924D03*
%TD*%
D11*
%TO.C,D84*%
X66685627Y-149316062D03*
X63435761Y-148743024D03*
%TD*%
%TO.C,D7*%
X64068068Y-54456396D03*
X60818202Y-53883358D03*
%TD*%
%TO.C,D9*%
X101589244Y-61072392D03*
X98339378Y-60499354D03*
%TD*%
D10*
%TO.C,D91*%
X256910840Y-151253061D03*
X253660974Y-151826099D03*
%TD*%
%TO.C,D92*%
X275671427Y-147945063D03*
X272421561Y-148518101D03*
%TD*%
D11*
%TO.C,D68*%
X-12983295Y-123352863D03*
X-16233161Y-122779825D03*
%TD*%
D10*
%TO.C,D43*%
X246986846Y-94971298D03*
X243736980Y-95544336D03*
%TD*%
D11*
%TO.C,D49*%
X16137726Y-106873716D03*
X12887860Y-106300678D03*
%TD*%
%TO.C,D72*%
X69993625Y-130555474D03*
X66743759Y-129982436D03*
%TD*%
D10*
%TO.C,D78*%
X235239214Y-138051742D03*
X231989348Y-138624780D03*
%TD*%
D11*
%TO.C,D24*%
X79917618Y-74273711D03*
X76667752Y-73700673D03*
%TD*%
%TO.C,D75*%
X125481468Y-144982008D03*
X122231602Y-144408970D03*
%TD*%
D10*
%TO.C,D40*%
X191499003Y-109397832D03*
X188249137Y-109970870D03*
%TD*%
D11*
%TO.C,D1*%
X-56033067Y-38386519D03*
X-59282933Y-37813481D03*
%TD*%
%TO.C,D36*%
X76609620Y-93034299D03*
X73359754Y-92461261D03*
%TD*%
%TO.C,D17*%
X-59341065Y-57147107D03*
X-62590931Y-56574069D03*
%TD*%
D10*
%TO.C,D96*%
X300842744Y-71289540D03*
X297592878Y-71862578D03*
%TD*%
D13*
%TO.C,D86*%
X108429408Y-163003320D03*
X105438592Y-161608680D03*
%TD*%
D10*
%TO.C,D95*%
X281596984Y-71845985D03*
X278347118Y-72419023D03*
%TD*%
D11*
%TO.C,D22*%
X41514310Y-72660539D03*
X38264444Y-72087501D03*
%TD*%
D10*
%TO.C,D41*%
X210259590Y-106089835D03*
X207009724Y-106662873D03*
%TD*%
D11*
%TO.C,D20*%
X-3059301Y-67071100D03*
X-6309167Y-66498062D03*
%TD*%
D10*
%TO.C,D104*%
X314074735Y-146331891D03*
X310824869Y-146904929D03*
%TD*%
D11*
%TO.C,D71*%
X50836077Y-129498747D03*
X47586211Y-128925709D03*
%TD*%
%TO.C,D2*%
X-37272479Y-41694517D03*
X-40522345Y-41121479D03*
%TD*%
D10*
%TO.C,D14*%
X222007223Y-63009391D03*
X218757357Y-63582429D03*
%TD*%
%TO.C,D28*%
X188191005Y-90637245D03*
X184941139Y-91210283D03*
%TD*%
%TO.C,D15*%
X240370851Y-57450123D03*
X237120985Y-58023161D03*
%TD*%
D11*
%TO.C,D23*%
X60760070Y-73216984D03*
X57510204Y-72643946D03*
%TD*%
M02*
