M48
; DRILL file {KiCad (6.0.4)} date Thu Dec 29 16:55:42 2022
; FORMAT={-:-/ absolute / metric / decimal}
; #@! TF.CreationDate,2022-12-29T16:55:42-05:00
; #@! TF.GenerationSoftware,Kicad,Pcbnew,(6.0.4)
; #@! TF.FileFunction,NonPlated,1,2,NPTH
FMAT,2
METRIC
; #@! TA.AperFunction,NonPlated,NPTH,ComponentDrill
T1C1.900
; #@! TA.AperFunction,NonPlated,NPTH,ComponentDrill
T2C4.000
%
G90
G05
T1
X-67.433Y-105.241
X-64.125Y-86.48
X-60.817Y-67.719
X-57.509Y-48.959
X-57.428Y-107.005
X-54.201Y-30.198
X-54.12Y-88.244
X-50.812Y-69.484
X-48.673Y-108.549
X-47.504Y-50.723
X-45.365Y-89.788
X-44.196Y-31.962
X-42.057Y-71.027
X-38.749Y-52.267
X-38.667Y-110.313
X-35.441Y-33.506
X-35.359Y-91.552
X-32.051Y-72.792
X-29.912Y-111.857
X-28.743Y-54.031
X-26.604Y-93.096
X-25.435Y-35.27
X-23.296Y-74.335
X-19.988Y-55.575
X-19.907Y-113.621
X-16.68Y-36.814
X-16.599Y-94.86
X-13.291Y-76.1
X-11.152Y-115.165
X-9.983Y-57.339
X-7.844Y-96.404
X-6.675Y-38.578
X-4.536Y-77.643
X-1.228Y-58.883
X-1.146Y-116.929
X2.08Y-40.122
X2.162Y-98.168
X5.47Y-79.408
X8.778Y-60.647
X11.353Y-136.207
X12.086Y-41.886
X14.661Y-117.446
X17.969Y-98.685
X21.277Y-79.925
X21.359Y-137.971
X24.585Y-61.164
X24.667Y-119.21
X27.893Y-42.404
X27.975Y-100.45
X30.114Y-139.515
X31.283Y-81.689
X33.422Y-120.754
X34.591Y-62.928
X36.73Y-101.993
X37.899Y-44.168
X40.038Y-83.233
X40.12Y-141.279
X43.346Y-64.472
X43.428Y-122.518
X46.654Y-45.712
X46.736Y-103.758
X49.36Y-140.071
X50.044Y-84.997
X52.668Y-121.31
X53.352Y-66.236
X55.976Y-102.55
X56.66Y-47.476
X59.284Y-83.789
X59.365Y-141.835
X62.592Y-65.029
X62.673Y-123.075
X65.9Y-46.268
X65.981Y-104.314
X68.517Y-141.128
X69.289Y-85.554
X71.825Y-122.367
X72.597Y-66.793
X75.133Y-103.607
X75.905Y-48.032
X78.441Y-84.846
X78.523Y-142.892
X81.749Y-66.085
X81.831Y-124.131
X85.057Y-47.325
X85.139Y-105.371
X86.484Y-148.938
X88.447Y-86.61
X90.189Y-127.926
X91.755Y-67.85
X93.497Y-109.166
X95.063Y-49.089
X96.49Y-150.703
X96.805Y-90.405
X100.113Y-71.645
X100.195Y-129.691
X103.421Y-52.884
X103.503Y-110.93
X106.811Y-92.17
X108.553Y-133.486
X110.119Y-73.409
X111.861Y-114.725
X112.03Y-155.718
X113.427Y-54.648
X115.169Y-95.965
X118.477Y-77.204
X118.558Y-135.25
X121.238Y-160.012
X121.785Y-58.443
X121.866Y-116.489
X125.174Y-97.729
X127.313Y-136.794
X128.482Y-78.968
X130.621Y-118.033
X131.79Y-60.208
X133.734Y-165.736
X133.929Y-99.273
X137.237Y-80.512
X137.319Y-138.558
X140.545Y-61.751
X140.627Y-119.797
X142.942Y-170.029
X143.935Y-101.037
X147.243Y-82.276
X150.551Y-63.516
X183.804Y-63.556
X187.112Y-82.316
X190.42Y-101.077
X191.707Y-170.275
X193.728Y-119.837
X193.809Y-61.791
X197.036Y-138.598
X197.117Y-80.552
X200.425Y-99.313
X200.915Y-165.982
X202.564Y-60.248
X203.733Y-118.073
X205.872Y-79.008
X207.041Y-136.834
X209.18Y-97.769
X212.488Y-116.529
X212.57Y-58.483
X213.282Y-160.25
X215.796Y-135.29
X215.878Y-77.244
X219.186Y-96.005
X220.928Y-54.688
X222.49Y-155.956
X222.494Y-114.765
X224.236Y-73.449
X225.802Y-133.526
X227.544Y-92.21
X230.852Y-110.97
X230.934Y-52.924
X234.16Y-129.731
X234.242Y-71.685
X237.468Y-148.491
X237.55Y-90.445
X239.292Y-49.129
X240.858Y-109.206
X242.6Y-67.89
X244.166Y-127.966
X245.908Y-86.65
X247.474Y-146.727
X249.216Y-105.411
X249.297Y-47.365
X252.524Y-124.171
X252.605Y-66.125
X255.832Y-142.932
X255.913Y-84.886
X258.449Y-48.072
X259.221Y-103.647
X261.757Y-66.833
X262.529Y-122.407
X265.065Y-85.594
X265.837Y-141.168
X268.373Y-104.354
X268.455Y-46.308
X271.681Y-123.115
X271.763Y-65.069
X274.989Y-141.875
X275.071Y-83.829
X277.695Y-47.516
X278.379Y-102.59
X281.003Y-66.277
X281.687Y-121.35
X284.311Y-85.037
X284.995Y-140.111
X287.619Y-103.798
X287.7Y-45.752
X290.927Y-122.558
X291.008Y-64.512
X294.235Y-141.319
X294.316Y-83.273
X296.455Y-44.208
X297.624Y-102.033
X299.763Y-62.969
X300.932Y-120.794
X303.071Y-81.729
X304.24Y-139.555
X306.379Y-100.49
X306.461Y-42.444
X309.687Y-119.25
X309.769Y-61.204
X312.995Y-138.011
X313.077Y-79.965
X316.385Y-98.725
X319.693Y-117.486
X323.001Y-136.247
T2
X-62.431Y-106.123
X-59.123Y-87.362
X-55.815Y-68.602
X-52.507Y-49.841
X-49.199Y-31.08
X-43.67Y-109.431
X-40.362Y-90.67
X-37.054Y-71.909
X-33.746Y-53.149
X-30.438Y-34.388
X-24.909Y-112.739
X-21.601Y-93.978
X-18.293Y-75.217
X-14.985Y-56.457
X-11.677Y-37.696
X-6.149Y-116.047
X-2.841Y-97.286
X0.467Y-78.525
X3.775Y-59.765
X7.083Y-41.004
X16.356Y-137.089
X19.664Y-118.328
X22.972Y-99.568
X26.28Y-80.807
X29.588Y-62.046
X32.896Y-43.286
X35.117Y-140.397
X38.425Y-121.636
X41.733Y-102.876
X45.041Y-84.115
X48.349Y-65.354
X51.657Y-46.594
X54.363Y-140.953
X57.671Y-122.193
X60.979Y-103.432
X64.287Y-84.671
X67.595Y-65.911
X70.903Y-47.15
X73.52Y-142.01
X76.828Y-123.249
X80.136Y-104.489
X83.444Y-85.728
X86.752Y-66.968
X90.06Y-48.207
X91.487Y-149.82
X95.192Y-128.809
X98.5Y-110.048
X101.808Y-91.287
X105.116Y-72.527
X108.424Y-53.766
X113.555Y-134.368
X116.634Y-157.865
X116.863Y-115.607
X120.171Y-96.847
X123.479Y-78.086
X126.787Y-59.325
X132.316Y-137.676
X135.624Y-118.915
X138.338Y-167.882
X138.932Y-100.155
X142.24Y-81.394
X145.548Y-62.633
X188.807Y-62.674
X192.115Y-81.434
X195.423Y-100.195
X196.311Y-168.129
X198.731Y-118.955
X202.038Y-137.716
X207.567Y-59.366
X210.875Y-78.126
X214.183Y-96.887
X217.491Y-115.647
X217.886Y-158.103
X220.799Y-134.408
X225.931Y-53.806
X229.239Y-72.567
X232.547Y-91.327
X235.855Y-110.088
X239.163Y-128.849
X242.471Y-147.609
X244.294Y-48.247
X247.602Y-67.008
X250.91Y-85.768
X254.218Y-104.529
X257.526Y-123.289
X260.834Y-142.05
X263.452Y-47.19
X266.76Y-65.951
X270.068Y-84.711
X273.376Y-103.472
X276.684Y-122.233
X279.992Y-140.993
X282.698Y-46.634
X286.006Y-65.394
X289.314Y-84.155
X292.622Y-102.916
X295.93Y-121.676
X299.238Y-140.437
X301.458Y-43.326
X304.766Y-62.086
X308.074Y-80.847
X311.382Y-99.608
X314.69Y-118.368
X317.998Y-137.129
T0
M30
