%TF.GenerationSoftware,KiCad,Pcbnew,(6.0.4)*%
%TF.CreationDate,2022-12-22T15:18:18-05:00*%
%TF.ProjectId,atreuskeypad,61747265-7573-46b6-9579-7061642e6b69,rev?*%
%TF.SameCoordinates,Original*%
%TF.FileFunction,Soldermask,Top*%
%TF.FilePolarity,Negative*%
%FSLAX46Y46*%
G04 Gerber Fmt 4.6, Leading zero omitted, Abs format (unit mm)*
G04 Created by KiCad (PCBNEW (6.0.4)) date 2022-12-22 15:18:18*
%MOMM*%
%LPD*%
G01*
G04 APERTURE LIST*
%ADD10C,3.800000*%
%ADD11C,2.600000*%
%ADD12C,4.000000*%
%ADD13C,1.900000*%
%ADD14O,2.500000X1.500000*%
%ADD15O,1.500000X2.500000*%
G04 APERTURE END LIST*
D10*
%TO.C,MNT*%
X-41910000Y-44196000D03*
D11*
X-41910000Y-44196000D03*
%TD*%
D10*
%TO.C,MNT*%
X-48514000Y-82042000D03*
D11*
X-48514000Y-82042000D03*
%TD*%
D10*
%TO.C,MNT*%
X30226000Y-113284000D03*
D11*
X30226000Y-113284000D03*
%TD*%
D10*
%TO.C,MNT*%
X40132000Y-56896000D03*
D11*
X40132000Y-56896000D03*
%TD*%
D10*
%TO.C,MNT*%
X307340000Y-131572000D03*
D11*
X307340000Y-131572000D03*
%TD*%
D10*
%TO.C,MNT*%
X294132000Y-56642000D03*
D11*
X294132000Y-56642000D03*
%TD*%
D10*
%TO.C,MNT*%
X202184000Y-150876000D03*
D11*
X202184000Y-150876000D03*
%TD*%
D10*
%TO.C,MNT*%
X132334000Y-151130000D03*
D11*
X132334000Y-151130000D03*
%TD*%
D10*
%TO.C,MNT*%
X153670000Y-87630000D03*
D11*
X153670000Y-87630000D03*
%TD*%
D10*
%TO.C,MNT*%
X180848000Y-87376000D03*
D11*
X180848000Y-87376000D03*
%TD*%
D12*
%TO.C,SW104*%
X317998236Y-137128766D03*
D13*
X312995413Y-138010899D03*
X323001059Y-136246633D03*
%TD*%
D12*
%TO.C,SW103*%
X299237648Y-140436764D03*
D13*
X294234825Y-141318897D03*
X304240471Y-139554631D03*
%TD*%
D12*
%TO.C,SW102*%
X314690238Y-118368178D03*
D13*
X309687415Y-119250311D03*
X319693061Y-117486045D03*
%TD*%
D12*
%TO.C,SW101*%
X295929651Y-121676176D03*
D13*
X290926828Y-122558309D03*
X300932474Y-120794043D03*
%TD*%
D12*
%TO.C,SW100*%
X311382241Y-99607590D03*
D13*
X306379418Y-100489723D03*
X316385064Y-98725457D03*
%TD*%
D12*
%TO.C,SW99*%
X292621653Y-102915588D03*
D13*
X287618830Y-103797721D03*
X297624476Y-102033455D03*
%TD*%
D12*
%TO.C,SW98*%
X308074243Y-80847003D03*
D13*
X303071420Y-81729136D03*
X313077066Y-79964870D03*
%TD*%
D12*
%TO.C,SW97*%
X289313655Y-84155000D03*
D13*
X284310832Y-85037133D03*
X294316478Y-83272867D03*
%TD*%
D12*
%TO.C,SW96*%
X304766245Y-62086415D03*
D13*
X299763422Y-62968548D03*
X309769068Y-61204282D03*
%TD*%
D12*
%TO.C,SW95*%
X286005657Y-65394413D03*
D13*
X281002834Y-66276546D03*
X291008480Y-64512280D03*
%TD*%
D12*
%TO.C,SW94*%
X301458247Y-43325827D03*
D13*
X296455424Y-44207960D03*
X306461070Y-42443694D03*
%TD*%
D12*
%TO.C,SW93*%
X282697660Y-46633825D03*
D13*
X277694837Y-47515958D03*
X287700483Y-45751692D03*
%TD*%
D12*
%TO.C,SW92*%
X279991888Y-140993208D03*
D13*
X274989065Y-141875341D03*
X284994711Y-140111075D03*
%TD*%
D12*
%TO.C,SW91*%
X260834340Y-142049936D03*
D13*
X255831517Y-142932069D03*
X265837163Y-141167803D03*
%TD*%
D12*
%TO.C,SW90*%
X242470712Y-147609204D03*
D13*
X237467889Y-148491337D03*
X247473535Y-146727071D03*
%TD*%
D12*
%TO.C,SW89*%
X217885624Y-158102668D03*
D13*
X213281580Y-160249569D03*
X222489668Y-155955767D03*
%TD*%
D12*
%TO.C,SW86*%
X116633881Y-157865369D03*
D13*
X112029837Y-155718468D03*
X121237925Y-160012270D03*
%TD*%
D12*
%TO.C,SW88*%
X196310585Y-168128561D03*
D13*
X191706541Y-170275462D03*
X200914629Y-165981660D03*
%TD*%
D12*
%TO.C,SW87*%
X138338168Y-167882461D03*
D13*
X133734124Y-165735560D03*
X142942212Y-170029362D03*
%TD*%
D12*
%TO.C,SW85*%
X91486834Y-149820409D03*
D13*
X86484011Y-148938276D03*
X96489657Y-150702542D03*
%TD*%
D12*
%TO.C,SW84*%
X73520165Y-142009870D03*
D13*
X68517342Y-141127737D03*
X78522988Y-142892003D03*
%TD*%
D12*
%TO.C,SW83*%
X54362618Y-140953143D03*
D13*
X49359795Y-140071010D03*
X59365441Y-141835276D03*
%TD*%
D12*
%TO.C,SW82*%
X35116857Y-140396698D03*
D13*
X30114034Y-139514565D03*
X40119680Y-141278831D03*
%TD*%
D12*
%TO.C,SW81*%
X16356270Y-137088700D03*
D13*
X11353447Y-136206567D03*
X21359093Y-137970833D03*
%TD*%
D12*
%TO.C,SW80*%
X276683890Y-122232621D03*
D13*
X271681067Y-123114754D03*
X281686713Y-121350488D03*
%TD*%
D12*
%TO.C,SW79*%
X257526343Y-123289348D03*
D13*
X252523520Y-124171481D03*
X262529166Y-122407215D03*
%TD*%
D12*
%TO.C,SW78*%
X239162715Y-128848616D03*
D13*
X234159892Y-129730749D03*
X244165538Y-127966483D03*
%TD*%
D12*
%TO.C,SW77*%
X220799087Y-134407885D03*
D13*
X215796264Y-135290018D03*
X225801910Y-133525752D03*
%TD*%
D12*
%TO.C,SW76*%
X202038499Y-137715882D03*
D13*
X197035676Y-138598015D03*
X207041322Y-136833749D03*
%TD*%
D12*
%TO.C,SW75*%
X132316007Y-137675817D03*
D13*
X127313184Y-136793684D03*
X137318830Y-138557950D03*
%TD*%
D12*
%TO.C,SW74*%
X113555419Y-134367819D03*
D13*
X108552596Y-133485686D03*
X118558242Y-135249952D03*
%TD*%
D12*
%TO.C,SW73*%
X95191791Y-128808551D03*
D13*
X90188968Y-127926418D03*
X100194614Y-129690684D03*
%TD*%
D12*
%TO.C,SW72*%
X76828163Y-123249282D03*
D13*
X71825340Y-122367149D03*
X81830986Y-124131415D03*
%TD*%
D12*
%TO.C,SW71*%
X57670616Y-122192555D03*
D13*
X52667793Y-121310422D03*
X62673439Y-123074688D03*
%TD*%
D12*
%TO.C,SW70*%
X38424855Y-121636110D03*
D13*
X33422032Y-120753977D03*
X43427678Y-122518243D03*
%TD*%
D12*
%TO.C,SW69*%
X19664267Y-118328112D03*
D13*
X14661444Y-117445979D03*
X24667090Y-119210245D03*
%TD*%
D12*
%TO.C,SW68*%
X-6148756Y-116046671D03*
D13*
X-11151579Y-115164538D03*
X-1145933Y-116928804D03*
%TD*%
D12*
%TO.C,SW67*%
X-24909344Y-112738674D03*
D13*
X-29912167Y-111856541D03*
X-19906521Y-113620807D03*
%TD*%
D12*
%TO.C,SW66*%
X-43669931Y-109430676D03*
D13*
X-48672754Y-108548543D03*
X-38667108Y-110312809D03*
%TD*%
D12*
%TO.C,SW65*%
X-62430519Y-106122678D03*
D13*
X-67433342Y-105240545D03*
X-57427696Y-107004811D03*
%TD*%
D12*
%TO.C,SW64*%
X-2840758Y-97286084D03*
D13*
X-7843581Y-96403951D03*
X2162065Y-98168217D03*
%TD*%
D12*
%TO.C,SW63*%
X-21601346Y-93978086D03*
D13*
X-26604169Y-93095953D03*
X-16598523Y-94860219D03*
%TD*%
D12*
%TO.C,SW62*%
X-40361934Y-90670088D03*
D13*
X-45364757Y-89787955D03*
X-35359111Y-91552221D03*
%TD*%
D12*
%TO.C,SW61*%
X-59122521Y-87362090D03*
D13*
X-64125344Y-86479957D03*
X-54119698Y-88244223D03*
%TD*%
D12*
%TO.C,SW60*%
X273375892Y-103472033D03*
D13*
X268373069Y-104354166D03*
X278378715Y-102589900D03*
%TD*%
D12*
%TO.C,SW59*%
X254218345Y-104528760D03*
D13*
X249215522Y-105410893D03*
X259221168Y-103646627D03*
%TD*%
D12*
%TO.C,SW58*%
X235854717Y-110088029D03*
D13*
X230851894Y-110970162D03*
X240857540Y-109205896D03*
%TD*%
D12*
%TO.C,SW57*%
X217491089Y-115647297D03*
D13*
X212488266Y-116529430D03*
X222493912Y-114765164D03*
%TD*%
D12*
%TO.C,SW56*%
X198730501Y-118955295D03*
D13*
X193727678Y-119837428D03*
X203733324Y-118073162D03*
%TD*%
D12*
%TO.C,SW55*%
X135624005Y-118915229D03*
D13*
X130621182Y-118033096D03*
X140626828Y-119797362D03*
%TD*%
D12*
%TO.C,SW54*%
X116863417Y-115607231D03*
D13*
X111860594Y-114725098D03*
X121866240Y-116489364D03*
%TD*%
D12*
%TO.C,SW53*%
X98499789Y-110047963D03*
D13*
X93496966Y-109165830D03*
X103502612Y-110930096D03*
%TD*%
D12*
%TO.C,SW52*%
X80136161Y-104488695D03*
D13*
X75133338Y-103606562D03*
X85138984Y-105370828D03*
%TD*%
D12*
%TO.C,SW51*%
X60978614Y-103431967D03*
D13*
X55975791Y-102549834D03*
X65981437Y-104314100D03*
%TD*%
D12*
%TO.C,SW50*%
X41732853Y-102875522D03*
D13*
X36730030Y-101993389D03*
X46735676Y-103757655D03*
%TD*%
D12*
%TO.C,SW49*%
X22972265Y-99567525D03*
D13*
X17969442Y-98685392D03*
X27975088Y-100449658D03*
%TD*%
D12*
%TO.C,SW48*%
X467239Y-78525496D03*
D13*
X-4535584Y-77643363D03*
X5470062Y-79407629D03*
%TD*%
D12*
%TO.C,SW47*%
X-18293348Y-75217498D03*
D13*
X-23296171Y-74335365D03*
X-13290525Y-76099631D03*
%TD*%
D12*
%TO.C,SW46*%
X-37053936Y-71909500D03*
D13*
X-42056759Y-71027367D03*
X-32051113Y-72791633D03*
%TD*%
D12*
%TO.C,SW45*%
X-55814524Y-68601503D03*
D13*
X-60817347Y-67719370D03*
X-50811701Y-69483636D03*
%TD*%
D12*
%TO.C,SW44*%
X270067894Y-84711445D03*
D13*
X265065071Y-85593578D03*
X275070717Y-83829312D03*
%TD*%
D12*
%TO.C,SW43*%
X250910347Y-85768173D03*
D13*
X245907524Y-86650306D03*
X255913170Y-84886040D03*
%TD*%
D12*
%TO.C,SW42*%
X232546719Y-91327441D03*
D13*
X227543896Y-92209574D03*
X237549542Y-90445308D03*
%TD*%
D12*
%TO.C,SW41*%
X214183091Y-96886709D03*
D13*
X209180268Y-97768842D03*
X219185914Y-96004576D03*
%TD*%
D12*
%TO.C,SW40*%
X195422503Y-100194707D03*
D13*
X190419680Y-101076840D03*
X200425326Y-99312574D03*
%TD*%
D12*
%TO.C,SW39*%
X138932002Y-100154641D03*
D13*
X133929179Y-99272508D03*
X143934825Y-101036774D03*
%TD*%
D12*
%TO.C,SW38*%
X120171415Y-96846644D03*
D13*
X115168592Y-95964511D03*
X125174238Y-97728777D03*
%TD*%
D12*
%TO.C,SW37*%
X101807787Y-91287375D03*
D13*
X96804964Y-90405242D03*
X106810610Y-92169508D03*
%TD*%
D12*
%TO.C,SW36*%
X83444159Y-85728107D03*
D13*
X78441336Y-84845974D03*
X88446982Y-86610240D03*
%TD*%
D12*
%TO.C,SW35*%
X64286611Y-84671380D03*
D13*
X59283788Y-83789247D03*
X69289434Y-85553513D03*
%TD*%
D12*
%TO.C,SW34*%
X45040851Y-84114935D03*
D13*
X40038028Y-83232802D03*
X50043674Y-84997068D03*
%TD*%
D12*
%TO.C,SW33*%
X26280263Y-80806937D03*
D13*
X21277440Y-79924804D03*
X31283086Y-81689070D03*
%TD*%
D12*
%TO.C,SW32*%
X266759897Y-65950858D03*
D13*
X261757074Y-66832991D03*
X271762720Y-65068725D03*
%TD*%
D12*
%TO.C,SW31*%
X247602349Y-67007585D03*
D13*
X242599526Y-67889718D03*
X252605172Y-66125452D03*
%TD*%
D12*
%TO.C,SW30*%
X229238721Y-72566853D03*
D13*
X224235898Y-73448986D03*
X234241544Y-71684720D03*
%TD*%
D12*
%TO.C,SW29*%
X210875093Y-78126122D03*
D13*
X205872270Y-79008255D03*
X215877916Y-77243989D03*
%TD*%
D12*
%TO.C,SW28*%
X192114506Y-81434119D03*
D13*
X187111683Y-82316252D03*
X197117329Y-80551986D03*
%TD*%
D12*
%TO.C,SW27*%
X142240000Y-81394054D03*
D13*
X137237177Y-80511921D03*
X147242823Y-82276187D03*
%TD*%
D12*
%TO.C,SW26*%
X123479413Y-78086056D03*
D13*
X118476590Y-77203923D03*
X128482236Y-78968189D03*
%TD*%
D12*
%TO.C,SW25*%
X105115785Y-72526788D03*
D13*
X100112962Y-71644655D03*
X110118608Y-73408921D03*
%TD*%
D12*
%TO.C,SW24*%
X86752157Y-66967519D03*
D13*
X81749334Y-66085386D03*
X91754980Y-67849652D03*
%TD*%
D12*
%TO.C,SW23*%
X67594609Y-65910792D03*
D13*
X62591786Y-65028659D03*
X72597432Y-66792925D03*
%TD*%
D12*
%TO.C,SW22*%
X48348849Y-65354347D03*
D13*
X43346026Y-64472214D03*
X53351672Y-66236480D03*
%TD*%
D12*
%TO.C,SW21*%
X29588261Y-62046349D03*
D13*
X24585438Y-61164216D03*
X34591084Y-62928482D03*
%TD*%
D12*
%TO.C,SW20*%
X3775237Y-59764908D03*
D13*
X-1227586Y-58882775D03*
X8778060Y-60647041D03*
%TD*%
D12*
%TO.C,SW19*%
X-14985350Y-56456910D03*
D13*
X-19988173Y-55574777D03*
X-9982527Y-57339043D03*
%TD*%
D12*
%TO.C,SW18*%
X-33745938Y-53148913D03*
D13*
X-38748761Y-52266780D03*
X-28743115Y-54031046D03*
%TD*%
D12*
%TO.C,SW17*%
X-52506526Y-49840915D03*
D13*
X-57509349Y-48958782D03*
X-47503703Y-50723048D03*
%TD*%
D12*
%TO.C,SW16*%
X263451899Y-47190270D03*
D13*
X258449076Y-48072403D03*
X268454722Y-46308137D03*
%TD*%
D12*
%TO.C,SW15*%
X244294351Y-48246997D03*
D13*
X239291528Y-49129130D03*
X249297174Y-47364864D03*
%TD*%
D12*
%TO.C,SW14*%
X225930723Y-53806266D03*
D13*
X220927900Y-54688399D03*
X230933546Y-52924133D03*
%TD*%
D12*
%TO.C,SW13*%
X207567095Y-59365534D03*
D13*
X202564272Y-60247667D03*
X212569918Y-58483401D03*
%TD*%
D12*
%TO.C,SW12*%
X188806508Y-62673532D03*
D13*
X183803685Y-63555665D03*
X193809331Y-61791399D03*
%TD*%
D12*
%TO.C,SW11*%
X145547998Y-62633466D03*
D13*
X140545175Y-61751333D03*
X150550821Y-63515599D03*
%TD*%
D12*
%TO.C,SW10*%
X126787410Y-59325468D03*
D13*
X121784587Y-58443335D03*
X131790233Y-60207601D03*
%TD*%
D12*
%TO.C,SW9*%
X108423782Y-53766200D03*
D13*
X103420959Y-52884067D03*
X113426605Y-54648333D03*
%TD*%
D12*
%TO.C,SW8*%
X90060154Y-48206932D03*
D13*
X85057331Y-47324799D03*
X95062977Y-49089065D03*
%TD*%
D12*
%TO.C,SW7*%
X70902607Y-47150204D03*
D13*
X65899784Y-46268071D03*
X75905430Y-48032337D03*
%TD*%
D12*
%TO.C,SW6*%
X51656846Y-46593759D03*
D13*
X46654023Y-45711626D03*
X56659669Y-47475892D03*
%TD*%
D12*
%TO.C,SW5*%
X32896259Y-43285762D03*
D13*
X27893436Y-42403629D03*
X37899082Y-44167895D03*
%TD*%
D12*
%TO.C,SW4*%
X7083235Y-41004321D03*
D13*
X2080412Y-40122188D03*
X12086058Y-41886454D03*
%TD*%
D12*
%TO.C,SW3*%
X-11677353Y-37696323D03*
D13*
X-16680176Y-36814190D03*
X-6674530Y-38578456D03*
%TD*%
D12*
%TO.C,SW2*%
X-30437940Y-34388325D03*
D13*
X-35440763Y-33506192D03*
X-25435117Y-35270458D03*
%TD*%
D12*
%TO.C,SW1*%
X-49198528Y-31080327D03*
D13*
X-54201351Y-30198194D03*
X-44195705Y-31962460D03*
%TD*%
D14*
%TO.C,U1*%
X175252000Y-54610000D03*
X175252000Y-57150000D03*
X175252000Y-59690000D03*
X175252000Y-62230000D03*
X175252000Y-64770000D03*
X175252000Y-67310000D03*
X175252000Y-69850000D03*
X175252000Y-72390000D03*
X175252000Y-74930000D03*
D15*
X172212000Y-75430000D03*
X169672000Y-75430000D03*
X167132000Y-75430000D03*
X164592000Y-75430000D03*
X162052000Y-75430000D03*
D14*
X159012000Y-74930000D03*
X159012000Y-72390000D03*
X159012000Y-69850000D03*
X159012000Y-67310000D03*
X159012000Y-64770000D03*
X159012000Y-62230000D03*
X159012000Y-59690000D03*
X159012000Y-57150000D03*
X159012000Y-54610000D03*
%TD*%
M02*
