M48
; DRILL file {KiCad (6.0.4)} date Thu Dec 29 16:55:42 2022
; FORMAT={-:-/ absolute / metric / decimal}
; #@! TF.CreationDate,2022-12-29T16:55:42-05:00
; #@! TF.GenerationSoftware,Kicad,Pcbnew,(6.0.4)
; #@! TF.FileFunction,Plated,1,2,PTH
FMAT,2
METRIC
; #@! TA.AperFunction,Plated,PTH,ViaDrill
T1C0.400
; #@! TA.AperFunction,Plated,PTH,ComponentDrill
T2C0.800
; #@! TA.AperFunction,Plated,PTH,ComponentDrill
T3C2.200
%
G90
G05
T1
X35.566Y-134.299
X90.17Y-71.374
X130.556Y-75.184
X138.708Y-73.636
X139.732Y-124.968
X141.384Y-74.262
X141.711Y-130.81
X143.51Y-75.184
X147.828Y-69.088
X148.844Y-131.984
X150.106Y-71.12
X150.114Y-69.088
X150.368Y-98.044
X157.226Y-76.2
X161.798Y-78.486
X161.798Y-79.502
X161.798Y-80.772
X161.798Y-81.788
X161.798Y-83.058
X161.798Y-84.074
X161.798Y-85.074
X164.088Y-82.029
X177.08Y-76.72
X177.86Y-62.1
X182.118Y-90.755
X183.134Y-91.479
X192.786Y-108.966
X193.009Y-67.818
X194.564Y-84.836
X195.068Y-90.17
X195.072Y-126.238
X197.612Y-144.526
T3
X-48.514Y-82.042
X-41.91Y-44.196
X30.226Y-113.284
X40.132Y-56.896
X132.334Y-151.13
X153.67Y-87.63
X180.848Y-87.376
X202.184Y-150.876
X294.132Y-56.642
X307.34Y-131.572
T2
X-65.939Y-102.925G85X-65.545Y-102.994
G05
X-62.631Y-84.164G85X-62.237Y-84.234
G05
X-59.323Y-65.404G85X-58.929Y-65.473
G05
X-59.244Y-101.526G85X-58.85Y-101.596
G05
X-56.015Y-46.643G85X-55.621Y-46.713
G05
X-55.936Y-82.766G85X-55.542Y-82.835
G05
X-52.707Y-27.883G85X-52.313Y-27.952
G05
X-52.628Y-64.005G85X-52.234Y-64.074
G05
X-49.32Y-45.244G85X-48.926Y-45.314
G05
X-47.178Y-106.233G85X-46.784Y-106.302
G05
X-46.012Y-26.484G85X-45.618Y-26.553
G05
X-43.87Y-87.472G85X-43.476Y-87.542
G05
X-40.562Y-68.712G85X-40.168Y-68.781
G05
X-40.483Y-104.834G85X-40.089Y-104.904
G05
X-37.254Y-49.951G85X-36.86Y-50.021
G05
X-37.175Y-86.074G85X-36.781Y-86.143
G05
X-33.946Y-31.191G85X-33.552Y-31.26
G05
X-33.867Y-67.313G85X-33.473Y-67.382
G05
X-30.559Y-48.552G85X-30.165Y-48.622
G05
X-28.417Y-109.541G85X-28.023Y-109.61
G05
X-27.251Y-29.792G85X-26.857Y-29.861
G05
X-25.109Y-90.78G85X-24.715Y-90.85
G05
X-21.801Y-72.02G85X-21.407Y-72.089
G05
X-21.723Y-108.142G85X-21.329Y-108.212
G05
X-18.493Y-53.259G85X-18.099Y-53.329
G05
X-18.415Y-89.382G85X-18.021Y-89.451
G05
X-15.185Y-34.499G85X-14.791Y-34.568
G05
X-15.107Y-70.621G85X-14.713Y-70.69
G05
X-11.799Y-51.86G85X-11.405Y-51.93
G05
X-9.657Y-112.849G85X-9.263Y-112.918
G05
X-8.491Y-33.1G85X-8.097Y-33.169
G05
X-6.349Y-94.088G85X-5.955Y-94.158
G05
X-3.041Y-75.328G85X-2.647Y-75.397
G05
X-2.962Y-111.45G85X-2.568Y-111.52
G05
X0.267Y-56.567G85X0.661Y-56.637
G05
X0.346Y-92.69G85X0.74Y-92.759
G05
X3.575Y-37.807G85X3.969Y-37.876
G05
X3.654Y-73.929G85X4.048Y-73.998
G05
X6.962Y-55.168G85X7.356Y-55.238
G05
X10.27Y-36.408G85X10.664Y-36.477
G05
X12.848Y-133.891G85X13.242Y-133.96
G05
X16.156Y-115.13G85X16.55Y-115.2
G05
X19.464Y-96.37G85X19.858Y-96.439
G05
X19.543Y-132.492G85X19.937Y-132.562
G05
X22.772Y-77.609G85X23.166Y-77.679
G05
X22.851Y-113.732G85X23.245Y-113.801
G05
X26.08Y-58.849G85X26.474Y-58.918
G05
X26.159Y-94.971G85X26.553Y-95.04
G05
X29.388Y-40.088G85X29.782Y-40.157
G05
X29.467Y-76.21G85X29.861Y-76.28
G05
X31.609Y-137.199G85X32.003Y-137.268
G05
X32.775Y-57.45G85X33.169Y-57.519
G05
X34.917Y-118.438G85X35.311Y-118.508
G05
X36.083Y-38.689G85X36.477Y-38.759
G05
X38.225Y-99.678G85X38.619Y-99.747
G05
X38.303Y-135.8G85X38.697Y-135.87
G05
X41.533Y-80.917G85X41.927Y-80.987
G05
X41.611Y-117.04G85X42.005Y-117.109
G05
X44.841Y-62.157G85X45.235Y-62.226
G05
X44.919Y-98.279G85X45.313Y-98.348
G05
X48.149Y-43.396G85X48.543Y-43.465
G05
X48.227Y-79.518G85X48.621Y-79.588
G05
X50.855Y-137.755G85X51.249Y-137.825
G05
X51.535Y-60.758G85X51.929Y-60.827
G05
X54.163Y-118.995G85X54.557Y-119.064
G05
X54.843Y-41.997G85X55.237Y-42.067
G05
X57.471Y-100.234G85X57.865Y-100.304
G05
X57.549Y-136.357G85X57.943Y-136.426
G05
X60.779Y-81.474G85X61.173Y-81.543
G05
X60.857Y-117.596G85X61.251Y-117.666
G05
X64.087Y-62.713G85X64.481Y-62.783
G05
X64.165Y-98.835G85X64.559Y-98.905
G05
X67.395Y-43.952G85X67.789Y-44.022
G05
X67.473Y-80.075G85X67.867Y-80.144
G05
X70.012Y-138.812G85X70.406Y-138.882
G05
X70.781Y-61.314G85X71.175Y-61.384
G05
X73.32Y-120.052G85X73.714Y-120.121
G05
X74.089Y-42.554G85X74.483Y-42.623
G05
X76.628Y-101.291G85X77.022Y-101.36
G05
X76.707Y-137.413G85X77.101Y-137.483
G05
X79.936Y-82.53G85X80.33Y-82.6
G05
X80.015Y-118.653G85X80.409Y-118.722
G05
X83.244Y-63.77G85X83.638Y-63.839
G05
X83.323Y-99.892G85X83.717Y-99.962
G05
X86.552Y-45.009G85X86.946Y-45.079
G05
X86.631Y-81.132G85X87.025Y-81.201
G05
X87.979Y-146.623G85X88.373Y-146.692
G05
X89.939Y-62.371G85X90.333Y-62.44
G05
X91.684Y-125.611G85X92.078Y-125.68
G05
X93.247Y-43.61G85X93.641Y-43.68
G05
X94.673Y-145.224G85X95.067Y-145.293
G05
X94.992Y-106.85G85X95.386Y-106.92
G05
X98.3Y-88.09G85X98.694Y-88.159
G05
X98.378Y-124.212G85X98.772Y-124.282
G05
X101.608Y-69.329G85X102.002Y-69.399
G05
X101.686Y-105.451G85X102.08Y-105.521
G05
X104.916Y-50.568G85X105.31Y-50.638
G05
X104.994Y-86.691G85X105.388Y-86.76
G05
X108.302Y-67.93G85X108.696Y-68.0
G05
X110.047Y-131.17G85X110.441Y-131.24
G05
X111.61Y-49.17G85X112.004Y-49.239
G05
X113.355Y-112.409G85X113.749Y-112.479
G05
X114.073Y-153.869G85X114.436Y-154.038
G05
X116.663Y-93.649G85X117.057Y-93.718
G05
X116.742Y-129.771G85X117.136Y-129.841
G05
X119.971Y-74.888G85X120.365Y-74.958
G05
X120.05Y-111.011G85X120.444Y-111.08
G05
X120.902Y-154.25G85X121.264Y-154.419
G05
X123.279Y-56.128G85X123.673Y-56.197
G05
X123.358Y-92.25G85X123.752Y-92.32
G05
X126.666Y-73.49G85X127.06Y-73.559
G05
X128.808Y-134.478G85X129.202Y-134.548
G05
X129.974Y-54.729G85X130.368Y-54.798
G05
X132.116Y-115.717G85X132.51Y-115.787
G05
X135.424Y-96.957G85X135.818Y-97.026
G05
X135.503Y-133.079G85X135.897Y-133.149
G05
X135.777Y-163.886G85X136.14Y-164.055
G05
X138.732Y-78.196G85X139.126Y-78.266
G05
X138.811Y-114.319G85X139.205Y-114.388
G05
X142.04Y-59.436G85X142.434Y-59.505
G05
X142.119Y-95.558G85X142.513Y-95.628
G05
X142.606Y-164.267G85X142.968Y-164.436
G05
X145.427Y-76.798G85X145.821Y-76.867
G05
X148.735Y-58.037G85X149.129Y-58.106
G05
X184.416Y-60.868G85X184.81Y-60.799
G05
X187.724Y-79.629G85X188.118Y-79.56
G05
X190.229Y-57.264G85X190.623Y-57.195
G05
X191.032Y-98.39G85X191.426Y-98.32
G05
X191.603Y-167.521G85X191.965Y-167.352
G05
X193.537Y-76.025G85X193.931Y-75.955
G05
X194.34Y-117.15G85X194.734Y-117.081
G05
X196.284Y-162.536G85X196.647Y-162.367
G05
X196.845Y-94.786G85X197.239Y-94.716
G05
X197.648Y-135.911G85X198.042Y-135.841
G05
X200.153Y-113.546G85X200.547Y-113.477
G05
X203.177Y-57.56G85X203.571Y-57.491
G05
X203.461Y-132.307G85X203.855Y-132.237
G05
X206.485Y-76.321G85X206.879Y-76.252
G05
X208.989Y-53.956G85X209.383Y-53.887
G05
X209.793Y-95.082G85X210.187Y-95.012
G05
X212.297Y-72.717G85X212.691Y-72.648
G05
X213.101Y-113.842G85X213.495Y-113.773
G05
X213.178Y-157.495G85X213.54Y-157.326
G05
X215.605Y-91.478G85X215.999Y-91.408
G05
X216.409Y-132.603G85X216.803Y-132.533
G05
X217.859Y-152.51G85X218.222Y-152.341
G05
X218.913Y-110.238G85X219.307Y-110.169
G05
X221.541Y-52.001G85X221.935Y-51.932
G05
X222.221Y-128.999G85X222.615Y-128.929
G05
X224.849Y-70.762G85X225.242Y-70.692
G05
X227.353Y-48.397G85X227.747Y-48.328
G05
X228.157Y-89.522G85X228.55Y-89.453
G05
X230.661Y-67.158G85X231.055Y-67.088
G05
X231.465Y-108.283G85X231.858Y-108.213
G05
X233.969Y-85.918G85X234.363Y-85.849
G05
X234.773Y-127.044G85X235.166Y-126.974
G05
X237.277Y-104.679G85X237.671Y-104.609
G05
X238.081Y-145.804G85X238.474Y-145.735
G05
X239.904Y-46.442G85X240.298Y-46.372
G05
X240.585Y-123.439G85X240.979Y-123.37
G05
X243.212Y-65.203G85X243.606Y-65.133
G05
X243.893Y-142.2G85X244.287Y-142.131
G05
X245.717Y-42.838G85X246.111Y-42.768
G05
X246.52Y-83.963G85X246.914Y-83.894
G05
X249.025Y-61.598G85X249.419Y-61.529
G05
X249.828Y-102.724G85X250.222Y-102.654
G05
X252.333Y-80.359G85X252.727Y-80.29
G05
X253.136Y-121.484G85X253.53Y-121.415
G05
X255.641Y-99.12G85X256.035Y-99.05
G05
X256.444Y-140.245G85X256.838Y-140.175
G05
X258.949Y-117.88G85X259.343Y-117.811
G05
X259.062Y-45.385G85X259.456Y-45.316
G05
X262.257Y-136.641G85X262.651Y-136.571
G05
X262.37Y-64.146G85X262.764Y-64.076
G05
X264.874Y-41.781G85X265.268Y-41.712
G05
X265.678Y-82.906G85X266.072Y-82.837
G05
X268.182Y-60.542G85X268.576Y-60.472
G05
X268.986Y-101.667G85X269.38Y-101.597
G05
X271.49Y-79.302G85X271.884Y-79.233
G05
X272.294Y-120.428G85X272.688Y-120.358
G05
X274.798Y-98.063G85X275.192Y-97.993
G05
X275.602Y-139.188G85X275.996Y-139.119
G05
X278.106Y-116.823G85X278.5Y-116.754
G05
X278.308Y-44.829G85X278.701Y-44.759
G05
X281.414Y-135.584G85X281.808Y-135.515
G05
X281.616Y-63.589G85X282.009Y-63.52
G05
X284.12Y-41.225G85X284.514Y-41.155
G05
X284.924Y-82.35G85X285.317Y-82.28
G05
X287.428Y-59.985G85X287.822Y-59.916
G05
X288.232Y-101.111G85X288.625Y-101.041
G05
X290.736Y-78.746G85X291.13Y-78.676
G05
X291.54Y-119.871G85X291.933Y-119.802
G05
X294.044Y-97.506G85X294.438Y-97.437
G05
X294.848Y-138.632G85X295.241Y-138.562
G05
X297.068Y-41.521G85X297.462Y-41.451
G05
X297.352Y-116.267G85X297.746Y-116.198
G05
X300.376Y-60.281G85X300.77Y-60.212
G05
X300.66Y-135.028G85X301.054Y-134.958
G05
X302.881Y-37.917G85X303.274Y-37.847
G05
X303.684Y-79.042G85X304.078Y-78.972
G05
X306.189Y-56.677G85X306.582Y-56.608
G05
X306.992Y-97.803G85X307.386Y-97.733
G05
X309.497Y-75.438G85X309.89Y-75.368
G05
X310.3Y-116.563G85X310.694Y-116.494
G05
X312.805Y-94.198G85X313.198Y-94.129
G05
X313.608Y-135.324G85X314.002Y-135.254
G05
X316.113Y-112.959G85X316.506Y-112.89
G05
X319.421Y-131.72G85X319.814Y-131.65
G05
T0
M30
